# Created by Kenney (www.kenney.nl)

mtllib building-farm.mtl

g building-farm

v 0.2513973 0.2 0.1758011 1 1 1
v 0.2763973 0.3 0.1508011 1 1 1
v 0.3307818 0.2 0.1758011 1 1 1
v 0.3057818 0.3 0.1508011 1 1 1
v 0.3410895 0.4 0.08610885 1 1 1
v 0.3160895 0.3 0.1111089 1 1 1
v 0.3410895 0.4 0.1654933 1 1 1
v 0.3160895 0.3 0.1404933 1 1 1
v 0.3410895 0.2 0.08610885 1 1 1
v 0.3410895 0.2 0.1654933 1 1 1
v 0.2513973 0.2 0.07580109 1 1 1
v 0.3307818 0.2 0.07580109 1 1 1
v 0.2763973 0.3 0.1008011 1 1 1
v 0.3057818 0.3 0.1008011 1 1 1
v 0.2410895 0.2 0.08610885 1 1 1
v 0.2660895 0.3 0.1111089 1 1 1
v 0.2410895 0.2 0.1654933 1 1 1
v 0.2660895 0.3 0.1404933 1 1 1
v 0.2513973 0.4 0.07580109 1 1 1
v 0.3307818 0.4 0.07580109 1 1 1
v 0.2410895 0.4 0.08610885 1 1 1
v 0.2410895 0.4 0.1654933 1 1 1
v 0.3307818 0.4 0.1758011 1 1 1
v 0.2513973 0.4 0.1758011 1 1 1
v 0.1211446 0.3 0.1684725 1 1 1
v 0.08232489 0.3 0.2357101 1 1 1
v 0.1302952 0.25 0.2026231 1 1 1
v 0.1164755 0.25 0.2265595 1 1 1
v 0.1211446 0.2 0.1684725 1 1 1
v 0.08232489 0.2 0.2357101 1 1 1
v 0.1445042 0.25 0.2556518 1 1 1
v 0.1205678 0.25 0.2418321 1 1 1
v 0.1536548 0.3 0.2898024 1 1 1
v 0.08641718 0.3 0.2509828 1 1 1
v 0.2077471 0.3 0.2184725 1 1 1
v 0.1735965 0.25 0.2276231 1 1 1
v 0.1689274 0.3 0.2857102 1 1 1
v 0.1597768 0.25 0.2515595 1 1 1
v 0.2077471 0.2 0.2184725 1 1 1
v 0.1689274 0.2 0.2857102 1 1 1
v 0.1536548 0.2 0.2898024 1 1 1
v 0.08641718 0.2 0.2509828 1 1 1
v 0.2036548 0.2 0.2031999 1 1 1
v 0.1695042 0.25 0.2123505 1 1 1
v 0.1364172 0.2 0.1643802 1 1 1
v 0.1455678 0.25 0.1985309 1 1 1
v 0.1364172 0.3 0.1643802 1 1 1
v 0.2036548 0.3 0.2031999 1 1 1
v -0.1006153 0.32 0.2457291 1 1 1
v -0.1723316 0.32 0.2265128 1 1 1
v 0.2631153 0.32 0.03572909 1 1 1
v 0.2823316 0.32 -0.03598723 1 1 1
v 0.07233162 0.32 -0.3997179 1 1 1
v -0.3823317 0.32 -0.1372178 1 1 1
v -0.3631153 0.32 -0.2089342 1 1 1
v 0.0006153099 0.32 -0.4189342 1 1 1
v -0.09820504 0.2 0.2299038 1 1 1
v 0.2482051 0.2 0.02990378 1 1 1
v -0.1665063 0.2 0.2116025 1 1 1
v 0.2665063 0.2 -0.03839749 1 1 1
v -0.3665064 0.2 -0.1348076 1 1 1
v 0.06650631 0.2 -0.3848076 1 1 1
v -0.3482051 0.2 -0.2031088 1 1 1
v -0.001794953 0.2 -0.4031089 1 1 1
v 0.375 0.2 -0.1809401 1 1 1
v 0.375 0.2 0.1809401 1 1 1
v 0.375 0.3 -0.1809401 1 1 1
v 0.375 0.3 0.1809401 1 1 1
v 0.35 0.325 0.1809401 1 1 1
v 0.35 0.2 0.1809401 1 1 1
v 0.4 0.325 0.1809401 1 1 1
v 0.4 0.2 0.1809401 1 1 1
v 0.35 0.2 0.2309401 1 1 1
v 0.35 0.325 0.2309401 1 1 1
v 0.4 0.2 0.2309401 1 1 1
v 0.4 0.325 0.2309401 1 1 1
v 0.35 0.325 -0.2309401 1 1 1
v 0.35 0.2 -0.2309401 1 1 1
v 0.4 0.325 -0.2309401 1 1 1
v 0.4 0.2 -0.2309401 1 1 1
v 0.35 0.2 -0.1809401 1 1 1
v 0.35 0.325 -0.1809401 1 1 1
v 0.4 0.325 -0.1809401 1 1 1
v 0.4 0.2 -0.1809401 1 1 1
v 0.5 0 0.2886751 1 1 1
v 0.5 0 -0.2886751 1 1 1
v 1.276881E-13 0 0.5773503 1 1 1
v -1.271467E-13 0 -0.5773503 1 1 1
v -0.5 0 0.2886751 1 1 1
v -0.5 0 -0.2886751 1 1 1
v 0.5 0.1 0.2886751 1 1 1
v 1.276881E-13 0.1 0.5773503 1 1 1
v -1.271467E-13 0.1 -0.5773503 1 1 1
v 0.5 0.1 -0.2886751 1 1 1
v -0.5 0.1 -0.2886751 1 1 1
v -0.5 0.1 0.2886751 1 1 1
v 0.4 0.2 0.2309401 1 1 1
v 9.384849E-14 0.2 0.4618802 1 1 1
v 0.4 0.2 -0.2309401 1 1 1
v -1.093696E-13 0.2 -0.4618802 1 1 1
v -0.4 0.2 0.2309401 1 1 1
v -0.4 0.2 -0.2309401 1 1 1
v -0.5 0.2 -0.2886751 1 1 1
v -0.5 0.2 0.2886751 1 1 1
v 1.039552E-13 0.1 0.5773503 1 1 1
v 1.039552E-13 0.2 0.5773503 1 1 1
v 0.5 0.2 0.2886751 1 1 1
v -1.508795E-13 0.1 -0.5773503 1 1 1
v -1.508795E-13 0.2 -0.5773503 1 1 1
v 0.5 0.2 -0.2886751 1 1 1
v -1.093696E-13 0.2 -0.4618802 1 1 1
v 9.384848E-14 0.2 0.4618802 1 1 1

vn -0.3878349 0.3136402 0.866726
vn -0.3332689 0.3062446 0.8917097
vn 0.3878349 0.3136402 0.866726
vn 0.3332689 0.3062446 0.8917097
vn 0.866726 -0.3136402 -0.3878349
vn 0.8917097 -0.3062446 -0.3332689
vn 0.866726 -0.3136402 0.3878349
vn 0.8917097 -0.3062446 0.3332689
vn 0.866726 0.3136402 -0.3878349
vn 0.866726 0.3136402 0.3878349
vn 0.8917097 0.3062446 -0.3332689
vn 0.8917097 0.3062446 0.3332689
vn -0.3878349 0.3136402 -0.866726
vn 0.3878349 0.3136402 -0.866726
vn -0.3332689 0.3062446 -0.8917097
vn 0.3332689 0.3062446 -0.8917097
vn -0.866726 0.3136402 -0.3878349
vn -0.8917097 0.3062446 -0.3332689
vn -0.866726 0.3136402 0.3878349
vn -0.8917097 0.3062446 0.3332689
vn -0.3332689 -0.3062446 -0.8917097
vn 0.3332689 -0.3062446 -0.8917097
vn -0.3878349 -0.3136402 -0.866726
vn 0.3878349 -0.3136402 -0.866726
vn -0.866726 -0.3136402 -0.3878349
vn -0.866726 -0.3136402 0.3878349
vn -0.8917097 -0.3062446 -0.3332689
vn -0.8917097 -0.3062446 0.3332689
vn 0.3332689 -0.3062446 0.8917097
vn -0.3332689 -0.3062446 0.8917097
vn 0.3878349 -0.3136402 0.866726
vn -0.3878349 -0.3136402 0.866726
vn 0 1 0
vn 0 -1 0
vn -0.4891695 -0.5511988 -0.6759385
vn -0.8299647 -0.5511988 -0.08566402
vn -0.535004 -0.5410823 -0.6488456
vn -0.8294188 -0.5410823 -0.1389043
vn -0.4891695 0.5511988 -0.6759385
vn -0.535004 0.5410823 -0.6488456
vn -0.8299647 0.5511988 -0.08566402
vn -0.8294188 0.5410823 -0.1389043
vn -0.1389043 -0.5410823 0.8294188
vn -0.6488457 -0.5410823 0.535004
vn -0.08566407 -0.5511988 0.8299647
vn -0.6759386 -0.5511988 0.4891695
vn 0.8299647 -0.5511988 0.08566402
vn 0.8294188 -0.5410823 0.1389043
vn 0.4891695 -0.5511988 0.6759385
vn 0.535004 -0.5410823 0.6488456
vn 0.8299647 0.5511988 0.08566402
vn 0.4891695 0.5511988 0.6759385
vn 0.8294188 0.5410823 0.1389043
vn 0.535004 0.5410823 0.6488456
vn -0.08566407 0.5511988 0.8299647
vn -0.6759386 0.5511988 0.4891695
vn -0.1389043 0.5410823 0.8294188
vn -0.6488457 0.5410823 0.535004
vn 0.6759386 0.5511988 -0.4891695
vn 0.6488457 0.5410823 -0.535004
vn 0.08566407 0.5511988 -0.8299647
vn 0.1389043 0.5410823 -0.8294188
vn 0.1389043 -0.5410823 -0.8294188
vn 0.6488457 -0.5410823 -0.535004
vn 0.08566407 -0.5511988 -0.8299647
vn 0.6759386 -0.5511988 -0.4891695
vn -0.1210226 -0.127395 -0.9844409
vn -0.7920396 -0.127395 -0.597029
vn -0.1387069 -0.1267429 -0.9821898
vn -0.781248 -0.1267429 -0.6112185
vn 0.6112185 -0.1267429 -0.781248
vn 0.9821898 -0.1267429 -0.1387069
vn 0.597029 -0.127395 -0.7920396
vn 0.9844409 -0.127395 -0.1210226
vn 0.1387069 -0.1267429 0.9821898
vn -0.6112185 -0.1267429 0.781248
vn 0.1210226 -0.127395 0.9844409
vn -0.597029 -0.127395 0.7920396
vn 0.7920396 -0.127395 0.597029
vn 0.781248 -0.1267429 0.6112185
vn -0.9821898 -0.1267429 0.1387069
vn -0.9844409 -0.127395 0.1210226
vn 1 0 -1.192093E-07
vn -1 0 1.192093E-07
vn -1.192093E-07 0 -1
vn 1.192093E-07 0 1
vn 0.5 0 0.8660254
vn 0.5 0 -0.8660254
vn -0.5 0 -0.8660254
vn -1 0 0
vn 1 0 0
vn -0.5 0 0.8660254

vt 0.21875 0.275
vt 0.21875 0.375
vt 0.21875 0.475
vt 0.96875 0.025
vt 0.96875 0.185
vt 0.96875 0.225
vt 0.90625 0.125
vt 0.34375 0.075
vt 0.34375 0.175

usemtl colormap

f 3/1/3 2/2/2 1/1/1
f 2/2/2 3/1/3 4/2/4
f 7/3/7 6/2/6 5/3/5
f 6/2/6 7/3/7 8/2/8
f 6/2/11 10/1/10 9/1/9
f 10/1/10 6/2/11 8/2/12
f 13/2/15 12/1/14 11/1/13
f 12/1/14 13/2/15 14/2/16
f 17/1/19 16/2/18 15/1/17
f 16/2/18 17/1/19 18/2/20
f 19/3/23 14/2/22 13/2/21
f 14/2/22 19/3/23 20/3/24
f 16/2/27 22/3/26 21/3/25
f 22/3/26 16/2/27 18/2/28
f 23/3/31 2/2/30 4/2/29
f 2/2/30 23/3/31 24/3/32
f 17/1/19 2/2/2 18/2/20
f 2/2/2 17/1/19 1/1/1
f 4/2/4 10/1/10 8/2/12
f 10/1/10 4/2/4 3/1/3
f 7/3/7 4/2/29 8/2/8
f 4/2/29 7/3/7 23/3/31
f 15/1/17 13/2/15 11/1/13
f 13/2/15 15/1/17 16/2/18
f 14/2/16 9/1/9 12/1/14
f 9/1/9 14/2/16 6/2/11
f 13/2/21 21/3/25 19/3/23
f 21/3/25 13/2/21 16/2/27
f 5/3/5 14/2/22 20/3/24
f 14/2/22 5/3/5 6/2/6
f 2/2/30 22/3/26 18/2/28
f 22/3/26 2/2/30 24/3/32
f 20/3/33 7/3/33 5/3/33
f 7/3/33 20/3/33 23/3/33
f 23/3/33 20/3/33 19/3/33
f 23/3/33 19/3/33 24/3/33
f 24/3/33 19/3/33 21/3/33
f 24/3/33 21/3/33 22/3/33
f 3/1/34 9/1/34 10/1/34
f 9/1/34 3/1/34 12/1/34
f 12/1/34 3/1/34 11/1/34
f 11/1/34 3/1/34 1/1/34
f 11/1/34 1/1/34 17/1/34
f 11/1/34 17/1/34 15/1/34
f 27/2/37 26/3/36 25/3/35
f 26/3/36 27/2/37 28/2/38
f 30/1/41 27/2/40 29/1/39
f 27/2/40 30/1/41 28/2/42
f 33/3/45 32/2/44 31/2/43
f 32/2/44 33/3/45 34/3/46
f 37/3/49 36/2/48 35/3/47
f 36/2/48 37/3/49 38/2/50
f 36/2/53 40/1/52 39/1/51
f 40/1/52 36/2/53 38/2/54
f 31/2/57 42/1/56 41/1/55
f 42/1/56 31/2/57 32/2/58
f 45/1/61 44/2/60 43/1/59
f 44/2/60 45/1/61 46/2/62
f 47/3/65 44/2/64 46/2/63
f 44/2/64 47/3/65 48/3/66
f 29/1/39 46/2/62 45/1/61
f 46/2/62 29/1/39 27/2/40
f 46/2/63 25/3/35 47/3/65
f 25/3/35 46/2/63 27/2/37
f 37/3/49 31/2/43 38/2/50
f 31/2/43 37/3/49 33/3/45
f 32/2/44 26/3/36 28/2/38
f 26/3/36 32/2/44 34/3/46
f 35/3/47 44/2/64 48/3/66
f 44/2/64 35/3/47 36/2/48
f 40/1/52 31/2/57 41/1/55
f 31/2/57 40/1/52 38/2/54
f 30/1/41 32/2/58 28/2/42
f 32/2/58 30/1/41 42/1/56
f 44/2/60 39/1/51 43/1/59
f 39/1/51 44/2/60 36/2/53
f 35/3/33 33/3/33 37/3/33
f 33/3/33 35/3/33 48/3/33
f 33/3/33 48/3/33 47/3/33
f 33/3/33 47/3/33 34/3/33
f 34/3/33 47/3/33 26/3/33
f 26/3/33 47/3/33 25/3/33
f 51/3/33 50/3/33 49/3/33
f 50/3/33 51/3/33 52/3/33
f 50/3/33 52/3/33 53/3/33
f 50/3/33 53/3/33 54/3/33
f 54/3/33 53/3/33 55/3/33
f 55/3/33 53/3/33 56/3/33
f 59/1/34 58/1/34 57/1/34
f 58/1/34 59/1/34 60/1/34
f 60/1/34 59/1/34 61/1/34
f 60/1/34 61/1/34 62/1/34
f 62/1/34 61/1/34 63/1/34
f 62/1/34 63/1/34 64/1/34
f 64/1/69 55/3/68 56/3/67
f 55/3/68 64/1/69 63/1/70
f 53/3/73 60/1/72 62/1/71
f 60/1/72 53/3/73 52/3/74
f 49/3/77 59/1/76 57/1/75
f 59/1/76 49/3/77 50/3/78
f 49/3/77 58/1/80 51/3/79
f 58/1/80 49/3/77 57/1/75
f 54/3/82 63/1/70 61/1/81
f 63/1/70 54/3/82 55/3/68
f 50/3/78 61/1/81 59/1/76
f 61/1/81 50/3/78 54/3/82
f 62/1/71 56/3/67 53/3/73
f 56/3/67 62/1/71 64/1/69
f 51/3/79 60/1/72 52/3/74
f 60/1/72 51/3/79 58/1/80
f 67/5/83 66/4/83 65/4/83
f 66/4/83 67/5/83 68/5/83
f 65/4/84 66/4/84 67/5/84
f 68/5/84 67/5/84 66/4/84
f 71/6/85 70/4/85 69/6/85
f 70/4/85 71/6/85 66/4/85
f 66/4/85 71/6/85 72/4/85
f 74/6/84 70/4/84 73/4/84
f 70/4/84 74/6/84 69/6/84
f 72/4/34 70/4/34 66/4/34
f 70/4/34 72/4/34 75/4/34
f 70/4/34 75/4/34 73/4/34
f 71/6/83 75/4/83 72/4/83
f 75/4/83 71/6/83 76/6/83
f 75/4/86 74/6/86 73/4/86
f 74/6/86 75/4/86 76/6/86
f 69/6/33 76/6/33 71/6/33
f 76/6/33 69/6/33 74/6/33
f 79/6/85 78/4/85 77/6/85
f 78/4/85 79/6/85 80/4/85
f 65/4/86 82/6/86 81/4/86
f 82/6/86 65/4/86 83/6/86
f 83/6/86 65/4/86 84/4/86
f 82/6/84 78/4/84 81/4/84
f 78/4/84 82/6/84 77/6/84
f 84/4/34 78/4/34 80/4/34
f 78/4/34 84/4/34 65/4/34
f 78/4/34 65/4/34 81/4/34
f 79/6/83 84/4/83 80/4/83
f 84/4/83 79/6/83 83/6/83
f 77/6/33 83/6/33 79/6/33
f 83/6/33 77/6/33 82/6/33
f 87/7/34 86/7/34 85/7/34
f 86/7/34 87/7/34 88/7/34
f 88/7/34 87/7/34 89/7/34
f 88/7/34 89/7/34 90/7/34
f 91/7/87 87/7/87 85/7/87
f 87/7/87 91/7/87 92/7/87
f 93/7/88 86/7/88 88/7/88
f 86/7/88 93/7/88 94/7/88
f 95/7/89 88/7/89 90/7/89
f 88/7/89 95/7/89 93/7/89
f 89/7/90 95/7/90 90/7/90
f 95/7/90 89/7/90 96/7/90
f 91/7/91 86/7/91 94/7/91
f 86/7/91 91/7/91 85/7/91
f 92/7/92 89/7/92 87/7/92
f 89/7/92 92/7/92 96/7/92
f 99/7/33 98/7/33 97/7/33
f 98/7/33 99/7/33 100/7/33
f 98/7/33 100/7/33 101/7/33
f 101/7/33 100/7/33 102/7/33
f 96/8/90 103/9/90 95/8/90
f 103/9/90 96/8/90 104/9/90
f 106/9/92 96/8/92 105/8/92
f 96/8/92 106/9/92 104/9/92
f 107/9/87 105/8/87 91/8/87
f 105/8/87 107/9/87 106/9/87
f 109/9/88 94/8/88 108/8/88
f 94/8/88 109/9/88 110/9/88
f 107/9/91 94/8/91 110/9/91
f 94/8/91 107/9/91 91/8/91
f 103/9/89 108/8/89 95/8/89
f 108/8/89 103/9/89 109/9/89
f 102/9/33 109/9/33 103/9/33
f 102/9/33 103/9/33 104/9/33
f 111/9/33 109/9/33 102/9/33
f 104/9/33 101/9/33 102/9/33
f 99/9/33 109/9/33 111/9/33
f 104/9/33 112/9/33 101/9/33
f 99/9/33 110/9/33 109/9/33
f 106/9/33 112/9/33 104/9/33
f 110/9/33 99/9/33 97/9/33
f 106/9/33 97/9/33 112/9/33
f 97/9/33 107/9/33 110/9/33
f 107/9/33 97/9/33 106/9/33

g building-farm




usemtl colormap

f 3/1/3 2/2/2 1/1/1
f 2/2/2 3/1/3 4/2/4
f 7/3/7 6/2/6 5/3/5
f 6/2/6 7/3/7 8/2/8
f 6/2/11 10/1/10 9/1/9
f 10/1/10 6/2/11 8/2/12
f 13/2/15 12/1/14 11/1/13
f 12/1/14 13/2/15 14/2/16
f 17/1/19 16/2/18 15/1/17
f 16/2/18 17/1/19 18/2/20
f 19/3/23 14/2/22 13/2/21
f 14/2/22 19/3/23 20/3/24
f 16/2/27 22/3/26 21/3/25
f 22/3/26 16/2/27 18/2/28
f 23/3/31 2/2/30 4/2/29
f 2/2/30 23/3/31 24/3/32
f 17/1/19 2/2/2 18/2/20
f 2/2/2 17/1/19 1/1/1
f 4/2/4 10/1/10 8/2/12
f 10/1/10 4/2/4 3/1/3
f 7/3/7 4/2/29 8/2/8
f 4/2/29 7/3/7 23/3/31
f 15/1/17 13/2/15 11/1/13
f 13/2/15 15/1/17 16/2/18
f 14/2/16 9/1/9 12/1/14
f 9/1/9 14/2/16 6/2/11
f 13/2/21 21/3/25 19/3/23
f 21/3/25 13/2/21 16/2/27
f 5/3/5 14/2/22 20/3/24
f 14/2/22 5/3/5 6/2/6
f 2/2/30 22/3/26 18/2/28
f 22/3/26 2/2/30 24/3/32
f 20/3/33 7/3/33 5/3/33
f 7/3/33 20/3/33 23/3/33
f 23/3/33 20/3/33 19/3/33
f 23/3/33 19/3/33 24/3/33
f 24/3/33 19/3/33 21/3/33
f 24/3/33 21/3/33 22/3/33
f 3/1/34 9/1/34 10/1/34
f 9/1/34 3/1/34 12/1/34
f 12/1/34 3/1/34 11/1/34
f 11/1/34 3/1/34 1/1/34
f 11/1/34 1/1/34 17/1/34
f 11/1/34 17/1/34 15/1/34
f 27/2/37 26/3/36 25/3/35
f 26/3/36 27/2/37 28/2/38
f 30/1/41 27/2/40 29/1/39
f 27/2/40 30/1/41 28/2/42
f 33/3/45 32/2/44 31/2/43
f 32/2/44 33/3/45 34/3/46
f 37/3/49 36/2/48 35/3/47
f 36/2/48 37/3/49 38/2/50
f 36/2/53 40/1/52 39/1/51
f 40/1/52 36/2/53 38/2/54
f 31/2/57 42/1/56 41/1/55
f 42/1/56 31/2/57 32/2/58
f 45/1/61 44/2/60 43/1/59
f 44/2/60 45/1/61 46/2/62
f 47/3/65 44/2/64 46/2/63
f 44/2/64 47/3/65 48/3/66
f 29/1/39 46/2/62 45/1/61
f 46/2/62 29/1/39 27/2/40
f 46/2/63 25/3/35 47/3/65
f 25/3/35 46/2/63 27/2/37
f 37/3/49 31/2/43 38/2/50
f 31/2/43 37/3/49 33/3/45
f 32/2/44 26/3/36 28/2/38
f 26/3/36 32/2/44 34/3/46
f 35/3/47 44/2/64 48/3/66
f 44/2/64 35/3/47 36/2/48
f 40/1/52 31/2/57 41/1/55
f 31/2/57 40/1/52 38/2/54
f 30/1/41 32/2/58 28/2/42
f 32/2/58 30/1/41 42/1/56
f 44/2/60 39/1/51 43/1/59
f 39/1/51 44/2/60 36/2/53
f 35/3/33 33/3/33 37/3/33
f 33/3/33 35/3/33 48/3/33
f 33/3/33 48/3/33 47/3/33
f 33/3/33 47/3/33 34/3/33
f 34/3/33 47/3/33 26/3/33
f 26/3/33 47/3/33 25/3/33
f 51/3/33 50/3/33 49/3/33
f 50/3/33 51/3/33 52/3/33
f 50/3/33 52/3/33 53/3/33
f 50/3/33 53/3/33 54/3/33
f 54/3/33 53/3/33 55/3/33
f 55/3/33 53/3/33 56/3/33
f 59/1/34 58/1/34 57/1/34
f 58/1/34 59/1/34 60/1/34
f 60/1/34 59/1/34 61/1/34
f 60/1/34 61/1/34 62/1/34
f 62/1/34 61/1/34 63/1/34
f 62/1/34 63/1/34 64/1/34
f 64/1/69 55/3/68 56/3/67
f 55/3/68 64/1/69 63/1/70
f 53/3/73 60/1/72 62/1/71
f 60/1/72 53/3/73 52/3/74
f 49/3/77 59/1/76 57/1/75
f 59/1/76 49/3/77 50/3/78
f 49/3/77 58/1/80 51/3/79
f 58/1/80 49/3/77 57/1/75
f 54/3/82 63/1/70 61/1/81
f 63/1/70 54/3/82 55/3/68
f 50/3/78 61/1/81 59/1/76
f 61/1/81 50/3/78 54/3/82
f 62/1/71 56/3/67 53/3/73
f 56/3/67 62/1/71 64/1/69
f 51/3/79 60/1/72 52/3/74
f 60/1/72 51/3/79 58/1/80
f 67/5/83 66/4/83 65/4/83
f 66/4/83 67/5/83 68/5/83
f 65/4/84 66/4/84 67/5/84
f 68/5/84 67/5/84 66/4/84
f 71/6/85 70/4/85 69/6/85
f 70/4/85 71/6/85 66/4/85
f 66/4/85 71/6/85 72/4/85
f 74/6/84 70/4/84 73/4/84
f 70/4/84 74/6/84 69/6/84
f 72/4/34 70/4/34 66/4/34
f 70/4/34 72/4/34 75/4/34
f 70/4/34 75/4/34 73/4/34
f 71/6/83 75/4/83 72/4/83
f 75/4/83 71/6/83 76/6/83
f 75/4/86 74/6/86 73/4/86
f 74/6/86 75/4/86 76/6/86
f 69/6/33 76/6/33 71/6/33
f 76/6/33 69/6/33 74/6/33
f 79/6/85 78/4/85 77/6/85
f 78/4/85 79/6/85 80/4/85
f 65/4/86 82/6/86 81/4/86
f 82/6/86 65/4/86 83/6/86
f 83/6/86 65/4/86 84/4/86
f 82/6/84 78/4/84 81/4/84
f 78/4/84 82/6/84 77/6/84
f 84/4/34 78/4/34 80/4/34
f 78/4/34 84/4/34 65/4/34
f 78/4/34 65/4/34 81/4/34
f 79/6/83 84/4/83 80/4/83
f 84/4/83 79/6/83 83/6/83
f 77/6/33 83/6/33 79/6/33
f 83/6/33 77/6/33 82/6/33
f 87/7/34 86/7/34 85/7/34
f 86/7/34 87/7/34 88/7/34
f 88/7/34 87/7/34 89/7/34
f 88/7/34 89/7/34 90/7/34
f 91/7/87 87/7/87 85/7/87
f 87/7/87 91/7/87 92/7/87
f 93/7/88 86/7/88 88/7/88
f 86/7/88 93/7/88 94/7/88
f 95/7/89 88/7/89 90/7/89
f 88/7/89 95/7/89 93/7/89
f 89/7/90 95/7/90 90/7/90
f 95/7/90 89/7/90 96/7/90
f 91/7/91 86/7/91 94/7/91
f 86/7/91 91/7/91 85/7/91
f 92/7/92 89/7/92 87/7/92
f 89/7/92 92/7/92 96/7/92
f 99/7/33 98/7/33 97/7/33
f 98/7/33 99/7/33 100/7/33
f 98/7/33 100/7/33 101/7/33
f 101/7/33 100/7/33 102/7/33
f 96/8/90 103/9/90 95/8/90
f 103/9/90 96/8/90 104/9/90
f 106/9/92 96/8/92 105/8/92
f 96/8/92 106/9/92 104/9/92
f 107/9/87 105/8/87 91/8/87
f 105/8/87 107/9/87 106/9/87
f 109/9/88 94/8/88 108/8/88
f 94/8/88 109/9/88 110/9/88
f 107/9/91 94/8/91 110/9/91
f 94/8/91 107/9/91 91/8/91
f 103/9/89 108/8/89 95/8/89
f 108/8/89 103/9/89 109/9/89
f 102/9/33 109/9/33 103/9/33
f 102/9/33 103/9/33 104/9/33
f 111/9/33 109/9/33 102/9/33
f 104/9/33 101/9/33 102/9/33
f 99/9/33 109/9/33 111/9/33
f 104/9/33 112/9/33 101/9/33
f 99/9/33 110/9/33 109/9/33
f 106/9/33 112/9/33 104/9/33
f 110/9/33 99/9/33 97/9/33
f 106/9/33 97/9/33 112/9/33
f 97/9/33 107/9/33 110/9/33
f 107/9/33 97/9/33 106/9/33

