# Created by Kenney (www.kenney.nl)

mtllib dirt.mtl

g dirt

v 0.5 0 0.2886751 1 1 1
v 0.5 0 -0.2886751 1 1 1
v 1.277783E-13 0 0.5773503 1 1 1
v -1.270564E-13 0 -0.5773503 1 1 1
v -0.5 0 0.2886751 1 1 1
v -0.5 0 -0.2886751 1 1 1
v 0.5 0.1 0.2886751 1 1 1
v 1.277783E-13 0.1 0.5773503 1 1 1
v -0.5 0.1 -0.2886751 1 1 1
v -1.270564E-13 0.1 -0.5773503 1 1 1
v 0.5 0.1 -0.2886751 1 1 1
v -0.5 0.1 0.2886751 1 1 1

vn 0 -1 0
vn 0.5 0 0.8660254
vn -0.5 0 -0.8660254
vn 0.5 0 -0.8660254
vn -1 0 0
vn 1 0 0
vn -0.5 0 0.8660254
vn 0 1 0

vt 0.90625 0.125

usemtl colormap

f 3/1/1 2/1/1 1/1/1
f 2/1/1 3/1/1 4/1/1
f 4/1/1 3/1/1 5/1/1
f 4/1/1 5/1/1 6/1/1
f 7/1/2 3/1/2 1/1/2
f 3/1/2 7/1/2 8/1/2
f 9/1/3 4/1/3 6/1/3
f 4/1/3 9/1/3 10/1/3
f 10/1/4 2/1/4 4/1/4
f 2/1/4 10/1/4 11/1/4
f 5/1/5 9/1/5 6/1/5
f 9/1/5 5/1/5 12/1/5
f 7/1/6 2/1/6 11/1/6
f 2/1/6 7/1/6 1/1/6
f 8/1/7 5/1/7 3/1/7
f 5/1/7 8/1/7 12/1/7
f 11/1/8 8/1/8 7/1/8
f 8/1/8 11/1/8 10/1/8
f 8/1/8 10/1/8 12/1/8
f 12/1/8 10/1/8 9/1/8

g dirt




usemtl colormap

f 3/1/1 2/1/1 1/1/1
f 2/1/1 3/1/1 4/1/1
f 4/1/1 3/1/1 5/1/1
f 4/1/1 5/1/1 6/1/1
f 7/1/2 3/1/2 1/1/2
f 3/1/2 7/1/2 8/1/2
f 9/1/3 4/1/3 6/1/3
f 4/1/3 9/1/3 10/1/3
f 10/1/4 2/1/4 4/1/4
f 2/1/4 10/1/4 11/1/4
f 5/1/5 9/1/5 6/1/5
f 9/1/5 5/1/5 12/1/5
f 7/1/6 2/1/6 11/1/6
f 2/1/6 7/1/6 1/1/6
f 8/1/7 5/1/7 3/1/7
f 5/1/7 8/1/7 12/1/7
f 11/1/8 8/1/8 7/1/8
f 8/1/8 11/1/8 10/1/8
f 8/1/8 10/1/8 12/1/8
f 12/1/8 10/1/8 9/1/8

