# Created by Kenney (www.kenney.nl)

mtllib path-intersectionB.mtl

g path-intersectionB

v 0.1570679 0 -0.09068321 1 1 1
v 0.1272126 0.025 -0.0635 1 1 1
v 0.1185989 0.025 -0.07841934 1 1 1
v -0.375 0 -0.1395 1 1 1
v -0.125 0 -0.1955 1 1 1
v -0.3727874 0.025 -0.1195 1 1 1
v -0.1227874 0.025 -0.1755 1 1 1
v 0.5 0 -0.1395 1 1 1
v 0.5 0 0.1395 1 1 1
v 0.5 0.025 -0.1195 1 1 1
v 0.5 0.025 0.1195 1 1 1
v 0.08290367 0.025 -0.3825934 1 1 1
v -0.09059376 0.025 -0.194087 1 1 1
v 0.06668945 0 -0.3945095 1 1 1
v -0.106808 0 -0.2060032 1 1 1
v 0.375 0 0.1395 1 1 1
v 0.125 0 0.1955 1 1 1
v 0.3727874 0.025 0.1195 1 1 1
v 0.1227874 0.025 0.1755 1 1 1
v -0.375 0 0.1395 1 1 1
v -0.5 0 0.1395 1 1 1
v -0.3727874 0.025 0.1195 1 1 1
v -0.5 0.025 0.1195 1 1 1
v -0.5 0 -0.1395 1 1 1
v -0.5 0.025 -0.1195 1 1 1
v -0.125 0 0.1955 1 1 1
v -0.1227874 0.025 0.1755 1 1 1
v 0.1291894 0 -0.5027627 1 1 1
v 0.1465099 0.025 -0.4927627 1 1 1
v 0.375 0 -0.1395 1 1 1
v 0.3772126 0.025 -0.1195 1 1 1
v 0.3708105 0 -0.3632627 1 1 1
v 0.35349 0.025 -0.3732627 1 1 1
v 0.3083105 0 -0.2550095 1 1 1
v 0.2920963 0.025 -0.2669257 1 1 1

vn 0.3199125 0.9292692 -0.1847015
vn 0.2648712 0.8369841 -0.4788536
vn 0.5471351 0.8369841 0.0100416
vn -0.08565883 0.6270105 -0.774287
vn -0.3000549 0.611962 -0.7317578
vn -0.08565882 0.6270105 -0.774287
vn -0.27591 0.6152179 -0.7384989
vn 1 0 0
vn -0.6277227 0.6270106 -0.4613262
vn -0.5016037 0.615218 -0.6081945
vn -0.4836934 0.6119621 -0.6257341
vn 0.08565878 0.6270106 0.7742869
vn -0.08565877 0.6270108 0.7742869
vn 0 0.6246952 0.7808687
vn 0 0.6246951 0.7808689
vn -1 0 0
vn -0.08565878 0.6270106 0.7742869
vn -0.6762522 0.6246951 -0.3904344
vn -0.08565878 0.6270106 -0.7742869
vn 0.5 0 -0.8660254
vn 0.6277227 0.6270106 0.4613262
vn 0 1 0
vn 0 0.6246951 -0.7808689
vn 0.6762522 0.6246951 0.3904344
vn 0 0.6246949 -0.7808689

vt 0.96875 0.075
vt 0.96875 0.175

usemtl colormap

f 3/2/3 2/2/2 1/1/1
f 6/2/6 5/1/5 4/1/4
f 5/1/5 6/2/6 7/2/7
f 10/2/8 9/1/8 8/1/8
f 9/1/8 10/2/8 11/2/8
f 14/1/9 13/2/10 12/2/9
f 13/2/10 14/1/9 15/1/11
f 18/2/12 17/1/12 16/1/12
f 17/1/12 18/2/12 19/2/12
f 22/2/13 21/1/14 20/1/13
f 21/1/14 22/2/13 23/2/14
f 11/2/15 16/1/12 9/1/15
f 16/1/12 11/2/15 18/2/12
f 21/1/16 25/2/16 24/1/16
f 25/2/16 21/1/16 23/2/16
f 19/2/12 26/1/17 17/1/12
f 26/1/17 19/2/12 27/2/17
f 14/1/9 29/2/18 28/1/18
f 29/2/18 14/1/9 12/2/9
f 2/2/2 30/1/19 1/1/1
f 30/1/19 2/2/2 31/2/19
f 29/2/20 32/1/20 28/1/20
f 32/1/20 29/2/20 33/2/20
f 35/2/21 1/1/1 34/1/21
f 1/1/1 35/2/21 3/2/3
f 29/2/22 35/2/22 33/2/22
f 35/2/22 29/2/22 3/2/22
f 3/2/22 29/2/22 12/2/22
f 27/2/22 3/2/22 12/2/22
f 27/2/22 12/2/22 13/2/22
f 27/2/22 13/2/22 7/2/22
f 19/2/22 3/2/22 27/2/22
f 27/2/22 7/2/22 22/2/22
f 19/2/22 2/2/22 3/2/22
f 22/2/22 7/2/22 6/2/22
f 22/2/22 6/2/22 23/2/22
f 23/2/22 6/2/22 25/2/22
f 18/2/22 2/2/22 19/2/22
f 18/2/22 31/2/22 2/2/22
f 11/2/22 31/2/22 18/2/22
f 31/2/22 11/2/22 10/2/22
f 7/2/7 15/1/11 5/1/5
f 15/1/11 7/2/7 13/2/10
f 31/2/19 8/1/23 30/1/19
f 8/1/23 31/2/19 10/2/23
f 35/2/21 32/1/24 33/2/24
f 32/1/24 35/2/21 34/1/21
f 25/2/25 4/1/4 24/1/25
f 4/1/4 25/2/25 6/2/6
f 27/2/17 20/1/13 26/1/17
f 20/1/13 27/2/17 22/2/13

g path-intersectionB




usemtl colormap

f 3/2/3 2/2/2 1/1/1
f 6/2/6 5/1/5 4/1/4
f 5/1/5 6/2/6 7/2/7
f 10/2/8 9/1/8 8/1/8
f 9/1/8 10/2/8 11/2/8
f 14/1/9 13/2/10 12/2/9
f 13/2/10 14/1/9 15/1/11
f 18/2/12 17/1/12 16/1/12
f 17/1/12 18/2/12 19/2/12
f 22/2/13 21/1/14 20/1/13
f 21/1/14 22/2/13 23/2/14
f 11/2/15 16/1/12 9/1/15
f 16/1/12 11/2/15 18/2/12
f 21/1/16 25/2/16 24/1/16
f 25/2/16 21/1/16 23/2/16
f 19/2/12 26/1/17 17/1/12
f 26/1/17 19/2/12 27/2/17
f 14/1/9 29/2/18 28/1/18
f 29/2/18 14/1/9 12/2/9
f 2/2/2 30/1/19 1/1/1
f 30/1/19 2/2/2 31/2/19
f 29/2/20 32/1/20 28/1/20
f 32/1/20 29/2/20 33/2/20
f 35/2/21 1/1/1 34/1/21
f 1/1/1 35/2/21 3/2/3
f 29/2/22 35/2/22 33/2/22
f 35/2/22 29/2/22 3/2/22
f 3/2/22 29/2/22 12/2/22
f 27/2/22 3/2/22 12/2/22
f 27/2/22 12/2/22 13/2/22
f 27/2/22 13/2/22 7/2/22
f 19/2/22 3/2/22 27/2/22
f 27/2/22 7/2/22 22/2/22
f 19/2/22 2/2/22 3/2/22
f 22/2/22 7/2/22 6/2/22
f 22/2/22 6/2/22 23/2/22
f 23/2/22 6/2/22 25/2/22
f 18/2/22 2/2/22 19/2/22
f 18/2/22 31/2/22 2/2/22
f 11/2/22 31/2/22 18/2/22
f 31/2/22 11/2/22 10/2/22
f 7/2/7 15/1/11 5/1/5
f 15/1/11 7/2/7 13/2/10
f 31/2/19 8/1/23 30/1/19
f 8/1/23 31/2/19 10/2/23
f 35/2/21 32/1/24 33/2/24
f 32/1/24 35/2/21 34/1/21
f 25/2/25 4/1/4 24/1/25
f 4/1/4 25/2/25 6/2/6
f 27/2/17 20/1/13 26/1/17
f 20/1/13 27/2/17 22/2/13

