# Created by Kenney (www.kenney.nl)

mtllib path-corner.mtl

g path-corner

v 0.35349 0.025 -0.3732627 1 1 1
v 0.3708105 0 -0.3632627 1 1 1
v 0.2920963 0.025 -0.2669257 1 1 1
v 0.3083105 0 -0.2550095 1 1 1
v -0.03839562 0 0.0835 1 1 1
v -0.125 0 0.0835 1 1 1
v -0.04375461 0.025 0.0635 1 1 1
v -0.1272126 0.025 0.0635 1 1 1
v 0.08290367 0.025 -0.3825934 1 1 1
v -0.09059376 0.025 -0.194087 1 1 1
v 0.06668945 0 -0.3945095 1 1 1
v -0.106808 0 -0.2060032 1 1 1
v -0.125 0 -0.1955 1 1 1
v -0.1227874 0.025 -0.1755 1 1 1
v 0.1465099 0.025 -0.4927627 1 1 1
v 0.1185989 0.025 -0.07841934 1 1 1
v 0.07686992 0.025 -0.006142605 1 1 1
v -0.3727874 0.025 -0.1195 1 1 1
v -0.3772126 0.025 0.1195 1 1 1
v -0.5 0.025 -0.1195 1 1 1
v -0.5 0.025 0.1195 1 1 1
v -0.5 0 -0.1395 1 1 1
v -0.375 0 -0.1395 1 1 1
v 0.1348131 0 -0.06650317 1 1 1
v -0.375 0 0.1395 1 1 1
v -0.5 0 0.1395 1 1 1
v 0.1291894 0 -0.5027627 1 1 1
v 0.09151094 0 0.008498411 1 1 1

vn 0.6762522 0.6246951 0.3904344
vn 0.6277228 0.6270107 0.4613261
vn 0.1993306 0.6378578 0.7439117
vn 0.08565878 0.6270106 0.7742869
vn -0.6277228 0.6270107 -0.4613261
vn -0.5016037 0.615218 -0.6081944
vn -0.4836934 0.6119621 -0.6257341
vn -0.300055 0.6119621 -0.7317578
vn -0.2759099 0.615218 -0.7384988
vn 0 1 0
vn 0 0.6246951 -0.7808689
vn -0.08565878 0.6270106 -0.7742869
vn -1 0 0
vn 0.5 0 -0.8660254
vn 0.5445812 0.6378578 0.5445812
vn -0.6762522 0.6246951 -0.3904344
vn 0 0.6246951 0.7808689

vt 0.96875 0.175
vt 0.96875 0.075

usemtl colormap

f 3/1/2 2/2/1 1/1/1
f 2/2/1 3/1/2 4/2/2
f 7/1/3 6/2/4 5/2/3
f 6/2/4 7/1/3 8/1/4
f 11/2/5 10/1/6 9/1/5
f 10/1/6 11/2/5 12/2/7
f 14/1/9 12/2/7 13/2/8
f 12/2/7 14/1/9 10/1/6
f 15/1/10 3/1/10 1/1/10
f 3/1/10 15/1/10 16/1/10
f 16/1/10 15/1/10 9/1/10
f 16/1/10 9/1/10 17/1/10
f 17/1/10 9/1/10 10/1/10
f 17/1/10 10/1/10 7/1/10
f 7/1/10 10/1/10 8/1/10
f 8/1/10 10/1/10 14/1/10
f 8/1/10 14/1/10 18/1/10
f 8/1/10 18/1/10 19/1/10
f 19/1/10 18/1/10 20/1/10
f 19/1/10 20/1/10 21/1/10
f 20/1/11 23/2/12 22/2/11
f 23/2/12 20/1/11 18/1/12
f 3/1/2 24/2/2 4/2/2
f 24/2/2 3/1/2 16/1/2
f 8/1/4 25/2/4 6/2/4
f 25/2/4 8/1/4 19/1/4
f 26/2/13 20/1/13 22/2/13
f 20/1/13 26/2/13 21/1/13
f 15/1/14 2/2/14 27/2/14
f 2/2/14 15/1/14 1/1/14
f 17/1/15 24/2/2 16/1/2
f 24/2/2 17/1/15 28/2/15
f 11/2/5 15/1/16 27/2/16
f 15/1/16 11/2/5 9/1/5
f 17/1/15 5/2/3 28/2/15
f 5/2/3 17/1/15 7/1/3
f 19/1/4 26/2/17 25/2/4
f 26/2/17 19/1/4 21/1/17
f 18/1/12 13/2/8 23/2/12
f 13/2/8 18/1/12 14/1/9

g path-corner




usemtl colormap

f 3/1/2 2/2/1 1/1/1
f 2/2/1 3/1/2 4/2/2
f 7/1/3 6/2/4 5/2/3
f 6/2/4 7/1/3 8/1/4
f 11/2/5 10/1/6 9/1/5
f 10/1/6 11/2/5 12/2/7
f 14/1/9 12/2/7 13/2/8
f 12/2/7 14/1/9 10/1/6
f 15/1/10 3/1/10 1/1/10
f 3/1/10 15/1/10 16/1/10
f 16/1/10 15/1/10 9/1/10
f 16/1/10 9/1/10 17/1/10
f 17/1/10 9/1/10 10/1/10
f 17/1/10 10/1/10 7/1/10
f 7/1/10 10/1/10 8/1/10
f 8/1/10 10/1/10 14/1/10
f 8/1/10 14/1/10 18/1/10
f 8/1/10 18/1/10 19/1/10
f 19/1/10 18/1/10 20/1/10
f 19/1/10 20/1/10 21/1/10
f 20/1/11 23/2/12 22/2/11
f 23/2/12 20/1/11 18/1/12
f 3/1/2 24/2/2 4/2/2
f 24/2/2 3/1/2 16/1/2
f 8/1/4 25/2/4 6/2/4
f 25/2/4 8/1/4 19/1/4
f 26/2/13 20/1/13 22/2/13
f 20/1/13 26/2/13 21/1/13
f 15/1/14 2/2/14 27/2/14
f 2/2/14 15/1/14 1/1/14
f 17/1/15 24/2/2 16/1/2
f 24/2/2 17/1/15 28/2/15
f 11/2/5 15/1/16 27/2/16
f 15/1/16 11/2/5 9/1/5
f 17/1/15 5/2/3 28/2/15
f 5/2/3 17/1/15 7/1/3
f 19/1/4 26/2/17 25/2/4
f 26/2/17 19/1/4 21/1/17
f 18/1/12 13/2/8 23/2/12
f 13/2/8 18/1/12 14/1/9

