# Created by Kenney (www.kenney.nl)

mtllib river-intersectionC.mtl

g river-intersectionC

v 0.1272126 0.1625 0.06350001 1 1 1
v 0.1570679 0.2 0.09068322 1 1 1
v 0.1185989 0.1625 0.07841935 1 1 1
v 0.5 0.2 -0.1395 1 1 1
v 0.375 0.2 -0.1395 1 1 1
v 0.4999999 0.2 -0.2140876 1 1 1
v 0.3832516 0.2 -0.2140876 1 1 1
v 0.1332516 0.2 -0.2700876 1 1 1
v 0.125 0.2 -0.1955 1 1 1
v -0.1332515 0.2 -0.2700876 1 1 1
v -0.125 0.2 -0.1955 1 1 1
v -0.375 0.2 -0.1395 1 1 1
v -0.3832515 0.2 -0.2140876 1 1 1
v -0.5 0.2 -0.1395 1 1 1
v -0.5 0.2 -0.2140876 1 1 1
v 0.3083105 0.2 0.2550095 1 1 1
v 0.3708105 0.2 0.3632627 1 1 1
v 0.2920963 0.1625 0.2669257 1 1 1
v 0.3534901 0.1625 0.3732627 1 1 1
v -0.1227874 0.1625 -0.1755 1 1 1
v -0.3727874 0.1625 -0.1195 1 1 1
v 0.08290368 0.1625 0.3825934 1 1 1
v 0.14651 0.1625 0.4927627 1 1 1
v 0.06668947 0.2 0.3945096 1 1 1
v 0.1291895 0.2 0.5027627 1 1 1
v 0.5 0.1625 -0.1195 1 1 1
v 0.3727874 0.1625 -0.1195 1 1 1
v 0.3772126 0.1625 0.1195 1 1 1
v 0.5 0.1625 0.1195 1 1 1
v 0.375 0.2 0.1395 1 1 1
v 0.5 0.2 0.1395 1 1 1
v -0.09059374 0.1625 0.194087 1 1 1
v -0.106808 0.2 0.2060032 1 1 1
v -0.5 0.1625 0.1195 1 1 1
v -0.3727874 0.1625 0.1195 1 1 1
v -0.5 0.2 0.1395 1 1 1
v -0.375 0.2 0.1395 1 1 1
v 0.4999999 0.2 0.2140875 1 1 1
v 0.3695021 0.2 0.2118213 1 1 1
v 0.3889971 0.2 0.3527627 1 1 1
v 0.4354053 0.2 0.3259689 1 1 1
v -0.1227874 0.1625 0.1755 1 1 1
v -0.125 0.2 0.1955 1 1 1
v -0.5 0.2 0.2140876 1 1 1
v -0.3832515 0.2 0.2140876 1 1 1
v -0.1539712 0.2 0.2648998 1 1 1
v -0.1533375 0.2 0.2655883 1 1 1
v -0.1524243 0.2 0.2657929 1 1 1
v 0.006220513 0.2 0.4389494 1 1 1
v 0.0645947 0.2 0.5400565 1 1 1
v -0.5 0.1625 -0.1195 1 1 1
v 0.1227874 0.1625 -0.1755 1 1 1
v 0.5 3.38942E-16 -0.1195 1 1 1
v 0.5 3.357612E-16 -0.2886751 1 1 1
v 0.5 3.38396E-16 0.1195 1 1 1
v 0.5 3.357612E-16 0.2886751 1 1 1
v 0.3534901 1.954959E-16 0.3732627 1 1 1
v -1.208612E-08 3.357612E-16 -0.5773503 1 1 1
v 0.14651 0 0.4927627 1 1 1
v -1.208587E-08 3.357612E-16 0.5773503 1 1 1
v -0.5 3.357612E-16 0.2886751 1 1 1
v -0.5 3.38396E-16 0.1195 1 1 1
v -0.5 3.38942E-16 -0.1195 1 1 1
v -0.5 3.357612E-16 -0.2886751 1 1 1
v -0.5 0.1 -0.2886751 1 1 1
v -1.208612E-08 0.1 -0.5773503 1 1 1
v -0.5 0.1 0.1195 1 1 1
v -0.5 0.1 0.2886751 1 1 1
v 0.5 0.1 -0.2886751 1 1 1
v 0.5 0.1 -0.1195 1 1 1
v -1.208587E-08 0.1 0.5773503 1 1 1
v 0.3534901 0.1 0.3732627 1 1 1
v 0.5 0.1 0.2886751 1 1 1
v 0.5 0.1 0.1195 1 1 1
v 0.14651 0.1 0.4927627 1 1 1
v -0.5 0.1 -0.1195 1 1 1
v -0.5 0.1 -0.1195 1 1 1
v -0.5 0.1625 -0.1195 1 1 1
v -0.5 3.180741E-18 -0.1195 1 1 1
v -0.5 0.1 0.1195 1 1 1
v -0.5 2.634722E-18 0.1195 1 1 1
v 0.1465099 -3.357612E-16 0.4927627 1 1 1
v 0.14651 0.1 0.4927627 1 1 1
v 0.35349 -1.402654E-16 0.3732627 1 1 1
v 0.35349 0.1 0.3732627 1 1 1
v 0.14651 0.1625 0.4927627 1 1 1
v 0.5 0.1625 -0.1195 1 1 1
v 0.5 0.1 -0.1195 1 1 1
v 0.5 3.180741E-18 -0.1195 1 1 1
v 0.5 0.1 0.1195 1 1 1
v 0.5 2.634722E-18 0.1195 1 1 1
v 0.3772126 0.1625 0.1195 1 1 1
v 0.3727874 0.1625 -0.1195 1 1 1
v 0.1272126 0.1625 0.06350002 1 1 1
v 0.1227874 0.1625 -0.1755 1 1 1
v 0.1185989 0.1625 0.07841936 1 1 1
v -0.1227874 0.1625 -0.1755 1 1 1
v -0.09059373 0.1625 0.194087 1 1 1
v -0.3727874 0.1625 -0.1195 1 1 1
v -0.3727874 0.1625 0.1195 1 1 1
v -2.077003E-08 0.1 -0.5773503 1 1 1
v 0.4999999 0.1 -0.2886751 1 1 1
v -2.077003E-08 0.2 -0.5773503 1 1 1
v 0.4999999 0.2 -0.2886751 1 1 1
v -0.5 0.2 -0.2886751 1 1 1
v -2.076977E-08 0.1 0.5773503 1 1 1
v -2.076977E-08 0.2 0.5773503 1 1 1
v -0.5 0.2 0.2886751 1 1 1
v -0.4999999 0.1625 0.1195 1 1 1
v -0.4999999 0.2 0.1395 1 1 1
v -0.5 0.2 0.2140876 1 1 1
v 0.4999999 0.1 0.2886751 1 1 1
v 0.4999999 0.2 0.2886751 1 1 1
v 0.3534901 0.1625 0.3732627 1 1 1
v 0.4354053 0.2 0.3259689 1 1 1
v 0.3708105 0.2 0.3632627 1 1 1
v 0.3889971 0.2 0.3527627 1 1 1
v 0.4999999 0.2 0.2140876 1 1 1
v 0.3695021 0.2 0.2118213 1 1 1
v 0.5 0.1625 0.1195 1 1 1
v 0.5 0.2 0.1395 1 1 1
v 0.06459471 0.2 0.5400565 1 1 1
v 0.006220513 0.2 0.4389494 1 1 1
v -0.1533375 0.2 0.2655884 1 1 1
v -0.3832515 0.2 0.2140876 1 1 1
v 0.4999999 0.2 -0.2140876 1 1 1
v 0.3832516 0.2 -0.2140876 1 1 1
v 0.1332516 0.2 -0.2700876 1 1 1
v -0.1332515 0.2 -0.2700876 1 1 1
v -0.3832515 0.2 -0.2140876 1 1 1
v -0.5 0.2 -0.2140876 1 1 1
v 0.5 0.2 -0.1395 1 1 1
v 0.5 0.1625 -0.1195 1 1 1
v -0.4999999 0.2 -0.1395 1 1 1
v -0.4999999 0.1625 -0.1195 1 1 1
v 0.1291895 0.2 0.5027627 1 1 1

vn -0.3336956 0.7128271 -0.6168669
vn -0.4442756 0.8583854 -0.2565027
vn -0.7010702 0.7128272 0.01944458
vn 0 1 0
vn -0.7100338 0.4728189 0.5218183
vn -0.7641401 0.4705882 0.4411765
vn 0.09689091 0.4728189 0.8758165
vn 0.7100338 0.4728189 -0.5218183
vn 0.7641401 0.4705882 -0.4411765
vn 0 0.4705883 0.8823529
vn -0.09689091 0.4728189 0.8758165
vn 0.09689091 0.4728189 -0.8758165
vn 0 0.4705883 -0.8823529
vn 0.5622518 0.4612201 -0.6864029
vn 0.5465683 0.4589103 -0.7004744
vn 0 0.4705881 -0.8823531
vn 0.09689096 0.4728187 -0.8758165
vn 0.3133164 0.46122 -0.8301258
vn 0.3333445 0.4589103 -0.8235793
vn 0 -1 0
vn -0.5 0 -0.8660254
vn -1 0 0
vn 0.5 0 -0.8660254
vn 1 0 0
vn -0.5 0 0.8660254
vn 0.5000001 0 0.8660253
vn 0.4999999 0 0.8660254
vn 0.5 0 0.8660254
vn 0.5000003 0 0.8660253
vn 0.4999998 0 0.8660255

vt 0.90625 0.125
vt 0.15625 0.125
vt 0.34375 0.075
vt 0.34375 0.175
vt 0.34375 0.1375

usemtl colormap

f 3/1/3 2/1/2 1/1/1
f 6/1/4 5/1/4 4/1/4
f 5/1/4 6/1/4 7/1/4
f 5/1/4 7/1/4 8/1/4
f 5/1/4 8/1/4 9/1/4
f 9/1/4 8/1/4 10/1/4
f 9/1/4 10/1/4 11/1/4
f 11/1/4 10/1/4 12/1/4
f 12/1/4 10/1/4 13/1/4
f 12/1/4 13/1/4 14/1/4
f 14/1/4 13/1/4 15/1/4
f 18/1/5 17/1/6 16/1/5
f 17/1/6 18/1/5 19/1/6
f 11/1/7 21/1/7 20/1/7
f 21/1/7 11/1/7 12/1/7
f 24/1/8 23/1/9 22/1/8
f 23/1/9 24/1/8 25/1/9
f 4/1/10 27/1/11 26/1/10
f 27/1/11 4/1/10 5/1/11
f 18/1/5 2/1/2 3/1/3
f 2/1/2 18/1/5 16/1/5
f 30/1/12 29/1/13 28/1/12
f 29/1/13 30/1/12 31/1/13
f 33/1/15 22/1/8 32/1/14
f 22/1/8 33/1/15 24/1/8
f 36/1/16 35/1/17 34/1/16
f 35/1/17 36/1/16 37/1/17
f 30/1/4 38/1/4 31/1/4
f 38/1/4 30/1/4 39/1/4
f 39/1/4 30/1/4 2/1/4
f 39/1/4 2/1/4 16/1/4
f 17/1/4 39/1/4 16/1/4
f 40/1/4 39/1/4 17/1/4
f 39/1/4 40/1/4 41/1/4
f 37/1/17 42/1/18 35/1/17
f 42/1/18 37/1/17 43/1/19
f 45/1/4 36/1/4 44/1/4
f 45/1/4 37/1/4 36/1/4
f 45/1/4 46/1/4 37/1/4
f 46/1/4 45/1/4 47/1/4
f 46/1/4 43/1/4 37/1/4
f 43/1/4 46/1/4 48/1/4
f 49/1/4 48/1/4 47/1/4
f 48/1/4 33/1/4 43/1/4
f 49/1/4 33/1/4 48/1/4
f 50/1/4 33/1/4 49/1/4
f 50/1/4 24/1/4 33/1/4
f 24/1/4 50/1/4 25/1/4
f 43/1/19 32/1/14 42/1/18
f 32/1/14 43/1/19 33/1/15
f 12/1/7 51/1/10 21/1/7
f 51/1/10 12/1/7 14/1/10
f 9/1/11 20/1/7 52/1/11
f 20/1/7 9/1/11 11/1/7
f 2/1/2 28/1/12 1/1/1
f 28/1/12 2/1/2 30/1/12
f 5/1/11 52/1/11 27/1/11
f 52/1/11 5/1/11 9/1/11
f 55/1/20 54/1/20 53/1/20
f 54/1/20 55/1/20 56/1/20
f 54/1/20 56/1/20 57/1/20
f 54/1/20 57/1/20 58/1/20
f 58/1/20 57/1/20 59/1/20
f 58/1/20 59/1/20 60/1/20
f 58/1/20 60/1/20 61/1/20
f 58/1/20 61/1/20 62/1/20
f 58/1/20 62/1/20 63/1/20
f 64/1/20 58/1/20 63/1/20
f 65/1/21 58/1/21 64/1/21
f 58/1/21 65/1/21 66/1/21
f 61/1/22 67/1/22 62/1/22
f 67/1/22 61/1/22 68/1/22
f 66/1/23 54/1/23 58/1/23
f 54/1/23 66/1/23 69/1/23
f 70/1/24 54/1/24 69/1/24
f 54/1/24 70/1/24 53/1/24
f 71/1/25 61/1/25 60/1/25
f 61/1/25 71/1/25 68/1/25
f 56/1/26 72/1/26 57/1/26
f 72/1/26 56/1/26 73/1/26
f 73/1/24 55/1/24 74/1/24
f 55/1/24 73/1/24 56/1/24
f 75/1/27 60/1/27 59/1/27
f 60/1/27 75/1/27 71/1/27
f 63/1/22 65/1/22 64/1/22
f 65/1/22 63/1/22 76/1/22
f 79/2/22 78/2/22 77/2/22
f 78/2/22 79/2/22 34/2/22
f 34/2/22 79/2/22 80/2/22
f 80/2/22 79/2/22 81/2/22
f 84/2/28 83/2/28 82/2/28
f 83/2/28 84/2/28 85/2/28
f 83/2/28 85/2/28 19/2/28
f 83/2/28 19/2/28 86/2/28
f 29/2/24 88/2/24 87/2/24
f 88/2/24 29/2/24 89/2/24
f 89/2/24 29/2/24 90/2/24
f 91/2/24 89/2/24 90/2/24
f 87/2/4 92/2/4 29/2/4
f 92/2/4 87/2/4 93/2/4
f 92/2/4 93/2/4 94/2/4
f 94/2/4 93/2/4 95/2/4
f 94/2/4 95/2/4 96/2/4
f 96/2/4 95/2/4 97/2/4
f 96/2/4 97/2/4 22/2/4
f 22/2/4 97/2/4 98/2/4
f 86/2/4 96/2/4 22/2/4
f 86/2/4 18/2/4 96/2/4
f 18/2/4 86/2/4 19/2/4
f 98/2/4 97/2/4 42/2/4
f 42/2/4 97/2/4 99/2/4
f 42/2/4 99/2/4 100/2/4
f 100/2/4 99/2/4 78/2/4
f 100/2/4 78/2/4 34/2/4
f 103/4/23 102/3/23 101/3/23
f 102/3/23 103/4/23 104/4/23
f 105/4/21 101/3/21 65/3/21
f 101/3/21 105/4/21 103/4/21
f 107/4/25 68/3/25 106/3/25
f 68/3/25 107/4/25 108/4/25
f 68/3/22 109/5/22 67/3/22
f 109/5/22 68/3/22 110/4/22
f 110/4/22 68/3/22 111/4/22
f 111/4/22 68/3/22 108/4/22
f 113/4/29 72/3/29 112/3/29
f 72/3/29 113/4/29 114/5/29
f 114/5/29 113/4/29 115/4/29
f 115/4/29 116/4/29 114/5/29
f 116/4/29 115/4/29 117/4/29
f 119/4/4 113/4/4 118/4/4
f 113/4/4 119/4/4 115/4/4
f 120/5/24 112/3/24 74/3/24
f 112/3/24 120/5/24 121/4/24
f 112/3/24 121/4/24 118/4/24
f 112/3/24 118/4/24 113/4/24
f 123/4/4 107/4/4 122/4/4
f 107/4/4 123/4/4 124/4/4
f 107/4/4 124/4/4 108/4/4
f 108/4/4 124/4/4 125/4/4
f 108/4/4 125/4/4 111/4/4
f 104/4/4 127/4/4 126/4/4
f 127/4/4 104/4/4 103/4/4
f 127/4/4 103/4/4 128/4/4
f 128/4/4 103/4/4 129/4/4
f 129/4/4 103/4/4 105/4/4
f 129/4/4 105/4/4 130/4/4
f 130/4/4 105/4/4 131/4/4
f 126/4/24 102/3/24 104/4/24
f 102/3/24 126/4/24 70/3/24
f 70/3/24 126/4/24 132/4/24
f 70/3/24 132/4/24 133/5/24
f 76/3/22 105/4/22 65/3/22
f 105/4/22 76/3/22 131/4/22
f 131/4/22 76/3/22 134/4/22
f 134/4/22 76/3/22 135/5/22
f 136/4/30 122/4/30 23/5/30
f 107/4/30 23/5/30 122/4/30
f 106/3/30 23/5/30 107/4/30
f 23/5/30 106/3/30 83/3/30

g river-intersectionC




usemtl colormap

f 3/1/3 2/1/2 1/1/1
f 6/1/4 5/1/4 4/1/4
f 5/1/4 6/1/4 7/1/4
f 5/1/4 7/1/4 8/1/4
f 5/1/4 8/1/4 9/1/4
f 9/1/4 8/1/4 10/1/4
f 9/1/4 10/1/4 11/1/4
f 11/1/4 10/1/4 12/1/4
f 12/1/4 10/1/4 13/1/4
f 12/1/4 13/1/4 14/1/4
f 14/1/4 13/1/4 15/1/4
f 18/1/5 17/1/6 16/1/5
f 17/1/6 18/1/5 19/1/6
f 11/1/7 21/1/7 20/1/7
f 21/1/7 11/1/7 12/1/7
f 24/1/8 23/1/9 22/1/8
f 23/1/9 24/1/8 25/1/9
f 4/1/10 27/1/11 26/1/10
f 27/1/11 4/1/10 5/1/11
f 18/1/5 2/1/2 3/1/3
f 2/1/2 18/1/5 16/1/5
f 30/1/12 29/1/13 28/1/12
f 29/1/13 30/1/12 31/1/13
f 33/1/15 22/1/8 32/1/14
f 22/1/8 33/1/15 24/1/8
f 36/1/16 35/1/17 34/1/16
f 35/1/17 36/1/16 37/1/17
f 30/1/4 38/1/4 31/1/4
f 38/1/4 30/1/4 39/1/4
f 39/1/4 30/1/4 2/1/4
f 39/1/4 2/1/4 16/1/4
f 17/1/4 39/1/4 16/1/4
f 40/1/4 39/1/4 17/1/4
f 39/1/4 40/1/4 41/1/4
f 37/1/17 42/1/18 35/1/17
f 42/1/18 37/1/17 43/1/19
f 45/1/4 36/1/4 44/1/4
f 45/1/4 37/1/4 36/1/4
f 45/1/4 46/1/4 37/1/4
f 46/1/4 45/1/4 47/1/4
f 46/1/4 43/1/4 37/1/4
f 43/1/4 46/1/4 48/1/4
f 49/1/4 48/1/4 47/1/4
f 48/1/4 33/1/4 43/1/4
f 49/1/4 33/1/4 48/1/4
f 50/1/4 33/1/4 49/1/4
f 50/1/4 24/1/4 33/1/4
f 24/1/4 50/1/4 25/1/4
f 43/1/19 32/1/14 42/1/18
f 32/1/14 43/1/19 33/1/15
f 12/1/7 51/1/10 21/1/7
f 51/1/10 12/1/7 14/1/10
f 9/1/11 20/1/7 52/1/11
f 20/1/7 9/1/11 11/1/7
f 2/1/2 28/1/12 1/1/1
f 28/1/12 2/1/2 30/1/12
f 5/1/11 52/1/11 27/1/11
f 52/1/11 5/1/11 9/1/11
f 55/1/20 54/1/20 53/1/20
f 54/1/20 55/1/20 56/1/20
f 54/1/20 56/1/20 57/1/20
f 54/1/20 57/1/20 58/1/20
f 58/1/20 57/1/20 59/1/20
f 58/1/20 59/1/20 60/1/20
f 58/1/20 60/1/20 61/1/20
f 58/1/20 61/1/20 62/1/20
f 58/1/20 62/1/20 63/1/20
f 64/1/20 58/1/20 63/1/20
f 65/1/21 58/1/21 64/1/21
f 58/1/21 65/1/21 66/1/21
f 61/1/22 67/1/22 62/1/22
f 67/1/22 61/1/22 68/1/22
f 66/1/23 54/1/23 58/1/23
f 54/1/23 66/1/23 69/1/23
f 70/1/24 54/1/24 69/1/24
f 54/1/24 70/1/24 53/1/24
f 71/1/25 61/1/25 60/1/25
f 61/1/25 71/1/25 68/1/25
f 56/1/26 72/1/26 57/1/26
f 72/1/26 56/1/26 73/1/26
f 73/1/24 55/1/24 74/1/24
f 55/1/24 73/1/24 56/1/24
f 75/1/27 60/1/27 59/1/27
f 60/1/27 75/1/27 71/1/27
f 63/1/22 65/1/22 64/1/22
f 65/1/22 63/1/22 76/1/22
f 79/2/22 78/2/22 77/2/22
f 78/2/22 79/2/22 34/2/22
f 34/2/22 79/2/22 80/2/22
f 80/2/22 79/2/22 81/2/22
f 84/2/28 83/2/28 82/2/28
f 83/2/28 84/2/28 85/2/28
f 83/2/28 85/2/28 19/2/28
f 83/2/28 19/2/28 86/2/28
f 29/2/24 88/2/24 87/2/24
f 88/2/24 29/2/24 89/2/24
f 89/2/24 29/2/24 90/2/24
f 91/2/24 89/2/24 90/2/24
f 87/2/4 92/2/4 29/2/4
f 92/2/4 87/2/4 93/2/4
f 92/2/4 93/2/4 94/2/4
f 94/2/4 93/2/4 95/2/4
f 94/2/4 95/2/4 96/2/4
f 96/2/4 95/2/4 97/2/4
f 96/2/4 97/2/4 22/2/4
f 22/2/4 97/2/4 98/2/4
f 86/2/4 96/2/4 22/2/4
f 86/2/4 18/2/4 96/2/4
f 18/2/4 86/2/4 19/2/4
f 98/2/4 97/2/4 42/2/4
f 42/2/4 97/2/4 99/2/4
f 42/2/4 99/2/4 100/2/4
f 100/2/4 99/2/4 78/2/4
f 100/2/4 78/2/4 34/2/4
f 103/4/23 102/3/23 101/3/23
f 102/3/23 103/4/23 104/4/23
f 105/4/21 101/3/21 65/3/21
f 101/3/21 105/4/21 103/4/21
f 107/4/25 68/3/25 106/3/25
f 68/3/25 107/4/25 108/4/25
f 68/3/22 109/5/22 67/3/22
f 109/5/22 68/3/22 110/4/22
f 110/4/22 68/3/22 111/4/22
f 111/4/22 68/3/22 108/4/22
f 113/4/29 72/3/29 112/3/29
f 72/3/29 113/4/29 114/5/29
f 114/5/29 113/4/29 115/4/29
f 115/4/29 116/4/29 114/5/29
f 116/4/29 115/4/29 117/4/29
f 119/4/4 113/4/4 118/4/4
f 113/4/4 119/4/4 115/4/4
f 120/5/24 112/3/24 74/3/24
f 112/3/24 120/5/24 121/4/24
f 112/3/24 121/4/24 118/4/24
f 112/3/24 118/4/24 113/4/24
f 123/4/4 107/4/4 122/4/4
f 107/4/4 123/4/4 124/4/4
f 107/4/4 124/4/4 108/4/4
f 108/4/4 124/4/4 125/4/4
f 108/4/4 125/4/4 111/4/4
f 104/4/4 127/4/4 126/4/4
f 127/4/4 104/4/4 103/4/4
f 127/4/4 103/4/4 128/4/4
f 128/4/4 103/4/4 129/4/4
f 129/4/4 103/4/4 105/4/4
f 129/4/4 105/4/4 130/4/4
f 130/4/4 105/4/4 131/4/4
f 126/4/24 102/3/24 104/4/24
f 102/3/24 126/4/24 70/3/24
f 70/3/24 126/4/24 132/4/24
f 70/3/24 132/4/24 133/5/24
f 76/3/22 105/4/22 65/3/22
f 105/4/22 76/3/22 131/4/22
f 131/4/22 76/3/22 134/4/22
f 134/4/22 76/3/22 135/5/22
f 136/4/30 122/4/30 23/5/30
f 107/4/30 23/5/30 122/4/30
f 106/3/30 23/5/30 107/4/30
f 23/5/30 106/3/30 83/3/30

