# Created by Kenney (www.kenney.nl)

mtllib river-intersectionH.mtl

g river-intersectionH

v -0.35349 0.1625 -0.3732627 1 1 1
v -0.2898837 0.1625 -0.2630934 1 1 1
v -0.3708105 0.2 -0.3632627 1 1 1
v -0.3083105 0.2 -0.2550095 1 1 1
v 0.4354053 0.2 -0.3259689 1 1 1
v 0.3708105 0.2 -0.2140876 1 1 1
v 0.3708105 0.2 -0.3632627 1 1 1
v 0.3083106 0.2 -0.2550095 1 1 1
v 0.2789043 0.2 -0.1610254 1 1 1
v 0.375 0.2 -0.1395 1 1 1
v 0.5 0.2 -0.2140876 1 1 1
v 0.5 0.2 -0.1395 1 1 1
v -0.06668945 0.2 -0.3945095 1 1 1
v -0.004422192 0.2 -0.1955 1 1 1
v -0.08511625 0.1625 -0.3864257 1 1 1
v -0.0191206 0.1625 -0.1755 1 1 1
v -0.3727874 0.1625 -0.1195 1 1 1
v -0.5 0.1625 -0.1195 1 1 1
v -0.375 0.2 -0.1395 1 1 1
v -0.5 0.2 -0.1395 1 1 1
v -0.2533279 0.1625 -0.1462589 1 1 1
v -0.2789042 0.2 -0.1610254 1 1 1
v 0.3772126 0.1625 0.1195 1 1 1
v 0.5 0.1625 0.1195 1 1 1
v 0.375 0.2 0.1395 1 1 1
v 0.5 0.2 0.1395 1 1 1
v 0.1272126 0.1625 0.06349999 1 1 1
v 0.125 0.2 0.08350001 1 1 1
v 0.3534901 0.1625 -0.3732627 1 1 1
v 0.2898838 0.1625 -0.2630934 1 1 1
v -0.1291894 0.2 -0.5027627 1 1 1
v -0.14651 0.1625 -0.4927627 1 1 1
v -0.5 0.1625 0.1195 1 1 1
v -0.3772126 0.1625 0.1195 1 1 1
v -0.5 0.2 0.1395 1 1 1
v -0.375 0.2 0.1395 1 1 1
v 0.1291895 0.2 -0.5027627 1 1 1
v 0.06668947 0.2 -0.3945095 1 1 1
v 0.06459471 0.2 -0.5400565 1 1 1
v 0.004422203 0.2 -0.1955 1 1 1
v -1.455835E-08 0.2 -0.4281751 1 1 1
v -0.06459475 0.2 -0.5400565 1 1 1
v 0.08511627 0.1625 -0.3864257 1 1 1
v 0.01912061 0.1625 -0.1755 1 1 1
v -0.1272126 0.1625 0.06349999 1 1 1
v -0.125 0.2 0.08350001 1 1 1
v 0.5 0.2 0.2140875 1 1 1
v 0.3667485 0.2 0.2140875 1 1 1
v 0.1167484 0.2 0.1580876 1 1 1
v -0.1167484 0.2 0.1580876 1 1 1
v -0.3667484 0.2 0.2140875 1 1 1
v -0.5 0.2 0.2140875 1 1 1
v 0.5 0.1625 -0.1195 1 1 1
v 0.3727874 0.1625 -0.1195 1 1 1
v -0.3708105 0.2 -0.2140876 1 1 1
v -0.4354053 0.2 -0.3259689 1 1 1
v -0.5 0.2 -0.2140876 1 1 1
v 0.2533279 0.1625 -0.1462589 1 1 1
v 0.14651 0.1625 -0.4927627 1 1 1
v -8.787254E-09 6.010353E-18 -0.5773503 1 1 1
v 0.14651 8.645109E-18 -0.4927627 1 1 1
v -8.787254E-09 0.1 -0.5773503 1 1 1
v 0.14651 0.1 -0.4927627 1 1 1
v 0.5 0 -0.1195 1 1 1
v 0.5 6.010353E-18 -0.2886751 1 1 1
v 0.5 1.75963E-18 0.1195 1 1 1
v 0.5 6.010353E-18 0.2886751 1 1 1
v -8.786998E-09 6.010353E-18 0.5773503 1 1 1
v 0.3534901 1.127987E-17 -0.3732627 1 1 1
v -0.5 6.010353E-18 0.2886751 1 1 1
v -0.14651 1.127987E-17 -0.4927627 1 1 1
v -0.35349 8.645109E-18 -0.3732627 1 1 1
v -0.5 8.645109E-18 0.1195 1 1 1
v -0.5 9.191119E-18 -0.1195 1 1 1
v -0.5 6.010353E-18 -0.2886751 1 1 1
v 0.5 0.1 0.2886751 1 1 1
v -8.786998E-09 0.1 0.5773503 1 1 1
v -0.5 0.1 0.2886751 1 1 1
v 0.5 0.1 -0.2886751 1 1 1
v 0.5 0.1 -0.1195 1 1 1
v -0.5 0.1 -0.2886751 1 1 1
v -0.35349 0.1 -0.3732627 1 1 1
v -0.5 0.1 0.1195 1 1 1
v 0.5 0.1 0.1195 1 1 1
v -0.14651 0.1 -0.4927627 1 1 1
v -0.5 0.1 -0.1195 1 1 1
v 0.3534901 0.1 -0.3732627 1 1 1
v 0.14651 0.1625 -0.4927627 1 1 1
v 0.1272126 0.1625 0.0635 1 1 1
v 0.08511626 0.1625 -0.3864257 1 1 1
v 0.3727874 0.1625 -0.1195 1 1 1
v 0.3772126 0.1625 0.1195 1 1 1
v 0.5 0.1625 0.1195 1 1 1
v 0.5 0.1625 -0.1195 1 1 1
v -0.1272126 0.1625 0.0635 1 1 1
v -0.3772126 0.1625 0.1195 1 1 1
v -0.35349 0.1625 -0.3732627 1 1 1
v -0.3727874 0.1625 -0.1195 1 1 1
v -0.5 0.1625 -0.1195 1 1 1
v -0.5 0.1625 0.1195 1 1 1
v -0.3534901 2.634756E-18 -0.3732627 1 1 1
v -0.14651 5.269513E-18 -0.4927627 1 1 1
v -0.3534901 0.1 -0.3732627 1 1 1
v 0.14651 2.634756E-18 -0.4927627 1 1 1
v 0.35349 5.269513E-18 -0.3732627 1 1 1
v 0.14651 0.1 -0.4927627 1 1 1
v 0.35349 0.1 -0.3732627 1 1 1
v -0.5 3.180766E-18 -0.1195 1 1 1
v -0.5 0.1 -0.1195 1 1 1
v -0.5 2.634756E-18 0.1195 1 1 1
v -0.5 0.1 0.1195 1 1 1
v 0.5 0.1 -0.1195 1 1 1
v 0.5 -6.010353E-18 -0.1195 1 1 1
v 0.5 -4.250723E-18 0.1195 1 1 1
v 0.5 0.1 0.1195 1 1 1
v -1.455733E-08 0.1 0.5773503 1 1 1
v 0.5 0.2 0.2886751 1 1 1
v -1.455733E-08 0.2 0.5773503 1 1 1
v -0.5 0.2 0.2886751 1 1 1
v -0.5 0.2 -0.2886751 1 1 1
v -0.3708105 0.2 -0.3632627 1 1 1
v -0.4354053 0.2 -0.3259689 1 1 1
v -1.455759E-08 0.1 -0.5773503 1 1 1
v -1.455759E-08 0.2 -0.5773503 1 1 1
v 0.14651 0.1625 -0.4927627 1 1 1
v 0.1291895 0.2 -0.5027627 1 1 1
v 0.06459471 0.2 -0.5400565 1 1 1
v -1.455835E-08 0.2 -0.4281751 1 1 1
v -0.06459475 0.2 -0.5400565 1 1 1
v 0.5 0.2 -0.2886751 1 1 1
v 0.5 0.2 -0.2140876 1 1 1
v 0.5 0.2 -0.1395 1 1 1
v -0.5 0.2 0.1395 1 1 1
v -0.5 0.2 0.2140876 1 1 1
v -0.5 0.2 -0.2140876 1 1 1
v -0.5 0.2 -0.1395 1 1 1
v 0.3708105 0.2 -0.2140876 1 1 1
v 0.4354053 0.2 -0.3259689 1 1 1
v 0.5 0.2 0.1395 1 1 1
v 0.5 0.2 0.2140876 1 1 1
v 0.3667485 0.2 0.2140876 1 1 1
v 0.1167484 0.2 0.1580876 1 1 1
v -0.1167484 0.2 0.1580876 1 1 1
v -0.3667484 0.2 0.2140876 1 1 1
v -0.3708105 0.2 -0.2140876 1 1 1
v -0.1291894 0.2 -0.5027627 1 1 1
v 0.3708105 0.2 -0.3632627 1 1 1

vn 0.7641401 0.4705882 -0.4411765
vn 0.8069248 0.4728189 -0.3539982
vn 0 1 0
vn -0.8069248 0.4728189 0.3539982
vn -0.4938259 0.5519294 0.671945
vn 0.09689091 0.4728189 0.8758165
vn 0 0.4705883 0.8823529
vn 0.6803653 0.6187117 0.3928091
vn 0.09689091 0.4728189 -0.8758165
vn 0 0.4705883 -0.8823529
vn -0.7641401 0.4705882 -0.4411765
vn -0.8069248 0.4728189 -0.3539982
vn -0.7641401 0.4705882 0.4411765
vn -0.09689091 0.4728189 -0.8758165
vn 0.8069248 0.4728189 0.3539982
vn 0.4938259 0.5519294 0.671945
vn -0.09689091 0.4728189 0.8758165
vn -0.6803653 0.6187117 0.3928091
vn 0.7641401 0.4705882 0.4411765
vn 0.5 0 -0.8660254
vn 0 -1 0
vn 0.5 0 0.8660254
vn -0.5 0 0.8660254
vn 1 0 0
vn -0.5 0 -0.8660254
vn -1 0 0
vn -0.5000001 0 -0.8660254
vn -0.5 0 -0.8660254
vn -0.4999999 0 -0.8660254
vn 0.5 0 -0.8660254
vn -0.5000001 0 -0.8660253
vn 0.5000001 0 -0.8660254

vt 0.90625 0.125
vt 0.15625 0.125
vt 0.34375 0.075
vt 0.34375 0.175
vt 0.34375 0.1375

usemtl colormap

f 3/1/1 2/1/2 1/1/1
f 2/1/2 3/1/1 4/1/2
f 7/1/3 6/1/3 5/1/3
f 6/1/3 7/1/3 8/1/3
f 9/1/3 6/1/3 8/1/3
f 10/1/3 6/1/3 9/1/3
f 10/1/3 11/1/3 6/1/3
f 11/1/3 10/1/3 12/1/3
f 15/1/4 14/1/5 13/1/4
f 14/1/5 15/1/4 16/1/5
f 19/1/6 18/1/7 17/1/6
f 18/1/7 19/1/6 20/1/7
f 21/1/8 19/1/6 17/1/6
f 19/1/6 21/1/8 22/1/8
f 25/1/9 24/1/10 23/1/9
f 24/1/10 25/1/9 26/1/10
f 28/1/9 23/1/9 27/1/9
f 23/1/9 28/1/9 25/1/9
f 30/1/12 7/1/11 29/1/11
f 7/1/11 30/1/12 8/1/12
f 32/1/13 13/1/4 31/1/13
f 13/1/4 32/1/13 15/1/4
f 35/1/10 34/1/14 33/1/10
f 34/1/14 35/1/10 36/1/14
f 39/1/3 38/1/3 37/1/3
f 38/1/3 39/1/3 40/1/3
f 40/1/3 39/1/3 41/1/3
f 40/1/3 41/1/3 14/1/3
f 14/1/3 41/1/3 42/1/3
f 14/1/3 42/1/3 13/1/3
f 13/1/3 42/1/3 31/1/3
f 4/1/2 21/1/8 2/1/2
f 21/1/8 4/1/2 22/1/8
f 40/1/16 43/1/15 38/1/15
f 43/1/15 40/1/16 44/1/16
f 46/1/14 27/1/9 45/1/14
f 27/1/9 46/1/14 28/1/9
f 25/1/3 47/1/3 26/1/3
f 47/1/3 25/1/3 48/1/3
f 48/1/3 25/1/3 28/1/3
f 48/1/3 28/1/3 49/1/3
f 49/1/3 28/1/3 46/1/3
f 49/1/3 46/1/3 50/1/3
f 50/1/3 46/1/3 51/1/3
f 51/1/3 46/1/3 36/1/3
f 51/1/3 36/1/3 52/1/3
f 52/1/3 36/1/3 35/1/3
f 12/1/7 54/1/17 53/1/7
f 54/1/17 12/1/7 10/1/17
f 56/1/3 55/1/3 3/1/3
f 55/1/3 4/1/3 3/1/3
f 19/1/3 4/1/3 55/1/3
f 4/1/3 19/1/3 22/1/3
f 19/1/3 55/1/3 57/1/3
f 19/1/3 57/1/3 20/1/3
f 36/1/14 45/1/14 34/1/14
f 45/1/14 36/1/14 46/1/14
f 58/1/18 8/1/12 30/1/12
f 8/1/12 58/1/18 9/1/18
f 38/1/15 59/1/19 37/1/19
f 59/1/19 38/1/15 43/1/15
f 40/1/16 16/1/5 44/1/16
f 16/1/5 40/1/16 14/1/5
f 10/1/17 58/1/18 54/1/17
f 58/1/18 10/1/17 9/1/18
f 62/1/20 61/1/20 60/1/20
f 61/1/20 62/1/20 63/1/20
f 66/1/21 65/1/21 64/1/21
f 65/1/21 66/1/21 67/1/21
f 65/1/21 67/1/21 68/1/21
f 65/1/21 68/1/21 69/1/21
f 69/1/21 68/1/21 61/1/21
f 61/1/21 68/1/21 60/1/21
f 60/1/21 68/1/21 70/1/21
f 60/1/21 70/1/21 71/1/21
f 71/1/21 70/1/21 72/1/21
f 72/1/21 70/1/21 73/1/21
f 72/1/21 73/1/21 74/1/21
f 75/1/21 72/1/21 74/1/21
f 76/1/22 68/1/22 67/1/22
f 68/1/22 76/1/22 77/1/22
f 77/1/23 70/1/23 68/1/23
f 70/1/23 77/1/23 78/1/23
f 80/1/24 65/1/24 79/1/24
f 65/1/24 80/1/24 64/1/24
f 81/1/25 72/1/25 75/1/25
f 72/1/25 81/1/25 82/1/25
f 70/1/26 83/1/26 73/1/26
f 83/1/26 70/1/26 78/1/26
f 76/1/24 66/1/24 84/1/24
f 66/1/24 76/1/24 67/1/24
f 71/1/27 62/1/27 60/1/27
f 62/1/27 71/1/27 85/1/27
f 74/1/26 81/1/26 75/1/26
f 81/1/26 74/1/26 86/1/26
f 69/1/20 79/1/20 65/1/20
f 79/1/20 69/1/20 87/1/20
f 88/2/3 30/2/3 29/2/3
f 30/2/3 88/2/3 58/2/3
f 89/2/3 58/2/3 88/2/3
f 89/2/3 88/2/3 90/2/3
f 89/2/3 90/2/3 44/2/3
f 89/2/3 91/2/3 58/2/3
f 92/2/3 91/2/3 89/2/3
f 93/2/3 91/2/3 92/2/3
f 91/2/3 93/2/3 94/2/3
f 89/2/3 44/2/3 95/2/3
f 95/2/3 44/2/3 16/2/3
f 95/2/3 16/2/3 15/2/3
f 95/2/3 15/2/3 32/2/3
f 95/2/3 32/2/3 21/2/3
f 95/2/3 21/2/3 96/2/3
f 32/2/3 2/2/3 21/2/3
f 2/2/3 32/2/3 97/2/3
f 96/2/3 21/2/3 98/2/3
f 96/2/3 98/2/3 99/2/3
f 96/2/3 99/2/3 100/2/3
f 103/2/28 102/2/28 101/2/28
f 102/2/28 103/2/28 85/2/28
f 85/2/28 103/2/28 97/2/28
f 85/2/28 97/2/28 32/2/28
f 106/2/20 105/2/20 104/2/20
f 105/2/20 106/2/20 107/2/20
f 107/2/20 106/2/20 88/2/20
f 107/2/20 88/2/20 29/2/20
f 110/2/26 109/2/26 108/2/26
f 109/2/26 110/2/26 99/2/26
f 99/2/26 110/2/26 100/2/26
f 100/2/26 110/2/26 111/2/26
f 93/2/24 112/2/24 94/2/24
f 112/2/24 93/2/24 113/2/24
f 113/2/24 93/2/24 114/2/24
f 114/2/24 93/2/24 115/2/24
f 117/4/22 116/3/22 76/3/22
f 116/3/22 117/4/22 118/4/22
f 118/4/23 78/3/23 116/3/23
f 78/3/23 118/4/23 119/4/23
f 120/4/29 82/3/29 81/3/29
f 82/3/29 120/4/29 97/5/29
f 97/5/29 120/4/29 121/4/29
f 121/4/29 120/4/29 122/4/29
f 124/4/30 106/3/30 123/3/30
f 106/3/30 124/4/30 125/5/30
f 125/5/30 124/4/30 126/4/30
f 126/4/30 124/4/30 127/4/30
f 124/4/3 128/4/3 127/4/3
f 128/4/3 124/4/3 129/4/3
f 131/4/24 79/3/24 130/4/24
f 79/3/24 131/4/24 80/3/24
f 80/3/24 131/4/24 132/4/24
f 80/3/24 132/4/24 53/5/24
f 78/3/26 33/5/26 83/3/26
f 33/5/26 78/3/26 133/4/26
f 133/4/26 78/3/26 134/4/26
f 134/4/26 78/3/26 119/4/26
f 86/3/26 120/4/26 81/3/26
f 120/4/26 86/3/26 135/4/26
f 135/4/26 86/3/26 136/4/26
f 136/4/26 86/3/26 18/5/26
f 130/4/3 137/4/3 131/4/3
f 137/4/3 130/4/3 138/4/3
f 139/4/24 84/3/24 24/5/24
f 84/3/24 139/4/24 76/3/24
f 76/3/24 139/4/24 140/4/24
f 76/3/24 140/4/24 117/4/24
f 141/4/3 117/4/3 140/4/3
f 117/4/3 141/4/3 118/4/3
f 118/4/3 141/4/3 142/4/3
f 118/4/3 142/4/3 143/4/3
f 118/4/3 143/4/3 119/4/3
f 119/4/3 143/4/3 144/4/3
f 119/4/3 144/4/3 134/4/3
f 122/4/3 135/4/3 145/4/3
f 135/4/3 122/4/3 120/4/3
f 32/5/31 123/3/31 85/3/31
f 123/3/31 32/5/31 124/4/31
f 124/4/31 32/5/31 146/4/31
f 124/4/31 146/4/31 129/4/31
f 29/5/32 79/3/32 87/3/32
f 79/3/32 29/5/32 130/4/32
f 130/4/32 29/5/32 147/4/32
f 130/4/32 147/4/32 138/4/32

g river-intersectionH




usemtl colormap

f 3/1/1 2/1/2 1/1/1
f 2/1/2 3/1/1 4/1/2
f 7/1/3 6/1/3 5/1/3
f 6/1/3 7/1/3 8/1/3
f 9/1/3 6/1/3 8/1/3
f 10/1/3 6/1/3 9/1/3
f 10/1/3 11/1/3 6/1/3
f 11/1/3 10/1/3 12/1/3
f 15/1/4 14/1/5 13/1/4
f 14/1/5 15/1/4 16/1/5
f 19/1/6 18/1/7 17/1/6
f 18/1/7 19/1/6 20/1/7
f 21/1/8 19/1/6 17/1/6
f 19/1/6 21/1/8 22/1/8
f 25/1/9 24/1/10 23/1/9
f 24/1/10 25/1/9 26/1/10
f 28/1/9 23/1/9 27/1/9
f 23/1/9 28/1/9 25/1/9
f 30/1/12 7/1/11 29/1/11
f 7/1/11 30/1/12 8/1/12
f 32/1/13 13/1/4 31/1/13
f 13/1/4 32/1/13 15/1/4
f 35/1/10 34/1/14 33/1/10
f 34/1/14 35/1/10 36/1/14
f 39/1/3 38/1/3 37/1/3
f 38/1/3 39/1/3 40/1/3
f 40/1/3 39/1/3 41/1/3
f 40/1/3 41/1/3 14/1/3
f 14/1/3 41/1/3 42/1/3
f 14/1/3 42/1/3 13/1/3
f 13/1/3 42/1/3 31/1/3
f 4/1/2 21/1/8 2/1/2
f 21/1/8 4/1/2 22/1/8
f 40/1/16 43/1/15 38/1/15
f 43/1/15 40/1/16 44/1/16
f 46/1/14 27/1/9 45/1/14
f 27/1/9 46/1/14 28/1/9
f 25/1/3 47/1/3 26/1/3
f 47/1/3 25/1/3 48/1/3
f 48/1/3 25/1/3 28/1/3
f 48/1/3 28/1/3 49/1/3
f 49/1/3 28/1/3 46/1/3
f 49/1/3 46/1/3 50/1/3
f 50/1/3 46/1/3 51/1/3
f 51/1/3 46/1/3 36/1/3
f 51/1/3 36/1/3 52/1/3
f 52/1/3 36/1/3 35/1/3
f 12/1/7 54/1/17 53/1/7
f 54/1/17 12/1/7 10/1/17
f 56/1/3 55/1/3 3/1/3
f 55/1/3 4/1/3 3/1/3
f 19/1/3 4/1/3 55/1/3
f 4/1/3 19/1/3 22/1/3
f 19/1/3 55/1/3 57/1/3
f 19/1/3 57/1/3 20/1/3
f 36/1/14 45/1/14 34/1/14
f 45/1/14 36/1/14 46/1/14
f 58/1/18 8/1/12 30/1/12
f 8/1/12 58/1/18 9/1/18
f 38/1/15 59/1/19 37/1/19
f 59/1/19 38/1/15 43/1/15
f 40/1/16 16/1/5 44/1/16
f 16/1/5 40/1/16 14/1/5
f 10/1/17 58/1/18 54/1/17
f 58/1/18 10/1/17 9/1/18
f 62/1/20 61/1/20 60/1/20
f 61/1/20 62/1/20 63/1/20
f 66/1/21 65/1/21 64/1/21
f 65/1/21 66/1/21 67/1/21
f 65/1/21 67/1/21 68/1/21
f 65/1/21 68/1/21 69/1/21
f 69/1/21 68/1/21 61/1/21
f 61/1/21 68/1/21 60/1/21
f 60/1/21 68/1/21 70/1/21
f 60/1/21 70/1/21 71/1/21
f 71/1/21 70/1/21 72/1/21
f 72/1/21 70/1/21 73/1/21
f 72/1/21 73/1/21 74/1/21
f 75/1/21 72/1/21 74/1/21
f 76/1/22 68/1/22 67/1/22
f 68/1/22 76/1/22 77/1/22
f 77/1/23 70/1/23 68/1/23
f 70/1/23 77/1/23 78/1/23
f 80/1/24 65/1/24 79/1/24
f 65/1/24 80/1/24 64/1/24
f 81/1/25 72/1/25 75/1/25
f 72/1/25 81/1/25 82/1/25
f 70/1/26 83/1/26 73/1/26
f 83/1/26 70/1/26 78/1/26
f 76/1/24 66/1/24 84/1/24
f 66/1/24 76/1/24 67/1/24
f 71/1/27 62/1/27 60/1/27
f 62/1/27 71/1/27 85/1/27
f 74/1/26 81/1/26 75/1/26
f 81/1/26 74/1/26 86/1/26
f 69/1/20 79/1/20 65/1/20
f 79/1/20 69/1/20 87/1/20
f 88/2/3 30/2/3 29/2/3
f 30/2/3 88/2/3 58/2/3
f 89/2/3 58/2/3 88/2/3
f 89/2/3 88/2/3 90/2/3
f 89/2/3 90/2/3 44/2/3
f 89/2/3 91/2/3 58/2/3
f 92/2/3 91/2/3 89/2/3
f 93/2/3 91/2/3 92/2/3
f 91/2/3 93/2/3 94/2/3
f 89/2/3 44/2/3 95/2/3
f 95/2/3 44/2/3 16/2/3
f 95/2/3 16/2/3 15/2/3
f 95/2/3 15/2/3 32/2/3
f 95/2/3 32/2/3 21/2/3
f 95/2/3 21/2/3 96/2/3
f 32/2/3 2/2/3 21/2/3
f 2/2/3 32/2/3 97/2/3
f 96/2/3 21/2/3 98/2/3
f 96/2/3 98/2/3 99/2/3
f 96/2/3 99/2/3 100/2/3
f 103/2/28 102/2/28 101/2/28
f 102/2/28 103/2/28 85/2/28
f 85/2/28 103/2/28 97/2/28
f 85/2/28 97/2/28 32/2/28
f 106/2/20 105/2/20 104/2/20
f 105/2/20 106/2/20 107/2/20
f 107/2/20 106/2/20 88/2/20
f 107/2/20 88/2/20 29/2/20
f 110/2/26 109/2/26 108/2/26
f 109/2/26 110/2/26 99/2/26
f 99/2/26 110/2/26 100/2/26
f 100/2/26 110/2/26 111/2/26
f 93/2/24 112/2/24 94/2/24
f 112/2/24 93/2/24 113/2/24
f 113/2/24 93/2/24 114/2/24
f 114/2/24 93/2/24 115/2/24
f 117/4/22 116/3/22 76/3/22
f 116/3/22 117/4/22 118/4/22
f 118/4/23 78/3/23 116/3/23
f 78/3/23 118/4/23 119/4/23
f 120/4/29 82/3/29 81/3/29
f 82/3/29 120/4/29 97/5/29
f 97/5/29 120/4/29 121/4/29
f 121/4/29 120/4/29 122/4/29
f 124/4/30 106/3/30 123/3/30
f 106/3/30 124/4/30 125/5/30
f 125/5/30 124/4/30 126/4/30
f 126/4/30 124/4/30 127/4/30
f 124/4/3 128/4/3 127/4/3
f 128/4/3 124/4/3 129/4/3
f 131/4/24 79/3/24 130/4/24
f 79/3/24 131/4/24 80/3/24
f 80/3/24 131/4/24 132/4/24
f 80/3/24 132/4/24 53/5/24
f 78/3/26 33/5/26 83/3/26
f 33/5/26 78/3/26 133/4/26
f 133/4/26 78/3/26 134/4/26
f 134/4/26 78/3/26 119/4/26
f 86/3/26 120/4/26 81/3/26
f 120/4/26 86/3/26 135/4/26
f 135/4/26 86/3/26 136/4/26
f 136/4/26 86/3/26 18/5/26
f 130/4/3 137/4/3 131/4/3
f 137/4/3 130/4/3 138/4/3
f 139/4/24 84/3/24 24/5/24
f 84/3/24 139/4/24 76/3/24
f 76/3/24 139/4/24 140/4/24
f 76/3/24 140/4/24 117/4/24
f 141/4/3 117/4/3 140/4/3
f 117/4/3 141/4/3 118/4/3
f 118/4/3 141/4/3 142/4/3
f 118/4/3 142/4/3 143/4/3
f 118/4/3 143/4/3 119/4/3
f 119/4/3 143/4/3 144/4/3
f 119/4/3 144/4/3 134/4/3
f 122/4/3 135/4/3 145/4/3
f 135/4/3 122/4/3 120/4/3
f 32/5/31 123/3/31 85/3/31
f 123/3/31 32/5/31 124/4/31
f 124/4/31 32/5/31 146/4/31
f 124/4/31 146/4/31 129/4/31
f 29/5/32 79/3/32 87/3/32
f 79/3/32 29/5/32 130/4/32
f 130/4/32 29/5/32 147/4/32
f 130/4/32 147/4/32 138/4/32

