# Created by Kenney (www.kenney.nl)

mtllib river-intersectionF.mtl

g river-intersectionF

v 0.07686995 0.1625 -0.00614259 1 1 1
v 0.08301255 0.178233 1.489632E-08 1 1 1
v 0.07686995 0.1625 0.00614262 1 1 1
v -0.1227874 0.1625 0.1755 1 1 1
v -0.09059373 0.1625 0.194087 1 1 1
v -0.125 0.2 0.1955 1 1 1
v -0.1068079 0.2 0.2060032 1 1 1
v 0.1348131 0.2 0.0665032 1 1 1
v 0.3083106 0.2 0.2550096 1 1 1
v 0.1185989 0.1625 0.07841935 1 1 1
v 0.2920963 0.1625 0.2669257 1 1 1
v -0.3727874 0.1625 0.1195 1 1 1
v -0.375 0.2 0.1395 1 1 1
v 0.08290369 0.1625 0.3825934 1 1 1
v 0.14651 0.1625 0.4927627 1 1 1
v 0.06668948 0.2 0.3945095 1 1 1
v 0.1291895 0.2 0.5027627 1 1 1
v 0.1291895 0.2 -0.5027627 1 1 1
v 0.14651 0.1625 -0.4927627 1 1 1
v 0.06668948 0.2 -0.3945095 1 1 1
v 0.08290369 0.1625 -0.3825934 1 1 1
v -0.3727874 0.1625 -0.1195 1 1 1
v -0.5 0.1625 -0.1195 1 1 1
v -0.375 0.2 -0.1395 1 1 1
v -0.5 0.2 -0.1395 1 1 1
v 0.3708105 0.2 0.3632627 1 1 1
v 0.3534901 0.1625 0.3732627 1 1 1
v 0.1185989 0.1625 -0.07841931 1 1 1
v 0.1348131 0.2 -0.06650317 1 1 1
v 0.09641752 0.2 1.489632E-08 1 1 1
v -0.09059373 0.1625 -0.194087 1 1 1
v -0.1227874 0.1625 -0.1755 1 1 1
v -0.1068079 0.2 -0.2060031 1 1 1
v -0.125 0.2 -0.1955 1 1 1
v 0.2920963 0.1625 -0.2669257 1 1 1
v 0.3083106 0.2 -0.2550095 1 1 1
v 0.4354053 0.2 -0.3259689 1 1 1
v 0.3687795 0.2 -0.2105697 1 1 1
v 0.3708105 0.2 -0.3632627 1 1 1
v 0.1952821 0.2 -0.02206332 1 1 1
v 0.1825438 0.2 1.489632E-08 1 1 1
v 0.1952821 0.2 0.02206335 1 1 1
v 0.3687795 0.2 0.2105697 1 1 1
v 0.4354053 0.2 0.3259689 1 1 1
v -0.5 0.2 0.1605 1 1 1
v -0.3832515 0.2 0.2140876 1 1 1
v -0.5 0.2 0.2140876 1 1 1
v -0.5 0.2 0.1395 1 1 1
v -0.1539712 0.2 0.2648998 1 1 1
v -0.1533375 0.2 0.2655883 1 1 1
v -0.1524243 0.2 0.2657929 1 1 1
v 0.006220527 0.2 0.4389494 1 1 1
v 0.06459472 0.2 0.5400565 1 1 1
v -0.3832515 0.2 -0.2140876 1 1 1
v -0.5 0.2 -0.1605 1 1 1
v -0.5 0.2 -0.2140876 1 1 1
v -0.1539712 0.2 -0.2648998 1 1 1
v -0.1533375 0.2 -0.2655883 1 1 1
v -0.1524243 0.2 -0.2657929 1 1 1
v 0.006220512 0.2 -0.4389494 1 1 1
v 0.06459472 0.2 -0.5400565 1 1 1
v 0.3534901 0.1625 -0.3732627 1 1 1
v -0.5 0.1625 0.1195 1 1 1
v -1.263345E-13 0 -0.5773503 1 1 1
v 0.14651 2.634756E-18 -0.4927627 1 1 1
v -1.263345E-13 0.1 -0.5773503 1 1 1
v 0.14651 0.1 -0.4927627 1 1 1
v 0.5 0 0.2886751 1 1 1
v 0.5 0 -0.2886751 1 1 1
v 0.3534901 2.634756E-18 0.3732627 1 1 1
v 0.3534901 3.180766E-18 -0.3732627 1 1 1
v 0.14651 3.180766E-18 0.4927627 1 1 1
v 1.277783E-13 0 0.5773503 1 1 1
v -0.5 0 0.2886751 1 1 1
v -0.5 5.269513E-18 0.1195 1 1 1
v -0.5 3.726776E-18 -0.1195 1 1 1
v -0.5 0 -0.2886751 1 1 1
v 1.277783E-13 0.1 0.5773503 1 1 1
v -0.5 0.1 0.2886751 1 1 1
v 0.5 0.1 -0.2886751 1 1 1
v 0.5 0.1 0.2886751 1 1 1
v 0.3534901 0.1 0.3732627 1 1 1
v -0.5 0.1 0.1195 1 1 1
v -0.5 0.1 -0.2886751 1 1 1
v 0.14651 0.1 0.4927627 1 1 1
v -0.5 0.1 -0.1195 1 1 1
v 0.3534901 0.1 -0.3732627 1 1 1
v -0.5 0.1625 -0.1195 1 1 1
v -0.5 0.1625 0.1195 1 1 1
v 0.2920963 0.1625 -0.2669257 1 1 1
v 0.1185989 0.1625 -0.07841932 1 1 1
v 0.07686994 0.1625 -0.00614259 1 1 1
v 0.07686994 0.1625 0.00614262 1 1 1
v -0.09059373 0.1625 0.194087 1 1 1
v 0.08290369 0.1625 0.3825934 1 1 1
v -0.1227874 0.1625 0.1755 1 1 1
v 0.2920963 0.1625 0.2669257 1 1 1
v 0.3534901 0.1625 0.3732627 1 1 1
v 0.3534901 2.634756E-18 0.3732627 1 1 1
v 0.14651 2.634756E-18 -0.4927627 1 1 1
v 0.3534901 3.180766E-18 -0.3732627 1 1 1
v 0.14651 0.1 -0.4927627 1 1 1
v 0.3534901 0.1 -0.3732627 1 1 1
v 0.5 0.2 -0.2886751 1 1 1
v 0.5 0.2 0.2886751 1 1 1
v -0.5 0.2 -0.2886751 1 1 1
v -0.1110029 0.2 -0.5132627 1 1 1
v -1.263345E-13 0.2 -0.5773503 1 1 1
v 1.277783E-13 0.2 0.5773503 1 1 1
v -0.1110029 0.2 0.5132627 1 1 1
v -0.5 0.2 0.2886751 1 1 1
v -0.4999999 0.1625 0.1195 1 1 1
v -0.4999999 0.2 0.1395 1 1 1
v -0.4999999 0.2 0.1605 1 1 1
v -0.5 0.2 0.2140876 1 1 1
v 0.14651 0.1625 -0.4927627 1 1 1
v 0.1291895 0.2 -0.5027627 1 1 1
v 0.06459473 0.2 -0.5400565 1 1 1
v 0.3708106 0.2 0.3632627 1 1 1
v 0.4354053 0.2 0.3259689 1 1 1
v 0.3708106 0.2 -0.3632627 1 1 1
v 0.4354053 0.2 -0.3259689 1 1 1
v 0.14651 0.1625 0.4927627 1 1 1
v 0.1291895 0.2 0.5027627 1 1 1
v 0.06459473 0.2 0.5400565 1 1 1
v -0.5 0.2 -0.2140876 1 1 1
v -0.4999999 0.2 -0.1605 1 1 1
v -0.4999999 0.2 -0.1395 1 1 1
v -0.4999999 0.1625 -0.1195 1 1 1
v 0.006220526 0.2 0.4389494 1 1 1
v -0.1533375 0.2 0.2655883 1 1 1
v -0.3832515 0.2 0.2140876 1 1 1
v 0.3687795 0.2 0.2105697 1 1 1
v 0.3687795 0.2 -0.2105697 1 1 1
v 0.1952821 0.2 0.02206335 1 1 1
v 0.1952821 0.2 -0.02206332 1 1 1
v 0.1825438 0.2 1.489632E-08 1 1 1
v 0.006220514 0.2 -0.4389494 1 1 1
v -0.1533375 0.2 -0.2655883 1 1 1
v -0.3832515 0.2 -0.2140876 1 1 1

vn -0.8590602 0.4385004 -0.2640699
vn -0.8629034 0.5053691 0
vn -0.8590602 0.4385004 0.2640699
vn 0.3133164 0.4612201 -0.8301258
vn 0.5622518 0.4612201 -0.6864029
vn 0.3333445 0.4589104 -0.8235793
vn 0.5465683 0.4589103 -0.7004744
vn -0.7100338 0.4728189 0.5218183
vn 0.09689091 0.4728189 -0.8758165
vn 0.7100338 0.4728189 -0.5218183
vn 0.7641401 0.4705882 -0.4411765
vn 0.7641401 0.4705882 0.4411765
vn 0.7100338 0.4728189 0.5218183
vn 0.09689091 0.4728189 0.8758165
vn 0 0.4705883 0.8823529
vn -0.7641401 0.4705882 0.4411765
vn -0.7100338 0.4728189 -0.5218183
vn -0.8514851 0.5243789 0
vn 0.5622518 0.4612201 0.6864029
vn 0.3133164 0.4612201 0.8301258
vn 0.5465683 0.4589103 0.7004744
vn 0.3333445 0.4589104 0.8235793
vn 0 1 0
vn -0.7641401 0.4705882 -0.4411765
vn 0 0.4705883 -0.8823529
vn 0.5 0 -0.8660254
vn 0 -1 0
vn -0.5 0 0.8660254
vn 1 0 0
vn 0.5000001 0 0.8660254
vn -1 0 0
vn -0.5 0 -0.8660254
vn 0.5 0 0.8660254
vn 0.5 0 0.8660254
vn 0.5000001 0 0.8660253
vn 0.4999999 0 0.8660255

vt 0.90625 0.125
vt 0.15625 0.125
vt 0.34375 0.175
vt 0.34375 0.075
vt 0.34375 0.1375

usemtl colormap

f 3/1/3 2/1/2 1/1/1
f 6/1/6 5/1/5 4/1/4
f 5/1/5 6/1/6 7/1/7
f 10/1/8 9/1/8 8/1/8
f 9/1/8 10/1/8 11/1/8
f 13/1/9 4/1/4 12/1/9
f 4/1/4 13/1/9 6/1/6
f 16/1/10 15/1/11 14/1/10
f 15/1/11 16/1/10 17/1/11
f 20/1/13 19/1/12 18/1/12
f 19/1/12 20/1/13 21/1/13
f 24/1/14 23/1/15 22/1/14
f 23/1/15 24/1/14 25/1/15
f 11/1/8 26/1/16 9/1/8
f 26/1/16 11/1/8 27/1/16
f 1/1/1 29/1/17 28/1/17
f 29/1/17 1/1/1 30/1/18
f 30/1/18 1/1/1 2/1/2
f 33/1/21 32/1/20 31/1/19
f 32/1/20 33/1/21 34/1/22
f 28/1/17 36/1/17 35/1/17
f 36/1/17 28/1/17 29/1/17
f 33/1/21 21/1/13 20/1/13
f 21/1/13 33/1/21 31/1/19
f 34/1/22 22/1/14 32/1/20
f 22/1/14 34/1/22 24/1/14
f 39/1/23 38/1/23 37/1/23
f 38/1/23 39/1/23 36/1/23
f 38/1/23 36/1/23 40/1/23
f 40/1/23 36/1/23 29/1/23
f 40/1/23 29/1/23 41/1/23
f 8/1/23 41/1/23 29/1/23
f 8/1/23 29/1/23 30/1/23
f 8/1/23 42/1/23 41/1/23
f 9/1/23 42/1/23 8/1/23
f 9/1/23 43/1/23 42/1/23
f 26/1/23 43/1/23 9/1/23
f 43/1/23 26/1/23 44/1/23
f 7/1/7 14/1/10 5/1/5
f 14/1/10 7/1/7 16/1/10
f 47/1/23 46/1/23 45/1/23
f 46/1/23 48/1/23 45/1/23
f 46/1/23 13/1/23 48/1/23
f 46/1/23 49/1/23 13/1/23
f 49/1/23 46/1/23 50/1/23
f 49/1/23 6/1/23 13/1/23
f 6/1/23 49/1/23 51/1/23
f 52/1/23 51/1/23 50/1/23
f 51/1/23 7/1/23 6/1/23
f 52/1/23 7/1/23 51/1/23
f 53/1/23 7/1/23 52/1/23
f 53/1/23 16/1/23 7/1/23
f 16/1/23 53/1/23 17/1/23
f 56/1/23 55/1/23 54/1/23
f 25/1/23 54/1/23 55/1/23
f 24/1/23 54/1/23 25/1/23
f 57/1/23 54/1/23 24/1/23
f 54/1/23 57/1/23 58/1/23
f 34/1/23 57/1/23 24/1/23
f 57/1/23 34/1/23 59/1/23
f 59/1/23 60/1/23 58/1/23
f 33/1/23 59/1/23 34/1/23
f 33/1/23 60/1/23 59/1/23
f 33/1/23 61/1/23 60/1/23
f 20/1/23 61/1/23 33/1/23
f 61/1/23 20/1/23 18/1/23
f 35/1/17 39/1/24 62/1/24
f 39/1/24 35/1/17 36/1/17
f 3/1/3 30/1/18 2/1/2
f 30/1/18 3/1/3 8/1/8
f 8/1/8 3/1/3 10/1/8
f 48/1/25 12/1/9 63/1/25
f 12/1/9 48/1/25 13/1/9
f 66/1/26 65/1/26 64/1/26
f 65/1/26 66/1/26 67/1/26
f 70/1/27 69/1/27 68/1/27
f 69/1/27 70/1/27 71/1/27
f 71/1/27 70/1/27 65/1/27
f 65/1/27 70/1/27 72/1/27
f 65/1/27 72/1/27 64/1/27
f 64/1/27 72/1/27 73/1/27
f 64/1/27 73/1/27 74/1/27
f 64/1/27 74/1/27 75/1/27
f 76/1/27 64/1/27 75/1/27
f 64/1/27 76/1/27 77/1/27
f 78/1/28 74/1/28 73/1/28
f 74/1/28 78/1/28 79/1/28
f 81/1/29 69/1/29 80/1/29
f 69/1/29 81/1/29 68/1/29
f 81/1/30 70/1/30 68/1/30
f 70/1/30 81/1/30 82/1/30
f 74/1/31 83/1/31 75/1/31
f 83/1/31 74/1/31 79/1/31
f 84/1/32 64/1/32 77/1/32
f 64/1/32 84/1/32 66/1/32
f 72/1/33 78/1/33 73/1/33
f 78/1/33 72/1/33 85/1/33
f 76/1/31 84/1/31 77/1/31
f 84/1/31 76/1/31 86/1/31
f 71/1/26 80/1/26 69/1/26
f 80/1/26 71/1/26 87/1/26
f 86/2/31 89/2/31 88/2/31
f 89/2/31 86/2/31 76/2/31
f 89/2/31 76/2/31 75/2/31
f 89/2/31 75/2/31 83/2/31
f 19/2/23 90/2/23 62/2/23
f 90/2/23 19/2/23 91/2/23
f 91/2/23 19/2/23 21/2/23
f 91/2/23 21/2/23 92/2/23
f 92/2/23 21/2/23 31/2/23
f 92/2/23 31/2/23 93/2/23
f 94/2/23 93/2/23 31/2/23
f 94/2/23 31/2/23 32/2/23
f 95/2/23 93/2/23 94/2/23
f 94/2/23 32/2/23 96/2/23
f 95/2/23 10/2/23 93/2/23
f 96/2/23 32/2/23 22/2/23
f 15/2/23 10/2/23 95/2/23
f 15/2/23 97/2/23 10/2/23
f 97/2/23 15/2/23 98/2/23
f 96/2/23 22/2/23 12/2/23
f 12/2/23 22/2/23 88/2/23
f 12/2/23 88/2/23 89/2/23
f 82/2/34 72/2/34 99/2/34
f 72/2/34 82/2/34 85/2/34
f 85/2/34 82/2/34 98/2/34
f 85/2/34 98/2/34 15/2/34
f 102/2/26 101/2/26 100/2/26
f 101/2/26 102/2/26 103/2/26
f 103/2/26 102/2/26 62/2/26
f 62/2/26 102/2/26 19/2/26
f 105/3/29 80/4/29 104/3/29
f 80/4/29 105/3/29 81/4/29
f 106/3/32 66/4/32 84/4/32
f 66/4/32 106/3/32 107/3/32
f 108/3/32 66/4/32 107/3/32
f 109/3/28 79/4/28 78/4/28
f 79/4/28 109/3/28 110/3/28
f 111/3/28 79/4/28 110/3/28
f 79/4/31 112/5/31 83/4/31
f 112/5/31 79/4/31 113/3/31
f 113/3/31 79/4/31 114/3/31
f 114/3/31 79/4/31 115/3/31
f 115/3/31 79/4/31 111/3/31
f 108/3/26 67/4/26 66/4/26
f 67/4/26 108/3/26 116/5/26
f 116/5/26 108/3/26 117/3/26
f 117/3/26 108/3/26 118/3/26
f 105/3/35 82/4/35 81/4/35
f 82/4/35 105/3/35 27/5/35
f 27/5/35 105/3/35 119/3/35
f 119/3/35 105/3/35 120/3/35
f 62/5/26 80/4/26 87/4/26
f 80/4/26 62/5/26 104/3/26
f 104/3/26 62/5/26 121/3/26
f 104/3/26 121/3/26 122/3/26
f 123/5/36 78/4/36 85/4/36
f 78/4/36 123/5/36 109/3/36
f 109/3/36 123/5/36 124/3/36
f 109/3/36 124/3/36 125/3/36
f 86/4/31 106/3/31 84/4/31
f 106/3/31 86/4/31 126/3/31
f 126/3/31 86/4/31 127/3/31
f 127/3/31 86/4/31 128/3/31
f 128/3/31 86/4/31 129/5/31
f 130/3/23 109/3/23 125/3/23
f 109/3/23 130/3/23 131/3/23
f 109/3/23 131/3/23 110/3/23
f 110/3/23 131/3/23 111/3/23
f 111/3/23 131/3/23 132/3/23
f 111/3/23 132/3/23 115/3/23
f 104/3/23 120/3/23 105/3/23
f 120/3/23 104/3/23 122/3/23
f 120/3/23 122/3/23 133/3/23
f 133/3/23 122/3/23 134/3/23
f 133/3/23 134/3/23 135/3/23
f 135/3/23 134/3/23 136/3/23
f 135/3/23 136/3/23 137/3/23
f 108/3/23 138/3/23 118/3/23
f 138/3/23 108/3/23 139/3/23
f 139/3/23 108/3/23 107/3/23
f 139/3/23 107/3/23 106/3/23
f 139/3/23 106/3/23 140/3/23
f 140/3/23 106/3/23 126/3/23

g river-intersectionF




usemtl colormap

f 3/1/3 2/1/2 1/1/1
f 6/1/6 5/1/5 4/1/4
f 5/1/5 6/1/6 7/1/7
f 10/1/8 9/1/8 8/1/8
f 9/1/8 10/1/8 11/1/8
f 13/1/9 4/1/4 12/1/9
f 4/1/4 13/1/9 6/1/6
f 16/1/10 15/1/11 14/1/10
f 15/1/11 16/1/10 17/1/11
f 20/1/13 19/1/12 18/1/12
f 19/1/12 20/1/13 21/1/13
f 24/1/14 23/1/15 22/1/14
f 23/1/15 24/1/14 25/1/15
f 11/1/8 26/1/16 9/1/8
f 26/1/16 11/1/8 27/1/16
f 1/1/1 29/1/17 28/1/17
f 29/1/17 1/1/1 30/1/18
f 30/1/18 1/1/1 2/1/2
f 33/1/21 32/1/20 31/1/19
f 32/1/20 33/1/21 34/1/22
f 28/1/17 36/1/17 35/1/17
f 36/1/17 28/1/17 29/1/17
f 33/1/21 21/1/13 20/1/13
f 21/1/13 33/1/21 31/1/19
f 34/1/22 22/1/14 32/1/20
f 22/1/14 34/1/22 24/1/14
f 39/1/23 38/1/23 37/1/23
f 38/1/23 39/1/23 36/1/23
f 38/1/23 36/1/23 40/1/23
f 40/1/23 36/1/23 29/1/23
f 40/1/23 29/1/23 41/1/23
f 8/1/23 41/1/23 29/1/23
f 8/1/23 29/1/23 30/1/23
f 8/1/23 42/1/23 41/1/23
f 9/1/23 42/1/23 8/1/23
f 9/1/23 43/1/23 42/1/23
f 26/1/23 43/1/23 9/1/23
f 43/1/23 26/1/23 44/1/23
f 7/1/7 14/1/10 5/1/5
f 14/1/10 7/1/7 16/1/10
f 47/1/23 46/1/23 45/1/23
f 46/1/23 48/1/23 45/1/23
f 46/1/23 13/1/23 48/1/23
f 46/1/23 49/1/23 13/1/23
f 49/1/23 46/1/23 50/1/23
f 49/1/23 6/1/23 13/1/23
f 6/1/23 49/1/23 51/1/23
f 52/1/23 51/1/23 50/1/23
f 51/1/23 7/1/23 6/1/23
f 52/1/23 7/1/23 51/1/23
f 53/1/23 7/1/23 52/1/23
f 53/1/23 16/1/23 7/1/23
f 16/1/23 53/1/23 17/1/23
f 56/1/23 55/1/23 54/1/23
f 25/1/23 54/1/23 55/1/23
f 24/1/23 54/1/23 25/1/23
f 57/1/23 54/1/23 24/1/23
f 54/1/23 57/1/23 58/1/23
f 34/1/23 57/1/23 24/1/23
f 57/1/23 34/1/23 59/1/23
f 59/1/23 60/1/23 58/1/23
f 33/1/23 59/1/23 34/1/23
f 33/1/23 60/1/23 59/1/23
f 33/1/23 61/1/23 60/1/23
f 20/1/23 61/1/23 33/1/23
f 61/1/23 20/1/23 18/1/23
f 35/1/17 39/1/24 62/1/24
f 39/1/24 35/1/17 36/1/17
f 3/1/3 30/1/18 2/1/2
f 30/1/18 3/1/3 8/1/8
f 8/1/8 3/1/3 10/1/8
f 48/1/25 12/1/9 63/1/25
f 12/1/9 48/1/25 13/1/9
f 66/1/26 65/1/26 64/1/26
f 65/1/26 66/1/26 67/1/26
f 70/1/27 69/1/27 68/1/27
f 69/1/27 70/1/27 71/1/27
f 71/1/27 70/1/27 65/1/27
f 65/1/27 70/1/27 72/1/27
f 65/1/27 72/1/27 64/1/27
f 64/1/27 72/1/27 73/1/27
f 64/1/27 73/1/27 74/1/27
f 64/1/27 74/1/27 75/1/27
f 76/1/27 64/1/27 75/1/27
f 64/1/27 76/1/27 77/1/27
f 78/1/28 74/1/28 73/1/28
f 74/1/28 78/1/28 79/1/28
f 81/1/29 69/1/29 80/1/29
f 69/1/29 81/1/29 68/1/29
f 81/1/30 70/1/30 68/1/30
f 70/1/30 81/1/30 82/1/30
f 74/1/31 83/1/31 75/1/31
f 83/1/31 74/1/31 79/1/31
f 84/1/32 64/1/32 77/1/32
f 64/1/32 84/1/32 66/1/32
f 72/1/33 78/1/33 73/1/33
f 78/1/33 72/1/33 85/1/33
f 76/1/31 84/1/31 77/1/31
f 84/1/31 76/1/31 86/1/31
f 71/1/26 80/1/26 69/1/26
f 80/1/26 71/1/26 87/1/26
f 86/2/31 89/2/31 88/2/31
f 89/2/31 86/2/31 76/2/31
f 89/2/31 76/2/31 75/2/31
f 89/2/31 75/2/31 83/2/31
f 19/2/23 90/2/23 62/2/23
f 90/2/23 19/2/23 91/2/23
f 91/2/23 19/2/23 21/2/23
f 91/2/23 21/2/23 92/2/23
f 92/2/23 21/2/23 31/2/23
f 92/2/23 31/2/23 93/2/23
f 94/2/23 93/2/23 31/2/23
f 94/2/23 31/2/23 32/2/23
f 95/2/23 93/2/23 94/2/23
f 94/2/23 32/2/23 96/2/23
f 95/2/23 10/2/23 93/2/23
f 96/2/23 32/2/23 22/2/23
f 15/2/23 10/2/23 95/2/23
f 15/2/23 97/2/23 10/2/23
f 97/2/23 15/2/23 98/2/23
f 96/2/23 22/2/23 12/2/23
f 12/2/23 22/2/23 88/2/23
f 12/2/23 88/2/23 89/2/23
f 82/2/34 72/2/34 99/2/34
f 72/2/34 82/2/34 85/2/34
f 85/2/34 82/2/34 98/2/34
f 85/2/34 98/2/34 15/2/34
f 102/2/26 101/2/26 100/2/26
f 101/2/26 102/2/26 103/2/26
f 103/2/26 102/2/26 62/2/26
f 62/2/26 102/2/26 19/2/26
f 105/3/29 80/4/29 104/3/29
f 80/4/29 105/3/29 81/4/29
f 106/3/32 66/4/32 84/4/32
f 66/4/32 106/3/32 107/3/32
f 108/3/32 66/4/32 107/3/32
f 109/3/28 79/4/28 78/4/28
f 79/4/28 109/3/28 110/3/28
f 111/3/28 79/4/28 110/3/28
f 79/4/31 112/5/31 83/4/31
f 112/5/31 79/4/31 113/3/31
f 113/3/31 79/4/31 114/3/31
f 114/3/31 79/4/31 115/3/31
f 115/3/31 79/4/31 111/3/31
f 108/3/26 67/4/26 66/4/26
f 67/4/26 108/3/26 116/5/26
f 116/5/26 108/3/26 117/3/26
f 117/3/26 108/3/26 118/3/26
f 105/3/35 82/4/35 81/4/35
f 82/4/35 105/3/35 27/5/35
f 27/5/35 105/3/35 119/3/35
f 119/3/35 105/3/35 120/3/35
f 62/5/26 80/4/26 87/4/26
f 80/4/26 62/5/26 104/3/26
f 104/3/26 62/5/26 121/3/26
f 104/3/26 121/3/26 122/3/26
f 123/5/36 78/4/36 85/4/36
f 78/4/36 123/5/36 109/3/36
f 109/3/36 123/5/36 124/3/36
f 109/3/36 124/3/36 125/3/36
f 86/4/31 106/3/31 84/4/31
f 106/3/31 86/4/31 126/3/31
f 126/3/31 86/4/31 127/3/31
f 127/3/31 86/4/31 128/3/31
f 128/3/31 86/4/31 129/5/31
f 130/3/23 109/3/23 125/3/23
f 109/3/23 130/3/23 131/3/23
f 109/3/23 131/3/23 110/3/23
f 110/3/23 131/3/23 111/3/23
f 111/3/23 131/3/23 132/3/23
f 111/3/23 132/3/23 115/3/23
f 104/3/23 120/3/23 105/3/23
f 120/3/23 104/3/23 122/3/23
f 120/3/23 122/3/23 133/3/23
f 133/3/23 122/3/23 134/3/23
f 133/3/23 134/3/23 135/3/23
f 135/3/23 134/3/23 136/3/23
f 135/3/23 136/3/23 137/3/23
f 108/3/23 138/3/23 118/3/23
f 138/3/23 108/3/23 139/3/23
f 139/3/23 108/3/23 107/3/23
f 139/3/23 107/3/23 106/3/23
f 139/3/23 106/3/23 140/3/23
f 140/3/23 106/3/23 126/3/23

