# Created by Kenney (www.kenney.nl)

mtllib stone-rocks.mtl

g stone-rocks

v 0.5 0.2 -0.2886751 1 1 1
v 0.5 0.1 -0.2886751 1 1 1
v 0.5 0.2 0.2886751 1 1 1
v 0.5 0.1 0.2886751 1 1 1
v 1.198373E-13 0.1 0.5773503 1 1 1
v 1.198373E-13 0.2 0.5773503 1 1 1
v -1.349974E-13 0.2 -0.5773503 1 1 1
v -0.5 0.2 0.2886751 1 1 1
v -0.5 0.2 -0.2886751 1 1 1
v -0.5 0.1 -0.2886751 1 1 1
v -0.5 0.1 0.2886751 1 1 1
v -1.349974E-13 0.1 -0.5773503 1 1 1
v 0.1433773 0.2488174 -0.1023834 1 1 1
v 0.2116996 0.2488174 -0.1518003 1 1 1
v 0.1898839 0.2244087 -0.07109141 1 1 1
v 0.06835128 0.293163 -0.1635914 1 1 1
v -0.007190887 0.4060728 -0.1971514 1 1 1
v 0.0709551 0.4060728 -0.2082732 1 1 1
v -0.1758725 0.2244087 -0.4136857 1 1 1
v -0.06798914 0.276946 -0.4225215 1 1 1
v -0.1256063 0.276946 -0.367925 1 1 1
v 0.05962214 0.3350189 -0.3378777 1 1 1
v 0.04790824 0.3069732 -0.3558649 1 1 1
v 0.05763305 0.3350189 -0.3518538 1 1 1
v -0.1498457 0.293163 -0.1593947 1 1 1
v -0.1045923 0.293163 -0.1168957 1 1 1
v -0.1776358 0.2154582 -0.09638962 1 1 1
v 0.1214098 0.3350189 -0.3809447 1 1 1
v 0.1482807 0.2244087 -0.4265151 1 1 1
v 0.1624459 0.3350189 -0.3749439 1 1 1
v 0.1490643 0.2 -0.4342239 1 1 1
v 0.2540913 0.2 -0.3355896 1 1 1
v 0.2108968 0.3350189 -0.3294421 1 1 1
v -0.09120443 0.276946 -0.3113033 1 1 1
v 0.03972857 0.276946 -0.3710264 1 1 1
v -0.0589668 0.4060728 -0.2980068 1 1 1
v 0.03674394 0.4060728 -0.3416639 1 1 1
v 0.0109633 0.2163258 -0.1566625 1 1 1
v 0.04926253 0.2488174 -0.1575406 1 1 1
v -0.003253397 0.2 -0.1208984 1 1 1
v 0.05527908 0.2488174 -0.1152661 1 1 1
v 0.003440637 0.2 -0.07386363 1 1 1
v 0.04678744 0.276946 -0.3643972 1 1 1
v 0.07643726 0.276946 -0.3779216 1 1 1
v 0.1085103 0.2 -0.4157259 1 1 1
v -0.06923425 0.293163 -0.1837106 1 1 1
v -0.04540832 0.4060728 -0.2027399 1 1 1
v -0.01072795 0.293163 -0.1751552 1 1 1
v 0.0721489 0.2488174 -0.1541939 1 1 1
v -0.2037862 0.2 -0.2287533 1 1 1
v -0.1719474 0.2 -0.2432761 1 1 1
v -0.1569687 0.293163 -0.2094433 1 1 1
v -0.1451006 0.2319462 -0.2415775 1 1 1
v -0.07802162 0.293163 -0.2454538 1 1 1
v -0.08648361 0.2628348 -0.2548321 1 1 1
v -0.1842018 0.2 -0.09114553 1 1 1
v 0.1258213 0.3350189 -0.2757078 1 1 1
v 0.1094549 0.4060728 -0.2733785 1 1 1
v 0.003559675 0.2 -0.5142886 1 1 1
v -0.002743095 0.276946 -0.4522825 1 1 1
v -0.08454619 0.276946 -0.26452 1 1 1
v 0.2205359 0.2 -0.2788457 1 1 1
v 0.188074 0.2488174 -0.2481379 1 1 1
v 0.1646935 0.3350189 -0.2513097 1 1 1
v 0.1749463 0.2488174 -0.2259383 1 1 1
v -0.03384905 0.2 -0.06915945 1 1 1
v -0.04990822 0.293163 -0.1088992 1 1 1
v 0.1156358 0.3350189 -0.2584834 1 1 1
v 0.1193797 0.2488174 -0.2340638 1 1 1
v -0.1114495 0.276946 -0.2684541 1 1 1
v 0.2398916 0.2488174 -0.1994743 1 1 1
v -0.197468 0.2 -0.4225928 1 1 1
v 0.2964763 0.2 -0.2075275 1 1 1
v 0.2004027 0.2 -0.04506184 1 1 1
v 0.1154586 0.274453 0.33951 1 1 1
v 0.1645572 0.2236179 0.3832763 1 1 1
v 0.0602645 0.274453 0.3929185 1 1 1
v -0.0619969 0.3306442 0.3258171 1 1 1
v -0.06406306 0.3306442 0.3123147 1 1 1
v -0.05254705 0.3035072 0.3295994 1 1 1
v -0.1234091 0.3306442 0.3546101 1 1 1
v -0.1489463 0.2236179 0.3989739 1 1 1
v -0.1631743 0.3306442 0.3492199 1 1 1
v 0.1630483 0.2149574 0.0762596 1 1 1
v 0.1367984 0.2901445 0.1375015 1 1 1
v 0.092583 0.2901445 0.09684028 1 1 1
v -0.1928007 0.2236179 0.05550627 1 1 1
v -0.1474863 0.2472357 0.08531158 1 1 1
v -0.2130906 0.2472357 0.1338169 1 1 1
v -0.07634144 0.399396 0.1870311 1 1 1
v -0.07427487 0.2901445 0.143773 1 1 1
v -0.0008442327 0.399396 0.1754784 1 1 1
v 0.1330401 0.2309112 0.2170654 1 1 1
v 0.1007534 0.274453 0.2434107 1 1 1
v 0.07645965 0.2607989 0.2304838 1 1 1
v 0.07468328 0.274453 0.2398769 1 1 1
v -0.05586692 0.2472357 0.1377251 1 1 1
v -0.07804446 0.2472357 0.1347189 1 1 1
v -0.06211656 0.2472357 0.09688345 1 1 1
v -0.1229332 0.2472357 0.2124753 1 1 1
v -0.1767788 0.2472357 0.2051765 1 1 1
v -0.1892556 0.2472357 0.2267888 1 1 1
v -0.2398845 0.2472357 0.1802295 1 1 1
v 0.1441973 0.2901445 0.1858538 1 1 1
v 0.06817725 0.2901445 0.2214956 1 1 1
v 0.05904946 0.2901445 0.1618451 1 1 1
v 0.03959258 0.2901445 0.08965741 1 1 1
v 0.002355162 0.2901445 0.1541602 1 1 1
v -0.01237994 0.2 0.0562994 1 1 1
v -0.2032418 0.2 0.03042805 1 1 1
v 0.08159947 0.274453 0.2850744 1 1 1
v -0.04447922 0.274453 0.3441861 1 1 1
v -0.002562553 0.274453 0.4223748 1 1 1
v -0.07992674 0.274453 0.3512294 1 1 1
v -0.05137617 0.274453 0.3378435 1 1 1
v -0.2945513 0.2 0.1885947 1 1 1
v -0.2203529 0.2 0.2568289 1 1 1
v -0.1190633 0.3306442 0.2360646 1 1 1
v -0.1287438 0.3306442 0.2528331 1 1 1
v -0.1666017 0.3306442 0.2296207 1 1 1
v -0.2105139 0.3306442 0.3056856 1 1 1
v 0.02365191 0.2 0.05137004 1 1 1
v 0.169348 0.2 0.07111917 1 1 1
v -0.005426578 0.2 0.1017399 1 1 1
v -0.01881951 0.2157968 0.1364874 1 1 1
v -0.1129321 0.399396 0.2504136 1 1 1
v 0.1590328 0.2 0.2184368 1 1 1
v 0.1855421 0.2 0.3916755 1 1 1
v -0.008032504 0.2 0.4824324 1 1 1
v -0.2522442 0.2 0.3120713 1 1 1
v 0.05027333 0.399396 0.2725361 1 1 1
v -0.04188896 0.399396 0.3157462 1 1 1
v 0.03618955 0.399396 0.1804983 1 1 1
v 0.1896912 0.2 0.2040627 1 1 1
v -0.1105759 0.2 0.3881318 1 1 1
v -0.1496263 0.2 0.4064405 1 1 1
v 0.3510142 0.2435 0.157078 1 1 1
v 0.3758962 0.2435 0.2001749 1 1 1
v 0.3075029 0.2435 0.1821993 1 1 1
v 0.3323849 0.2435 0.2252962 1 1 1
v 0.2795238 0.2 0.1748456 1 1 1
v 0.3247639 0.2 0.2532036 1 1 1
v 0.4038753 0.2 0.2075286 1 1 1
v 0.3586353 0.2 0.1291706 1 1 1
v -0.3419476 0.2435 -0.2416162 1 1 1
v -0.3170656 0.2435 -0.1985193 1 1 1
v -0.3854589 0.2435 -0.216495 1 1 1
v -0.3605769 0.2435 -0.1733981 1 1 1
v -0.413438 0.2 -0.2238486 1 1 1
v -0.368198 0.2 -0.1454906 1 1 1
v -0.2890866 0.2 -0.1911657 1 1 1
v -0.3343266 0.2 -0.2695237 1 1 1
v 1.277783E-13 0 0.5773503 1 1 1
v -0.5 0 0.2886751 1 1 1
v 1.277783E-13 0.1 0.5773503 1 1 1
v 0.5 0 0.2886751 1 1 1
v 0.5 0 -0.2886751 1 1 1
v -1.270564E-13 0 -0.5773503 1 1 1
v -0.5 0 -0.2886751 1 1 1
v -1.270564E-13 0.1 -0.5773503 1 1 1

vn 1 0 0
vn 0.5 0 0.8660254
vn 0 1 0
vn -1 0 0
vn -0.5 0 0.8660254
vn -0.5 0 -0.8660254
vn 0.5 0 -0.8660254
vn 0.2466493 0.907125 0.3410106
vn -0.09479611 0.2248221 0.9697776
vn -0.05118684 0.2529156 0.9661334
vn 0.1313364 0.3621579 0.9228176
vn -0.4213375 0.7904192 -0.4446484
vn -0.9420605 0.3074831 0.134075
vn -0.5252479 0.6413345 0.5592895
vn 0.1323009 0.4048874 -0.9047445
vn 0.663791 0.2445377 -0.7068117
vn -0.4071527 0.1935635 -0.8926139
vn -0.642988 0.7603896 0.09151073
vn -0.4002466 0.2642782 -0.8774735
vn -0.1419549 0.1935636 0.9707636
vn -0.3856995 0.3690912 -0.8455812
vn -0.8965753 0.4241115 0.1276015
vn 0.6735608 0.1786585 -0.7172147
vn 0.5756853 0.5411308 -0.6129959
vn -0.9642695 0.226607 0.1372359
vn 0.8346285 0.2445377 0.493555
vn 0.8084531 0.3432878 0.4780764
vn -0.139547 0.2642782 0.9542975
vn -0.1185817 0.5730084 0.8109252
vn -0.7638654 0.6361533 0.1087141
vn -0.3401141 0.5730084 -0.7456431
vn 0.5053714 0.6745529 -0.5381247
vn -0.1344751 0.3690912 0.919613
vn -0.1026797 0.7045576 0.7021791
vn 0.8469127 0.1786585 0.5008193
vn 0.6354369 0.6745529 0.3757637
vn 0.4259706 0.7904192 0.4402119
vn 0.9406049 0.3074831 -0.1439328
vn -0.1228193 0.4048874 0.9060804
vn 0.5193623 0.6413346 -0.5647591
vn -0.2502067 0.9071251 -0.3384091
vn -0.1409928 0.3621579 -0.9213917
vn 0.08223622 0.2263889 -0.9705593
vn 0.04370841 0.2512338 -0.966939
vn 0.1100833 0.5730085 -0.8121226
vn 0.09532101 0.7045575 -0.7032158
vn -0.639337 0.6745529 -0.3690889
vn -0.4997085 0.6745529 0.5433874
vn 0.1248377 0.3690912 -0.9209709
vn -0.8134152 0.3432878 -0.4695841
vn -0.8521108 0.1786585 -0.4919231
vn 0.1295461 0.2642782 -0.9557064
vn 0.7626851 0.6361533 -0.1167072
vn 0.3479037 0.5730085 0.7420407
vn -0.8397512 0.2445377 -0.4847879
vn 0.6419944 0.7603896 -0.09823895
vn 0.394533 0.3690912 0.8414959
vn -0.5692346 0.5411308 0.6189907
vn -0.6563531 0.2445377 0.7137241
vn 0.9627795 0.226607 -0.147326
vn 0.4164777 0.1935636 0.8883014
vn 0.4094134 0.2642783 0.8732341
vn 0.1317814 0.1935636 -0.9721969
vn 0.8951899 0.4241115 -0.1369833
vn -0.6660134 0.1786586 0.7242288
vn -0.7830182 0.4272116 0.4520759
vn 0.4528599 0.4238769 0.7843764
vn 0.7830182 0.4272116 -0.4520759
vn -0.4528599 0.4238769 -0.7843764
vn 0 -1 0

vt 0.65625 0.125
vt 0.71875 0.1486894
vt 0.71875 0.1368447
vt 0.71875 0.1702088
vt 0.71875 0.225
vt 0.71875 0.1623392
vt 0.71875 0.19052
vt 0.71875 0.1769104
vt 0.71875 0.1325013
vt 0.71875 0.125
vt 0.71875 0.1329223
vt 0.71875 0.1405024
vt 0.71875 0.1554915
vt 0.71875 0.1623393
vt 0.71875 0.1405024
vt 0.71875 0.175
vt 0.71875 0.075
vt 0.90625 0.125

usemtl colormap

f 3/1/1 2/1/1 1/1/1
f 2/1/1 3/1/1 4/1/1
f 3/1/2 5/1/2 4/1/2
f 5/1/2 3/1/2 6/1/2
f 1/1/3 6/1/3 3/1/3
f 6/1/3 1/1/3 7/1/3
f 6/1/3 7/1/3 8/1/3
f 8/1/3 7/1/3 9/1/3
f 11/1/4 9/1/4 10/1/4
f 9/1/4 11/1/4 8/1/4
f 6/1/5 11/1/5 5/1/5
f 11/1/5 6/1/5 8/1/5
f 9/1/6 12/1/6 10/1/6
f 12/1/6 9/1/6 7/1/6
f 7/1/7 2/1/7 12/1/7
f 2/1/7 7/1/7 1/1/7
f 15/3/8 14/2/8 13/2/8
f 18/5/11 17/5/10 16/4/9
f 21/6/12 20/6/12 19/3/12
f 24/7/13 23/8/13 22/7/13
f 27/9/14 26/4/14 25/4/14
f 30/7/15 29/3/15 28/7/15
f 29/3/16 32/10/16 31/10/16
f 32/10/16 29/3/16 33/7/16
f 33/7/16 29/3/16 30/7/16
f 36/5/17 35/6/17 34/6/17
f 35/6/17 36/5/17 37/5/17
f 40/10/18 39/2/18 38/11/18
f 39/2/18 40/10/18 41/2/18
f 41/2/18 40/10/18 42/10/18
f 24/7/19 43/6/19 23/8/19
f 43/6/19 24/7/19 44/6/19
f 44/6/19 24/7/19 28/7/19
f 44/6/19 28/7/19 45/10/19
f 45/10/19 28/7/19 31/10/19
f 31/10/19 28/7/19 29/3/19
f 48/4/20 47/5/20 46/4/20
f 47/5/20 48/4/20 17/5/10
f 17/5/10 48/4/20 38/11/20
f 17/5/10 38/11/20 16/4/9
f 16/4/9 38/11/20 39/2/20
f 16/4/9 39/2/20 49/2/20
f 52/4/21 51/10/21 50/10/21
f 51/10/21 52/4/21 53/12/21
f 53/12/21 52/4/21 54/4/21
f 53/12/21 54/4/21 55/13/21
f 27/9/22 50/10/22 56/10/22
f 50/10/22 27/9/22 52/4/22
f 52/4/22 27/9/22 25/4/22
f 37/5/23 43/6/23 35/6/23
f 43/6/23 37/5/23 23/8/23
f 23/8/23 37/5/23 22/7/23
f 22/7/23 37/5/23 57/7/23
f 57/7/23 37/5/23 58/5/23
f 36/5/3 58/5/3 37/5/3
f 58/5/3 36/5/3 47/5/3
f 58/5/3 47/5/3 18/5/3
f 18/5/3 47/5/3 17/5/3
f 60/6/24 45/10/24 59/10/24
f 45/10/24 60/6/24 44/6/24
f 47/5/25 54/4/25 46/4/25
f 36/5/25 54/4/25 47/5/25
f 34/6/25 54/4/25 36/5/25
f 61/6/25 54/4/25 34/6/25
f 54/4/25 61/6/25 55/13/25
f 33/7/26 62/10/26 32/10/26
f 62/10/26 33/7/26 63/2/26
f 64/7/26 63/2/26 33/7/26
f 63/2/26 64/7/26 65/2/26
f 38/11/27 66/10/27 40/10/27
f 66/10/27 38/11/27 67/4/27
f 67/4/27 38/11/27 48/4/27
f 69/2/28 64/7/28 68/7/28
f 64/7/28 69/2/28 65/2/28
f 24/7/3 30/7/3 28/7/3
f 30/7/3 24/7/3 33/7/3
f 33/7/3 24/7/3 22/7/3
f 33/7/3 22/7/3 57/7/3
f 33/7/3 57/7/3 64/7/3
f 64/7/3 57/7/3 68/7/3
f 55/13/29 70/6/29 53/12/29
f 70/6/29 55/13/29 61/6/29
f 41/2/3 49/2/3 39/2/3
f 49/2/3 41/2/3 14/2/3
f 14/2/3 41/2/3 13/2/3
f 71/2/3 49/2/3 14/2/3
f 65/2/3 49/2/3 71/2/3
f 71/2/3 63/2/3 65/2/3
f 49/2/3 65/2/3 69/2/3
f 53/12/30 72/10/30 51/10/30
f 72/10/30 53/12/30 19/3/30
f 19/3/30 53/12/30 21/6/30
f 21/6/30 53/12/30 70/6/30
f 19/3/31 59/10/31 72/10/31
f 59/10/31 19/3/31 20/6/31
f 59/10/31 20/6/31 60/6/31
f 52/4/3 46/4/3 54/4/3
f 46/4/3 52/4/3 25/4/3
f 46/4/3 25/4/3 48/4/3
f 48/4/3 25/4/3 26/4/3
f 48/4/3 26/4/3 67/4/3
f 63/2/32 73/10/32 62/10/32
f 73/10/32 63/2/32 71/2/32
f 66/10/33 27/9/33 56/10/33
f 27/9/33 66/10/33 26/4/33
f 26/4/33 66/10/33 67/4/33
f 42/10/34 13/2/34 41/2/34
f 13/2/34 42/10/34 15/3/34
f 15/3/34 42/10/34 74/10/34
f 20/6/3 44/6/3 60/6/3
f 44/6/3 20/6/3 21/6/3
f 44/6/3 21/6/3 35/6/3
f 43/6/3 44/6/3 35/6/3
f 35/6/3 21/6/3 34/6/3
f 34/6/3 21/6/3 70/6/3
f 34/6/3 70/6/3 61/6/3
f 58/5/35 68/7/35 57/7/35
f 18/5/35 68/7/35 58/5/35
f 16/4/35 68/7/35 18/5/35
f 49/2/35 68/7/35 16/4/35
f 68/7/35 49/2/35 69/2/35
f 14/2/36 73/10/36 71/2/36
f 73/10/36 14/2/36 74/10/36
f 74/10/36 14/2/36 15/3/36
f 77/14/37 76/3/37 75/14/37
f 80/8/38 79/7/38 78/7/38
f 83/7/39 82/3/39 81/7/39
f 86/4/40 85/4/40 84/9/40
f 89/2/41 88/2/41 87/3/41
f 92/5/44 91/4/43 90/5/42
f 95/13/45 94/14/45 93/15/45
f 94/14/45 95/13/45 96/14/45
f 99/2/3 98/2/3 97/2/3
f 98/2/3 99/2/3 88/2/3
f 98/2/3 88/2/3 100/2/3
f 100/2/3 88/2/3 101/2/3
f 101/2/3 88/2/3 89/2/3
f 101/2/3 89/2/3 102/2/3
f 102/2/3 89/2/3 103/2/3
f 85/4/3 105/4/3 104/4/3
f 105/4/3 85/4/3 86/4/3
f 105/4/3 86/4/3 106/4/3
f 106/4/3 86/4/3 107/4/3
f 106/4/3 107/4/3 108/4/3
f 110/10/46 99/2/46 109/10/46
f 99/2/46 110/10/46 88/2/46
f 88/2/46 110/10/46 87/3/46
f 96/14/3 111/14/3 94/14/3
f 77/14/3 94/14/3 111/14/3
f 94/14/3 77/14/3 75/14/3
f 77/14/3 111/14/3 112/14/3
f 77/14/3 112/14/3 113/14/3
f 113/14/3 112/14/3 114/14/3
f 114/14/3 112/14/3 115/14/3
f 110/10/47 89/2/47 87/3/47
f 89/2/47 110/10/47 116/10/47
f 89/2/47 116/10/47 103/2/47
f 103/2/48 117/10/48 102/2/48
f 117/10/48 103/2/48 116/10/48
f 120/7/3 119/7/3 118/7/3
f 119/7/3 120/7/3 83/7/3
f 83/7/3 120/7/3 121/7/3
f 81/7/3 119/7/3 83/7/3
f 81/7/3 79/7/3 119/7/3
f 79/7/3 81/7/3 78/7/3
f 107/4/49 123/10/49 122/10/49
f 123/10/49 107/4/49 84/9/49
f 84/9/49 107/4/49 86/4/49
f 124/10/50 107/4/50 122/10/50
f 107/4/50 124/10/50 108/4/50
f 108/4/50 124/10/50 125/11/50
f 100/2/51 91/4/51 98/2/51
f 91/4/51 100/2/51 90/5/51
f 90/5/51 100/2/51 126/5/51
f 126/5/51 100/2/51 118/7/51
f 126/5/51 118/7/51 119/7/51
f 120/7/52 100/2/52 101/2/52
f 100/2/52 120/7/52 118/7/52
f 94/14/53 127/10/53 93/15/53
f 127/10/53 94/14/53 128/10/53
f 128/10/53 94/14/53 75/14/53
f 128/10/53 75/14/53 76/3/53
f 76/3/54 129/10/54 128/10/54
f 129/10/54 76/3/54 113/14/54
f 113/14/54 76/3/54 77/14/54
f 102/2/55 120/7/55 101/2/55
f 120/7/55 102/2/55 117/10/55
f 120/7/55 117/10/55 121/7/55
f 121/7/55 117/10/55 130/10/55
f 109/10/56 125/11/56 124/10/56
f 125/11/56 109/10/56 99/2/56
f 125/11/56 99/2/56 97/2/56
f 133/5/3 132/5/3 131/5/3
f 132/5/3 133/5/3 92/5/3
f 132/5/3 92/5/3 90/5/3
f 132/5/3 90/5/3 126/5/3
f 104/4/57 127/10/57 134/10/57
f 127/10/57 104/4/57 93/15/57
f 93/15/57 104/4/57 95/13/57
f 95/13/57 104/4/57 105/4/57
f 113/14/58 135/10/58 129/10/58
f 135/10/58 113/14/58 114/14/58
f 82/3/59 130/10/59 136/10/59
f 130/10/59 82/3/59 121/7/59
f 121/7/59 82/3/59 83/7/59
f 133/5/60 105/4/60 106/4/60
f 105/4/60 133/5/60 131/5/60
f 105/4/60 131/5/60 95/13/60
f 95/13/60 131/5/60 96/14/60
f 96/14/60 131/5/60 111/14/60
f 131/5/61 112/14/61 111/14/61
f 112/14/61 131/5/61 132/5/61
f 80/8/62 114/14/62 115/14/62
f 81/7/62 114/14/62 80/8/62
f 81/7/62 80/8/62 78/7/62
f 82/3/62 114/14/62 81/7/62
f 136/10/62 114/14/62 82/3/62
f 114/14/62 136/10/62 135/10/62
f 91/4/43 97/2/63 98/2/63
f 108/4/63 97/2/63 91/4/43
f 97/2/63 108/4/63 125/11/63
f 108/4/63 91/4/43 92/5/44
f 108/4/63 92/5/44 106/4/63
f 106/4/63 92/5/44 133/5/63
f 84/9/64 134/10/64 123/10/64
f 134/10/64 84/9/64 85/4/64
f 134/10/64 85/4/64 104/4/64
f 132/5/65 115/14/65 112/14/65
f 115/14/65 132/5/65 80/8/65
f 80/8/65 132/5/65 79/7/65
f 79/7/65 132/5/65 119/7/65
f 119/7/65 132/5/65 126/5/65
f 139/16/3 138/16/3 137/16/3
f 138/16/3 139/16/3 140/16/3
f 142/17/66 139/16/66 141/17/66
f 139/16/66 142/17/66 140/16/66
f 138/16/67 142/17/67 143/17/67
f 142/17/67 138/16/67 140/16/67
f 137/16/68 143/17/68 144/17/68
f 143/17/68 137/16/68 138/16/68
f 139/16/69 144/17/69 141/17/69
f 144/17/69 139/16/69 137/16/69
f 147/16/3 146/16/3 145/16/3
f 146/16/3 147/16/3 148/16/3
f 150/17/66 147/16/66 149/17/66
f 147/16/66 150/17/66 148/16/66
f 146/16/67 150/17/67 151/17/67
f 150/17/67 146/16/67 148/16/67
f 145/16/68 151/17/68 152/17/68
f 151/17/68 145/16/68 146/16/68
f 147/16/69 152/17/69 149/17/69
f 152/17/69 147/16/69 145/16/69
f 155/18/5 154/18/5 153/18/5
f 154/18/5 155/18/5 11/18/5
f 4/18/2 153/18/2 156/18/2
f 153/18/2 4/18/2 155/18/2
f 4/18/1 157/18/1 2/18/1
f 157/18/1 4/18/1 156/18/1
f 153/18/70 157/18/70 156/18/70
f 157/18/70 153/18/70 158/18/70
f 158/18/70 153/18/70 154/18/70
f 158/18/70 154/18/70 159/18/70
f 160/18/7 157/18/7 158/18/7
f 157/18/7 160/18/7 2/18/7
f 10/18/6 158/18/6 159/18/6
f 158/18/6 10/18/6 160/18/6
f 154/18/4 10/18/4 159/18/4
f 10/18/4 154/18/4 11/18/4

g stone-rocks




usemtl colormap

f 3/1/1 2/1/1 1/1/1
f 2/1/1 3/1/1 4/1/1
f 3/1/2 5/1/2 4/1/2
f 5/1/2 3/1/2 6/1/2
f 1/1/3 6/1/3 3/1/3
f 6/1/3 1/1/3 7/1/3
f 6/1/3 7/1/3 8/1/3
f 8/1/3 7/1/3 9/1/3
f 11/1/4 9/1/4 10/1/4
f 9/1/4 11/1/4 8/1/4
f 6/1/5 11/1/5 5/1/5
f 11/1/5 6/1/5 8/1/5
f 9/1/6 12/1/6 10/1/6
f 12/1/6 9/1/6 7/1/6
f 7/1/7 2/1/7 12/1/7
f 2/1/7 7/1/7 1/1/7
f 15/3/8 14/2/8 13/2/8
f 18/5/11 17/5/10 16/4/9
f 21/6/12 20/6/12 19/3/12
f 24/7/13 23/8/13 22/7/13
f 27/9/14 26/4/14 25/4/14
f 30/7/15 29/3/15 28/7/15
f 29/3/16 32/10/16 31/10/16
f 32/10/16 29/3/16 33/7/16
f 33/7/16 29/3/16 30/7/16
f 36/5/17 35/6/17 34/6/17
f 35/6/17 36/5/17 37/5/17
f 40/10/18 39/2/18 38/11/18
f 39/2/18 40/10/18 41/2/18
f 41/2/18 40/10/18 42/10/18
f 24/7/19 43/6/19 23/8/19
f 43/6/19 24/7/19 44/6/19
f 44/6/19 24/7/19 28/7/19
f 44/6/19 28/7/19 45/10/19
f 45/10/19 28/7/19 31/10/19
f 31/10/19 28/7/19 29/3/19
f 48/4/20 47/5/20 46/4/20
f 47/5/20 48/4/20 17/5/10
f 17/5/10 48/4/20 38/11/20
f 17/5/10 38/11/20 16/4/9
f 16/4/9 38/11/20 39/2/20
f 16/4/9 39/2/20 49/2/20
f 52/4/21 51/10/21 50/10/21
f 51/10/21 52/4/21 53/12/21
f 53/12/21 52/4/21 54/4/21
f 53/12/21 54/4/21 55/13/21
f 27/9/22 50/10/22 56/10/22
f 50/10/22 27/9/22 52/4/22
f 52/4/22 27/9/22 25/4/22
f 37/5/23 43/6/23 35/6/23
f 43/6/23 37/5/23 23/8/23
f 23/8/23 37/5/23 22/7/23
f 22/7/23 37/5/23 57/7/23
f 57/7/23 37/5/23 58/5/23
f 36/5/3 58/5/3 37/5/3
f 58/5/3 36/5/3 47/5/3
f 58/5/3 47/5/3 18/5/3
f 18/5/3 47/5/3 17/5/3
f 60/6/24 45/10/24 59/10/24
f 45/10/24 60/6/24 44/6/24
f 47/5/25 54/4/25 46/4/25
f 36/5/25 54/4/25 47/5/25
f 34/6/25 54/4/25 36/5/25
f 61/6/25 54/4/25 34/6/25
f 54/4/25 61/6/25 55/13/25
f 33/7/26 62/10/26 32/10/26
f 62/10/26 33/7/26 63/2/26
f 64/7/26 63/2/26 33/7/26
f 63/2/26 64/7/26 65/2/26
f 38/11/27 66/10/27 40/10/27
f 66/10/27 38/11/27 67/4/27
f 67/4/27 38/11/27 48/4/27
f 69/2/28 64/7/28 68/7/28
f 64/7/28 69/2/28 65/2/28
f 24/7/3 30/7/3 28/7/3
f 30/7/3 24/7/3 33/7/3
f 33/7/3 24/7/3 22/7/3
f 33/7/3 22/7/3 57/7/3
f 33/7/3 57/7/3 64/7/3
f 64/7/3 57/7/3 68/7/3
f 55/13/29 70/6/29 53/12/29
f 70/6/29 55/13/29 61/6/29
f 41/2/3 49/2/3 39/2/3
f 49/2/3 41/2/3 14/2/3
f 14/2/3 41/2/3 13/2/3
f 71/2/3 49/2/3 14/2/3
f 65/2/3 49/2/3 71/2/3
f 71/2/3 63/2/3 65/2/3
f 49/2/3 65/2/3 69/2/3
f 53/12/30 72/10/30 51/10/30
f 72/10/30 53/12/30 19/3/30
f 19/3/30 53/12/30 21/6/30
f 21/6/30 53/12/30 70/6/30
f 19/3/31 59/10/31 72/10/31
f 59/10/31 19/3/31 20/6/31
f 59/10/31 20/6/31 60/6/31
f 52/4/3 46/4/3 54/4/3
f 46/4/3 52/4/3 25/4/3
f 46/4/3 25/4/3 48/4/3
f 48/4/3 25/4/3 26/4/3
f 48/4/3 26/4/3 67/4/3
f 63/2/32 73/10/32 62/10/32
f 73/10/32 63/2/32 71/2/32
f 66/10/33 27/9/33 56/10/33
f 27/9/33 66/10/33 26/4/33
f 26/4/33 66/10/33 67/4/33
f 42/10/34 13/2/34 41/2/34
f 13/2/34 42/10/34 15/3/34
f 15/3/34 42/10/34 74/10/34
f 20/6/3 44/6/3 60/6/3
f 44/6/3 20/6/3 21/6/3
f 44/6/3 21/6/3 35/6/3
f 43/6/3 44/6/3 35/6/3
f 35/6/3 21/6/3 34/6/3
f 34/6/3 21/6/3 70/6/3
f 34/6/3 70/6/3 61/6/3
f 58/5/35 68/7/35 57/7/35
f 18/5/35 68/7/35 58/5/35
f 16/4/35 68/7/35 18/5/35
f 49/2/35 68/7/35 16/4/35
f 68/7/35 49/2/35 69/2/35
f 14/2/36 73/10/36 71/2/36
f 73/10/36 14/2/36 74/10/36
f 74/10/36 14/2/36 15/3/36
f 77/14/37 76/3/37 75/14/37
f 80/8/38 79/7/38 78/7/38
f 83/7/39 82/3/39 81/7/39
f 86/4/40 85/4/40 84/9/40
f 89/2/41 88/2/41 87/3/41
f 92/5/44 91/4/43 90/5/42
f 95/13/45 94/14/45 93/15/45
f 94/14/45 95/13/45 96/14/45
f 99/2/3 98/2/3 97/2/3
f 98/2/3 99/2/3 88/2/3
f 98/2/3 88/2/3 100/2/3
f 100/2/3 88/2/3 101/2/3
f 101/2/3 88/2/3 89/2/3
f 101/2/3 89/2/3 102/2/3
f 102/2/3 89/2/3 103/2/3
f 85/4/3 105/4/3 104/4/3
f 105/4/3 85/4/3 86/4/3
f 105/4/3 86/4/3 106/4/3
f 106/4/3 86/4/3 107/4/3
f 106/4/3 107/4/3 108/4/3
f 110/10/46 99/2/46 109/10/46
f 99/2/46 110/10/46 88/2/46
f 88/2/46 110/10/46 87/3/46
f 96/14/3 111/14/3 94/14/3
f 77/14/3 94/14/3 111/14/3
f 94/14/3 77/14/3 75/14/3
f 77/14/3 111/14/3 112/14/3
f 77/14/3 112/14/3 113/14/3
f 113/14/3 112/14/3 114/14/3
f 114/14/3 112/14/3 115/14/3
f 110/10/47 89/2/47 87/3/47
f 89/2/47 110/10/47 116/10/47
f 89/2/47 116/10/47 103/2/47
f 103/2/48 117/10/48 102/2/48
f 117/10/48 103/2/48 116/10/48
f 120/7/3 119/7/3 118/7/3
f 119/7/3 120/7/3 83/7/3
f 83/7/3 120/7/3 121/7/3
f 81/7/3 119/7/3 83/7/3
f 81/7/3 79/7/3 119/7/3
f 79/7/3 81/7/3 78/7/3
f 107/4/49 123/10/49 122/10/49
f 123/10/49 107/4/49 84/9/49
f 84/9/49 107/4/49 86/4/49
f 124/10/50 107/4/50 122/10/50
f 107/4/50 124/10/50 108/4/50
f 108/4/50 124/10/50 125/11/50
f 100/2/51 91/4/51 98/2/51
f 91/4/51 100/2/51 90/5/51
f 90/5/51 100/2/51 126/5/51
f 126/5/51 100/2/51 118/7/51
f 126/5/51 118/7/51 119/7/51
f 120/7/52 100/2/52 101/2/52
f 100/2/52 120/7/52 118/7/52
f 94/14/53 127/10/53 93/15/53
f 127/10/53 94/14/53 128/10/53
f 128/10/53 94/14/53 75/14/53
f 128/10/53 75/14/53 76/3/53
f 76/3/54 129/10/54 128/10/54
f 129/10/54 76/3/54 113/14/54
f 113/14/54 76/3/54 77/14/54
f 102/2/55 120/7/55 101/2/55
f 120/7/55 102/2/55 117/10/55
f 120/7/55 117/10/55 121/7/55
f 121/7/55 117/10/55 130/10/55
f 109/10/56 125/11/56 124/10/56
f 125/11/56 109/10/56 99/2/56
f 125/11/56 99/2/56 97/2/56
f 133/5/3 132/5/3 131/5/3
f 132/5/3 133/5/3 92/5/3
f 132/5/3 92/5/3 90/5/3
f 132/5/3 90/5/3 126/5/3
f 104/4/57 127/10/57 134/10/57
f 127/10/57 104/4/57 93/15/57
f 93/15/57 104/4/57 95/13/57
f 95/13/57 104/4/57 105/4/57
f 113/14/58 135/10/58 129/10/58
f 135/10/58 113/14/58 114/14/58
f 82/3/59 130/10/59 136/10/59
f 130/10/59 82/3/59 121/7/59
f 121/7/59 82/3/59 83/7/59
f 133/5/60 105/4/60 106/4/60
f 105/4/60 133/5/60 131/5/60
f 105/4/60 131/5/60 95/13/60
f 95/13/60 131/5/60 96/14/60
f 96/14/60 131/5/60 111/14/60
f 131/5/61 112/14/61 111/14/61
f 112/14/61 131/5/61 132/5/61
f 80/8/62 114/14/62 115/14/62
f 81/7/62 114/14/62 80/8/62
f 81/7/62 80/8/62 78/7/62
f 82/3/62 114/14/62 81/7/62
f 136/10/62 114/14/62 82/3/62
f 114/14/62 136/10/62 135/10/62
f 91/4/43 97/2/63 98/2/63
f 108/4/63 97/2/63 91/4/43
f 97/2/63 108/4/63 125/11/63
f 108/4/63 91/4/43 92/5/44
f 108/4/63 92/5/44 106/4/63
f 106/4/63 92/5/44 133/5/63
f 84/9/64 134/10/64 123/10/64
f 134/10/64 84/9/64 85/4/64
f 134/10/64 85/4/64 104/4/64
f 132/5/65 115/14/65 112/14/65
f 115/14/65 132/5/65 80/8/65
f 80/8/65 132/5/65 79/7/65
f 79/7/65 132/5/65 119/7/65
f 119/7/65 132/5/65 126/5/65
f 139/16/3 138/16/3 137/16/3
f 138/16/3 139/16/3 140/16/3
f 142/17/66 139/16/66 141/17/66
f 139/16/66 142/17/66 140/16/66
f 138/16/67 142/17/67 143/17/67
f 142/17/67 138/16/67 140/16/67
f 137/16/68 143/17/68 144/17/68
f 143/17/68 137/16/68 138/16/68
f 139/16/69 144/17/69 141/17/69
f 144/17/69 139/16/69 137/16/69
f 147/16/3 146/16/3 145/16/3
f 146/16/3 147/16/3 148/16/3
f 150/17/66 147/16/66 149/17/66
f 147/16/66 150/17/66 148/16/66
f 146/16/67 150/17/67 151/17/67
f 150/17/67 146/16/67 148/16/67
f 145/16/68 151/17/68 152/17/68
f 151/17/68 145/16/68 146/16/68
f 147/16/69 152/17/69 149/17/69
f 152/17/69 147/16/69 145/16/69
f 155/18/5 154/18/5 153/18/5
f 154/18/5 155/18/5 11/18/5
f 4/18/2 153/18/2 156/18/2
f 153/18/2 4/18/2 155/18/2
f 4/18/1 157/18/1 2/18/1
f 157/18/1 4/18/1 156/18/1
f 153/18/70 157/18/70 156/18/70
f 157/18/70 153/18/70 158/18/70
f 158/18/70 153/18/70 154/18/70
f 158/18/70 154/18/70 159/18/70
f 160/18/7 157/18/7 158/18/7
f 157/18/7 160/18/7 2/18/7
f 10/18/6 158/18/6 159/18/6
f 158/18/6 10/18/6 160/18/6
f 154/18/4 10/18/4 159/18/4
f 10/18/4 154/18/4 11/18/4

