# Created by Kenney (www.kenney.nl)

mtllib unit-wall-tower.mtl

g unit-wall-tower

v 0.110625 0.35 0.1064489 1 1 1
v 0.1475 0.35 0.08515917 1 1 1
v 0.110625 0.325 0.1064489 1 1 1
v 0.1475 0.3 0.08515917 1 1 1
v 3.898322E-14 0.3 0.1703183 1 1 1
v 0.036875 0.325 0.1490285 1 1 1
v 3.898322E-14 0.35 0.1703183 1 1 1
v 0.036875 0.35 0.1490285 1 1 1
v -0.024375 0.325 0.09851038 1 1 1
v -0.024375 0.35 0.09851038 1 1 1
v -0.036875 0.325 0.1490285 1 1 1
v -0.036875 0.35 0.1490285 1 1 1
v -0.1475 0.35 0.08515917 1 1 1
v -0.1475 0.3 0.08515917 1 1 1
v -0.1475 0.35 0.04257958 1 1 1
v -0.1475 0.325 0.04257958 1 1 1
v -0.1475 0.325 -0.04257958 1 1 1
v -0.1475 0.3 -0.08515917 1 1 1
v -0.1475 0.35 -0.08515917 1 1 1
v -0.1475 0.35 -0.04257958 1 1 1
v 0.110625 0.325 -0.1064489 1 1 1
v 0.073125 0.325 -0.07036456 1 1 1
v 0.036875 0.325 -0.1490285 1 1 1
v 0.024375 0.325 -0.09851038 1 1 1
v -0.024375 0.325 -0.09851038 1 1 1
v -0.073125 0.325 -0.07036456 1 1 1
v -0.036875 0.325 -0.1490285 1 1 1
v -0.110625 0.325 -0.1064489 1 1 1
v 0.036875 0.35 -0.1490285 1 1 1
v 0.024375 0.35 -0.09851038 1 1 1
v 0.1475 0.325 0.04257958 1 1 1
v 0.0975 0.325 0.02814583 1 1 1
v 0.1475 0.325 -0.04257958 1 1 1
v 0.0975 0.325 -0.02814583 1 1 1
v 0.0975 0.3 0.02814583 1 1 1
v 0.073125 0.3 0.07036456 1 1 1
v 0.0975 0.35 0.02814583 1 1 1
v 0.073125 0.35 0.07036456 1 1 1
v 0.073125 0.325 0.07036456 1 1 1
v 0.024375 0.3 -0.09851038 1 1 1
v -0.024375 0.3 -0.09851038 1 1 1
v -0.024375 0.35 -0.09851038 1 1 1
v -3.104219E-14 0 -0.1443376 1 1 1
v 0.125 0 -0.07216878 1 1 1
v -3.104219E-14 0.2 -0.1443376 1 1 1
v 0.125 0.2 -0.07216878 1 1 1
v -0.073125 0.3 0.07036456 1 1 1
v -0.024375 0.3 0.09851038 1 1 1
v -0.073125 0.325 0.07036456 1 1 1
v -0.125 0.2 -0.07216878 1 1 1
v -3.681748E-14 0.3 -0.1703183 1 1 1
v -0.110625 0.325 0.1064489 1 1 1
v -0.110625 0.35 0.1064489 1 1 1
v 3.320792E-14 0 0.1443376 1 1 1
v -0.125 0 0.07216878 1 1 1
v 3.320792E-14 0.2 0.1443376 1 1 1
v -0.125 0.2 0.07216878 1 1 1
v 0.073125 0.3 -0.07036456 1 1 1
v 0.0975 0.3 -0.02814583 1 1 1
v 0.0975 0.35 -0.02814583 1 1 1
v 0.073125 0.35 -0.07036456 1 1 1
v 0.110625 0.35 -0.1064489 1 1 1
v 0.024375 0.35 0.09851038 1 1 1
v 0.024375 0.325 0.09851038 1 1 1
v -0.073125 0.3 -0.07036456 1 1 1
v -0.0975 0.325 0.02814583 1 1 1
v -0.0975 0.35 0.02814583 1 1 1
v 0.1475 0.35 0.04257958 1 1 1
v 0.1475 0.3 -0.08515917 1 1 1
v 0.1475 0.35 -0.04257958 1 1 1
v 0.1475 0.35 -0.08515917 1 1 1
v -0.125 0 -0.07216878 1 1 1
v -0.036875 0.35 -0.1490285 1 1 1
v 0.125 0.2 0.07216878 1 1 1
v 0.125 0 0.07216878 1 1 1
v -0.0975 0.325 -0.02814583 1 1 1
v -0.0975 0.35 -0.02814583 1 1 1
v 0.024375 0.3 0.09851038 1 1 1
v -0.073125 0.35 0.07036456 1 1 1
v -3.681748E-14 0.35 -0.1703183 1 1 1
v -0.0975 0.3 -0.02814583 1 1 1
v -0.0975 0.3 0.02814583 1 1 1
v -0.110625 0.35 -0.1064489 1 1 1
v -0.073125 0.35 -0.07036456 1 1 1

vn 0.5 0 0.8660254
vn 0.8660254 0 0.5
vn 0 0 1
vn -0.9707254 0 -0.2401923
vn -0.8660254 0 0.5
vn -1 0 0
vn -0.8660254 0 -0.5
vn 0 1 0
vn 0.9707254 0 0.2401923
vn -0.9659258 0 -0.258819
vn -0.9390708 0 -0.3437238
vn -0.7071068 0 -0.7071068
vn -0.7672089 0 -0.6413973
vn -0.258819 0 0.9659258
vn 0.258819 0 0.9659258
vn -0.1718619 0 0.985121
vn 0.1718619 0 0.985121
vn 0 0 -1
vn 0.8660254 0 -0.5
vn 0.7071068 0 -0.7071068
vn 0.258819 0 -0.9659258
vn 0.7672089 0 -0.6413973
vn 0.1718619 0 -0.985121
vn -0.8381981 -0.2514594 -0.4839339
vn 0 -0.2514594 -0.9678678
vn -0.5 0 0.8660254
vn -0.7071068 0 0.7071068
vn -0.9390708 0 0.3437238
vn -0.9659258 0 0.258819
vn -0.7672089 0 0.6413973
vn -0.6933752 0 -0.7205767
vn 0.9707254 0 -0.2401923
vn 0.7071068 0 0.7071068
vn 0.7672089 0 0.6413973
vn -0.2773501 0 -0.9607689
vn 1 0 0
vn -0.8381981 -0.2514594 0.4839339
vn 0.2773501 0 0.9607689
vn -0.9707254 0 0.2401923
vn -0.2773501 0 0.9607689
vn -0.258819 0 -0.9659258
vn -0.1718619 0 -0.985121
vn 0.8381981 -0.2514594 -0.4839339
vn 0.8381981 -0.2514594 0.4839339
vn 0 -0.2514594 0.9678678
vn 0.5 0 -0.8660254
vn 0.2773501 0 -0.9607689
vn -0.6933752 0 0.7205767
vn 0.9390708 0 0.3437238
vn 0.9659258 0 0.258819
vn 0.9390708 0 -0.3437238
vn 0.9659258 0 -0.258819
vn 0.6933752 0 0.7205767
vn -0.5 0 -0.8660254
vn 0.6933752 0 -0.7205767
vn 0 -1 0

vt 0.71875 0.225
vt 0.71875 0.2107143
vt 0.71875 0.1964286
vt 0.71875 0.025
vt 0.71875 0.1392857
vt 0.59375 0.1964286

usemtl colormap

f 3/2/1 2/1/2 1/1/1
f 3/2/1 4/3/2 2/1/2
f 4/3/2 3/2/1 5/3/3
f 6/2/1 5/3/3 3/2/1
f 5/3/3 6/2/1 7/1/3
f 7/1/3 6/2/1 8/1/1
f 11/2/4 10/1/4 9/2/4
f 10/1/4 11/2/4 12/1/4
f 15/1/6 14/3/5 13/1/5
f 16/2/6 14/3/5 15/1/6
f 17/2/6 14/3/5 16/2/6
f 17/2/6 18/3/7 14/3/5
f 18/3/7 17/2/6 19/1/7
f 20/1/6 19/1/7 17/2/6
f 23/2/8 22/2/8 21/2/8
f 22/2/8 23/2/8 24/2/8
f 27/2/8 26/2/8 25/2/8
f 26/2/8 27/2/8 28/2/8
f 30/1/9 23/2/9 29/1/9
f 23/2/9 30/1/9 24/2/9
f 33/2/8 32/2/8 31/2/8
f 32/2/8 33/2/8 34/2/8
f 36/3/12 32/2/11 35/3/10
f 32/2/11 36/3/12 37/1/7
f 37/1/7 36/3/12 38/1/7
f 38/1/7 36/3/12 39/2/13
f 24/2/16 41/3/15 40/3/14
f 41/3/15 24/2/16 25/2/17
f 25/2/17 24/2/16 30/1/3
f 25/2/17 30/1/3 42/1/3
f 45/5/18 44/4/19 43/4/18
f 44/4/19 45/5/18 46/5/19
f 49/2/22 48/3/21 47/3/20
f 48/3/21 49/2/22 9/2/23
f 18/3/24 45/5/25 50/5/24
f 45/5/25 18/3/24 51/3/25
f 11/2/26 7/1/3 12/1/26
f 11/2/26 5/3/3 7/1/3
f 5/3/3 11/2/26 14/3/5
f 52/2/26 14/3/5 11/2/26
f 14/3/5 52/2/26 13/1/5
f 13/1/5 52/2/26 53/1/26
f 56/5/3 55/4/5 54/4/3
f 55/4/5 56/5/3 57/5/5
f 59/3/29 34/2/28 58/3/27
f 60/1/5 58/3/27 34/2/28
f 61/1/5 58/3/27 60/1/5
f 58/3/27 61/1/5 22/2/30
f 61/1/31 21/2/31 22/2/31
f 21/2/31 61/1/31 62/1/31
f 8/1/32 64/2/32 63/1/32
f 64/2/32 8/1/32 6/2/32
f 25/2/17 65/3/33 41/3/15
f 65/3/33 25/2/17 26/2/34
f 15/1/35 66/2/35 16/2/35
f 66/2/35 15/1/35 67/1/35
f 2/1/2 31/2/36 68/1/36
f 4/3/2 31/2/36 2/1/2
f 4/3/2 33/2/36 31/2/36
f 69/3/19 33/2/36 4/3/2
f 69/3/19 70/1/36 33/2/36
f 70/1/36 69/3/19 71/1/19
f 50/5/24 14/3/37 18/3/24
f 14/3/37 50/5/24 57/5/37
f 50/5/7 43/4/18 72/4/7
f 43/4/18 50/5/7 45/5/18
f 70/1/38 34/2/38 33/2/38
f 34/2/38 70/1/38 60/1/38
f 25/2/39 73/1/39 27/2/39
f 73/1/39 25/2/39 42/1/39
f 74/5/2 44/4/19 46/5/19
f 44/4/19 74/5/2 75/4/2
f 77/1/40 17/2/40 76/2/40
f 17/2/40 77/1/40 20/1/40
f 22/2/30 40/3/14 58/3/27
f 40/3/14 22/2/30 24/2/16
f 71/1/8 60/1/8 70/1/8
f 60/1/8 71/1/8 62/1/8
f 60/1/8 62/1/8 61/1/8
f 76/2/8 16/2/8 66/2/8
f 16/2/8 76/2/8 17/2/8
f 68/1/8 1/1/8 2/1/8
f 1/1/8 68/1/8 37/1/8
f 1/1/8 37/1/8 38/1/8
f 55/4/5 50/5/7 72/4/7
f 50/5/7 55/4/5 57/5/5
f 64/2/42 36/3/12 78/3/41
f 36/3/12 64/2/42 39/2/13
f 74/5/2 54/4/3 75/4/2
f 54/4/3 74/5/2 56/5/3
f 51/3/25 46/5/43 45/5/25
f 46/5/43 51/3/25 69/3/43
f 49/2/8 11/2/8 9/2/8
f 11/2/8 49/2/8 52/2/8
f 4/3/44 56/5/45 74/5/44
f 56/5/45 4/3/44 5/3/45
f 67/1/8 53/1/8 79/1/8
f 53/1/8 67/1/8 15/1/8
f 53/1/8 15/1/8 13/1/8
f 23/2/46 80/1/18 29/1/46
f 23/2/46 51/3/18 80/1/18
f 51/3/18 23/2/46 69/3/19
f 21/2/46 69/3/19 23/2/46
f 69/3/19 21/2/46 71/1/19
f 71/1/19 21/2/46 62/1/46
f 37/1/47 31/2/47 32/2/47
f 31/2/47 37/1/47 68/1/47
f 39/2/8 6/2/8 3/2/8
f 6/2/8 39/2/8 64/2/8
f 1/1/48 39/2/48 3/2/48
f 39/2/48 1/1/48 38/1/48
f 66/2/51 81/3/50 76/2/49
f 81/3/50 66/2/51 82/3/52
f 4/3/44 46/5/43 69/3/43
f 46/5/43 4/3/44 74/5/44
f 79/1/53 52/2/53 49/2/53
f 52/2/53 79/1/53 53/1/53
f 28/2/54 19/1/7 83/1/54
f 28/2/54 18/3/7 19/1/7
f 18/3/7 28/2/54 51/3/18
f 27/2/54 51/3/18 28/2/54
f 51/3/18 27/2/54 80/1/18
f 80/1/18 27/2/54 73/1/54
f 59/3/29 32/2/11 34/2/28
f 32/2/11 59/3/29 35/3/10
f 5/3/45 57/5/37 56/5/45
f 57/5/37 5/3/45 14/3/37
f 83/1/55 26/2/55 28/2/55
f 26/2/55 83/1/55 84/1/55
f 63/1/8 7/1/8 8/1/8
f 7/1/8 63/1/8 10/1/8
f 7/1/8 10/1/8 12/1/8
f 83/1/8 77/1/8 84/1/8
f 77/1/8 83/1/8 20/1/8
f 20/1/8 83/1/8 19/1/8
f 79/1/19 66/2/51 67/1/19
f 66/2/51 79/1/19 82/3/52
f 82/3/52 79/1/19 47/3/20
f 47/3/20 79/1/19 49/2/22
f 80/1/8 30/1/8 29/1/8
f 30/1/8 80/1/8 42/1/8
f 42/1/8 80/1/8 73/1/8
f 9/2/23 78/3/41 48/3/21
f 78/3/41 9/2/23 64/2/42
f 64/2/42 9/2/23 10/1/18
f 64/2/42 10/1/18 63/1/18
f 54/4/56 44/4/56 75/4/56
f 44/4/56 54/4/56 43/4/56
f 43/4/56 54/4/56 55/4/56
f 43/4/56 55/4/56 72/4/56
f 77/1/2 26/2/34 84/1/2
f 26/2/34 77/1/2 65/3/33
f 65/3/33 77/1/2 81/3/50
f 81/3/50 77/1/2 76/2/49
f 58/6/8 35/6/8 59/6/8
f 35/6/8 58/6/8 36/6/8
f 36/6/8 58/6/8 40/6/8
f 36/6/8 40/6/8 78/6/8
f 78/6/8 40/6/8 48/6/8
f 48/6/8 40/6/8 41/6/8
f 48/6/8 41/6/8 47/6/8
f 47/6/8 41/6/8 65/6/8
f 47/6/8 65/6/8 82/6/8
f 82/6/8 65/6/8 81/6/8

g unit-wall-tower




usemtl colormap

f 3/2/1 2/1/2 1/1/1
f 3/2/1 4/3/2 2/1/2
f 4/3/2 3/2/1 5/3/3
f 6/2/1 5/3/3 3/2/1
f 5/3/3 6/2/1 7/1/3
f 7/1/3 6/2/1 8/1/1
f 11/2/4 10/1/4 9/2/4
f 10/1/4 11/2/4 12/1/4
f 15/1/6 14/3/5 13/1/5
f 16/2/6 14/3/5 15/1/6
f 17/2/6 14/3/5 16/2/6
f 17/2/6 18/3/7 14/3/5
f 18/3/7 17/2/6 19/1/7
f 20/1/6 19/1/7 17/2/6
f 23/2/8 22/2/8 21/2/8
f 22/2/8 23/2/8 24/2/8
f 27/2/8 26/2/8 25/2/8
f 26/2/8 27/2/8 28/2/8
f 30/1/9 23/2/9 29/1/9
f 23/2/9 30/1/9 24/2/9
f 33/2/8 32/2/8 31/2/8
f 32/2/8 33/2/8 34/2/8
f 36/3/12 32/2/11 35/3/10
f 32/2/11 36/3/12 37/1/7
f 37/1/7 36/3/12 38/1/7
f 38/1/7 36/3/12 39/2/13
f 24/2/16 41/3/15 40/3/14
f 41/3/15 24/2/16 25/2/17
f 25/2/17 24/2/16 30/1/3
f 25/2/17 30/1/3 42/1/3
f 45/5/18 44/4/19 43/4/18
f 44/4/19 45/5/18 46/5/19
f 49/2/22 48/3/21 47/3/20
f 48/3/21 49/2/22 9/2/23
f 18/3/24 45/5/25 50/5/24
f 45/5/25 18/3/24 51/3/25
f 11/2/26 7/1/3 12/1/26
f 11/2/26 5/3/3 7/1/3
f 5/3/3 11/2/26 14/3/5
f 52/2/26 14/3/5 11/2/26
f 14/3/5 52/2/26 13/1/5
f 13/1/5 52/2/26 53/1/26
f 56/5/3 55/4/5 54/4/3
f 55/4/5 56/5/3 57/5/5
f 59/3/29 34/2/28 58/3/27
f 60/1/5 58/3/27 34/2/28
f 61/1/5 58/3/27 60/1/5
f 58/3/27 61/1/5 22/2/30
f 61/1/31 21/2/31 22/2/31
f 21/2/31 61/1/31 62/1/31
f 8/1/32 64/2/32 63/1/32
f 64/2/32 8/1/32 6/2/32
f 25/2/17 65/3/33 41/3/15
f 65/3/33 25/2/17 26/2/34
f 15/1/35 66/2/35 16/2/35
f 66/2/35 15/1/35 67/1/35
f 2/1/2 31/2/36 68/1/36
f 4/3/2 31/2/36 2/1/2
f 4/3/2 33/2/36 31/2/36
f 69/3/19 33/2/36 4/3/2
f 69/3/19 70/1/36 33/2/36
f 70/1/36 69/3/19 71/1/19
f 50/5/24 14/3/37 18/3/24
f 14/3/37 50/5/24 57/5/37
f 50/5/7 43/4/18 72/4/7
f 43/4/18 50/5/7 45/5/18
f 70/1/38 34/2/38 33/2/38
f 34/2/38 70/1/38 60/1/38
f 25/2/39 73/1/39 27/2/39
f 73/1/39 25/2/39 42/1/39
f 74/5/2 44/4/19 46/5/19
f 44/4/19 74/5/2 75/4/2
f 77/1/40 17/2/40 76/2/40
f 17/2/40 77/1/40 20/1/40
f 22/2/30 40/3/14 58/3/27
f 40/3/14 22/2/30 24/2/16
f 71/1/8 60/1/8 70/1/8
f 60/1/8 71/1/8 62/1/8
f 60/1/8 62/1/8 61/1/8
f 76/2/8 16/2/8 66/2/8
f 16/2/8 76/2/8 17/2/8
f 68/1/8 1/1/8 2/1/8
f 1/1/8 68/1/8 37/1/8
f 1/1/8 37/1/8 38/1/8
f 55/4/5 50/5/7 72/4/7
f 50/5/7 55/4/5 57/5/5
f 64/2/42 36/3/12 78/3/41
f 36/3/12 64/2/42 39/2/13
f 74/5/2 54/4/3 75/4/2
f 54/4/3 74/5/2 56/5/3
f 51/3/25 46/5/43 45/5/25
f 46/5/43 51/3/25 69/3/43
f 49/2/8 11/2/8 9/2/8
f 11/2/8 49/2/8 52/2/8
f 4/3/44 56/5/45 74/5/44
f 56/5/45 4/3/44 5/3/45
f 67/1/8 53/1/8 79/1/8
f 53/1/8 67/1/8 15/1/8
f 53/1/8 15/1/8 13/1/8
f 23/2/46 80/1/18 29/1/46
f 23/2/46 51/3/18 80/1/18
f 51/3/18 23/2/46 69/3/19
f 21/2/46 69/3/19 23/2/46
f 69/3/19 21/2/46 71/1/19
f 71/1/19 21/2/46 62/1/46
f 37/1/47 31/2/47 32/2/47
f 31/2/47 37/1/47 68/1/47
f 39/2/8 6/2/8 3/2/8
f 6/2/8 39/2/8 64/2/8
f 1/1/48 39/2/48 3/2/48
f 39/2/48 1/1/48 38/1/48
f 66/2/51 81/3/50 76/2/49
f 81/3/50 66/2/51 82/3/52
f 4/3/44 46/5/43 69/3/43
f 46/5/43 4/3/44 74/5/44
f 79/1/53 52/2/53 49/2/53
f 52/2/53 79/1/53 53/1/53
f 28/2/54 19/1/7 83/1/54
f 28/2/54 18/3/7 19/1/7
f 18/3/7 28/2/54 51/3/18
f 27/2/54 51/3/18 28/2/54
f 51/3/18 27/2/54 80/1/18
f 80/1/18 27/2/54 73/1/54
f 59/3/29 32/2/11 34/2/28
f 32/2/11 59/3/29 35/3/10
f 5/3/45 57/5/37 56/5/45
f 57/5/37 5/3/45 14/3/37
f 83/1/55 26/2/55 28/2/55
f 26/2/55 83/1/55 84/1/55
f 63/1/8 7/1/8 8/1/8
f 7/1/8 63/1/8 10/1/8
f 7/1/8 10/1/8 12/1/8
f 83/1/8 77/1/8 84/1/8
f 77/1/8 83/1/8 20/1/8
f 20/1/8 83/1/8 19/1/8
f 79/1/19 66/2/51 67/1/19
f 66/2/51 79/1/19 82/3/52
f 82/3/52 79/1/19 47/3/20
f 47/3/20 79/1/19 49/2/22
f 80/1/8 30/1/8 29/1/8
f 30/1/8 80/1/8 42/1/8
f 42/1/8 80/1/8 73/1/8
f 9/2/23 78/3/41 48/3/21
f 78/3/41 9/2/23 64/2/42
f 64/2/42 9/2/23 10/1/18
f 64/2/42 10/1/18 63/1/18
f 54/4/56 44/4/56 75/4/56
f 44/4/56 54/4/56 43/4/56
f 43/4/56 54/4/56 55/4/56
f 43/4/56 55/4/56 72/4/56
f 77/1/2 26/2/34 84/1/2
f 26/2/34 77/1/2 65/3/33
f 65/3/33 77/1/2 81/3/50
f 81/3/50 77/1/2 76/2/49
f 58/6/8 35/6/8 59/6/8
f 35/6/8 58/6/8 36/6/8
f 36/6/8 58/6/8 40/6/8
f 36/6/8 40/6/8 78/6/8
f 78/6/8 40/6/8 48/6/8
f 48/6/8 40/6/8 41/6/8
f 48/6/8 41/6/8 47/6/8
f 47/6/8 41/6/8 65/6/8
f 47/6/8 65/6/8 82/6/8
f 82/6/8 65/6/8 81/6/8

