# Created by Kenney (www.kenney.nl)

mtllib river-corner-sharp.mtl

g river-corner-sharp

v 0.2336487 0.1625 0.08336286 1 1 1
v 0.2553561 0.2 0.08576433 1 1 1
v 0.1890187 0.1625 0.1606642 1 1 1
v 0.2019522 0.2 0.1782628 1 1 1
v -0.3708105 0.2 -0.3632627 1 1 1
v -0.3708105 0.2 -0.2140876 1 1 1
v -0.4354053 0.2 -0.3259689 1 1 1
v -0.3083105 0.2 -0.2550095 1 1 1
v -0.3749999 0.2 -0.1395 1 1 1
v -0.1570679 0.2 -0.09068318 1 1 1
v -0.5 0.2 -0.2140876 1 1 1
v -0.4999999 0.2 -0.1395 1 1 1
v -0.4999999 0.1625 0.1195 1 1 1
v -0.3727874 0.1625 0.1195 1 1 1
v -0.4999999 0.2 0.1395 1 1 1
v -0.3749999 0.2 0.1395 1 1 1
v -0.1227874 0.1625 0.1755001 1 1 1
v 0.1227875 0.1625 0.1755001 1 1 1
v -0.125 0.2 0.1955 1 1 1
v 0.125 0.2 0.1955001 1 1 1
v -0.35349 0.1625 -0.3732627 1 1 1
v -0.2920963 0.1625 -0.2669256 1 1 1
v -0.1291894 0.2 -0.5027627 1 1 1
v -0.0666894 0.2 -0.3945095 1 1 1
v -0.1465099 0.1625 -0.4927627 1 1 1
v -0.08290362 0.1625 -0.3825933 1 1 1
v 0.231808 0.2 0.0105032 1 1 1
v 0.2133812 0.1625 0.01858705 1 1 1
v -0.3772125 0.1625 -0.1195 1 1 1
v -0.4999999 0.1625 -0.1195 1 1 1
v 0.106808 0.2 -0.2060032 1 1 1
v 0.0905938 0.1625 -0.194087 1 1 1
v -0.09906419 0.1625 -0.05719473 1 1 1
v -0.06459472 0.2 -0.5400565 1 1 1
v -0.006220482 0.2 -0.4389493 1 1 1
v 0.1672769 0.2 -0.250443 1 1 1
v 0.3005285 0.2 -0.01964451 1 1 1
v 0.2501861 0.2 0.2438943 1 1 1
v 0.3363116 0.2 0.09472039 1 1 1
v 0.1332516 0.2 0.2700876 1 1 1
v -0.1332515 0.2 0.2700876 1 1 1
v -0.3832515 0.2 0.2140876 1 1 1
v -0.5 0.2 0.2140876 1 1 1
v 0.5 0.1 -0.2886751 1 1 1
v 0.5 1.70414E-17 -0.2886751 1 1 1
v 0.5 0.1 0.2886751 1 1 1
v 0.5 1.70414E-17 0.2886751 1 1 1
v -0.35349 8.396289E-18 -0.3732627 1 1 1
v -0.35349 0.1 -0.3732627 1 1 1
v -0.5 1.70414E-17 -0.2886751 1 1 1
v -0.5 0.1 -0.2886751 1 1 1
v 1.270564E-13 1.70414E-17 0.5773503 1 1 1
v -1.270564E-13 1.70414E-17 -0.5773503 1 1 1
v -0.5 1.70414E-17 0.2886751 1 1 1
v -0.1465099 6.604733E-18 -0.4927627 1 1 1
v -0.4999999 3.095602E-17 0.1195 1 1 1
v -0.4999999 0 -0.1195 1 1 1
v 1.270564E-13 0.1 0.5773503 1 1 1
v -0.5 0.1 0.2886751 1 1 1
v -0.5 0.1 -0.1195 1 1 1
v -0.1465099 0.1 -0.4927627 1 1 1
v -1.270564E-13 0.1 -0.5773503 1 1 1
v -0.5 0.1 0.1195 1 1 1
v -0.35349 0.1625 -0.3732627 1 1 1
v -0.1465099 0.1625 -0.4927627 1 1 1
v -0.2920963 0.1625 -0.2669257 1 1 1
v -0.08290362 0.1625 -0.3825933 1 1 1
v -0.1227874 0.1625 0.1755 1 1 1
v 0.1227874 0.1625 0.1755 1 1 1
v -0.3727874 0.1625 0.1195 1 1 1
v -0.5 0.1625 0.1195 1 1 1
v -0.5 0.1625 -0.1195 1 1 1
v 0.1890187 0.1625 0.1606643 1 1 1
v 0.2133812 0.1625 0.01858705 1 1 1
v 0.2336486 0.1625 0.08336286 1 1 1
v -0.1465099 -1.043667E-17 -0.4927627 1 1 1
v -0.35349 -8.64511E-18 -0.3732627 1 1 1
v -0.5 0.1 -0.1195 1 1 1
v -0.5 -1.70414E-17 -0.1195 1 1 1
v -0.5 1.391462E-17 0.1195 1 1 1
v -0.5 0.1 0.1195 1 1 1
v -0.3708105 0.2 -0.2140876 1 1 1
v -0.5 0.2 -0.2140876 1 1 1
v -0.4354053 0.2 -0.3259689 1 1 1
v -0.5 0.2 -0.2886751 1 1 1
v -0.06459473 0.2 -0.5400565 1 1 1
v -1.270564E-13 0.2 -0.5773503 1 1 1
v -0.006220486 0.2 -0.4389493 1 1 1
v 0.1672769 0.2 -0.250443 1 1 1
v 0.3005285 0.2 -0.01964451 1 1 1
v 0.5 0.2 -0.2886751 1 1 1
v 0.3363117 0.2 0.09472039 1 1 1
v 0.5 0.2 0.2886751 1 1 1
v 0.2501861 0.2 0.2438943 1 1 1
v 1.270564E-13 0.2 0.5773503 1 1 1
v 0.1332516 0.2 0.2700876 1 1 1
v -0.1332515 0.2 0.2700876 1 1 1
v -0.5 0.2 0.2886751 1 1 1
v -0.3832515 0.2 0.2140876 1 1 1
v -0.5 0.2 0.2140876 1 1 1
v -0.35349 0.1625 -0.3732627 1 1 1
v -0.3708105 0.2 -0.3632627 1 1 1
v -0.1291894 0.2 -0.5027627 1 1 1
v -0.4999999 0.2 -0.1395 1 1 1
v -0.4999999 0.1625 -0.1195 1 1 1
v -0.4999999 0.1625 0.1195 1 1 1
v -0.4999999 0.2 0.1395 1 1 1

vn -0.8588904 0.5032681 -0.09501839
vn -0.5117335 0.5032682 -0.6963116
vn 0 1 0
vn 0 0.4705883 -0.8823529
vn 0.09689093 0.4728189 -0.8758165
vn -0.0968909 0.4728189 -0.8758165
vn 0.7641401 0.4705882 -0.4411765
vn 0.7100338 0.4728189 -0.5218183
vn -0.7641401 0.4705882 0.4411765
vn -0.7100338 0.4728189 0.5218183
vn -0.8069248 0.4728189 0.3539982
vn -0.09689093 0.4728189 0.8758165
vn 0 0.4705883 0.8823529
vn 0.4230823 0.8725452 0.2442667
vn 1 0 0
vn -0.4999999 0 -0.8660255
vn 0 -1 0
vn -0.5 0 0.8660254
vn 0.5 0 0.8660254
vn -1 0 0
vn -0.5000001 0 -0.8660253
vn 0.5 0 -0.8660254
vn -0.5 0 -0.8660254
vn -0.4999998 0 -0.8660255
vn -0.5000002 0 -0.8660253

vt 0.90625 0.125
vt 0.15625 0.125
vt 0.34375 0.175
vt 0.34375 0.075
vt 0.34375 0.1375

usemtl colormap

f 3/1/2 2/1/1 1/1/1
f 2/1/1 3/1/2 4/1/2
f 7/1/3 6/1/3 5/1/3
f 6/1/3 8/1/3 5/1/3
f 9/1/3 8/1/3 6/1/3
f 8/1/3 9/1/3 10/1/3
f 9/1/3 6/1/3 11/1/3
f 9/1/3 11/1/3 12/1/3
f 15/1/4 14/1/5 13/1/4
f 14/1/5 15/1/4 16/1/5
f 19/1/5 18/1/6 17/1/5
f 18/1/6 19/1/5 20/1/6
f 5/1/7 22/1/8 21/1/7
f 22/1/8 5/1/7 8/1/8
f 16/1/5 17/1/5 14/1/5
f 17/1/5 16/1/5 19/1/5
f 20/1/6 3/1/2 18/1/6
f 3/1/2 20/1/6 4/1/2
f 25/1/9 24/1/10 23/1/9
f 24/1/10 25/1/9 26/1/10
f 28/1/11 2/1/1 27/1/11
f 2/1/1 28/1/11 1/1/1
f 9/1/12 30/1/13 29/1/12
f 30/1/13 9/1/12 12/1/13
f 32/1/10 27/1/11 31/1/10
f 27/1/11 32/1/10 28/1/11
f 10/1/14 29/1/12 33/1/14
f 29/1/12 10/1/14 9/1/12
f 8/1/8 33/1/14 22/1/8
f 33/1/14 8/1/8 10/1/14
f 26/1/10 31/1/10 24/1/10
f 31/1/10 26/1/10 32/1/10
f 24/1/3 34/1/3 23/1/3
f 24/1/3 35/1/3 34/1/3
f 31/1/3 35/1/3 24/1/3
f 31/1/3 36/1/3 35/1/3
f 27/1/3 36/1/3 31/1/3
f 2/1/3 36/1/3 27/1/3
f 36/1/3 2/1/3 37/1/3
f 38/1/3 37/1/3 2/1/3
f 37/1/3 38/1/3 39/1/3
f 38/1/3 2/1/3 4/1/3
f 38/1/3 4/1/3 40/1/3
f 40/1/3 4/1/3 20/1/3
f 40/1/3 20/1/3 41/1/3
f 41/1/3 20/1/3 19/1/3
f 41/1/3 19/1/3 16/1/3
f 41/1/3 16/1/3 42/1/3
f 42/1/3 16/1/3 15/1/3
f 42/1/3 15/1/3 43/1/3
f 46/1/15 45/1/15 44/1/15
f 45/1/15 46/1/15 47/1/15
f 50/1/16 49/1/16 48/1/16
f 49/1/16 50/1/16 51/1/16
f 52/1/17 45/1/17 47/1/17
f 45/1/17 52/1/17 53/1/17
f 53/1/17 52/1/17 54/1/17
f 53/1/17 54/1/17 55/1/17
f 55/1/17 54/1/17 48/1/17
f 48/1/17 54/1/17 56/1/17
f 48/1/17 56/1/17 57/1/17
f 50/1/17 48/1/17 57/1/17
f 58/1/18 54/1/18 52/1/18
f 54/1/18 58/1/18 59/1/18
f 46/1/19 52/1/19 47/1/19
f 52/1/19 46/1/19 58/1/19
f 57/1/20 51/1/20 50/1/20
f 51/1/20 57/1/20 60/1/20
f 61/1/21 53/1/21 55/1/21
f 53/1/21 61/1/21 62/1/21
f 54/1/20 63/1/20 56/1/20
f 63/1/20 54/1/20 59/1/20
f 62/1/22 45/1/22 53/1/22
f 45/1/22 62/1/22 44/1/22
f 66/2/3 65/2/3 64/2/3
f 33/2/3 65/2/3 66/2/3
f 65/2/3 33/2/3 67/2/3
f 33/2/3 32/2/3 67/2/3
f 68/2/3 32/2/3 33/2/3
f 68/2/3 33/2/3 29/2/3
f 69/2/3 32/2/3 68/2/3
f 68/2/3 29/2/3 70/2/3
f 70/2/3 29/2/3 71/2/3
f 71/2/3 29/2/3 72/2/3
f 73/2/3 32/2/3 69/2/3
f 73/2/3 74/2/3 32/2/3
f 74/2/3 73/2/3 75/2/3
f 77/2/23 61/2/23 76/2/23
f 61/2/23 77/2/23 49/2/23
f 61/2/23 49/2/23 64/2/23
f 61/2/23 64/2/23 65/2/23
f 79/2/20 72/2/20 78/2/20
f 72/2/20 79/2/20 71/2/20
f 71/2/20 79/2/20 80/2/20
f 71/2/20 80/2/20 81/2/20
f 84/3/3 83/3/3 82/3/3
f 83/3/3 84/3/3 85/3/3
f 88/3/3 87/3/3 86/3/3
f 89/3/3 87/3/3 88/3/3
f 90/3/3 87/3/3 89/3/3
f 90/3/3 91/3/3 87/3/3
f 91/3/3 90/3/3 92/3/3
f 92/3/3 93/3/3 91/3/3
f 94/3/3 93/3/3 92/3/3
f 93/3/3 94/3/3 95/3/3
f 95/3/3 94/3/3 96/3/3
f 95/3/3 96/3/3 97/3/3
f 95/3/3 97/3/3 98/3/3
f 98/3/3 97/3/3 99/3/3
f 98/3/3 99/3/3 100/3/3
f 87/3/22 44/4/22 62/4/22
f 44/4/22 87/3/22 91/3/22
f 95/3/18 59/4/18 58/4/18
f 59/4/18 95/3/18 98/3/18
f 85/3/24 49/4/24 51/4/24
f 49/4/24 85/3/24 101/5/24
f 101/5/24 85/3/24 102/3/24
f 102/3/24 85/3/24 84/3/24
f 25/5/25 62/4/25 61/4/25
f 62/4/25 25/5/25 87/3/25
f 87/3/25 25/5/25 103/3/25
f 87/3/25 103/3/25 86/3/25
f 60/4/20 85/3/20 51/4/20
f 85/3/20 60/4/20 83/3/20
f 83/3/20 60/4/20 104/3/20
f 104/3/20 60/4/20 105/5/20
f 93/3/15 44/4/15 91/3/15
f 44/4/15 93/3/15 46/4/15
f 59/4/20 106/5/20 63/4/20
f 106/5/20 59/4/20 107/3/20
f 107/3/20 59/4/20 100/3/20
f 100/3/20 59/4/20 98/3/20
f 93/3/19 58/4/19 46/4/19
f 58/4/19 93/3/19 95/3/19

g river-corner-sharp




usemtl colormap

f 3/1/2 2/1/1 1/1/1
f 2/1/1 3/1/2 4/1/2
f 7/1/3 6/1/3 5/1/3
f 6/1/3 8/1/3 5/1/3
f 9/1/3 8/1/3 6/1/3
f 8/1/3 9/1/3 10/1/3
f 9/1/3 6/1/3 11/1/3
f 9/1/3 11/1/3 12/1/3
f 15/1/4 14/1/5 13/1/4
f 14/1/5 15/1/4 16/1/5
f 19/1/5 18/1/6 17/1/5
f 18/1/6 19/1/5 20/1/6
f 5/1/7 22/1/8 21/1/7
f 22/1/8 5/1/7 8/1/8
f 16/1/5 17/1/5 14/1/5
f 17/1/5 16/1/5 19/1/5
f 20/1/6 3/1/2 18/1/6
f 3/1/2 20/1/6 4/1/2
f 25/1/9 24/1/10 23/1/9
f 24/1/10 25/1/9 26/1/10
f 28/1/11 2/1/1 27/1/11
f 2/1/1 28/1/11 1/1/1
f 9/1/12 30/1/13 29/1/12
f 30/1/13 9/1/12 12/1/13
f 32/1/10 27/1/11 31/1/10
f 27/1/11 32/1/10 28/1/11
f 10/1/14 29/1/12 33/1/14
f 29/1/12 10/1/14 9/1/12
f 8/1/8 33/1/14 22/1/8
f 33/1/14 8/1/8 10/1/14
f 26/1/10 31/1/10 24/1/10
f 31/1/10 26/1/10 32/1/10
f 24/1/3 34/1/3 23/1/3
f 24/1/3 35/1/3 34/1/3
f 31/1/3 35/1/3 24/1/3
f 31/1/3 36/1/3 35/1/3
f 27/1/3 36/1/3 31/1/3
f 2/1/3 36/1/3 27/1/3
f 36/1/3 2/1/3 37/1/3
f 38/1/3 37/1/3 2/1/3
f 37/1/3 38/1/3 39/1/3
f 38/1/3 2/1/3 4/1/3
f 38/1/3 4/1/3 40/1/3
f 40/1/3 4/1/3 20/1/3
f 40/1/3 20/1/3 41/1/3
f 41/1/3 20/1/3 19/1/3
f 41/1/3 19/1/3 16/1/3
f 41/1/3 16/1/3 42/1/3
f 42/1/3 16/1/3 15/1/3
f 42/1/3 15/1/3 43/1/3
f 46/1/15 45/1/15 44/1/15
f 45/1/15 46/1/15 47/1/15
f 50/1/16 49/1/16 48/1/16
f 49/1/16 50/1/16 51/1/16
f 52/1/17 45/1/17 47/1/17
f 45/1/17 52/1/17 53/1/17
f 53/1/17 52/1/17 54/1/17
f 53/1/17 54/1/17 55/1/17
f 55/1/17 54/1/17 48/1/17
f 48/1/17 54/1/17 56/1/17
f 48/1/17 56/1/17 57/1/17
f 50/1/17 48/1/17 57/1/17
f 58/1/18 54/1/18 52/1/18
f 54/1/18 58/1/18 59/1/18
f 46/1/19 52/1/19 47/1/19
f 52/1/19 46/1/19 58/1/19
f 57/1/20 51/1/20 50/1/20
f 51/1/20 57/1/20 60/1/20
f 61/1/21 53/1/21 55/1/21
f 53/1/21 61/1/21 62/1/21
f 54/1/20 63/1/20 56/1/20
f 63/1/20 54/1/20 59/1/20
f 62/1/22 45/1/22 53/1/22
f 45/1/22 62/1/22 44/1/22
f 66/2/3 65/2/3 64/2/3
f 33/2/3 65/2/3 66/2/3
f 65/2/3 33/2/3 67/2/3
f 33/2/3 32/2/3 67/2/3
f 68/2/3 32/2/3 33/2/3
f 68/2/3 33/2/3 29/2/3
f 69/2/3 32/2/3 68/2/3
f 68/2/3 29/2/3 70/2/3
f 70/2/3 29/2/3 71/2/3
f 71/2/3 29/2/3 72/2/3
f 73/2/3 32/2/3 69/2/3
f 73/2/3 74/2/3 32/2/3
f 74/2/3 73/2/3 75/2/3
f 77/2/23 61/2/23 76/2/23
f 61/2/23 77/2/23 49/2/23
f 61/2/23 49/2/23 64/2/23
f 61/2/23 64/2/23 65/2/23
f 79/2/20 72/2/20 78/2/20
f 72/2/20 79/2/20 71/2/20
f 71/2/20 79/2/20 80/2/20
f 71/2/20 80/2/20 81/2/20
f 84/3/3 83/3/3 82/3/3
f 83/3/3 84/3/3 85/3/3
f 88/3/3 87/3/3 86/3/3
f 89/3/3 87/3/3 88/3/3
f 90/3/3 87/3/3 89/3/3
f 90/3/3 91/3/3 87/3/3
f 91/3/3 90/3/3 92/3/3
f 92/3/3 93/3/3 91/3/3
f 94/3/3 93/3/3 92/3/3
f 93/3/3 94/3/3 95/3/3
f 95/3/3 94/3/3 96/3/3
f 95/3/3 96/3/3 97/3/3
f 95/3/3 97/3/3 98/3/3
f 98/3/3 97/3/3 99/3/3
f 98/3/3 99/3/3 100/3/3
f 87/3/22 44/4/22 62/4/22
f 44/4/22 87/3/22 91/3/22
f 95/3/18 59/4/18 58/4/18
f 59/4/18 95/3/18 98/3/18
f 85/3/24 49/4/24 51/4/24
f 49/4/24 85/3/24 101/5/24
f 101/5/24 85/3/24 102/3/24
f 102/3/24 85/3/24 84/3/24
f 25/5/25 62/4/25 61/4/25
f 62/4/25 25/5/25 87/3/25
f 87/3/25 25/5/25 103/3/25
f 87/3/25 103/3/25 86/3/25
f 60/4/20 85/3/20 51/4/20
f 85/3/20 60/4/20 83/3/20
f 83/3/20 60/4/20 104/3/20
f 104/3/20 60/4/20 105/5/20
f 93/3/15 44/4/15 91/3/15
f 44/4/15 93/3/15 46/4/15
f 59/4/20 106/5/20 63/4/20
f 106/5/20 59/4/20 107/3/20
f 107/3/20 59/4/20 100/3/20
f 100/3/20 59/4/20 98/3/20
f 93/3/19 58/4/19 46/4/19
f 58/4/19 93/3/19 95/3/19

