# Created by Kenney (www.kenney.nl)

mtllib river-intersectionD.mtl

g river-intersectionD

v 0.1272126 0.1625 0.06350002 1 1 1
v 0.1570679 0.2 0.09068323 1 1 1
v 0.1185989 0.1625 0.07841936 1 1 1
v 0.2920963 0.1625 0.2669257 1 1 1
v 0.3083105 0.2 0.2550095 1 1 1
v 0.2920963 0.1625 -0.2669257 1 1 1
v 0.3083106 0.2 -0.2550095 1 1 1
v 0.1933935 0.1625 -0.1596842 1 1 1
v 0.2315685 0.2 -0.1716286 1 1 1
v -0.3727874 0.1625 -0.1195 1 1 1
v -0.5 0.1625 -0.1195 1 1 1
v -0.375 0.2 -0.1395 1 1 1
v -0.5 0.2 -0.1395 1 1 1
v -0.3727874 0.1625 0.1195 1 1 1
v -0.1227874 0.1625 0.1755 1 1 1
v -0.375 0.2 0.1395 1 1 1
v -0.125 0.2 0.1955 1 1 1
v 0.3772126 0.1625 0.1195 1 1 1
v 0.5 0.1625 0.1195 1 1 1
v 0.375 0.2 0.1395 1 1 1
v 0.5 0.2 0.1395 1 1 1
v 0.3727874 0.1625 -0.1195 1 1 1
v 0.375 0.2 -0.1395 1 1 1
v -0.5 0.1625 0.1195 1 1 1
v -0.5 0.2 0.1395 1 1 1
v -0.09059373 0.1625 -0.194087 1 1 1
v -0.1227874 0.1625 -0.1755 1 1 1
v -0.106808 0.2 -0.2060032 1 1 1
v -0.125 0.2 -0.1955 1 1 1
v -0.5 0.2 -0.2140876 1 1 1
v -0.3832515 0.2 -0.2140876 1 1 1
v -0.1539712 0.2 -0.2648998 1 1 1
v -0.1533375 0.2 -0.2655883 1 1 1
v -0.1524243 0.2 -0.2657929 1 1 1
v 0.006220517 0.2 -0.4389494 1 1 1
v 0.06459474 0.2 -0.5400565 1 1 1
v 0.06668947 0.2 -0.3945095 1 1 1
v 0.1291895 0.2 -0.5027627 1 1 1
v 0.14651 0.1625 -0.4927627 1 1 1
v 0.08290368 0.1625 -0.3825934 1 1 1
v 0.3708105 0.2 0.3632627 1 1 1
v 0.3534901 0.1625 0.3732627 1 1 1
v 0.5 0.1625 -0.1195 1 1 1
v 0.5 0.2 -0.1395 1 1 1
v 0.5 0.2 0.2140876 1 1 1
v 0.3708105 0.2 0.2140876 1 1 1
v 0.3889971 0.2 0.3527627 1 1 1
v 0.4354053 0.2 0.3259689 1 1 1
v 0.08290368 0.1625 0.3825934 1 1 1
v 0.14651 0.1625 0.4927627 1 1 1
v 0.06668946 0.2 0.3945095 1 1 1
v 0.1291895 0.2 0.5027627 1 1 1
v 0.3534901 0.1625 -0.3732627 1 1 1
v 0.3708105 0.2 -0.3632627 1 1 1
v -0.09059374 0.1625 0.194087 1 1 1
v -0.106808 0.2 0.2060032 1 1 1
v -0.5 0.2 0.2140876 1 1 1
v -0.3832515 0.2 0.2140876 1 1 1
v -0.1539712 0.2 0.2648998 1 1 1
v -0.1533375 0.2 0.2655883 1 1 1
v -0.1524243 0.2 0.2657929 1 1 1
v 0.006220521 0.2 0.4389494 1 1 1
v 0.06459473 0.2 0.5400565 1 1 1
v 0.4354053 0.2 -0.3259689 1 1 1
v 0.3708105 0.2 -0.2140876 1 1 1
v 0.5 0.2 -0.2140876 1 1 1
v -6.195911E-09 0 -0.5773503 1 1 1
v 0.14651 2.634756E-18 -0.4927627 1 1 1
v -6.195911E-09 0.1 -0.5773503 1 1 1
v 0.14651 0.1 -0.4927627 1 1 1
v -0.5 5.269513E-18 0.1195 1 1 1
v -0.5 0.1 0.1195 1 1 1
v -0.5 0 0.2886751 1 1 1
v -0.5 0.1 0.2886751 1 1 1
v -6.195656E-09 0 0.5773503 1 1 1
v -6.195656E-09 0.1 0.5773503 1 1 1
v 0.5 0.1 -0.2886751 1 1 1
v 0.5 0 -0.2886751 1 1 1
v 0.5 0.1 -0.1195 1 1 1
v 0.5 2.634756E-18 -0.1195 1 1 1
v 0.5 5.269513E-18 0.1195 1 1 1
v 0.5 0 0.2886751 1 1 1
v 0.3534901 2.634756E-18 0.3732627 1 1 1
v 0.3534901 5.269513E-18 -0.3732627 1 1 1
v 0.14651 3.180766E-18 0.4927627 1 1 1
v -0.5 3.726776E-18 -0.1195 1 1 1
v -0.5 0 -0.2886751 1 1 1
v -0.5 0.1 -0.2886751 1 1 1
v 0.5 0.1 0.2886751 1 1 1
v 0.3534901 0.1 0.3732627 1 1 1
v -0.5 0.1 -0.1195 1 1 1
v 0.5 0.1 0.1195 1 1 1
v 0.14651 0.1 0.4927627 1 1 1
v 0.3534901 0.1 -0.3732627 1 1 1
v -0.5 0.1 -0.1195 1 1 1
v -0.5 0.1625 -0.1195 1 1 1
v -0.5 1.09202E-18 -0.1195 1 1 1
v -0.5 0.1625 0.1195 1 1 1
v -0.5 0.1 0.1195 1 1 1
v -0.5 2.634756E-18 0.1195 1 1 1
v 0.35349 0.1625 -0.3732627 1 1 1
v 0.2920963 0.1625 -0.2669257 1 1 1
v 0.14651 0.1625 -0.4927627 1 1 1
v 0.1933935 0.1625 -0.1596842 1 1 1
v 0.1272126 0.1625 0.06349999 1 1 1
v 0.08290367 0.1625 -0.3825934 1 1 1
v 0.3727874 0.1625 -0.1195 1 1 1
v 0.3772126 0.1625 0.1195 1 1 1
v 0.5 0.1625 0.1195 1 1 1
v 0.5 0.1625 -0.1195 1 1 1
v 0.1185989 0.1625 0.07841934 1 1 1
v 0.08290367 0.1625 0.3825934 1 1 1
v -0.09059375 0.1625 -0.194087 1 1 1
v 0.2920963 0.1625 0.2669257 1 1 1
v 0.35349 0.1625 0.3732627 1 1 1
v -0.09059375 0.1625 0.194087 1 1 1
v -0.1227874 0.1625 -0.1755 1 1 1
v -0.1227874 0.1625 0.1755 1 1 1
v -0.3727874 0.1625 -0.1195 1 1 1
v -0.3727874 0.1625 0.1195 1 1 1
v 0.35349 0 0.3732627 1 1 1
v 0.1465099 5.460098E-19 0.4927627 1 1 1
v 0.35349 0.1 0.3732627 1 1 1
v 0.1465099 0.1 0.4927627 1 1 1
v 0.14651 0 -0.4927627 1 1 1
v 0.35349 2.634756E-18 -0.3732627 1 1 1
v 0.14651 0.1 -0.4927627 1 1 1
v 0.35349 0.1 -0.3732627 1 1 1
v 0.5 0.1 0.1195 1 1 1
v 0.5 2.634756E-18 0.1195 1 1 1
v 0.4999999 0 -0.1195 1 1 1
v 0.5 0.1 -0.1195 1 1 1
v 0.06459474 0.2 -0.5400565 1 1 1
v 0.006220517 0.2 -0.4389494 1 1 1
v -2.028837E-08 0.2 -0.5773503 1 1 1
v -0.1533375 0.2 -0.2655883 1 1 1
v -0.5 0.2 -0.2886751 1 1 1
v -0.3832515 0.2 -0.2140876 1 1 1
v -0.5 0.2 -0.2140876 1 1 1
v 0.5 0.2 0.2140876 1 1 1
v 0.5 0.2 0.2886751 1 1 1
v 0.3708105 0.2 0.2140876 1 1 1
v 0.4354053 0.2 0.3259689 1 1 1
v 0.3534901 0.1625 -0.3732627 1 1 1
v 0.5 0.2 -0.2886751 1 1 1
v 0.3708105 0.2 -0.3632627 1 1 1
v 0.4354053 0.2 -0.3259689 1 1 1
v 0.35349 0.1 0.3732627 1 1 1
v 0.3534901 0.1625 0.3732627 1 1 1
v 0.3889971 0.2 0.3527627 1 1 1
v 0.3708105 0.2 0.3632627 1 1 1
v -2.028837E-08 0.1 -0.5773503 1 1 1
v 0.14651 0.1 -0.4927627 1 1 1
v 0.1291895 0.2 -0.5027627 1 1 1
v -0.5 0.2 0.1395 1 1 1
v -0.5 0.2 0.2140876 1 1 1
v -0.5 0.2 0.2886751 1 1 1
v -2.028812E-08 0.1 0.5773503 1 1 1
v -2.028812E-08 0.2 0.5773503 1 1 1
v -0.1110029 0.2 0.5132627 1 1 1
v 0.5 0.2 -0.2140876 1 1 1
v 0.5 0.2 -0.1395 1 1 1
v 0.3708105 0.2 -0.2140876 1 1 1
v -0.5 0.2 -0.1395 1 1 1
v 0.14651 0.1 0.4927627 1 1 1
v 0.06459473 0.2 0.5400565 1 1 1
v 0.1291895 0.2 0.5027627 1 1 1
v 0.5 0.1625 0.1195 1 1 1
v 0.5 0.2 0.1395 1 1 1
v 0.006220521 0.2 0.4389494 1 1 1
v -0.1533375 0.2 0.2655883 1 1 1
v -0.3832515 0.2 0.2140876 1 1 1

vn -0.3336956 0.7128271 -0.6168669
vn -0.4442756 0.8583854 -0.2565027
vn -0.7010702 0.7128272 0.01944457
vn -0.7100338 0.4728189 0.5218183
vn -0.7100338 0.4728189 -0.5218183
vn -0.6527364 0.7295372 0.204232
vn 0.0968909 0.4728189 0.8758165
vn 0 0.4705883 0.8823529
vn 0.09689097 0.4728187 -0.8758165
vn 0.3133164 0.46122 -0.8301258
vn 0.09689098 0.4728187 -0.8758165
vn 0.3333445 0.4589103 -0.8235793
vn 0.09689093 0.4728189 -0.8758165
vn 0 0.4705883 -0.8823529
vn -0.09689093 0.4728189 0.8758165
vn 0 0.4705881 -0.8823531
vn 0.5622517 0.4612202 0.686403
vn 0.3133163 0.4612201 0.8301258
vn 0.5465682 0.4589103 0.7004744
vn 0.3333444 0.4589104 0.8235793
vn 0 1 0
vn 0.7641401 0.4705882 0.4411765
vn 0.7100338 0.4728189 0.5218183
vn -0.7641401 0.4705882 0.4411765
vn 0.7100338 0.4728189 -0.5218183
vn 0.7641401 0.4705882 -0.4411765
vn -0.7641401 0.4705882 -0.4411765
vn 0.5622518 0.4612201 -0.6864029
vn 0.5465683 0.4589103 -0.7004744
vn 0.5 0 -0.8660254
vn -1 0 0
vn -0.5 0 0.8660254
vn 1 0 0
vn 0 -1 0
vn -0.5 0 -0.8660254
vn 0.5000001 0 0.8660254
vn 0.5 0 0.8660254
vn 0.5 0 0.8660254
vn 0.5000002 0 0.8660253
vn 0.4999999 0 0.8660255

vt 0.90625 0.125
vt 0.15625 0.125
vt 0.34375 0.175
vt 0.34375 0.075
vt 0.34375 0.1375

usemtl colormap

f 3/1/3 2/1/2 1/1/1
f 4/1/4 2/1/2 3/1/3
f 2/1/2 4/1/4 5/1/4
f 8/1/6 7/1/5 6/1/5
f 7/1/5 8/1/6 9/1/6
f 12/1/7 11/1/8 10/1/7
f 11/1/8 12/1/7 13/1/8
f 16/1/11 15/1/10 14/1/9
f 15/1/10 16/1/11 17/1/12
f 20/1/13 19/1/14 18/1/13
f 19/1/14 20/1/13 21/1/14
f 23/1/15 8/1/6 22/1/15
f 8/1/6 23/1/15 9/1/6
f 2/1/2 18/1/13 1/1/1
f 18/1/13 2/1/2 20/1/13
f 25/1/16 14/1/9 24/1/16
f 14/1/9 25/1/16 16/1/11
f 28/1/19 27/1/18 26/1/17
f 27/1/18 28/1/19 29/1/20
f 13/1/21 31/1/21 30/1/21
f 12/1/21 31/1/21 13/1/21
f 32/1/21 31/1/21 12/1/21
f 31/1/21 32/1/21 33/1/21
f 29/1/21 32/1/21 12/1/21
f 32/1/21 29/1/21 34/1/21
f 34/1/21 35/1/21 33/1/21
f 28/1/21 34/1/21 29/1/21
f 28/1/21 35/1/21 34/1/21
f 28/1/21 36/1/21 35/1/21
f 37/1/21 36/1/21 28/1/21
f 36/1/21 37/1/21 38/1/21
f 37/1/23 39/1/22 38/1/22
f 39/1/22 37/1/23 40/1/23
f 28/1/19 40/1/23 37/1/23
f 40/1/23 28/1/19 26/1/17
f 4/1/4 41/1/24 5/1/4
f 41/1/24 4/1/4 42/1/24
f 44/1/8 22/1/15 43/1/8
f 22/1/15 44/1/8 23/1/15
f 20/1/21 45/1/21 21/1/21
f 45/1/21 20/1/21 46/1/21
f 46/1/21 20/1/21 2/1/21
f 46/1/21 2/1/21 5/1/21
f 41/1/21 46/1/21 5/1/21
f 47/1/21 46/1/21 41/1/21
f 46/1/21 47/1/21 48/1/21
f 51/1/25 50/1/26 49/1/25
f 50/1/26 51/1/25 52/1/26
f 29/1/20 10/1/7 27/1/18
f 10/1/7 29/1/20 12/1/7
f 6/1/5 54/1/27 53/1/27
f 54/1/27 6/1/5 7/1/5
f 56/1/29 49/1/25 55/1/28
f 49/1/25 56/1/29 51/1/25
f 58/1/21 25/1/21 57/1/21
f 58/1/21 16/1/21 25/1/21
f 58/1/21 59/1/21 16/1/21
f 59/1/21 58/1/21 60/1/21
f 59/1/21 17/1/21 16/1/21
f 17/1/21 59/1/21 61/1/21
f 62/1/21 61/1/21 60/1/21
f 61/1/21 56/1/21 17/1/21
f 62/1/21 56/1/21 61/1/21
f 63/1/21 56/1/21 62/1/21
f 63/1/21 51/1/21 56/1/21
f 51/1/21 63/1/21 52/1/21
f 54/1/21 65/1/21 64/1/21
f 65/1/21 54/1/21 7/1/21
f 9/1/21 65/1/21 7/1/21
f 23/1/21 65/1/21 9/1/21
f 23/1/21 66/1/21 65/1/21
f 66/1/21 23/1/21 44/1/21
f 17/1/12 55/1/28 15/1/10
f 55/1/28 17/1/12 56/1/29
f 69/1/30 68/1/30 67/1/30
f 68/1/30 69/1/30 70/1/30
f 73/1/31 72/1/31 71/1/31
f 72/1/31 73/1/31 74/1/31
f 76/1/32 73/1/32 75/1/32
f 73/1/32 76/1/32 74/1/32
f 79/1/33 78/1/33 77/1/33
f 78/1/33 79/1/33 80/1/33
f 82/1/34 80/1/34 81/1/34
f 80/1/34 82/1/34 78/1/34
f 78/1/34 82/1/34 83/1/34
f 78/1/34 83/1/34 84/1/34
f 84/1/34 83/1/34 68/1/34
f 68/1/34 83/1/34 85/1/34
f 68/1/34 85/1/34 67/1/34
f 67/1/34 85/1/34 75/1/34
f 67/1/34 75/1/34 73/1/34
f 67/1/34 73/1/34 71/1/34
f 86/1/34 67/1/34 71/1/34
f 67/1/34 86/1/34 87/1/34
f 88/1/35 67/1/35 87/1/35
f 67/1/35 88/1/35 69/1/35
f 89/1/36 83/1/36 82/1/36
f 83/1/36 89/1/36 90/1/36
f 86/1/31 88/1/31 87/1/31
f 88/1/31 86/1/31 91/1/31
f 89/1/33 81/1/33 92/1/33
f 81/1/33 89/1/33 82/1/33
f 85/1/37 76/1/37 75/1/37
f 76/1/37 85/1/37 93/1/37
f 84/1/30 77/1/30 78/1/30
f 77/1/30 84/1/30 94/1/30
f 97/2/31 96/2/31 95/2/31
f 96/2/31 97/2/31 98/2/31
f 98/2/31 97/2/31 99/2/31
f 99/2/31 97/2/31 100/2/31
f 103/2/21 102/2/21 101/2/21
f 102/2/21 103/2/21 104/2/21
f 105/2/21 104/2/21 103/2/21
f 105/2/21 103/2/21 106/2/21
f 105/2/21 107/2/21 104/2/21
f 108/2/21 107/2/21 105/2/21
f 109/2/21 107/2/21 108/2/21
f 107/2/21 109/2/21 110/2/21
f 105/2/21 106/2/21 111/2/21
f 112/2/21 111/2/21 106/2/21
f 112/2/21 106/2/21 113/2/21
f 50/2/21 111/2/21 112/2/21
f 50/2/21 114/2/21 111/2/21
f 114/2/21 50/2/21 115/2/21
f 112/2/21 113/2/21 116/2/21
f 116/2/21 113/2/21 117/2/21
f 116/2/21 117/2/21 118/2/21
f 118/2/21 117/2/21 119/2/21
f 118/2/21 119/2/21 120/2/21
f 120/2/21 119/2/21 96/2/21
f 120/2/21 96/2/21 98/2/21
f 123/2/38 122/2/38 121/2/38
f 122/2/38 123/2/38 124/2/38
f 124/2/38 123/2/38 115/2/38
f 124/2/38 115/2/38 50/2/38
f 127/2/30 126/2/30 125/2/30
f 126/2/30 127/2/30 128/2/30
f 128/2/30 127/2/30 103/2/30
f 128/2/30 103/2/30 101/2/30
f 109/2/33 129/2/33 110/2/33
f 130/2/33 110/2/33 129/2/33
f 131/2/33 110/2/33 130/2/33
f 110/2/33 131/2/33 132/2/33
f 135/3/21 134/3/21 133/3/21
f 134/3/21 135/3/21 136/3/21
f 136/3/21 135/3/21 137/3/21
f 136/3/21 137/3/21 138/3/21
f 138/3/21 137/3/21 139/3/21
f 142/3/21 141/3/21 140/3/21
f 141/3/21 142/3/21 143/3/21
f 144/5/30 77/4/30 94/4/30
f 77/4/30 144/5/30 145/3/30
f 145/3/30 144/5/30 146/3/30
f 145/3/30 146/3/30 147/3/30
f 89/4/39 149/5/39 148/4/39
f 149/5/39 89/4/39 141/3/39
f 149/5/39 141/3/39 150/3/39
f 150/3/39 141/3/39 143/3/39
f 151/3/39 149/5/39 150/3/39
f 135/3/30 153/4/30 152/4/30
f 153/4/30 135/3/30 39/5/30
f 39/5/30 135/3/30 133/3/30
f 39/5/30 133/3/30 154/3/30
f 74/4/31 24/5/31 72/4/31
f 24/5/31 74/4/31 155/3/31
f 155/3/31 74/4/31 156/3/31
f 156/3/31 74/4/31 157/3/31
f 159/3/32 74/4/32 158/4/32
f 74/4/32 159/3/32 160/3/32
f 157/3/32 74/4/32 160/3/32
f 161/3/33 77/4/33 145/3/33
f 77/4/33 161/3/33 79/4/33
f 79/4/33 161/3/33 162/3/33
f 79/4/33 162/3/33 43/5/33
f 145/3/21 163/3/21 161/3/21
f 163/3/21 145/3/21 147/3/21
f 91/4/31 137/3/31 88/4/31
f 137/3/31 91/4/31 139/3/31
f 139/3/31 91/4/31 164/3/31
f 164/3/31 91/4/31 11/5/31
f 50/5/40 158/4/40 165/4/40
f 158/4/40 50/5/40 159/3/40
f 159/3/40 50/5/40 166/3/40
f 166/3/40 50/5/40 167/3/40
f 168/5/33 89/4/33 92/4/33
f 89/4/33 168/5/33 169/3/33
f 89/4/33 169/3/33 140/3/33
f 89/4/33 140/3/33 141/3/33
f 137/3/35 152/4/35 88/4/35
f 152/4/35 137/3/35 135/3/35
f 170/3/21 159/3/21 166/3/21
f 159/3/21 170/3/21 171/3/21
f 159/3/21 171/3/21 160/3/21
f 160/3/21 171/3/21 157/3/21
f 157/3/21 171/3/21 172/3/21
f 157/3/21 172/3/21 156/3/21

g river-intersectionD




usemtl colormap

f 3/1/3 2/1/2 1/1/1
f 4/1/4 2/1/2 3/1/3
f 2/1/2 4/1/4 5/1/4
f 8/1/6 7/1/5 6/1/5
f 7/1/5 8/1/6 9/1/6
f 12/1/7 11/1/8 10/1/7
f 11/1/8 12/1/7 13/1/8
f 16/1/11 15/1/10 14/1/9
f 15/1/10 16/1/11 17/1/12
f 20/1/13 19/1/14 18/1/13
f 19/1/14 20/1/13 21/1/14
f 23/1/15 8/1/6 22/1/15
f 8/1/6 23/1/15 9/1/6
f 2/1/2 18/1/13 1/1/1
f 18/1/13 2/1/2 20/1/13
f 25/1/16 14/1/9 24/1/16
f 14/1/9 25/1/16 16/1/11
f 28/1/19 27/1/18 26/1/17
f 27/1/18 28/1/19 29/1/20
f 13/1/21 31/1/21 30/1/21
f 12/1/21 31/1/21 13/1/21
f 32/1/21 31/1/21 12/1/21
f 31/1/21 32/1/21 33/1/21
f 29/1/21 32/1/21 12/1/21
f 32/1/21 29/1/21 34/1/21
f 34/1/21 35/1/21 33/1/21
f 28/1/21 34/1/21 29/1/21
f 28/1/21 35/1/21 34/1/21
f 28/1/21 36/1/21 35/1/21
f 37/1/21 36/1/21 28/1/21
f 36/1/21 37/1/21 38/1/21
f 37/1/23 39/1/22 38/1/22
f 39/1/22 37/1/23 40/1/23
f 28/1/19 40/1/23 37/1/23
f 40/1/23 28/1/19 26/1/17
f 4/1/4 41/1/24 5/1/4
f 41/1/24 4/1/4 42/1/24
f 44/1/8 22/1/15 43/1/8
f 22/1/15 44/1/8 23/1/15
f 20/1/21 45/1/21 21/1/21
f 45/1/21 20/1/21 46/1/21
f 46/1/21 20/1/21 2/1/21
f 46/1/21 2/1/21 5/1/21
f 41/1/21 46/1/21 5/1/21
f 47/1/21 46/1/21 41/1/21
f 46/1/21 47/1/21 48/1/21
f 51/1/25 50/1/26 49/1/25
f 50/1/26 51/1/25 52/1/26
f 29/1/20 10/1/7 27/1/18
f 10/1/7 29/1/20 12/1/7
f 6/1/5 54/1/27 53/1/27
f 54/1/27 6/1/5 7/1/5
f 56/1/29 49/1/25 55/1/28
f 49/1/25 56/1/29 51/1/25
f 58/1/21 25/1/21 57/1/21
f 58/1/21 16/1/21 25/1/21
f 58/1/21 59/1/21 16/1/21
f 59/1/21 58/1/21 60/1/21
f 59/1/21 17/1/21 16/1/21
f 17/1/21 59/1/21 61/1/21
f 62/1/21 61/1/21 60/1/21
f 61/1/21 56/1/21 17/1/21
f 62/1/21 56/1/21 61/1/21
f 63/1/21 56/1/21 62/1/21
f 63/1/21 51/1/21 56/1/21
f 51/1/21 63/1/21 52/1/21
f 54/1/21 65/1/21 64/1/21
f 65/1/21 54/1/21 7/1/21
f 9/1/21 65/1/21 7/1/21
f 23/1/21 65/1/21 9/1/21
f 23/1/21 66/1/21 65/1/21
f 66/1/21 23/1/21 44/1/21
f 17/1/12 55/1/28 15/1/10
f 55/1/28 17/1/12 56/1/29
f 69/1/30 68/1/30 67/1/30
f 68/1/30 69/1/30 70/1/30
f 73/1/31 72/1/31 71/1/31
f 72/1/31 73/1/31 74/1/31
f 76/1/32 73/1/32 75/1/32
f 73/1/32 76/1/32 74/1/32
f 79/1/33 78/1/33 77/1/33
f 78/1/33 79/1/33 80/1/33
f 82/1/34 80/1/34 81/1/34
f 80/1/34 82/1/34 78/1/34
f 78/1/34 82/1/34 83/1/34
f 78/1/34 83/1/34 84/1/34
f 84/1/34 83/1/34 68/1/34
f 68/1/34 83/1/34 85/1/34
f 68/1/34 85/1/34 67/1/34
f 67/1/34 85/1/34 75/1/34
f 67/1/34 75/1/34 73/1/34
f 67/1/34 73/1/34 71/1/34
f 86/1/34 67/1/34 71/1/34
f 67/1/34 86/1/34 87/1/34
f 88/1/35 67/1/35 87/1/35
f 67/1/35 88/1/35 69/1/35
f 89/1/36 83/1/36 82/1/36
f 83/1/36 89/1/36 90/1/36
f 86/1/31 88/1/31 87/1/31
f 88/1/31 86/1/31 91/1/31
f 89/1/33 81/1/33 92/1/33
f 81/1/33 89/1/33 82/1/33
f 85/1/37 76/1/37 75/1/37
f 76/1/37 85/1/37 93/1/37
f 84/1/30 77/1/30 78/1/30
f 77/1/30 84/1/30 94/1/30
f 97/2/31 96/2/31 95/2/31
f 96/2/31 97/2/31 98/2/31
f 98/2/31 97/2/31 99/2/31
f 99/2/31 97/2/31 100/2/31
f 103/2/21 102/2/21 101/2/21
f 102/2/21 103/2/21 104/2/21
f 105/2/21 104/2/21 103/2/21
f 105/2/21 103/2/21 106/2/21
f 105/2/21 107/2/21 104/2/21
f 108/2/21 107/2/21 105/2/21
f 109/2/21 107/2/21 108/2/21
f 107/2/21 109/2/21 110/2/21
f 105/2/21 106/2/21 111/2/21
f 112/2/21 111/2/21 106/2/21
f 112/2/21 106/2/21 113/2/21
f 50/2/21 111/2/21 112/2/21
f 50/2/21 114/2/21 111/2/21
f 114/2/21 50/2/21 115/2/21
f 112/2/21 113/2/21 116/2/21
f 116/2/21 113/2/21 117/2/21
f 116/2/21 117/2/21 118/2/21
f 118/2/21 117/2/21 119/2/21
f 118/2/21 119/2/21 120/2/21
f 120/2/21 119/2/21 96/2/21
f 120/2/21 96/2/21 98/2/21
f 123/2/38 122/2/38 121/2/38
f 122/2/38 123/2/38 124/2/38
f 124/2/38 123/2/38 115/2/38
f 124/2/38 115/2/38 50/2/38
f 127/2/30 126/2/30 125/2/30
f 126/2/30 127/2/30 128/2/30
f 128/2/30 127/2/30 103/2/30
f 128/2/30 103/2/30 101/2/30
f 109/2/33 129/2/33 110/2/33
f 130/2/33 110/2/33 129/2/33
f 131/2/33 110/2/33 130/2/33
f 110/2/33 131/2/33 132/2/33
f 135/3/21 134/3/21 133/3/21
f 134/3/21 135/3/21 136/3/21
f 136/3/21 135/3/21 137/3/21
f 136/3/21 137/3/21 138/3/21
f 138/3/21 137/3/21 139/3/21
f 142/3/21 141/3/21 140/3/21
f 141/3/21 142/3/21 143/3/21
f 144/5/30 77/4/30 94/4/30
f 77/4/30 144/5/30 145/3/30
f 145/3/30 144/5/30 146/3/30
f 145/3/30 146/3/30 147/3/30
f 89/4/39 149/5/39 148/4/39
f 149/5/39 89/4/39 141/3/39
f 149/5/39 141/3/39 150/3/39
f 150/3/39 141/3/39 143/3/39
f 151/3/39 149/5/39 150/3/39
f 135/3/30 153/4/30 152/4/30
f 153/4/30 135/3/30 39/5/30
f 39/5/30 135/3/30 133/3/30
f 39/5/30 133/3/30 154/3/30
f 74/4/31 24/5/31 72/4/31
f 24/5/31 74/4/31 155/3/31
f 155/3/31 74/4/31 156/3/31
f 156/3/31 74/4/31 157/3/31
f 159/3/32 74/4/32 158/4/32
f 74/4/32 159/3/32 160/3/32
f 157/3/32 74/4/32 160/3/32
f 161/3/33 77/4/33 145/3/33
f 77/4/33 161/3/33 79/4/33
f 79/4/33 161/3/33 162/3/33
f 79/4/33 162/3/33 43/5/33
f 145/3/21 163/3/21 161/3/21
f 163/3/21 145/3/21 147/3/21
f 91/4/31 137/3/31 88/4/31
f 137/3/31 91/4/31 139/3/31
f 139/3/31 91/4/31 164/3/31
f 164/3/31 91/4/31 11/5/31
f 50/5/40 158/4/40 165/4/40
f 158/4/40 50/5/40 159/3/40
f 159/3/40 50/5/40 166/3/40
f 166/3/40 50/5/40 167/3/40
f 168/5/33 89/4/33 92/4/33
f 89/4/33 168/5/33 169/3/33
f 89/4/33 169/3/33 140/3/33
f 89/4/33 140/3/33 141/3/33
f 137/3/35 152/4/35 88/4/35
f 152/4/35 137/3/35 135/3/35
f 170/3/21 159/3/21 166/3/21
f 159/3/21 170/3/21 171/3/21
f 159/3/21 171/3/21 160/3/21
f 160/3/21 171/3/21 157/3/21
f 157/3/21 171/3/21 172/3/21
f 157/3/21 172/3/21 156/3/21

