# Created by Kenney (www.kenney.nl)

mtllib unit-mill.mtl

g unit-mill

v 0.15125 0.1 0.1815 1 1 1
v -0.15125 0.1 0.1815 1 1 1
v 0.125 0.2 0.15 1 1 1
v -0.125 0.2 0.15 1 1 1
v 0.15125 0.1 -0.1815 1 1 1
v 0.125 0.2 -0.15 1 1 1
v -0.15125 0.1 -0.1815 1 1 1
v -0.125 0.2 -0.15 1 1 1
v -0.125 0.45 -0.025 1 1 1
v -0.125 0.45 0.025 1 1 1
v -0.225 0.44 -0.015 1 1 1
v -0.225 0.44 0.015 1 1 1
v -0.125 0.4 -0.025 1 1 1
v -0.225 0.41 -0.015 1 1 1
v -0.125 0.4 -0.15 1 1 1
v -0.125 0.4 0.025 1 1 1
v -0.125 0.6 1.494357E-13 1 1 1
v -0.125 0.4 0.15 1 1 1
v -0.225 0.41 0.015 1 1 1
v 0.125 0.4 0.15 1 1 1
v 0.125 0.4 -0.15 1 1 1
v 0.125 0.6 1.494357E-13 1 1 1
v 0.15125 3.704202E-19 0.1815 1 1 1
v -0.15125 3.704202E-19 0.1815 1 1 1
v -0.15125 3.704202E-19 -0.1815 1 1 1
v 0.15125 3.704202E-19 -0.1815 1 1 1
v 0.155 0.5321053 0.1094737 1 1 1
v 0.155 0.504 0.072 1 1 1
v -0.155 0.5321053 0.1094737 1 1 1
v -0.155 0.504 0.072 1 1 1
v 0.155 0.6 1.494357E-13 1 1 1
v -0.155 0.6 1.494357E-13 1 1 1
v -0.155 0.5321053 -0.1094737 1 1 1
v -0.155 0.6780702 1.494357E-13 1 1 1
v -0.155 0.504 -0.072 1 1 1
v 0.155 0.504 -0.072 1 1 1
v 0.155 0.5321053 -0.1094737 1 1 1
v 0.155 0.6780702 1.494357E-13 1 1 1
v 0.155 0.522 -0.096 1 1 1
v 0.155 0.5039999 -0.072 1 1 1
v -0.155 0.522 -0.096 1 1 1
v -0.155 0.5039999 -0.072 1 1 1
v -0.155 0.376 0.168 1 1 1
v 0.155 0.376 0.168 1 1 1
v -0.155 0.5039999 0.072 1 1 1
v 0.155 0.5039999 0.072 1 1 1
v 0.155 0.522 0.096 1 1 1
v -0.155 0.522 0.096 1 1 1
v 0.155 0.394 0.192 1 1 1
v -0.155 0.394 0.192 1 1 1
v -0.155 0.394 -0.192 1 1 1
v 0.155 0.394 -0.192 1 1 1
v 0.155 0.376 -0.168 1 1 1
v -0.155 0.376 -0.168 1 1 1

vn 0.6463682 0.3783886 0.6625934
vn -0.6463682 0.3783886 0.6625934
vn 0.6682239 0.3773699 0.6411464
vn -0.6682239 0.3773699 0.6411464
vn 0.6463682 0.3783886 -0.6625934
vn 0.6682239 0.3773699 -0.6411464
vn -0.6463682 0.3783886 -0.6625934
vn -0.6682239 0.3773699 -0.6411464
vn -0.140028 0.70014 -0.70014
vn -0.140028 0.70014 0.70014
vn -0.140028 -0.70014 -0.70014
vn -1 0 0
vn -0.140028 -0.70014 0.70014
vn 0 0 1
vn 1 0 0
vn 0 0 -1
vn 0.7071068 0 0.7071068
vn -0.7071068 0 0.7071068
vn -0.7071068 0 -0.7071068
vn 0.7071068 0 -0.7071068
vn 0 -1 0
vn 0 -0.8 0.6
vn 0 -0.6 -0.8
vn 0 -0.8 -0.6
vn 0 0.6 -0.8
vn 0 0.6 0.8
vn 0 -0.6 0.8
vn 0 0.8 0.6
vn 0 0.8 -0.6

vt 0.71875 0.05833333
vt 0.71875 0.09166666
vt 0.96875 0.175
vt 0.96875 0.1716667
vt 0.96875 0.1583333
vt 0.96875 0.1616667
vt 0.96875 0.09166666
vt 0.96875 0.225
vt 0.59375 0.025
vt 0.59375 0.05833333
vt 0.09375 0.09114594
vt 0.09375 0.075
vt 0.09375 0.1301502
vt 0.09375 0.175
vt 0.09375 0.1626712
vt 0.09375 0.08732877

usemtl colormap

f 3/2/3 2/1/2 1/1/1
f 2/1/2 3/2/3 4/2/4
f 6/2/6 1/1/1 5/1/5
f 1/1/1 6/2/6 3/2/3
f 8/2/8 5/1/5 7/1/7
f 5/1/5 8/2/8 6/2/6
f 2/1/2 8/2/8 7/1/7
f 8/2/8 2/1/2 4/2/4
f 11/4/9 10/3/10 9/3/9
f 10/3/10 11/4/9 12/4/10
f 14/6/11 9/3/9 13/5/11
f 9/3/9 14/6/11 11/4/9
f 4/7/12 15/5/12 8/7/12
f 15/5/12 4/7/12 13/5/12
f 13/5/12 4/7/12 16/5/12
f 9/3/12 15/5/12 13/5/12
f 15/5/12 9/3/12 17/8/12
f 16/5/12 4/7/12 10/3/12
f 17/8/12 9/3/12 10/3/12
f 18/5/12 10/3/12 4/7/12
f 17/8/12 10/3/12 18/5/12
f 10/3/10 19/6/13 16/5/13
f 19/6/13 10/3/10 12/4/10
f 20/5/14 4/7/14 3/7/14
f 4/7/14 20/5/14 18/5/14
f 19/6/13 13/5/11 16/5/13
f 13/5/11 19/6/13 14/6/11
f 22/8/15 6/7/15 21/5/15
f 6/7/15 22/8/15 3/7/15
f 3/7/15 22/8/15 20/5/15
f 19/6/12 11/4/12 14/6/12
f 11/4/12 19/6/12 12/4/12
f 15/5/16 6/7/16 8/7/16
f 6/7/16 15/5/16 21/5/16
f 1/10/17 24/9/18 23/9/17
f 24/9/18 1/10/17 2/10/18
f 24/9/18 7/10/19 25/9/19
f 7/10/19 24/9/18 2/10/18
f 1/10/17 26/9/20 5/10/20
f 26/9/20 1/10/17 23/9/17
f 24/9/21 26/9/21 23/9/21
f 26/9/21 24/9/21 25/9/21
f 7/10/19 26/9/20 25/9/19
f 26/9/20 7/10/19 5/10/20
f 29/11/22 28/12/22 27/11/22
f 28/12/22 29/11/22 30/12/22
f 30/12/23 31/13/23 28/12/23
f 31/13/23 30/12/23 32/13/23
f 35/12/12 34/14/12 33/11/12
f 34/14/12 35/12/12 32/13/12
f 34/14/12 32/13/12 30/12/12
f 34/14/12 30/12/12 29/11/12
f 35/12/24 37/11/24 36/12/24
f 37/11/24 35/12/24 33/11/24
f 34/14/25 37/11/25 33/11/25
f 37/11/25 34/14/25 38/14/25
f 38/14/26 29/11/26 27/11/26
f 29/11/26 38/14/26 34/14/26
f 38/14/15 36/12/15 37/11/15
f 36/12/15 38/14/15 31/13/15
f 31/13/15 38/14/15 27/11/15
f 31/13/15 27/11/15 28/12/15
f 36/12/27 32/13/27 35/12/27
f 32/13/27 36/12/27 31/13/27
f 41/14/28 40/15/28 39/14/28
f 40/15/28 41/14/28 42/15/28
f 45/15/23 44/12/23 43/12/23
f 44/12/23 45/15/23 46/15/23
f 45/15/29 47/14/29 46/15/29
f 47/14/29 45/15/29 48/14/29
f 47/14/26 50/16/26 49/16/26
f 50/16/26 47/14/26 48/14/26
f 41/14/25 52/16/25 51/16/25
f 52/16/25 41/14/25 39/14/25
f 39/14/15 53/12/15 52/16/15
f 53/12/15 39/14/15 40/15/15
f 40/15/27 54/12/27 53/12/27
f 54/12/27 40/15/27 42/15/27
f 54/12/24 52/16/24 53/12/24
f 52/16/24 54/12/24 51/16/24
f 47/14/15 44/12/15 46/15/15
f 44/12/15 47/14/15 49/16/15
f 50/16/22 44/12/22 49/16/22
f 44/12/22 50/16/22 43/12/22
f 43/12/12 48/14/12 45/15/12
f 48/14/12 43/12/12 50/16/12
f 54/12/12 41/14/12 51/16/12
f 41/14/12 54/12/12 42/15/12

g unit-mill




usemtl colormap

f 3/2/3 2/1/2 1/1/1
f 2/1/2 3/2/3 4/2/4
f 6/2/6 1/1/1 5/1/5
f 1/1/1 6/2/6 3/2/3
f 8/2/8 5/1/5 7/1/7
f 5/1/5 8/2/8 6/2/6
f 2/1/2 8/2/8 7/1/7
f 8/2/8 2/1/2 4/2/4
f 11/4/9 10/3/10 9/3/9
f 10/3/10 11/4/9 12/4/10
f 14/6/11 9/3/9 13/5/11
f 9/3/9 14/6/11 11/4/9
f 4/7/12 15/5/12 8/7/12
f 15/5/12 4/7/12 13/5/12
f 13/5/12 4/7/12 16/5/12
f 9/3/12 15/5/12 13/5/12
f 15/5/12 9/3/12 17/8/12
f 16/5/12 4/7/12 10/3/12
f 17/8/12 9/3/12 10/3/12
f 18/5/12 10/3/12 4/7/12
f 17/8/12 10/3/12 18/5/12
f 10/3/10 19/6/13 16/5/13
f 19/6/13 10/3/10 12/4/10
f 20/5/14 4/7/14 3/7/14
f 4/7/14 20/5/14 18/5/14
f 19/6/13 13/5/11 16/5/13
f 13/5/11 19/6/13 14/6/11
f 22/8/15 6/7/15 21/5/15
f 6/7/15 22/8/15 3/7/15
f 3/7/15 22/8/15 20/5/15
f 19/6/12 11/4/12 14/6/12
f 11/4/12 19/6/12 12/4/12
f 15/5/16 6/7/16 8/7/16
f 6/7/16 15/5/16 21/5/16
f 1/10/17 24/9/18 23/9/17
f 24/9/18 1/10/17 2/10/18
f 24/9/18 7/10/19 25/9/19
f 7/10/19 24/9/18 2/10/18
f 1/10/17 26/9/20 5/10/20
f 26/9/20 1/10/17 23/9/17
f 24/9/21 26/9/21 23/9/21
f 26/9/21 24/9/21 25/9/21
f 7/10/19 26/9/20 25/9/19
f 26/9/20 7/10/19 5/10/20
f 29/11/22 28/12/22 27/11/22
f 28/12/22 29/11/22 30/12/22
f 30/12/23 31/13/23 28/12/23
f 31/13/23 30/12/23 32/13/23
f 35/12/12 34/14/12 33/11/12
f 34/14/12 35/12/12 32/13/12
f 34/14/12 32/13/12 30/12/12
f 34/14/12 30/12/12 29/11/12
f 35/12/24 37/11/24 36/12/24
f 37/11/24 35/12/24 33/11/24
f 34/14/25 37/11/25 33/11/25
f 37/11/25 34/14/25 38/14/25
f 38/14/26 29/11/26 27/11/26
f 29/11/26 38/14/26 34/14/26
f 38/14/15 36/12/15 37/11/15
f 36/12/15 38/14/15 31/13/15
f 31/13/15 38/14/15 27/11/15
f 31/13/15 27/11/15 28/12/15
f 36/12/27 32/13/27 35/12/27
f 32/13/27 36/12/27 31/13/27
f 41/14/28 40/15/28 39/14/28
f 40/15/28 41/14/28 42/15/28
f 45/15/23 44/12/23 43/12/23
f 44/12/23 45/15/23 46/15/23
f 45/15/29 47/14/29 46/15/29
f 47/14/29 45/15/29 48/14/29
f 47/14/26 50/16/26 49/16/26
f 50/16/26 47/14/26 48/14/26
f 41/14/25 52/16/25 51/16/25
f 52/16/25 41/14/25 39/14/25
f 39/14/15 53/12/15 52/16/15
f 53/12/15 39/14/15 40/15/15
f 40/15/27 54/12/27 53/12/27
f 54/12/27 40/15/27 42/15/27
f 54/12/24 52/16/24 53/12/24
f 52/16/24 54/12/24 51/16/24
f 47/14/15 44/12/15 46/15/15
f 44/12/15 47/14/15 49/16/15
f 50/16/22 44/12/22 49/16/22
f 44/12/22 50/16/22 43/12/22
f 43/12/12 48/14/12 45/15/12
f 48/14/12 43/12/12 50/16/12
f 54/12/12 41/14/12 51/16/12
f 41/14/12 54/12/12 42/15/12

g rotate-x

v -0.178615 0.3575528 0.04427527 1 1 1
v -0.148615 0.3575528 0.04427527 1 1 1
v -0.195 0.3691388 0.03268933 1 1 1
v -0.148615 0.4018281 1.163756E-09 1 1 1
v -0.195 0.4018281 1.163756E-09 1 1 1
v -0.158615 0.4018281 1.163756E-09 1 1 1
v -0.148615 0.3923106 0.05586122 1 1 1
v -0.178615 0.3923106 0.05586122 1 1 1
v -0.148615 0.425 0.02317189 1 1 1
v -0.195 0.3923106 0.05586122 1 1 1
v -0.178615 0.3807247 0.06744716 1 1 1
v -0.195 0.425 0.02317189 1 1 1
v -0.158615 0.425 0.02317189 1 1 1
v -0.148615 0.4481719 1.163791E-09 1 1 1
v -0.158615 0.4481719 1.163791E-09 1 1 1
v -0.148615 0.4924471 -0.04427527 1 1 1
v -0.195 0.4481719 1.163791E-09 1 1 1
v -0.195 0.4808612 -0.03268933 1 1 1
v -0.178615 0.4924471 -0.04427527 1 1 1
v -0.148615 0.4808612 0.03268933 1 1 1
v -0.178615 0.4808612 0.03268933 1 1 1
v -0.195 0.4808612 0.03268933 1 1 1
v -0.178615 0.4924471 0.04427527 1 1 1
v -0.178615 0.3807247 -0.06744716 1 1 1
v -0.195 0.3923106 -0.05586122 1 1 1
v -0.178615 0.3575528 -0.04427527 1 1 1
v -0.195 0.3691388 -0.03268933 1 1 1
v -0.148615 0.3691388 -0.03268933 1 1 1
v -0.178615 0.3691388 -0.03268933 1 1 1
v -0.178615 0.4692752 -0.06744716 1 1 1
v -0.195 0.4576893 -0.05586122 1 1 1
v -0.148615 0.4692752 0.06744716 1 1 1
v -0.178615 0.4692752 0.06744716 1 1 1
v -0.195 0.4576893 0.05586122 1 1 1
v -0.195 0.425 -0.02317189 1 1 1
v -0.148615 0.4924471 0.04427527 1 1 1
v -0.148615 0.3807247 0.06744716 1 1 1
v -0.148615 0.425 -0.02317189 1 1 1
v -0.148615 0.3575528 -0.04427527 1 1 1
v -0.148615 0.3807247 -0.06744716 1 1 1
v -0.148615 0.4576893 -0.05586122 1 1 1
v -0.148615 0.4692752 -0.06744716 1 1 1
v -0.158615 0.425 -0.02317189 1 1 1
v -0.178615 0.4576893 -0.05586122 1 1 1
v -0.148615 0.5832567 -0.2560567 1 1 1
v -0.148615 0.4390323 -0.07451823 1 1 1
v -0.148615 0.6437426 -0.1955707 1 1 1
v -0.148615 0.4692752 -0.06744716 1 1 1
v -0.148615 0.4924471 -0.04427527 1 1 1
v -0.148615 0.4576893 -0.05586122 1 1 1
v -0.178615 0.4390323 -0.07451823 1 1 1
v -0.178615 0.4692752 -0.06744716 1 1 1
v -0.178615 0.4576893 -0.05586122 1 1 1
v -0.178615 0.6437426 -0.1955707 1 1 1
v -0.178615 0.4924471 -0.04427527 1 1 1
v -0.178615 0.5832567 -0.2560567 1 1 1
v -0.148615 0.3923106 0.05586122 1 1 1
v -0.148615 0.3807247 0.06744716 1 1 1
v -0.148615 0.4109676 0.07451823 1 1 1
v -0.148615 0.2062573 0.1955707 1 1 1
v -0.148615 0.2667432 0.2560567 1 1 1
v -0.148615 0.3575528 0.04427527 1 1 1
v -0.178615 0.2294292 -0.2187426 1 1 1
v -0.178615 0.3807247 -0.06744716 1 1 1
v -0.178615 0.1689433 -0.1582567 1 1 1
v -0.178615 0.3575528 -0.04427527 1 1 1
v -0.178615 0.3504817 -0.01403231 1 1 1
v -0.178615 0.3691388 -0.03268933 1 1 1
v -0.148615 0.4995182 0.01403231 1 1 1
v -0.148615 0.4808612 0.03268932 1 1 1
v -0.148615 0.6810566 0.1582567 1 1 1
v -0.148615 0.4924471 0.04427527 1 1 1
v -0.148615 0.4692752 0.06744716 1 1 1
v -0.148615 0.6205707 0.2187426 1 1 1
v -0.178615 0.4995182 0.01403231 1 1 1
v -0.178615 0.6810566 0.1582567 1 1 1
v -0.178615 0.4808612 0.03268932 1 1 1
v -0.178615 0.4924471 0.04427527 1 1 1
v -0.178615 0.4692752 0.06744716 1 1 1
v -0.178615 0.6205707 0.2187426 1 1 1
v -0.178615 0.3575528 0.04427527 1 1 1
v -0.178615 0.3807247 0.06744716 1 1 1
v -0.178615 0.2062573 0.1955707 1 1 1
v -0.178615 0.4109676 0.07451823 1 1 1
v -0.178615 0.2667432 0.2560567 1 1 1
v -0.178615 0.3923106 0.05586122 1 1 1
v -0.148615 0.2294292 -0.2187426 1 1 1
v -0.148615 0.1689433 -0.1582567 1 1 1
v -0.148615 0.3807247 -0.06744716 1 1 1
v -0.148615 0.3575528 -0.04427527 1 1 1
v -0.148615 0.3504817 -0.01403231 1 1 1
v -0.148615 0.3691388 -0.03268933 1 1 1
v -0.16223 0.1689433 -0.1582567 1 1 1
v -0.16223 0.6810566 0.1582567 1 1 1
v -0.16223 0.2667432 0.2560567 1 1 1
v -0.16223 0.5832567 -0.2560567 1 1 1

vn 0 -0.7071068 -0.7071068
vn 0 0.7071068 0.7071068
vn 0 0.7071068 -0.7071068
vn -0.7071068 -0.5 -0.5
vn -0.9238795 -0.2705981 -0.2705981
vn 0 -0.7071068 0.7071068
vn -0.7071068 0.5 -0.5
vn -0.9238795 0.2705981 -0.2705981
vn -0.9238795 -0.2705981 0.2705981
vn -0.9238795 0.2705981 0.2705981
vn -0.7071068 -0.5 0.5
vn -0.7071068 0.5 0.5
vn 0 0.6220449 -0.7829816
vn 0 -0.7829815 -0.6220449
vn 0 -0.6220449 0.7829815
vn 0 0.7829816 0.6220449

vt 0.03125 0.375
vt 0.15625 0.375
vt 0.90625 0.125

usemtl colormap

f 57/17/30 56/17/30 55/17/30
f 56/17/30 57/17/30 58/17/30
f 58/17/30 57/17/30 59/17/30
f 58/17/30 59/17/30 60/17/30
f 63/17/31 62/17/31 61/17/31
f 62/17/31 63/17/31 64/17/31
f 64/17/31 65/17/31 62/17/31
f 64/17/31 63/17/31 66/17/31
f 66/17/31 63/17/31 67/17/31
f 70/17/31 69/17/31 68/17/31
f 69/17/31 70/17/31 71/17/31
f 71/17/31 70/17/31 72/17/31
f 72/17/31 70/17/31 73/17/31
f 69/17/32 74/17/32 68/17/32
f 74/17/32 69/17/32 75/17/32
f 75/17/32 69/17/32 71/17/32
f 75/17/32 71/17/32 76/17/32
f 76/17/32 77/17/32 75/17/32
f 80/17/33 79/17/34 78/17/33
f 79/17/34 80/17/33 81/17/34
f 60/17/35 82/17/35 58/17/35
f 82/17/35 60/17/35 83/17/35
f 83/17/35 60/17/35 59/17/35
f 83/17/35 59/17/35 81/17/35
f 81/17/35 80/17/35 83/17/35
f 85/17/37 73/17/36 84/17/36
f 73/17/36 85/17/37 72/17/37
f 87/17/35 63/17/35 86/17/35
f 63/17/35 87/17/35 67/17/35
f 67/17/35 87/17/35 66/17/35
f 66/17/35 87/17/35 88/17/35
f 81/17/34 89/17/12 79/17/34
f 89/17/12 81/17/34 59/17/12
f 71/17/12 89/17/12 59/17/12
f 71/17/12 59/17/12 57/17/38
f 72/17/37 89/17/12 71/17/12
f 89/17/12 72/17/37 85/17/37
f 71/17/12 57/17/38 66/17/12
f 66/17/12 57/17/38 64/17/38
f 66/17/12 76/17/39 71/17/12
f 76/17/39 66/17/12 88/17/39
f 86/17/15 74/17/15 90/17/15
f 63/17/15 74/17/15 86/17/15
f 74/17/15 63/17/15 68/17/15
f 56/17/15 68/17/15 63/17/15
f 56/17/15 63/17/15 61/17/15
f 56/17/15 61/17/15 91/17/15
f 58/17/15 68/17/15 56/17/15
f 92/17/15 68/17/15 58/17/15
f 82/17/15 92/17/15 58/17/15
f 93/17/15 92/17/15 82/17/15
f 92/17/15 93/17/15 94/17/15
f 92/17/15 70/17/15 68/17/15
f 95/17/15 70/17/15 92/17/15
f 70/17/15 95/17/15 96/17/15
f 55/17/40 64/17/38 57/17/38
f 64/17/38 55/17/40 65/17/40
f 78/17/32 92/17/32 94/17/32
f 92/17/32 78/17/32 97/17/32
f 97/17/32 78/17/32 89/17/32
f 89/17/32 78/17/32 79/17/32
f 88/17/39 77/17/41 76/17/39
f 77/17/41 88/17/39 87/17/41
f 84/17/30 98/17/30 85/17/30
f 95/17/30 85/17/30 98/17/30
f 92/17/30 85/17/30 95/17/30
f 97/17/30 85/17/30 92/17/30
f 85/17/30 97/17/30 89/17/30
f 101/18/15 100/18/15 99/18/15
f 100/18/15 101/18/15 102/18/15
f 102/18/15 101/18/15 103/18/15
f 104/18/15 100/18/15 102/18/15
f 107/18/12 106/18/12 105/18/12
f 108/18/12 105/18/12 106/18/12
f 108/18/12 106/18/12 109/18/12
f 105/18/12 108/18/12 110/18/12
f 113/18/15 112/18/15 111/18/15
f 114/18/15 112/18/15 113/18/15
f 114/18/15 113/18/15 115/18/15
f 112/18/15 114/18/15 116/18/15
f 119/18/12 118/18/12 117/18/12
f 118/18/12 119/18/12 120/18/12
f 120/18/12 119/18/12 121/18/12
f 120/18/12 121/18/12 122/18/12
f 125/18/15 124/18/15 123/18/15
f 124/18/15 125/18/15 126/18/15
f 126/18/15 125/18/15 127/18/15
f 127/18/15 125/18/15 128/18/15
f 131/18/12 130/18/12 129/18/12
f 130/18/12 131/18/12 132/18/12
f 130/18/12 132/18/12 133/18/12
f 130/18/12 133/18/12 134/18/12
f 137/18/12 136/18/12 135/18/12
f 136/18/12 137/18/12 138/18/12
f 138/18/12 137/18/12 139/18/12
f 138/18/12 140/18/12 136/18/12
f 143/18/15 142/18/15 141/18/15
f 142/18/15 143/18/15 144/18/15
f 142/18/15 144/18/15 145/18/15
f 145/18/15 144/18/15 146/18/15
f 134/19/35 127/19/35 128/19/35
f 127/19/35 134/19/35 133/19/35
f 140/19/32 113/19/32 111/19/32
f 113/19/32 140/19/32 138/19/32
f 107/19/35 100/19/35 104/19/35
f 100/19/35 107/19/35 105/19/35
f 117/19/30 147/19/30 119/19/30
f 147/19/30 117/19/30 142/19/30
f 142/19/30 117/19/30 141/19/30
f 130/19/42 123/19/42 129/19/42
f 123/19/42 130/19/42 125/19/42
f 125/19/42 130/19/42 148/19/42
f 149/19/35 114/19/35 115/19/35
f 114/19/35 149/19/35 137/19/35
f 137/19/35 149/19/35 139/19/35
f 146/19/31 121/19/31 145/19/31
f 121/19/31 146/19/31 122/19/31
f 105/19/43 99/19/43 100/19/43
f 99/19/43 105/19/43 150/19/43
f 150/19/43 105/19/43 110/19/43
f 101/19/31 109/19/31 103/19/31
f 109/19/31 101/19/31 108/19/31
f 145/19/44 147/19/44 142/19/44
f 147/19/44 145/19/44 119/19/44
f 119/19/44 145/19/44 121/19/44
f 125/19/31 134/19/31 128/19/31
f 134/19/31 125/19/31 130/19/31
f 130/19/31 125/19/31 148/19/31
f 137/19/30 116/19/30 114/19/30
f 116/19/30 137/19/30 135/19/30
f 129/19/30 124/19/30 131/19/30
f 124/19/30 129/19/30 123/19/30
f 117/19/32 143/19/32 141/19/32
f 143/19/32 117/19/32 118/19/32
f 138/19/45 115/19/45 113/19/45
f 115/19/45 138/19/45 149/19/45
f 149/19/45 138/19/45 139/19/45
f 150/19/32 101/19/32 99/19/32
f 101/19/32 150/19/32 108/19/32
f 108/19/32 150/19/32 110/19/32

