# Created by Kenney (www.kenney.nl)

mtllib water-island.mtl

g water-island

v 0.5 0 0.2886751 1 1 1
v 0.5 0 -0.2886751 1 1 1
v 1.277783E-13 0 0.5773503 1 1 1
v -1.270564E-13 0 -0.5773503 1 1 1
v -0.5 0 0.2886751 1 1 1
v -0.5 0 -0.2886751 1 1 1
v 0.5 0.1 -0.2886751 1 1 1
v 0.5 0.1 0.2886751 1 1 1
v -1.270564E-13 0.1 -0.5773503 1 1 1
v 1.277783E-13 0.1 0.5773503 1 1 1
v -0.5 0.1 0.2886751 1 1 1
v -0.5 0.1 -0.2886751 1 1 1
v 0.3125 0.15 -0.1804219 1 1 1
v 0.25 0.2 -0.1443376 1 1 1
v -8.735128E-14 0.15 -0.3608439 1 1 1
v -7.146922E-14 0.2 -0.2886751 1 1 1
v 7.183018E-14 0.15 0.3608439 1 1 1
v -0.3125 0.15 0.1804219 1 1 1
v 5.594814E-14 0.2 0.2886751 1 1 1
v -0.25 0.2 0.1443376 1 1 1
v 0.3125 0.15 0.1804219 1 1 1
v 0.25 0.2 0.1443376 1 1 1
v -0.25 0.2 -0.1443376 1 1 1
v -0.3125 0.15 -0.1804219 1 1 1
v -0.1469532 0.23306 -0.1198973 1 1 1
v -0.1469532 0.23306 -0.08207671 1 1 1
v -0.1851375 0.23306 -0.1198973 1 1 1
v -0.1851375 0.23306 -0.08207671 1 1 1
v -0.2007583 0.2 -0.1353694 1 1 1
v -0.2007583 0.2 -0.06660463 1 1 1
v -0.1313323 0.2 -0.06660463 1 1 1
v -0.1313323 0.2 -0.1353694 1 1 1
v 0.1857571 0.2435 -0.06543612 1 1 1
v 0.1422458 0.2435 -0.04031487 1 1 1
v 0.1608751 0.2435 -0.108533 1 1 1
v 0.1173638 0.2435 -0.08341175 1 1 1
v 0.08938471 0.2 -0.09076542 1 1 1
v 0.1346247 0.2 -0.01240744 1 1 1
v 0.2137361 0.2 -0.05808245 1 1 1
v 0.1684961 0.2 -0.1364404 1 1 1
v 0.1525967 0.23306 0.08040445 1 1 1
v 0.1144124 0.23306 0.08040445 1 1 1
v 0.1525967 0.23306 0.04258381 1 1 1
v 0.1144124 0.23306 0.04258381 1 1 1
v 0.09879158 0.2 0.02711173 1 1 1
v 0.09879158 0.2 0.09587653 1 1 1
v 0.1682176 0.2 0.09587653 1 1 1
v 0.1682176 0.2 0.02711173 1 1 1
v 0.375 0.1 -0.2165064 1 1 1
v -1.032333E-13 0.1 -0.4330127 1 1 1
v -0.375 0.1 -0.2165064 1 1 1
v 8.789272E-14 0.1 0.4330127 1 1 1
v -0.375 0.1 0.2165064 1 1 1
v 0.375 0.1 0.2165064 1 1 1

vn 0 -1 0
vn 1 0 0
vn 0.5 0 -0.8660254
vn 0 1 0
vn -1 0 0
vn -0.5 0 -0.8660254
vn 0.5 0 0.8660254
vn -0.5 0 0.8660254
vn 0.4931969 0.821995 -0.2847474
vn 0 0.821995 -0.5694948
vn 0 0.821995 0.5694948
vn -0.4931969 0.821995 0.2847474
vn 0.4931969 0.821995 0.2847474
vn -0.4931969 0.821995 -0.2847474
vn -0.585974 0.5537454 -0.5916084
vn -0.585974 0.5537454 0.5916084
vn 0.585974 0.5537454 0.5916084
vn 0.585974 0.5537454 -0.5916084
vn -0.8032726 0.5537454 -0.2193608
vn -0.2116642 0.5537454 0.8053349
vn 0.8032726 0.5537454 0.2193608
vn 0.2116642 0.5537454 -0.8053349

vt 0.15625 0.125
vt 0.21875 0.375
vt 0.21875 0.475
vt 0.21875 0.425
vt 0.21875 0.325
vt 0.96875 0.075
vt 0.96875 0.175

usemtl colormap

f 3/1/1 2/1/1 1/1/1
f 2/1/1 3/1/1 4/1/1
f 4/1/1 3/1/1 5/1/1
f 4/1/1 5/1/1 6/1/1
f 8/1/2 2/1/2 7/1/2
f 2/1/2 8/1/2 1/1/2
f 9/1/3 2/1/3 4/1/3
f 2/1/3 9/1/3 7/1/3
f 7/1/4 10/1/4 8/1/4
f 10/1/4 7/1/4 9/1/4
f 10/1/4 9/1/4 11/1/4
f 11/1/4 9/1/4 12/1/4
f 5/1/5 12/1/5 6/1/5
f 12/1/5 5/1/5 11/1/5
f 12/1/6 4/1/6 6/1/6
f 4/1/6 12/1/6 9/1/6
f 8/1/7 3/1/7 1/1/7
f 3/1/7 8/1/7 10/1/7
f 10/1/8 5/1/8 3/1/8
f 5/1/8 10/1/8 11/1/8
f 15/2/10 14/3/9 13/2/9
f 14/3/9 15/2/10 16/3/10
f 19/3/11 18/2/12 17/2/11
f 18/2/12 19/3/11 20/3/12
f 22/3/13 17/2/11 21/2/13
f 17/2/11 22/3/13 19/3/11
f 15/2/10 23/3/14 16/3/10
f 23/3/14 15/2/10 24/2/14
f 14/3/4 19/3/4 22/3/4
f 19/3/4 14/3/4 16/3/4
f 19/3/4 16/3/4 20/3/4
f 20/3/4 16/3/4 23/3/4
f 13/2/9 22/3/13 21/2/13
f 22/3/13 13/2/9 14/3/9
f 23/3/14 18/2/12 20/3/12
f 18/2/12 23/3/14 24/2/14
f 27/4/4 26/4/4 25/4/4
f 26/4/4 27/4/4 28/4/4
f 30/5/16 27/4/15 29/5/15
f 27/4/15 30/5/16 28/4/16
f 26/4/17 30/5/16 31/5/17
f 30/5/16 26/4/17 28/4/16
f 25/4/18 31/5/17 32/5/18
f 31/5/17 25/4/18 26/4/17
f 27/4/15 32/5/18 29/5/15
f 32/5/18 27/4/15 25/4/18
f 30/5/1 32/5/1 31/5/1
f 32/5/1 30/5/1 29/5/1
f 35/4/4 34/4/4 33/4/4
f 34/4/4 35/4/4 36/4/4
f 38/5/20 36/4/19 37/5/19
f 36/4/19 38/5/20 34/4/20
f 33/4/21 38/5/20 39/5/21
f 38/5/20 33/4/21 34/4/20
f 35/4/22 39/5/21 40/5/22
f 39/5/21 35/4/22 33/4/21
f 36/4/19 40/5/22 37/5/19
f 40/5/22 36/4/19 35/4/22
f 38/5/1 40/5/1 39/5/1
f 40/5/1 38/5/1 37/5/1
f 43/4/4 42/4/4 41/4/4
f 42/4/4 43/4/4 44/4/4
f 46/5/16 44/4/15 45/5/15
f 44/4/15 46/5/16 42/4/16
f 41/4/17 46/5/16 47/5/17
f 46/5/16 41/4/17 42/4/16
f 43/4/18 47/5/17 48/5/18
f 47/5/17 43/4/18 41/4/17
f 44/4/15 48/5/18 45/5/15
f 48/5/18 44/4/15 43/4/18
f 46/5/1 48/5/1 47/5/1
f 48/5/1 46/5/1 45/5/1
f 50/6/10 13/7/9 49/6/9
f 13/7/9 50/6/10 15/7/10
f 50/6/10 24/7/14 15/7/10
f 24/7/14 50/6/10 51/6/14
f 17/7/11 53/6/12 52/6/11
f 53/6/12 17/7/11 18/7/12
f 21/7/13 52/6/11 54/6/13
f 52/6/11 21/7/13 17/7/11
f 24/7/14 53/6/12 18/7/12
f 53/6/12 24/7/14 51/6/14
f 49/6/9 21/7/13 54/6/13
f 21/7/13 49/6/9 13/7/9

g water-island




usemtl colormap

f 3/1/1 2/1/1 1/1/1
f 2/1/1 3/1/1 4/1/1
f 4/1/1 3/1/1 5/1/1
f 4/1/1 5/1/1 6/1/1
f 8/1/2 2/1/2 7/1/2
f 2/1/2 8/1/2 1/1/2
f 9/1/3 2/1/3 4/1/3
f 2/1/3 9/1/3 7/1/3
f 7/1/4 10/1/4 8/1/4
f 10/1/4 7/1/4 9/1/4
f 10/1/4 9/1/4 11/1/4
f 11/1/4 9/1/4 12/1/4
f 5/1/5 12/1/5 6/1/5
f 12/1/5 5/1/5 11/1/5
f 12/1/6 4/1/6 6/1/6
f 4/1/6 12/1/6 9/1/6
f 8/1/7 3/1/7 1/1/7
f 3/1/7 8/1/7 10/1/7
f 10/1/8 5/1/8 3/1/8
f 5/1/8 10/1/8 11/1/8
f 15/2/10 14/3/9 13/2/9
f 14/3/9 15/2/10 16/3/10
f 19/3/11 18/2/12 17/2/11
f 18/2/12 19/3/11 20/3/12
f 22/3/13 17/2/11 21/2/13
f 17/2/11 22/3/13 19/3/11
f 15/2/10 23/3/14 16/3/10
f 23/3/14 15/2/10 24/2/14
f 14/3/4 19/3/4 22/3/4
f 19/3/4 14/3/4 16/3/4
f 19/3/4 16/3/4 20/3/4
f 20/3/4 16/3/4 23/3/4
f 13/2/9 22/3/13 21/2/13
f 22/3/13 13/2/9 14/3/9
f 23/3/14 18/2/12 20/3/12
f 18/2/12 23/3/14 24/2/14
f 27/4/4 26/4/4 25/4/4
f 26/4/4 27/4/4 28/4/4
f 30/5/16 27/4/15 29/5/15
f 27/4/15 30/5/16 28/4/16
f 26/4/17 30/5/16 31/5/17
f 30/5/16 26/4/17 28/4/16
f 25/4/18 31/5/17 32/5/18
f 31/5/17 25/4/18 26/4/17
f 27/4/15 32/5/18 29/5/15
f 32/5/18 27/4/15 25/4/18
f 30/5/1 32/5/1 31/5/1
f 32/5/1 30/5/1 29/5/1
f 35/4/4 34/4/4 33/4/4
f 34/4/4 35/4/4 36/4/4
f 38/5/20 36/4/19 37/5/19
f 36/4/19 38/5/20 34/4/20
f 33/4/21 38/5/20 39/5/21
f 38/5/20 33/4/21 34/4/20
f 35/4/22 39/5/21 40/5/22
f 39/5/21 35/4/22 33/4/21
f 36/4/19 40/5/22 37/5/19
f 40/5/22 36/4/19 35/4/22
f 38/5/1 40/5/1 39/5/1
f 40/5/1 38/5/1 37/5/1
f 43/4/4 42/4/4 41/4/4
f 42/4/4 43/4/4 44/4/4
f 46/5/16 44/4/15 45/5/15
f 44/4/15 46/5/16 42/4/16
f 41/4/17 46/5/16 47/5/17
f 46/5/16 41/4/17 42/4/16
f 43/4/18 47/5/17 48/5/18
f 47/5/17 43/4/18 41/4/17
f 44/4/15 48/5/18 45/5/15
f 48/5/18 44/4/15 43/4/18
f 46/5/1 48/5/1 47/5/1
f 48/5/1 46/5/1 45/5/1
f 50/6/10 13/7/9 49/6/9
f 13/7/9 50/6/10 15/7/10
f 50/6/10 24/7/14 15/7/10
f 24/7/14 50/6/10 51/6/14
f 17/7/11 53/6/12 52/6/11
f 53/6/12 17/7/11 18/7/12
f 21/7/13 52/6/11 54/6/13
f 52/6/11 21/7/13 17/7/11
f 24/7/14 53/6/12 18/7/12
f 53/6/12 24/7/14 51/6/14
f 49/6/9 21/7/13 54/6/13
f 21/7/13 49/6/9 13/7/9

