# Created by Kenney (www.kenney.nl)

mtllib path-intersectionH.mtl

g path-intersectionH

v 0.2898837 0.025 -0.2630934 1 1 1
v 0.3083105 0 -0.2550095 1 1 1
v 0.2533279 0.025 -0.1462589 1 1 1
v 0.2789042 0 -0.1610254 1 1 1
v -0.375 0 0.1395 1 1 1
v -0.5 0 0.1395 1 1 1
v -0.3772126 0.025 0.1195 1 1 1
v -0.5 0.025 0.1195 1 1 1
v -0.06668947 0 -0.3945095 1 1 1
v -0.004422207 0 -0.1955 1 1 1
v -0.08511627 0.025 -0.3864257 1 1 1
v -0.01912061 0.025 -0.1755 1 1 1
v -0.2898838 0.025 -0.2630934 1 1 1
v -0.2533279 0.025 -0.1462589 1 1 1
v -0.3083106 0 -0.2550095 1 1 1
v -0.2789043 0 -0.1610254 1 1 1
v 0.1291894 0 -0.5027627 1 1 1
v 0.3708105 0 -0.3632627 1 1 1
v 0.1465099 0.025 -0.4927627 1 1 1
v 0.35349 0.025 -0.3732627 1 1 1
v 0.375 0 -0.1395 1 1 1
v 0.5 0 -0.1395 1 1 1
v 0.3727874 0.025 -0.1195 1 1 1
v 0.5 0.025 -0.1195 1 1 1
v 0.5 0 0.1395 1 1 1
v 0.375 0 0.1395 1 1 1
v 0.5 0.025 0.1195 1 1 1
v 0.3772126 0.025 0.1195 1 1 1
v -0.3708105 0 -0.3632627 1 1 1
v -0.1291895 0 -0.5027627 1 1 1
v -0.3534901 0.025 -0.3732627 1 1 1
v -0.14651 0.025 -0.4927627 1 1 1
v 0.06668945 0 -0.3945095 1 1 1
v 0.08511625 0.025 -0.3864257 1 1 1
v 0.004422188 0 -0.1955 1 1 1
v 0.01912059 0.025 -0.1755 1 1 1
v 0.125 0 0.0835 1 1 1
v 0.1272126 0.025 0.0635 1 1 1
v -0.1272126 0.025 0.0635 1 1 1
v -0.3727874 0.025 -0.1195 1 1 1
v -0.5 0.025 -0.1195 1 1 1
v -0.125 0 0.0835 1 1 1
v -0.5 0 -0.1395 1 1 1
v -0.375 0 -0.1395 1 1 1

vn 0.7133815 0.6270106 0.3129607
vn 0.5595394 0.7632523 -0.3230503
vn 0.08565878 0.6270106 0.7742869
vn 0 0.6246951 0.7808689
vn 0.7133815 0.6270106 -0.3129607
vn 0.4202534 0.7045505 -0.5718354
vn -0.7133815 0.6270106 0.3129607
vn -0.5595394 0.7632523 -0.3230503
vn 0.5 0 -0.8660254
vn 0.08565878 0.6270106 -0.7742869
vn 0 0.6246951 -0.7808689
vn -0.08565878 0.6270106 0.7742869
vn -0.5 0 -0.8660254
vn 1 0 0
vn -0.7133815 0.6270106 -0.3129607
vn -0.4202534 0.7045505 -0.5718354
vn 0 1 0
vn -0.6762522 0.6246951 -0.3904344
vn -0.6762522 0.6246951 0.3904344
vn -1 0 0
vn 0.6762522 0.6246951 0.3904344
vn -0.08565878 0.6270106 -0.7742869
vn 0.6762522 0.6246951 -0.3904344

vt 0.96875 0.175
vt 0.96875 0.075

usemtl colormap

f 3/1/2 2/2/1 1/1/1
f 2/2/1 3/1/2 4/2/2
f 7/1/3 6/2/4 5/2/3
f 6/2/4 7/1/3 8/1/4
f 11/1/5 10/2/6 9/2/5
f 10/2/6 11/1/5 12/1/6
f 15/2/7 14/1/8 13/1/7
f 14/1/8 15/2/7 16/2/8
f 19/1/9 18/2/9 17/2/9
f 18/2/9 19/1/9 20/1/9
f 23/1/10 22/2/11 21/2/10
f 22/2/11 23/1/10 24/1/11
f 27/1/4 26/2/12 25/2/4
f 26/2/12 27/1/4 28/1/12
f 31/1/13 30/2/13 29/2/13
f 30/2/13 31/1/13 32/1/13
f 24/1/14 25/2/14 22/2/14
f 25/2/14 24/1/14 27/1/14
f 35/2/16 34/1/15 33/2/15
f 34/1/15 35/2/16 36/1/16
f 28/1/12 37/2/12 26/2/12
f 37/2/12 28/1/12 38/1/12
f 19/1/17 1/1/17 20/1/17
f 1/1/17 19/1/17 3/1/17
f 38/1/17 3/1/17 19/1/17
f 38/1/17 19/1/17 34/1/17
f 38/1/17 34/1/17 36/1/17
f 38/1/17 23/1/17 3/1/17
f 28/1/17 23/1/17 38/1/17
f 27/1/17 23/1/17 28/1/17
f 23/1/17 27/1/17 24/1/17
f 38/1/17 36/1/17 39/1/17
f 39/1/17 36/1/17 12/1/17
f 39/1/17 12/1/17 11/1/17
f 39/1/17 11/1/17 32/1/17
f 39/1/17 32/1/17 14/1/17
f 39/1/17 14/1/17 7/1/17
f 32/1/17 13/1/17 14/1/17
f 13/1/17 32/1/17 31/1/17
f 7/1/17 14/1/17 40/1/17
f 7/1/17 40/1/17 41/1/17
f 7/1/17 41/1/17 8/1/17
f 33/2/15 19/1/18 17/2/18
f 19/1/18 33/2/15 34/1/15
f 38/1/12 42/2/3 37/2/12
f 42/2/3 38/1/12 39/1/3
f 12/1/6 35/2/16 10/2/6
f 35/2/16 12/1/6 36/1/16
f 29/2/19 13/1/7 31/1/19
f 13/1/7 29/2/19 15/2/7
f 6/2/20 41/1/20 43/2/20
f 41/1/20 6/2/20 8/1/20
f 1/1/1 18/2/21 20/1/21
f 18/2/21 1/1/1 2/2/1
f 41/1/11 44/2/22 43/2/11
f 44/2/22 41/1/11 40/1/22
f 32/1/23 9/2/5 30/2/23
f 9/2/5 32/1/23 11/1/5
f 40/1/22 16/2/8 44/2/22
f 16/2/8 40/1/22 14/1/8
f 39/1/3 5/2/3 42/2/3
f 5/2/3 39/1/3 7/1/3
f 3/1/2 21/2/10 4/2/2
f 21/2/10 3/1/2 23/1/10

g path-intersectionH




usemtl colormap

f 3/1/2 2/2/1 1/1/1
f 2/2/1 3/1/2 4/2/2
f 7/1/3 6/2/4 5/2/3
f 6/2/4 7/1/3 8/1/4
f 11/1/5 10/2/6 9/2/5
f 10/2/6 11/1/5 12/1/6
f 15/2/7 14/1/8 13/1/7
f 14/1/8 15/2/7 16/2/8
f 19/1/9 18/2/9 17/2/9
f 18/2/9 19/1/9 20/1/9
f 23/1/10 22/2/11 21/2/10
f 22/2/11 23/1/10 24/1/11
f 27/1/4 26/2/12 25/2/4
f 26/2/12 27/1/4 28/1/12
f 31/1/13 30/2/13 29/2/13
f 30/2/13 31/1/13 32/1/13
f 24/1/14 25/2/14 22/2/14
f 25/2/14 24/1/14 27/1/14
f 35/2/16 34/1/15 33/2/15
f 34/1/15 35/2/16 36/1/16
f 28/1/12 37/2/12 26/2/12
f 37/2/12 28/1/12 38/1/12
f 19/1/17 1/1/17 20/1/17
f 1/1/17 19/1/17 3/1/17
f 38/1/17 3/1/17 19/1/17
f 38/1/17 19/1/17 34/1/17
f 38/1/17 34/1/17 36/1/17
f 38/1/17 23/1/17 3/1/17
f 28/1/17 23/1/17 38/1/17
f 27/1/17 23/1/17 28/1/17
f 23/1/17 27/1/17 24/1/17
f 38/1/17 36/1/17 39/1/17
f 39/1/17 36/1/17 12/1/17
f 39/1/17 12/1/17 11/1/17
f 39/1/17 11/1/17 32/1/17
f 39/1/17 32/1/17 14/1/17
f 39/1/17 14/1/17 7/1/17
f 32/1/17 13/1/17 14/1/17
f 13/1/17 32/1/17 31/1/17
f 7/1/17 14/1/17 40/1/17
f 7/1/17 40/1/17 41/1/17
f 7/1/17 41/1/17 8/1/17
f 33/2/15 19/1/18 17/2/18
f 19/1/18 33/2/15 34/1/15
f 38/1/12 42/2/3 37/2/12
f 42/2/3 38/1/12 39/1/3
f 12/1/6 35/2/16 10/2/6
f 35/2/16 12/1/6 36/1/16
f 29/2/19 13/1/7 31/1/19
f 13/1/7 29/2/19 15/2/7
f 6/2/20 41/1/20 43/2/20
f 41/1/20 6/2/20 8/1/20
f 1/1/1 18/2/21 20/1/21
f 18/2/21 1/1/1 2/2/1
f 41/1/11 44/2/22 43/2/11
f 44/2/22 41/1/11 40/1/22
f 32/1/23 9/2/5 30/2/23
f 9/2/5 32/1/23 11/1/5
f 40/1/22 16/2/8 44/2/22
f 16/2/8 40/1/22 14/1/8
f 39/1/3 5/2/3 42/2/3
f 5/2/3 39/1/3 7/1/3
f 3/1/2 21/2/10 4/2/2
f 21/2/10 3/1/2 23/1/10

