# Created by Kenney (www.kenney.nl)

mtllib path-intersectionF.mtl

g path-intersectionF

v 0.07686992 0.025 -0.006142605 1 1 1
v 0.08301252 0.01451131 7.219114E-16 1 1 1
v 0.07686992 0.025 0.006142605 1 1 1
v 0.1185989 0.025 -0.07841934 1 1 1
v 0.1348131 0 -0.06650317 1 1 1
v 0.09641749 0 7.219114E-16 1 1 1
v 0.08290367 0.025 0.3825934 1 1 1
v 0.1465099 0.025 0.4927627 1 1 1
v 0.06668945 0 0.3945095 1 1 1
v 0.1291894 0 0.5027627 1 1 1
v 0.3083105 0 -0.2550095 1 1 1
v 0.2920963 0.025 -0.2669257 1 1 1
v 0.35349 0.025 -0.3732627 1 1 1
v 0.3708105 0 -0.3632627 1 1 1
v -0.106808 0 0.2060032 1 1 1
v -0.125 0 0.1955 1 1 1
v -0.09059376 0.025 0.194087 1 1 1
v -0.1227874 0.025 0.1755 1 1 1
v 0.1348131 0 0.06650317 1 1 1
v 0.1185989 0.025 0.07841934 1 1 1
v 0.3083105 0 0.2550095 1 1 1
v 0.2920963 0.025 0.2669257 1 1 1
v -0.5 0 -0.1395 1 1 1
v -0.5 0.025 -0.1195 1 1 1
v -0.5 0 0.1395 1 1 1
v -0.5 0.025 0.1195 1 1 1
v 0.1465099 0.025 -0.4927627 1 1 1
v 0.08290367 0.025 -0.3825934 1 1 1
v -0.09059376 0.025 -0.194087 1 1 1
v -0.1227874 0.025 -0.1755 1 1 1
v -0.3727874 0.025 -0.1195 1 1 1
v 0.35349 0.025 0.3732627 1 1 1
v -0.3727874 0.025 0.1195 1 1 1
v 0.1291894 0 -0.5027627 1 1 1
v 0.06668945 0 -0.3945095 1 1 1
v 0.3708105 0 0.3632627 1 1 1
v -0.375 0 -0.1395 1 1 1
v -0.375 0 0.1395 1 1 1
v -0.106808 0 -0.2060032 1 1 1
v -0.125 0 -0.1955 1 1 1

vn 0.7673427 0.5927041 0.2447184
vn 0.7577381 0.6525589 0
vn 0.7673427 0.5927041 -0.2447184
vn 0.6277228 0.6270107 0.4613261
vn 0.7345532 0.6785511 0
vn -0.6277228 0.6270107 0.4613261
vn -0.6762522 0.6246951 0.3904344
vn 0.6762522 0.6246951 0.3904344
vn -0.4836934 0.6119621 0.6257341
vn -0.300055 0.6119621 0.7317578
vn -0.5016037 0.615218 0.6081944
vn -0.2759099 0.615218 0.7384988
vn 0.6277228 0.6270107 -0.4613261
vn -1 0 0
vn 0 1 0
vn -0.6762522 0.6246951 -0.3904344
vn -0.6277228 0.6270107 -0.4613261
vn 0.5 0 0.8660254
vn 0 0.6246951 -0.7808689
vn -0.08565878 0.6270106 -0.7742869
vn -0.08565878 0.6270106 0.7742869
vn 0 0.6246951 0.7808689
vn -0.5016037 0.615218 -0.6081944
vn -0.4836934 0.6119621 -0.6257341
vn -0.300055 0.6119621 -0.7317578
vn -0.2759099 0.615218 -0.7384988
vn 0.6762522 0.6246951 -0.3904344
vn 0.5 0 -0.8660254

vt 0.96875 0.175
vt 0.96875 0.1330452
vt 0.96875 0.075

usemtl colormap

f 3/1/3 2/2/2 1/1/1
f 1/1/1 5/3/4 4/1/4
f 5/3/4 1/1/1 6/3/5
f 6/3/5 1/1/1 2/2/2
f 9/3/6 8/1/7 7/1/6
f 8/1/7 9/3/6 10/3/7
f 12/1/4 5/3/4 11/3/4
f 5/3/4 12/1/4 4/1/4
f 12/1/4 14/3/8 13/1/8
f 14/3/8 12/1/4 11/3/4
f 17/1/11 16/3/10 15/3/9
f 16/3/10 17/1/11 18/1/12
f 3/1/3 6/3/5 2/2/2
f 6/3/5 3/1/3 19/3/13
f 19/3/13 3/1/3 20/1/13
f 19/3/13 22/1/13 21/3/13
f 22/1/13 19/3/13 20/1/13
f 25/3/14 24/1/14 23/3/14
f 24/1/14 25/3/14 26/1/14
f 27/1/15 12/1/15 13/1/15
f 12/1/15 27/1/15 4/1/15
f 4/1/15 27/1/15 28/1/15
f 4/1/15 28/1/15 1/1/15
f 1/1/15 28/1/15 29/1/15
f 1/1/15 29/1/15 3/1/15
f 17/1/15 3/1/15 29/1/15
f 17/1/15 29/1/15 30/1/15
f 7/1/15 3/1/15 17/1/15
f 17/1/15 30/1/15 18/1/15
f 7/1/15 20/1/15 3/1/15
f 18/1/15 30/1/15 31/1/15
f 8/1/15 20/1/15 7/1/15
f 8/1/15 22/1/15 20/1/15
f 22/1/15 8/1/15 32/1/15
f 18/1/15 31/1/15 33/1/15
f 33/1/15 31/1/15 24/1/15
f 33/1/15 24/1/15 26/1/15
f 35/3/17 27/1/16 34/3/16
f 27/1/16 35/3/17 28/1/17
f 32/1/18 10/3/18 36/3/18
f 10/3/18 32/1/18 8/1/18
f 24/1/19 37/3/20 23/3/19
f 37/3/20 24/1/19 31/1/20
f 33/1/21 25/3/22 38/3/21
f 25/3/22 33/1/21 26/1/22
f 35/3/17 29/1/23 28/1/17
f 29/1/23 35/3/17 39/3/24
f 31/1/20 40/3/25 37/3/20
f 40/3/25 31/1/20 30/1/26
f 17/1/11 9/3/6 7/1/6
f 9/3/6 17/1/11 15/3/9
f 22/1/13 36/3/27 21/3/13
f 36/3/27 22/1/13 32/1/27
f 27/1/28 14/3/28 34/3/28
f 14/3/28 27/1/28 13/1/28
f 30/1/26 39/3/24 40/3/25
f 39/3/24 30/1/26 29/1/23
f 18/1/12 38/3/21 16/3/10
f 38/3/21 18/1/12 33/1/21

g path-intersectionF




usemtl colormap

f 3/1/3 2/2/2 1/1/1
f 1/1/1 5/3/4 4/1/4
f 5/3/4 1/1/1 6/3/5
f 6/3/5 1/1/1 2/2/2
f 9/3/6 8/1/7 7/1/6
f 8/1/7 9/3/6 10/3/7
f 12/1/4 5/3/4 11/3/4
f 5/3/4 12/1/4 4/1/4
f 12/1/4 14/3/8 13/1/8
f 14/3/8 12/1/4 11/3/4
f 17/1/11 16/3/10 15/3/9
f 16/3/10 17/1/11 18/1/12
f 3/1/3 6/3/5 2/2/2
f 6/3/5 3/1/3 19/3/13
f 19/3/13 3/1/3 20/1/13
f 19/3/13 22/1/13 21/3/13
f 22/1/13 19/3/13 20/1/13
f 25/3/14 24/1/14 23/3/14
f 24/1/14 25/3/14 26/1/14
f 27/1/15 12/1/15 13/1/15
f 12/1/15 27/1/15 4/1/15
f 4/1/15 27/1/15 28/1/15
f 4/1/15 28/1/15 1/1/15
f 1/1/15 28/1/15 29/1/15
f 1/1/15 29/1/15 3/1/15
f 17/1/15 3/1/15 29/1/15
f 17/1/15 29/1/15 30/1/15
f 7/1/15 3/1/15 17/1/15
f 17/1/15 30/1/15 18/1/15
f 7/1/15 20/1/15 3/1/15
f 18/1/15 30/1/15 31/1/15
f 8/1/15 20/1/15 7/1/15
f 8/1/15 22/1/15 20/1/15
f 22/1/15 8/1/15 32/1/15
f 18/1/15 31/1/15 33/1/15
f 33/1/15 31/1/15 24/1/15
f 33/1/15 24/1/15 26/1/15
f 35/3/17 27/1/16 34/3/16
f 27/1/16 35/3/17 28/1/17
f 32/1/18 10/3/18 36/3/18
f 10/3/18 32/1/18 8/1/18
f 24/1/19 37/3/20 23/3/19
f 37/3/20 24/1/19 31/1/20
f 33/1/21 25/3/22 38/3/21
f 25/3/22 33/1/21 26/1/22
f 35/3/17 29/1/23 28/1/17
f 29/1/23 35/3/17 39/3/24
f 31/1/20 40/3/25 37/3/20
f 40/3/25 31/1/20 30/1/26
f 17/1/11 9/3/6 7/1/6
f 9/3/6 17/1/11 15/3/9
f 22/1/13 36/3/27 21/3/13
f 36/3/27 22/1/13 32/1/27
f 27/1/28 14/3/28 34/3/28
f 14/3/28 27/1/28 13/1/28
f 30/1/26 39/3/24 40/3/25
f 39/3/24 30/1/26 29/1/23
f 18/1/12 38/3/21 16/3/10
f 38/3/21 18/1/12 33/1/21

