# Created by Kenney (www.kenney.nl)

mtllib path-straight.mtl

g path-straight

v 0.375 0 -0.1395 1 1 1
v 0.5 0 -0.1395 1 1 1
v 0.3727874 0.025 -0.1195 1 1 1
v 0.5 0.025 -0.1195 1 1 1
v 0.5 0 0.1395 1 1 1
v 0.375 0 0.1395 1 1 1
v 0.5 0.025 0.1195 1 1 1
v 0.3772126 0.025 0.1195 1 1 1
v -0.5 0 -0.1395 1 1 1
v -0.375 0 -0.1395 1 1 1
v -0.5 0.025 -0.1195 1 1 1
v -0.3727874 0.025 -0.1195 1 1 1
v -0.125 0 -0.1955 1 1 1
v 0.125 0 -0.1955 1 1 1
v -0.1227874 0.025 -0.1755 1 1 1
v 0.1227874 0.025 -0.1755 1 1 1
v 0.1272126 0.025 0.0635 1 1 1
v -0.1272126 0.025 0.0635 1 1 1
v -0.3772126 0.025 0.1195 1 1 1
v -0.5 0.025 0.1195 1 1 1
v -0.375 0 0.1395 1 1 1
v -0.5 0 0.1395 1 1 1
v -0.125 0 0.0835 1 1 1
v 0.125 0 0.0835 1 1 1

vn 0.08565878 0.6270106 -0.7742869
vn 0 0.6246951 -0.7808689
vn 0 0.6246951 0.7808689
vn -0.08565878 0.6270106 0.7742869
vn -0.08565878 0.6270106 -0.7742869
vn 0 1 0
vn 0.08565878 0.6270106 0.7742869
vn 1 0 0
vn -1 0 0

vt 0.96875 0.075
vt 0.96875 0.175

usemtl colormap

f 3/2/1 2/1/2 1/1/1
f 2/1/2 3/2/1 4/2/2
f 7/2/3 6/1/4 5/1/3
f 6/1/4 7/2/3 8/2/4
f 11/2/2 10/1/5 9/1/2
f 10/1/5 11/2/2 12/2/5
f 15/2/5 14/1/1 13/1/5
f 14/1/1 15/2/5 16/2/1
f 16/2/1 1/1/1 14/1/1
f 1/1/1 16/2/1 3/2/1
f 4/2/6 8/2/6 7/2/6
f 8/2/6 4/2/6 3/2/6
f 8/2/6 3/2/6 17/2/6
f 17/2/6 3/2/6 16/2/6
f 17/2/6 16/2/6 18/2/6
f 18/2/6 16/2/6 15/2/6
f 18/2/6 15/2/6 12/2/6
f 18/2/6 12/2/6 19/2/6
f 19/2/6 12/2/6 11/2/6
f 19/2/6 11/2/6 20/2/6
f 19/2/7 22/1/3 21/1/7
f 22/1/3 19/2/7 20/2/3
f 18/2/7 21/1/7 23/1/7
f 21/1/7 18/2/7 19/2/7
f 4/2/8 5/1/8 2/1/8
f 5/1/8 4/2/8 7/2/8
f 17/2/4 23/1/7 24/1/4
f 23/1/7 17/2/4 18/2/7
f 12/2/5 13/1/5 10/1/5
f 13/1/5 12/2/5 15/2/5
f 22/1/9 11/2/9 9/1/9
f 11/2/9 22/1/9 20/2/9
f 8/2/4 24/1/4 6/1/4
f 24/1/4 8/2/4 17/2/4

g path-straight




usemtl colormap

f 3/2/1 2/1/2 1/1/1
f 2/1/2 3/2/1 4/2/2
f 7/2/3 6/1/4 5/1/3
f 6/1/4 7/2/3 8/2/4
f 11/2/2 10/1/5 9/1/2
f 10/1/5 11/2/2 12/2/5
f 15/2/5 14/1/1 13/1/5
f 14/1/1 15/2/5 16/2/1
f 16/2/1 1/1/1 14/1/1
f 1/1/1 16/2/1 3/2/1
f 4/2/6 8/2/6 7/2/6
f 8/2/6 4/2/6 3/2/6
f 8/2/6 3/2/6 17/2/6
f 17/2/6 3/2/6 16/2/6
f 17/2/6 16/2/6 18/2/6
f 18/2/6 16/2/6 15/2/6
f 18/2/6 15/2/6 12/2/6
f 18/2/6 12/2/6 19/2/6
f 19/2/6 12/2/6 11/2/6
f 19/2/6 11/2/6 20/2/6
f 19/2/7 22/1/3 21/1/7
f 22/1/3 19/2/7 20/2/3
f 18/2/7 21/1/7 23/1/7
f 21/1/7 18/2/7 19/2/7
f 4/2/8 5/1/8 2/1/8
f 5/1/8 4/2/8 7/2/8
f 17/2/4 23/1/7 24/1/4
f 23/1/7 17/2/4 18/2/7
f 12/2/5 13/1/5 10/1/5
f 13/1/5 12/2/5 15/2/5
f 22/1/9 11/2/9 9/1/9
f 11/2/9 22/1/9 20/2/9
f 8/2/4 24/1/4 6/1/4
f 24/1/4 8/2/4 17/2/4

