# Created by Kenney (www.kenney.nl)

mtllib path-intersectionE.mtl

g path-intersectionE

v 0.1272126 0.025 0.0635 1 1 1
v 0.1570679 0 0.09068321 1 1 1
v 0.1185989 0.025 0.07841933 1 1 1
v -0.375 0 -0.1395 1 1 1
v -0.2789042 0 -0.1610254 1 1 1
v -0.3727874 0.025 -0.1195 1 1 1
v -0.2533279 0.025 -0.1462589 1 1 1
v -0.1291895 0 -0.5027627 1 1 1
v -0.06668945 0 -0.3945095 1 1 1
v -0.14651 0.025 -0.4927627 1 1 1
v -0.08511625 0.025 -0.3864257 1 1 1
v 0.08290367 0.025 0.3825934 1 1 1
v 0.06668945 0 0.3945095 1 1 1
v -0.09059375 0.025 0.194087 1 1 1
v -0.106808 0 0.2060032 1 1 1
v 0.375 0 0.1395 1 1 1
v 0.3772126 0.025 0.1195 1 1 1
v -0.2898837 0.025 -0.2630934 1 1 1
v -0.3083105 0 -0.2550095 1 1 1
v -0.004422192 0 -0.1955 1 1 1
v 0.125 0 -0.1955 1 1 1
v -0.0191206 0.025 -0.1755 1 1 1
v 0.1227874 0.025 -0.1755 1 1 1
v -0.375 0 0.1395 1 1 1
v -0.5 0 0.1395 1 1 1
v -0.3772126 0.025 0.1195 1 1 1
v -0.5 0.025 0.1195 1 1 1
v 0.375 0 -0.1395 1 1 1
v 0.3727874 0.025 -0.1195 1 1 1
v 0.5 0 0.1395 1 1 1
v 0.5 0.025 0.1195 1 1 1
v -0.1615478 0.025 0.07119108 1 1 1
v -0.1715191 0 0.09392027 1 1 1
v 0.35349 0.025 0.3732627 1 1 1
v 0.14651 0.025 0.4927627 1 1 1
v 0.2920963 0.025 0.2669257 1 1 1
v 0.5 0.025 -0.1195 1 1 1
v -0.35349 0.025 -0.3732627 1 1 1
v -0.5 0.025 -0.1195 1 1 1
v 0.3083105 0 0.2550095 1 1 1
v 0.1291895 0 0.5027627 1 1 1
v -0.3708105 0 -0.3632627 1 1 1
v 0.3708105 0 0.3632627 1 1 1
v 0.5 0 -0.1395 1 1 1
v -0.5 0 -0.1395 1 1 1

vn 0.2648712 0.8369841 0.4788535
vn 0.3199125 0.9292692 0.1847015
vn 0.5471349 0.8369842 -0.01004158
vn -0.0856588 0.6270106 -0.7742869
vn -0.5595394 0.7632523 -0.3230503
vn 0.6762522 0.6246951 -0.3904344
vn 0.7133815 0.6270106 -0.3129607
vn -0.6277227 0.6270106 0.4613262
vn -0.08565877 0.6270106 0.7742869
vn -0.7133815 0.6270106 0.3129607
vn 0.4202534 0.7045505 -0.5718354
vn 0.08565877 0.6270106 -0.7742869
vn 0.0856588 0.6270106 0.7742869
vn 0 0.6246951 0.7808689
vn -0.2850973 0.7045504 0.6498678
vn 0 1 0
vn 0.6277227 0.6270106 -0.4613262
vn -0.6762522 0.6246951 0.3904344
vn -0.5 0 -0.8660254
vn 0 0.6246951 -0.7808689
vn 0.5 0 0.8660254
vn -1 0 0
vn 1 0 0

vt 0.96875 0.175
vt 0.96875 0.075

usemtl colormap

f 3/1/3 2/2/2 1/1/1
f 6/1/4 5/2/5 4/2/4
f 5/2/5 6/1/4 7/1/5
f 10/1/6 9/2/7 8/2/6
f 9/2/7 10/1/6 11/1/7
f 14/1/8 13/2/8 12/1/8
f 13/2/8 14/1/8 15/2/8
f 17/1/9 2/2/2 16/2/9
f 2/2/2 17/1/9 1/1/1
f 19/2/10 7/1/5 18/1/10
f 7/1/5 19/2/10 5/2/5
f 22/1/11 21/2/12 20/2/11
f 21/2/12 22/1/11 23/1/12
f 26/1/13 25/2/14 24/2/13
f 25/2/14 26/1/13 27/1/14
f 23/1/12 28/2/12 21/2/12
f 28/2/12 23/1/12 29/1/12
f 11/1/7 20/2/11 9/2/7
f 20/2/11 11/1/7 22/1/11
f 31/1/14 16/2/9 30/2/14
f 16/2/9 31/1/14 17/1/9
f 33/2/15 14/1/8 32/1/15
f 14/1/8 33/2/15 15/2/8
f 36/1/16 35/1/16 34/1/16
f 35/1/16 36/1/16 3/1/16
f 35/1/16 3/1/16 12/1/16
f 3/1/16 22/1/16 12/1/16
f 12/1/16 22/1/16 14/1/16
f 3/1/16 23/1/16 22/1/16
f 14/1/16 22/1/16 11/1/16
f 1/1/16 23/1/16 3/1/16
f 1/1/16 29/1/16 23/1/16
f 17/1/16 29/1/16 1/1/16
f 17/1/16 37/1/16 29/1/16
f 37/1/16 17/1/16 31/1/16
f 14/1/16 11/1/16 10/1/16
f 14/1/16 10/1/16 32/1/16
f 32/1/16 10/1/16 18/1/16
f 18/1/16 10/1/16 38/1/16
f 32/1/16 18/1/16 7/1/16
f 7/1/16 26/1/16 32/1/16
f 26/1/16 7/1/16 6/1/16
f 26/1/16 6/1/16 39/1/16
f 26/1/16 39/1/16 27/1/16
f 2/2/2 36/1/17 40/2/17
f 36/1/17 2/2/2 3/1/3
f 13/2/8 35/1/18 12/1/8
f 35/1/18 13/2/8 41/2/18
f 38/1/19 8/2/19 42/2/19
f 8/2/19 38/1/19 10/1/19
f 36/1/17 43/2/6 40/2/17
f 43/2/6 36/1/17 34/1/6
f 29/1/12 44/2/20 28/2/12
f 44/2/20 29/1/12 37/1/20
f 34/1/21 41/2/21 43/2/21
f 41/2/21 34/1/21 35/1/21
f 42/2/18 18/1/10 38/1/18
f 18/1/10 42/2/18 19/2/10
f 25/2/22 39/1/22 45/2/22
f 39/1/22 25/2/22 27/1/22
f 37/1/23 30/2/23 44/2/23
f 30/2/23 37/1/23 31/1/23
f 32/1/15 24/2/13 33/2/15
f 24/2/13 32/1/15 26/1/13
f 39/1/20 4/2/4 45/2/20
f 4/2/4 39/1/20 6/1/4

g path-intersectionE




usemtl colormap

f 3/1/3 2/2/2 1/1/1
f 6/1/4 5/2/5 4/2/4
f 5/2/5 6/1/4 7/1/5
f 10/1/6 9/2/7 8/2/6
f 9/2/7 10/1/6 11/1/7
f 14/1/8 13/2/8 12/1/8
f 13/2/8 14/1/8 15/2/8
f 17/1/9 2/2/2 16/2/9
f 2/2/2 17/1/9 1/1/1
f 19/2/10 7/1/5 18/1/10
f 7/1/5 19/2/10 5/2/5
f 22/1/11 21/2/12 20/2/11
f 21/2/12 22/1/11 23/1/12
f 26/1/13 25/2/14 24/2/13
f 25/2/14 26/1/13 27/1/14
f 23/1/12 28/2/12 21/2/12
f 28/2/12 23/1/12 29/1/12
f 11/1/7 20/2/11 9/2/7
f 20/2/11 11/1/7 22/1/11
f 31/1/14 16/2/9 30/2/14
f 16/2/9 31/1/14 17/1/9
f 33/2/15 14/1/8 32/1/15
f 14/1/8 33/2/15 15/2/8
f 36/1/16 35/1/16 34/1/16
f 35/1/16 36/1/16 3/1/16
f 35/1/16 3/1/16 12/1/16
f 3/1/16 22/1/16 12/1/16
f 12/1/16 22/1/16 14/1/16
f 3/1/16 23/1/16 22/1/16
f 14/1/16 22/1/16 11/1/16
f 1/1/16 23/1/16 3/1/16
f 1/1/16 29/1/16 23/1/16
f 17/1/16 29/1/16 1/1/16
f 17/1/16 37/1/16 29/1/16
f 37/1/16 17/1/16 31/1/16
f 14/1/16 11/1/16 10/1/16
f 14/1/16 10/1/16 32/1/16
f 32/1/16 10/1/16 18/1/16
f 18/1/16 10/1/16 38/1/16
f 32/1/16 18/1/16 7/1/16
f 7/1/16 26/1/16 32/1/16
f 26/1/16 7/1/16 6/1/16
f 26/1/16 6/1/16 39/1/16
f 26/1/16 39/1/16 27/1/16
f 2/2/2 36/1/17 40/2/17
f 36/1/17 2/2/2 3/1/3
f 13/2/8 35/1/18 12/1/8
f 35/1/18 13/2/8 41/2/18
f 38/1/19 8/2/19 42/2/19
f 8/2/19 38/1/19 10/1/19
f 36/1/17 43/2/6 40/2/17
f 43/2/6 36/1/17 34/1/6
f 29/1/12 44/2/20 28/2/12
f 44/2/20 29/1/12 37/1/20
f 34/1/21 41/2/21 43/2/21
f 41/2/21 34/1/21 35/1/21
f 42/2/18 18/1/10 38/1/18
f 18/1/10 42/2/18 19/2/10
f 25/2/22 39/1/22 45/2/22
f 39/1/22 25/2/22 27/1/22
f 37/1/23 30/2/23 44/2/23
f 30/2/23 37/1/23 31/1/23
f 32/1/15 24/2/13 33/2/15
f 24/2/13 32/1/15 26/1/13
f 39/1/20 4/2/4 45/2/20
f 4/2/4 39/1/20 6/1/4

