# Created by Kenney (www.kenney.nl)

mtllib path-intersectionC.mtl

g path-intersectionC

v 0.1272126 0.025 0.0635 1 1 1
v 0.1570679 0 0.09068321 1 1 1
v 0.1185989 0.025 0.07841934 1 1 1
v -0.375 0 -0.1395 1 1 1
v -0.125 0 -0.1955 1 1 1
v -0.3727874 0.025 -0.1195 1 1 1
v -0.1227874 0.025 -0.1755 1 1 1
v 0.375 0 -0.1395 1 1 1
v 0.5 0 -0.1395 1 1 1
v 0.3727874 0.025 -0.1195 1 1 1
v 0.5 0.025 -0.1195 1 1 1
v -0.106808 0 0.2060032 1 1 1
v -0.125 0 0.1955 1 1 1
v -0.09059376 0.025 0.194087 1 1 1
v -0.1227874 0.025 0.1755 1 1 1
v -0.375 0 0.1395 1 1 1
v -0.3727874 0.025 0.1195 1 1 1
v 0.08290367 0.025 0.3825934 1 1 1
v 0.06668945 0 0.3945095 1 1 1
v -0.5 0 -0.1395 1 1 1
v -0.5 0.025 -0.1195 1 1 1
v 0.5 0 0.1395 1 1 1
v 0.5 0.025 0.1195 1 1 1
v 0.375 0 0.1395 1 1 1
v 0.3772126 0.025 0.1195 1 1 1
v 0.1227874 0.025 -0.1755 1 1 1
v 0.1465099 0.025 0.4927627 1 1 1
v 0.2920963 0.025 0.2669257 1 1 1
v 0.35349 0.025 0.3732627 1 1 1
v -0.5 0.025 0.1195 1 1 1
v -0.5 0 0.1395 1 1 1
v 0.3083105 0 0.2550095 1 1 1
v 0.3708105 0 0.3632627 1 1 1
v 0.1291894 0 0.5027627 1 1 1
v 0.125 0 -0.1955 1 1 1

vn 0.2648712 0.8369841 0.4788536
vn 0.3199125 0.9292692 0.1847015
vn 0.5471351 0.8369841 -0.0100416
vn -0.08565877 0.6270108 -0.7742869
vn -0.08565878 0.6270106 -0.7742869
vn 0.08565878 0.6270106 -0.7742869
vn 0 0.6246951 -0.7808689
vn -0.4836934 0.6119621 0.6257341
vn -0.3000549 0.611962 0.7317578
vn -0.5016037 0.615218 0.6081945
vn -0.27591 0.6152179 0.7384989
vn -0.08565883 0.6270105 0.774287
vn -0.08565882 0.6270105 0.774287
vn -0.6277227 0.6270106 0.4613262
vn 0 0.6246952 -0.7808687
vn 1 0 0
vn -0.08565878 0.6270106 0.7742869
vn 0 1 0
vn 0 0.6246949 0.7808689
vn 0.6277227 0.6270106 -0.4613262
vn 0.6762522 0.6246951 -0.3904344
vn -1 0 0
vn 0.5 0 0.8660254
vn 0 0.6246951 0.7808689
vn -0.6762522 0.6246951 0.3904344

vt 0.96875 0.175
vt 0.96875 0.075

usemtl colormap

f 3/1/3 2/2/2 1/1/1
f 6/1/4 5/2/5 4/2/4
f 5/2/5 6/1/4 7/1/5
f 10/1/6 9/2/7 8/2/6
f 9/2/7 10/1/6 11/1/7
f 14/1/10 13/2/9 12/2/8
f 13/2/9 14/1/10 15/1/11
f 15/1/11 16/2/12 13/2/9
f 16/2/12 15/1/11 17/1/13
f 14/1/10 19/2/14 18/1/14
f 19/2/14 14/1/10 12/2/8
f 21/1/15 4/2/4 20/2/15
f 4/2/4 21/1/15 6/1/4
f 11/1/16 22/2/16 9/2/16
f 22/2/16 11/1/16 23/1/16
f 25/1/17 2/2/2 24/2/17
f 2/2/2 25/1/17 1/1/1
f 11/1/18 25/1/18 23/1/18
f 25/1/18 11/1/18 10/1/18
f 25/1/18 10/1/18 1/1/18
f 1/1/18 10/1/18 26/1/18
f 1/1/18 26/1/18 3/1/18
f 3/1/18 26/1/18 7/1/18
f 3/1/18 7/1/18 18/1/18
f 18/1/18 7/1/18 14/1/18
f 27/1/18 3/1/18 18/1/18
f 27/1/18 28/1/18 3/1/18
f 28/1/18 27/1/18 29/1/18
f 14/1/18 7/1/18 15/1/18
f 15/1/18 7/1/18 6/1/18
f 15/1/18 6/1/18 17/1/18
f 17/1/18 6/1/18 21/1/18
f 17/1/18 21/1/18 30/1/18
f 17/1/13 31/2/19 16/2/12
f 31/2/19 17/1/13 30/1/19
f 28/1/20 33/2/21 32/2/20
f 33/2/21 28/1/20 29/1/21
f 31/2/22 21/1/22 20/2/22
f 21/1/22 31/2/22 30/1/22
f 29/1/23 34/2/23 33/2/23
f 34/2/23 29/1/23 27/1/23
f 26/1/6 8/2/6 35/2/6
f 8/2/6 26/1/6 10/1/6
f 7/1/5 35/2/6 5/2/5
f 35/2/6 7/1/5 26/1/6
f 23/1/24 24/2/17 22/2/24
f 24/2/17 23/1/24 25/1/17
f 2/2/2 28/1/20 32/2/20
f 28/1/20 2/2/2 3/1/3
f 19/2/14 27/1/25 18/1/14
f 27/1/25 19/2/14 34/2/25

g path-intersectionC




usemtl colormap

f 3/1/3 2/2/2 1/1/1
f 6/1/4 5/2/5 4/2/4
f 5/2/5 6/1/4 7/1/5
f 10/1/6 9/2/7 8/2/6
f 9/2/7 10/1/6 11/1/7
f 14/1/10 13/2/9 12/2/8
f 13/2/9 14/1/10 15/1/11
f 15/1/11 16/2/12 13/2/9
f 16/2/12 15/1/11 17/1/13
f 14/1/10 19/2/14 18/1/14
f 19/2/14 14/1/10 12/2/8
f 21/1/15 4/2/4 20/2/15
f 4/2/4 21/1/15 6/1/4
f 11/1/16 22/2/16 9/2/16
f 22/2/16 11/1/16 23/1/16
f 25/1/17 2/2/2 24/2/17
f 2/2/2 25/1/17 1/1/1
f 11/1/18 25/1/18 23/1/18
f 25/1/18 11/1/18 10/1/18
f 25/1/18 10/1/18 1/1/18
f 1/1/18 10/1/18 26/1/18
f 1/1/18 26/1/18 3/1/18
f 3/1/18 26/1/18 7/1/18
f 3/1/18 7/1/18 18/1/18
f 18/1/18 7/1/18 14/1/18
f 27/1/18 3/1/18 18/1/18
f 27/1/18 28/1/18 3/1/18
f 28/1/18 27/1/18 29/1/18
f 14/1/18 7/1/18 15/1/18
f 15/1/18 7/1/18 6/1/18
f 15/1/18 6/1/18 17/1/18
f 17/1/18 6/1/18 21/1/18
f 17/1/18 21/1/18 30/1/18
f 17/1/13 31/2/19 16/2/12
f 31/2/19 17/1/13 30/1/19
f 28/1/20 33/2/21 32/2/20
f 33/2/21 28/1/20 29/1/21
f 31/2/22 21/1/22 20/2/22
f 21/1/22 31/2/22 30/1/22
f 29/1/23 34/2/23 33/2/23
f 34/2/23 29/1/23 27/1/23
f 26/1/6 8/2/6 35/2/6
f 8/2/6 26/1/6 10/1/6
f 7/1/5 35/2/6 5/2/5
f 35/2/6 7/1/5 26/1/6
f 23/1/24 24/2/17 22/2/24
f 24/2/17 23/1/24 25/1/17
f 2/2/2 28/1/20 32/2/20
f 28/1/20 2/2/2 3/1/3
f 19/2/14 27/1/25 18/1/14
f 27/1/25 19/2/14 34/2/25

