# Created by Kenney (www.kenney.nl)

mtllib path-corner-sharp.mtl

g path-corner-sharp

v -0.375 0 -0.1395 1 1 1
v -0.1570679 0 -0.0906832 1 1 1
v -0.3772126 0.025 -0.1195 1 1 1
v -0.09906423 0.025 -0.05719476 1 1 1
v -0.3708105 0 -0.3632627 1 1 1
v -0.1291894 0 -0.5027627 1 1 1
v -0.35349 0.025 -0.3732627 1 1 1
v -0.14651 0.025 -0.4927627 1 1 1
v 0.106808 0 -0.2060032 1 1 1
v 0.09059376 0.025 -0.194087 1 1 1
v -0.06668945 0 -0.3945095 1 1 1
v -0.08290367 0.025 -0.3825934 1 1 1
v -0.5 0 -0.1395 1 1 1
v -0.5 0.025 -0.1195 1 1 1
v -0.5 0 0.1395 1 1 1
v -0.5 0.025 0.1195 1 1 1
v -0.375 0 0.1395 1 1 1
v -0.3727874 0.025 0.1195 1 1 1
v 0.125 0 0.1955 1 1 1
v -0.125 0 0.1955 1 1 1
v 0.1227874 0.025 0.1755 1 1 1
v -0.1227874 0.025 0.1755 1 1 1
v 0.231808 0 0.01050318 1 1 1
v 0.2553561 0 0.08576432 1 1 1
v 0.2133812 0.025 0.01858702 1 1 1
v 0.2336486 0.025 0.08336283 1 1 1
v -0.2920963 0.025 -0.2669257 1 1 1
v -0.3083105 0 -0.2550095 1 1 1
v 0.2019521 0 0.1782627 1 1 1
v 0.1890186 0.025 0.1606642 1 1 1

vn 0.0856588 0.6270106 -0.7742869
vn -0.302846 0.9368631 -0.1748482
vn -0.5 0 -0.8660254
vn 0.6277227 0.6270106 -0.4613262
vn -1 0 0
vn -0.0856588 0.6270106 0.7742869
vn 0 0.6246951 0.7808689
vn 0.08565877 0.6270106 0.7742869
vn 0.7133815 0.6270106 -0.3129607
vn 0.7485331 0.6579063 0.08280965
vn -0.6762522 0.6246951 0.3904344
vn -0.6277227 0.6270106 0.4613262
vn 0.4459818 0.6579064 0.6068439
vn 0 1 0
vn 0.6762522 0.6246951 -0.3904344
vn 0 0.6246951 -0.7808689

vt 0.96875 0.075
vt 0.96875 0.175

usemtl colormap

f 3/2/1 2/1/2 1/1/1
f 2/1/2 3/2/1 4/2/2
f 7/2/3 6/1/3 5/1/3
f 6/1/3 7/2/3 8/2/3
f 11/1/4 10/2/4 9/1/4
f 10/2/4 11/1/4 12/2/4
f 15/1/5 14/2/5 13/1/5
f 14/2/5 15/1/5 16/2/5
f 18/2/6 15/1/7 17/1/6
f 15/1/7 18/2/6 16/2/7
f 21/2/8 20/1/6 19/1/8
f 20/1/6 21/2/8 22/2/6
f 25/2/9 24/1/10 23/1/9
f 24/1/10 25/2/9 26/2/10
f 5/1/11 27/2/12 7/2/11
f 27/2/12 5/1/11 28/1/12
f 30/2/13 19/1/8 29/1/13
f 19/1/8 30/2/13 21/2/8
f 30/2/13 24/1/10 26/2/10
f 24/1/10 30/2/13 29/1/13
f 27/2/14 8/2/14 7/2/14
f 4/2/14 8/2/14 27/2/14
f 8/2/14 4/2/14 12/2/14
f 4/2/14 10/2/14 12/2/14
f 22/2/14 10/2/14 4/2/14
f 22/2/14 4/2/14 3/2/14
f 21/2/14 10/2/14 22/2/14
f 22/2/14 3/2/14 18/2/14
f 18/2/14 3/2/14 16/2/14
f 16/2/14 3/2/14 14/2/14
f 30/2/14 10/2/14 21/2/14
f 30/2/14 25/2/14 10/2/14
f 25/2/14 30/2/14 26/2/14
f 27/2/12 2/1/2 4/2/2
f 2/1/2 27/2/12 28/1/12
f 22/2/6 17/1/6 20/1/6
f 17/1/6 22/2/6 18/2/6
f 8/2/15 11/1/4 6/1/15
f 11/1/4 8/2/15 12/2/4
f 14/2/16 1/1/1 13/1/16
f 1/1/1 14/2/16 3/2/1
f 10/2/4 23/1/9 9/1/4
f 23/1/9 10/2/4 25/2/9

g path-corner-sharp




usemtl colormap

f 3/2/1 2/1/2 1/1/1
f 2/1/2 3/2/1 4/2/2
f 7/2/3 6/1/3 5/1/3
f 6/1/3 7/2/3 8/2/3
f 11/1/4 10/2/4 9/1/4
f 10/2/4 11/1/4 12/2/4
f 15/1/5 14/2/5 13/1/5
f 14/2/5 15/1/5 16/2/5
f 18/2/6 15/1/7 17/1/6
f 15/1/7 18/2/6 16/2/7
f 21/2/8 20/1/6 19/1/8
f 20/1/6 21/2/8 22/2/6
f 25/2/9 24/1/10 23/1/9
f 24/1/10 25/2/9 26/2/10
f 5/1/11 27/2/12 7/2/11
f 27/2/12 5/1/11 28/1/12
f 30/2/13 19/1/8 29/1/13
f 19/1/8 30/2/13 21/2/8
f 30/2/13 24/1/10 26/2/10
f 24/1/10 30/2/13 29/1/13
f 27/2/14 8/2/14 7/2/14
f 4/2/14 8/2/14 27/2/14
f 8/2/14 4/2/14 12/2/14
f 4/2/14 10/2/14 12/2/14
f 22/2/14 10/2/14 4/2/14
f 22/2/14 4/2/14 3/2/14
f 21/2/14 10/2/14 22/2/14
f 22/2/14 3/2/14 18/2/14
f 18/2/14 3/2/14 16/2/14
f 16/2/14 3/2/14 14/2/14
f 30/2/14 10/2/14 21/2/14
f 30/2/14 25/2/14 10/2/14
f 25/2/14 30/2/14 26/2/14
f 27/2/12 2/1/2 4/2/2
f 2/1/2 27/2/12 28/1/12
f 22/2/6 17/1/6 20/1/6
f 17/1/6 22/2/6 18/2/6
f 8/2/15 11/1/4 6/1/15
f 11/1/4 8/2/15 12/2/4
f 14/2/16 1/1/1 13/1/16
f 1/1/1 14/2/16 3/2/1
f 10/2/4 23/1/9 9/1/4
f 23/1/9 10/2/4 25/2/9

