# Created by Kenney (www.kenney.nl)

mtllib path-square.mtl

g path-square

v 1.775902E-13 5.269513E-18 -0.4 1 1 1
v 0.2828427 5.269513E-18 -0.2828427 1 1 1
v 1.783121E-13 0.025 -0.38 1 1 1
v 0.2687006 0.025 -0.2687006 1 1 1
v 0.5 0.025 0.1195 1 1 1
v 0.3772126 0.025 0.1195 1 1 1
v 0.5 0.025 -0.1195 1 1 1
v 0.3727874 0.025 -0.1195 1 1 1
v 0.3344675 0.025 0.1099251 1 1 1
v 0.3261768 0.025 -0.1299408 1 1 1
v 0.2687006 0.025 0.2687006 1 1 1
v 1.783121E-13 0.025 0.38 1 1 1
v -0.2687006 0.025 -0.2687006 1 1 1
v -0.2687006 0.025 0.2687006 1 1 1
v -0.3261768 0.025 -0.1299408 1 1 1
v -0.3344675 0.025 0.1099251 1 1 1
v -0.3727874 0.025 -0.1195 1 1 1
v -0.3772126 0.025 0.1195 1 1 1
v -0.5 0.025 -0.1195 1 1 1
v -0.5 0.025 0.1195 1 1 1
v -0.2828427 5.269513E-18 -0.2828427 1 1 1
v -0.3388644 2.634756E-18 -0.1475944 1 1 1
v -0.375 -8.014827E-32 -0.1395 1 1 1
v -0.5 -8.014827E-32 -0.1395 1 1 1
v -0.5 -8.014827E-32 0.1395 1 1 1
v -0.375 -8.014827E-32 0.1395 1 1 1
v -0.3450007 2.634756E-18 0.1327801 1 1 1
v 0.375 -8.014827E-32 -0.1395 1 1 1
v 0.5 -8.014827E-32 -0.1395 1 1 1
v 0.3388644 2.634756E-18 -0.1475944 1 1 1
v 0.5 -8.014827E-32 0.1395 1 1 1
v 0.375 -8.014827E-32 0.1395 1 1 1
v 0.3450007 2.634756E-18 0.1327801 1 1 1
v 1.775902E-13 5.269513E-18 0.4 1 1 1
v -0.2828427 5.269513E-18 0.2828427 1 1 1
v 0.2828427 5.269513E-18 0.2828427 1 1 1

vn 0 0.6246951 -0.7808689
vn 0.5521576 0.6246951 -0.5521576
vn 0 1 0
vn -0.5521576 0.6246951 -0.5521576
vn -0.498394 0.6544481 -0.5685959
vn -0.479471 0.6554118 -0.5835606
vn -0.08565878 0.6270106 -0.7742869
vn -1 0 0
vn 0.08565878 0.6270106 0.7742869
vn -0.3401881 0.7085412 0.6182567
vn -0.3188208 0.7091885 0.6288123
vn 0.08565878 0.6270106 -0.7742869
vn 0.498394 0.6544481 -0.5685959
vn 0.479471 0.6554118 -0.5835606
vn 0 0.6246951 0.7808689
vn -0.08565878 0.6270106 0.7742869
vn 0.3401881 0.7085412 0.6182567
vn 0.3188208 0.7091885 0.6288123
vn 1 0 0
vn -0.5521576 0.6246951 0.5521576
vn 0.5521576 0.6246951 0.5521576

vt 0.96875 0.075
vt 0.96875 0.175

usemtl colormap

f 3/2/1 2/1/2 1/1/1
f 2/1/2 3/2/1 4/2/2
f 7/2/3 6/2/3 5/2/3
f 6/2/3 7/2/3 8/2/3
f 6/2/3 8/2/3 9/2/3
f 9/2/3 8/2/3 10/2/3
f 9/2/3 10/2/3 11/2/3
f 11/2/3 10/2/3 4/2/3
f 11/2/3 4/2/3 3/2/3
f 11/2/3 3/2/3 12/2/3
f 12/2/3 3/2/3 13/2/3
f 12/2/3 13/2/3 14/2/3
f 14/2/3 13/2/3 15/2/3
f 14/2/3 15/2/3 16/2/3
f 16/2/3 15/2/3 17/2/3
f 16/2/3 17/2/3 18/2/3
f 18/2/3 17/2/3 19/2/3
f 18/2/3 19/2/3 20/2/3
f 22/1/5 13/2/4 21/1/4
f 13/2/4 22/1/5 15/2/6
f 17/2/7 22/1/5 23/1/7
f 22/1/5 17/2/7 15/2/6
f 25/1/8 19/2/8 24/1/8
f 19/2/8 25/1/8 20/2/8
f 27/1/10 18/2/9 26/1/9
f 18/2/9 27/1/10 16/2/11
f 8/2/12 29/1/1 28/1/12
f 29/1/1 8/2/12 7/2/1
f 30/1/13 8/2/12 28/1/12
f 8/2/12 30/1/13 10/2/14
f 5/2/15 32/1/16 31/1/15
f 32/1/16 5/2/15 6/2/16
f 6/2/16 33/1/17 32/1/16
f 33/1/17 6/2/16 9/2/18
f 18/2/9 25/1/15 26/1/9
f 25/1/15 18/2/9 20/2/15
f 7/2/19 31/1/19 29/1/19
f 31/1/19 7/2/19 5/2/19
f 12/2/15 35/1/20 34/1/15
f 35/1/20 12/2/15 14/2/20
f 27/1/10 14/2/20 16/2/11
f 14/2/20 27/1/10 35/1/20
f 13/2/4 1/1/1 21/1/4
f 1/1/1 13/2/4 3/2/1
f 11/2/21 34/1/15 36/1/21
f 34/1/15 11/2/21 12/2/15
f 4/2/2 30/1/13 2/1/2
f 30/1/13 4/2/2 10/2/14
f 19/2/1 23/1/7 24/1/1
f 23/1/7 19/2/1 17/2/7
f 11/2/21 33/1/17 9/2/18
f 33/1/17 11/2/21 36/1/21

g path-square




usemtl colormap

f 3/2/1 2/1/2 1/1/1
f 2/1/2 3/2/1 4/2/2
f 7/2/3 6/2/3 5/2/3
f 6/2/3 7/2/3 8/2/3
f 6/2/3 8/2/3 9/2/3
f 9/2/3 8/2/3 10/2/3
f 9/2/3 10/2/3 11/2/3
f 11/2/3 10/2/3 4/2/3
f 11/2/3 4/2/3 3/2/3
f 11/2/3 3/2/3 12/2/3
f 12/2/3 3/2/3 13/2/3
f 12/2/3 13/2/3 14/2/3
f 14/2/3 13/2/3 15/2/3
f 14/2/3 15/2/3 16/2/3
f 16/2/3 15/2/3 17/2/3
f 16/2/3 17/2/3 18/2/3
f 18/2/3 17/2/3 19/2/3
f 18/2/3 19/2/3 20/2/3
f 22/1/5 13/2/4 21/1/4
f 13/2/4 22/1/5 15/2/6
f 17/2/7 22/1/5 23/1/7
f 22/1/5 17/2/7 15/2/6
f 25/1/8 19/2/8 24/1/8
f 19/2/8 25/1/8 20/2/8
f 27/1/10 18/2/9 26/1/9
f 18/2/9 27/1/10 16/2/11
f 8/2/12 29/1/1 28/1/12
f 29/1/1 8/2/12 7/2/1
f 30/1/13 8/2/12 28/1/12
f 8/2/12 30/1/13 10/2/14
f 5/2/15 32/1/16 31/1/15
f 32/1/16 5/2/15 6/2/16
f 6/2/16 33/1/17 32/1/16
f 33/1/17 6/2/16 9/2/18
f 18/2/9 25/1/15 26/1/9
f 25/1/15 18/2/9 20/2/15
f 7/2/19 31/1/19 29/1/19
f 31/1/19 7/2/19 5/2/19
f 12/2/15 35/1/20 34/1/15
f 35/1/20 12/2/15 14/2/20
f 27/1/10 14/2/20 16/2/11
f 14/2/20 27/1/10 35/1/20
f 13/2/4 1/1/1 21/1/4
f 1/1/1 13/2/4 3/2/1
f 11/2/21 34/1/15 36/1/21
f 34/1/15 11/2/21 12/2/15
f 4/2/2 30/1/13 2/1/2
f 30/1/13 4/2/2 10/2/14
f 19/2/1 23/1/7 24/1/1
f 23/1/7 19/2/1 17/2/7
f 11/2/21 33/1/17 9/2/18
f 33/1/17 11/2/21 36/1/21

