# Created by Kenney (www.kenney.nl)

mtllib path-intersectionA.mtl

g path-intersectionA

v -0.2920963 0.025 -0.2669257 1 1 1
v -0.35349 0.025 -0.3732627 1 1 1
v -0.1933935 0.025 -0.1596842 1 1 1
v -0.1465099 0.025 -0.4927627 1 1 1
v -0.1272126 0.025 0.0635 1 1 1
v -0.08290367 0.025 -0.3825934 1 1 1
v -0.04375461 0.025 0.0635 1 1 1
v -4.88947E-09 0.025 -0.2925178 1 1 1
v 0.07686992 0.025 -0.006142605 1 1 1
v 0.08290367 0.025 -0.3825934 1 1 1
v 0.1185989 0.025 -0.07841934 1 1 1
v 0.1465099 0.025 -0.4927627 1 1 1
v 0.2920963 0.025 -0.2669257 1 1 1
v 0.35349 0.025 -0.3732627 1 1 1
v -0.3772126 0.025 0.1195 1 1 1
v -0.3727874 0.025 -0.1195 1 1 1
v -0.5 0.025 -0.1195 1 1 1
v -0.5 0.025 0.1195 1 1 1
v 0.3708105 0 -0.3632627 1 1 1
v 0.3083105 0 -0.2550095 1 1 1
v -0.375 0 0.1395 1 1 1
v -0.5 0 0.1395 1 1 1
v 0.1348131 0 -0.06650317 1 1 1
v 0.09151094 0 0.008498411 1 1 1
v 0.06668945 0 -0.3945095 1 1 1
v -5.200656E-09 0 -0.3220509 1 1 1
v -0.06668945 0 -0.3945095 1 1 1
v -0.2315685 0 -0.1716287 1 1 1
v -0.3083105 0 -0.2550095 1 1 1
v -0.5 0 -0.1395 1 1 1
v -0.3708105 0 -0.3632627 1 1 1
v -0.1291894 0 -0.5027627 1 1 1
v 0.1291894 0 -0.5027627 1 1 1
v -0.03839562 0 0.0835 1 1 1
v -0.125 0 0.0835 1 1 1
v -0.375 0 -0.1395 1 1 1

vn 0 1 0
vn 0.6762522 0.6246951 0.3904344
vn 0.6277228 0.6270107 0.4613261
vn 0.08565878 0.6270106 0.7742869
vn 0 0.6246951 0.7808689
vn 0.5445812 0.6378578 0.5445812
vn -0.6277228 0.6270107 -0.4613261
vn 0 0.7632523 -0.6461005
vn 0.6277227 0.6270106 -0.4613262
vn -0.5058177 0.8479983 -0.1582632
vn -0.6277227 0.6270106 0.4613262
vn -1 0 0
vn -0.5 0 -0.8660254
vn -0.6762522 0.6246951 -0.3904344
vn 0.1993306 0.6378578 0.7439117
vn -0.08565878 0.6270106 -0.7742869
vn -0.6762522 0.6246951 0.3904344
vn 0.5 0 -0.8660254
vn 0.6762522 0.6246951 -0.3904344
vn 0 0.6246951 -0.7808689

vt 0.96875 0.175
vt 0.96875 0.075

usemtl colormap

f 3/1/1 2/1/1 1/1/1
f 2/1/1 3/1/1 4/1/1
f 5/1/1 4/1/1 3/1/1
f 5/1/1 6/1/1 4/1/1
f 7/1/1 6/1/1 5/1/1
f 7/1/1 8/1/1 6/1/1
f 9/1/1 8/1/1 7/1/1
f 9/1/1 10/1/1 8/1/1
f 11/1/1 10/1/1 9/1/1
f 11/1/1 12/1/1 10/1/1
f 13/1/1 12/1/1 11/1/1
f 12/1/1 13/1/1 14/1/1
f 5/1/1 3/1/1 15/1/1
f 15/1/1 3/1/1 16/1/1
f 15/1/1 16/1/1 17/1/1
f 15/1/1 17/1/1 18/1/1
f 13/1/3 19/2/2 14/1/2
f 19/2/2 13/1/3 20/2/3
f 15/1/4 22/2/5 21/2/4
f 22/2/5 15/1/4 18/1/5
f 13/1/3 23/2/3 20/2/3
f 23/2/3 13/1/3 11/1/3
f 9/1/6 23/2/3 11/1/3
f 23/2/3 9/1/6 24/2/6
f 25/2/7 8/1/8 10/1/7
f 8/1/8 25/2/7 26/2/8
f 26/2/8 6/1/9 8/1/8
f 6/1/9 26/2/8 27/2/9
f 1/1/11 28/2/10 3/1/10
f 28/2/10 1/1/11 29/2/11
f 22/2/12 17/1/12 30/2/12
f 17/1/12 22/2/12 18/1/12
f 2/1/13 32/2/13 31/2/13
f 32/2/13 2/1/13 4/1/13
f 25/2/7 12/1/14 33/2/14
f 12/1/14 25/2/7 10/1/7
f 7/1/15 35/2/4 34/2/15
f 35/2/4 7/1/15 5/1/4
f 16/1/16 28/2/10 36/2/16
f 28/2/10 16/1/16 3/1/10
f 31/2/17 1/1/11 2/1/17
f 1/1/11 31/2/17 29/2/11
f 9/1/6 34/2/15 24/2/6
f 34/2/15 9/1/6 7/1/15
f 12/1/18 19/2/18 33/2/18
f 19/2/18 12/1/18 14/1/18
f 4/1/19 27/2/9 32/2/19
f 27/2/9 4/1/19 6/1/9
f 5/1/4 21/2/4 35/2/4
f 21/2/4 5/1/4 15/1/4
f 17/1/20 36/2/16 30/2/20
f 36/2/16 17/1/20 16/1/16

g path-intersectionA




usemtl colormap

f 3/1/1 2/1/1 1/1/1
f 2/1/1 3/1/1 4/1/1
f 5/1/1 4/1/1 3/1/1
f 5/1/1 6/1/1 4/1/1
f 7/1/1 6/1/1 5/1/1
f 7/1/1 8/1/1 6/1/1
f 9/1/1 8/1/1 7/1/1
f 9/1/1 10/1/1 8/1/1
f 11/1/1 10/1/1 9/1/1
f 11/1/1 12/1/1 10/1/1
f 13/1/1 12/1/1 11/1/1
f 12/1/1 13/1/1 14/1/1
f 5/1/1 3/1/1 15/1/1
f 15/1/1 3/1/1 16/1/1
f 15/1/1 16/1/1 17/1/1
f 15/1/1 17/1/1 18/1/1
f 13/1/3 19/2/2 14/1/2
f 19/2/2 13/1/3 20/2/3
f 15/1/4 22/2/5 21/2/4
f 22/2/5 15/1/4 18/1/5
f 13/1/3 23/2/3 20/2/3
f 23/2/3 13/1/3 11/1/3
f 9/1/6 23/2/3 11/1/3
f 23/2/3 9/1/6 24/2/6
f 25/2/7 8/1/8 10/1/7
f 8/1/8 25/2/7 26/2/8
f 26/2/8 6/1/9 8/1/8
f 6/1/9 26/2/8 27/2/9
f 1/1/11 28/2/10 3/1/10
f 28/2/10 1/1/11 29/2/11
f 22/2/12 17/1/12 30/2/12
f 17/1/12 22/2/12 18/1/12
f 2/1/13 32/2/13 31/2/13
f 32/2/13 2/1/13 4/1/13
f 25/2/7 12/1/14 33/2/14
f 12/1/14 25/2/7 10/1/7
f 7/1/15 35/2/4 34/2/15
f 35/2/4 7/1/15 5/1/4
f 16/1/16 28/2/10 36/2/16
f 28/2/10 16/1/16 3/1/10
f 31/2/17 1/1/11 2/1/17
f 1/1/11 31/2/17 29/2/11
f 9/1/6 34/2/15 24/2/6
f 34/2/15 9/1/6 7/1/15
f 12/1/18 19/2/18 33/2/18
f 19/2/18 12/1/18 14/1/18
f 4/1/19 27/2/9 32/2/19
f 27/2/9 4/1/19 6/1/9
f 5/1/4 21/2/4 35/2/4
f 21/2/4 5/1/4 15/1/4
f 17/1/20 36/2/16 30/2/20
f 36/2/16 17/1/20 16/1/16

