# Created by Kenney (www.kenney.nl)

mtllib path-intersectionD.mtl

g path-intersectionD

v 0.1272126 0.025 0.0635 1 1 1
v 0.1570679 0 0.09068321 1 1 1
v 0.1185989 0.025 0.07841934 1 1 1
v 0.5 0 0.1395 1 1 1
v 0.375 0 0.1395 1 1 1
v 0.5 0.025 0.1195 1 1 1
v 0.3772126 0.025 0.1195 1 1 1
v -0.106808 0 0.2060032 1 1 1
v -0.125 0 0.1955 1 1 1
v -0.09059376 0.025 0.194087 1 1 1
v -0.1227874 0.025 0.1755 1 1 1
v 0.5 0 -0.1395 1 1 1
v 0.5 0.025 -0.1195 1 1 1
v -0.5 0 -0.1395 1 1 1
v -0.5 0.025 -0.1195 1 1 1
v -0.5 0 0.1395 1 1 1
v -0.5 0.025 0.1195 1 1 1
v 0.35349 0.025 -0.3732627 1 1 1
v 0.3708105 0 -0.3632627 1 1 1
v 0.2920963 0.025 -0.2669257 1 1 1
v 0.3083105 0 -0.2550095 1 1 1
v 0.08290366 0.025 0.3825934 1 1 1
v 0.06668945 0 0.3945095 1 1 1
v 0.1465099 0.025 -0.4927627 1 1 1
v 0.1933935 0.025 -0.1596842 1 1 1
v 0.08290367 0.025 -0.3825934 1 1 1
v 0.3727874 0.025 -0.1195 1 1 1
v -0.09059376 0.025 -0.194087 1 1 1
v 0.1465099 0.025 0.4927627 1 1 1
v 0.2920963 0.025 0.2669257 1 1 1
v 0.35349 0.025 0.3732627 1 1 1
v -0.1227874 0.025 -0.1755 1 1 1
v -0.3727874 0.025 -0.1195 1 1 1
v -0.3727874 0.025 0.1195 1 1 1
v -0.375 0 0.1395 1 1 1
v 0.3083105 0 0.2550095 1 1 1
v 0.1291894 0 0.5027627 1 1 1
v 0.2315685 0 -0.1716287 1 1 1
v 0.375 0 -0.1395 1 1 1
v 0.1291894 0 -0.5027627 1 1 1
v -0.375 0 -0.1395 1 1 1
v -0.125 0 -0.1955 1 1 1
v -0.106808 0 -0.2060032 1 1 1
v 0.3708105 0 0.3632627 1 1 1
v 0.06668945 0 -0.3945095 1 1 1

vn 0.2648712 0.8369841 0.4788536
vn 0.3199125 0.9292692 0.1847015
vn 0.5471351 0.8369841 -0.01004159
vn 0 0.6246951 0.7808689
vn -0.0856588 0.6270106 0.7742869
vn -0.4836934 0.6119621 0.6257341
vn -0.300055 0.611962 0.7317578
vn -0.5016037 0.615218 0.6081944
vn -0.27591 0.6152179 0.7384989
vn 1 0 0
vn -1 0 0
vn 0.6762522 0.6246951 0.3904344
vn 0.6277227 0.6270106 0.4613262
vn -0.6277228 0.6270107 0.4613261
vn 0 1 0
vn -0.08565883 0.6270105 0.774287
vn -0.08565883 0.6270105 0.774287
vn 0.6277228 0.6270107 -0.4613261
vn -0.6762522 0.6246951 0.3904344
vn 0.5058177 0.8479983 -0.1582632
vn 0.0856588 0.6270106 -0.7742869
vn 0 0.6246949 0.7808689
vn 0.5 0 -0.8660254
vn 0 0.6246952 -0.7808687
vn -0.08565877 0.6270108 -0.7742869
vn -0.3000548 0.6119621 -0.7317578
vn -0.4836933 0.6119621 -0.6257342
vn -0.2759099 0.615218 -0.7384988
vn -0.5016037 0.615218 -0.6081945
vn 0.5 0 0.8660254
vn -0.6277227 0.6270106 -0.4613262
vn 0.6762522 0.6246951 -0.3904344
vn -0.6762522 0.6246951 -0.3904344
vn 0 0.6246951 -0.7808689

vt 0.96875 0.175
vt 0.96875 0.075

usemtl colormap

f 3/1/3 2/2/2 1/1/1
f 6/1/4 5/2/5 4/2/4
f 5/2/5 6/1/4 7/1/5
f 10/1/8 9/2/7 8/2/6
f 9/2/7 10/1/8 11/1/9
f 13/1/10 4/2/10 12/2/10
f 4/2/10 13/1/10 6/1/10
f 16/2/11 15/1/11 14/2/11
f 15/1/11 16/2/11 17/1/11
f 20/1/13 19/2/12 18/1/12
f 19/2/12 20/1/13 21/2/13
f 10/1/8 23/2/14 22/1/14
f 23/2/14 10/1/8 8/2/6
f 24/1/15 20/1/15 18/1/15
f 20/1/15 24/1/15 25/1/15
f 1/1/15 25/1/15 24/1/15
f 1/1/15 24/1/15 26/1/15
f 1/1/15 27/1/15 25/1/15
f 7/1/15 27/1/15 1/1/15
f 6/1/15 27/1/15 7/1/15
f 27/1/15 6/1/15 13/1/15
f 1/1/15 26/1/15 3/1/15
f 22/1/15 3/1/15 26/1/15
f 22/1/15 26/1/15 28/1/15
f 29/1/15 3/1/15 22/1/15
f 29/1/15 30/1/15 3/1/15
f 30/1/15 29/1/15 31/1/15
f 22/1/15 28/1/15 10/1/15
f 10/1/15 28/1/15 32/1/15
f 10/1/15 32/1/15 11/1/15
f 11/1/15 32/1/15 33/1/15
f 11/1/15 33/1/15 34/1/15
f 34/1/15 33/1/15 15/1/15
f 34/1/15 15/1/15 17/1/15
f 11/1/9 35/2/16 9/2/7
f 35/2/16 11/1/9 34/1/17
f 7/1/5 2/2/2 5/2/5
f 2/2/2 7/1/5 1/1/1
f 2/2/2 30/1/18 36/2/18
f 30/1/18 2/2/2 3/1/3
f 23/2/14 29/1/19 22/1/14
f 29/1/19 23/2/14 37/2/19
f 25/1/20 39/2/21 38/2/20
f 39/2/21 25/1/20 27/1/21
f 34/1/17 16/2/22 35/2/16
f 16/2/22 34/1/17 17/1/22
f 20/1/13 38/2/20 21/2/13
f 38/2/20 20/1/13 25/1/20
f 24/1/23 19/2/23 40/2/23
f 19/2/23 24/1/23 18/1/23
f 15/1/24 41/2/25 14/2/24
f 41/2/25 15/1/24 33/1/25
f 32/1/28 43/2/27 42/2/26
f 43/2/27 32/1/28 28/1/29
f 31/1/30 37/2/30 44/2/30
f 37/2/30 31/1/30 29/1/30
f 45/2/31 28/1/29 26/1/31
f 28/1/29 45/2/31 43/2/27
f 33/1/25 42/2/26 41/2/25
f 42/2/26 33/1/25 32/1/28
f 30/1/18 44/2/32 36/2/18
f 44/2/32 30/1/18 31/1/32
f 45/2/31 24/1/33 40/2/33
f 24/1/33 45/2/31 26/1/31
f 27/1/21 12/2/34 39/2/21
f 12/2/34 27/1/21 13/1/34

g path-intersectionD




usemtl colormap

f 3/1/3 2/2/2 1/1/1
f 6/1/4 5/2/5 4/2/4
f 5/2/5 6/1/4 7/1/5
f 10/1/8 9/2/7 8/2/6
f 9/2/7 10/1/8 11/1/9
f 13/1/10 4/2/10 12/2/10
f 4/2/10 13/1/10 6/1/10
f 16/2/11 15/1/11 14/2/11
f 15/1/11 16/2/11 17/1/11
f 20/1/13 19/2/12 18/1/12
f 19/2/12 20/1/13 21/2/13
f 10/1/8 23/2/14 22/1/14
f 23/2/14 10/1/8 8/2/6
f 24/1/15 20/1/15 18/1/15
f 20/1/15 24/1/15 25/1/15
f 1/1/15 25/1/15 24/1/15
f 1/1/15 24/1/15 26/1/15
f 1/1/15 27/1/15 25/1/15
f 7/1/15 27/1/15 1/1/15
f 6/1/15 27/1/15 7/1/15
f 27/1/15 6/1/15 13/1/15
f 1/1/15 26/1/15 3/1/15
f 22/1/15 3/1/15 26/1/15
f 22/1/15 26/1/15 28/1/15
f 29/1/15 3/1/15 22/1/15
f 29/1/15 30/1/15 3/1/15
f 30/1/15 29/1/15 31/1/15
f 22/1/15 28/1/15 10/1/15
f 10/1/15 28/1/15 32/1/15
f 10/1/15 32/1/15 11/1/15
f 11/1/15 32/1/15 33/1/15
f 11/1/15 33/1/15 34/1/15
f 34/1/15 33/1/15 15/1/15
f 34/1/15 15/1/15 17/1/15
f 11/1/9 35/2/16 9/2/7
f 35/2/16 11/1/9 34/1/17
f 7/1/5 2/2/2 5/2/5
f 2/2/2 7/1/5 1/1/1
f 2/2/2 30/1/18 36/2/18
f 30/1/18 2/2/2 3/1/3
f 23/2/14 29/1/19 22/1/14
f 29/1/19 23/2/14 37/2/19
f 25/1/20 39/2/21 38/2/20
f 39/2/21 25/1/20 27/1/21
f 34/1/17 16/2/22 35/2/16
f 16/2/22 34/1/17 17/1/22
f 20/1/13 38/2/20 21/2/13
f 38/2/20 20/1/13 25/1/20
f 24/1/23 19/2/23 40/2/23
f 19/2/23 24/1/23 18/1/23
f 15/1/24 41/2/25 14/2/24
f 41/2/25 15/1/24 33/1/25
f 32/1/28 43/2/27 42/2/26
f 43/2/27 32/1/28 28/1/29
f 31/1/30 37/2/30 44/2/30
f 37/2/30 31/1/30 29/1/30
f 45/2/31 28/1/29 26/1/31
f 28/1/29 45/2/31 43/2/27
f 33/1/25 42/2/26 41/2/25
f 42/2/26 33/1/25 32/1/28
f 30/1/18 44/2/32 36/2/18
f 44/2/32 30/1/18 31/1/32
f 45/2/31 24/1/33 40/2/33
f 24/1/33 45/2/31 26/1/31
f 27/1/21 12/2/34 39/2/21
f 12/2/34 27/1/21 13/1/34

