# Created by Kenney (www.kenney.nl)

mtllib river-corner.mtl

g river-corner

v -0.1227874 0.1625 -0.1755 1 1 1
v -0.3727874 0.1625 -0.1195 1 1 1
v -0.125 0.2 -0.1955 1 1 1
v -0.375 0.2 -0.1395 1 1 1
v -0.09059376 0.1625 -0.194087 1 1 1
v -0.106808 0.2 -0.2060032 1 1 1
v -0.04375461 0.1625 0.06349999 1 1 1
v 0.0768699 0.1625 -0.006142601 1 1 1
v -0.03839563 0.2 0.08350001 1 1 1
v 0.09151092 0.2 0.008498415 1 1 1
v 0.1291894 0.2 -0.5027627 1 1 1
v 0.1465099 0.1625 -0.4927627 1 1 1
v 0.06668945 0.2 -0.3945095 1 1 1
v 0.08290365 0.1625 -0.3825934 1 1 1
v -0.1272126 0.1625 0.06349999 1 1 1
v -0.125 0.2 0.08350001 1 1 1
v 0.2920963 0.1625 -0.2669257 1 1 1
v 0.3083105 0.2 -0.2550095 1 1 1
v 0.1185989 0.1625 -0.07841934 1 1 1
v 0.1348131 0.2 -0.06650317 1 1 1
v 0.35349 0.1625 -0.3732627 1 1 1
v 0.3708105 0.2 -0.3632627 1 1 1
v -0.5 0.1625 0.1195 1 1 1
v -0.3772126 0.1625 0.1195 1 1 1
v -0.5 0.2 0.1395 1 1 1
v -0.375 0.2 0.1395 1 1 1
v -0.5 0.2 -0.2140876 1 1 1
v -0.3832516 0.2 -0.2140876 1 1 1
v -0.5 0.2 -0.1395 1 1 1
v -0.1539712 0.2 -0.2648998 1 1 1
v -0.1533375 0.2 -0.2655883 1 1 1
v -0.1524243 0.2 -0.2657929 1 1 1
v 0.006220493 0.2 -0.4389494 1 1 1
v 0.06459472 0.2 -0.5400565 1 1 1
v -0.5 0.1625 -0.1195 1 1 1
v 0.4354053 0.2 -0.3259689 1 1 1
v 0.3687795 0.2 -0.2105697 1 1 1
v 0.195282 0.2 -0.02206333 1 1 1
v 0.1461128 0.2 0.06310031 1 1 1
v -0.01840995 0.2 0.1580876 1 1 1
v -0.1167484 0.2 0.1580876 1 1 1
v -0.3667485 0.2 0.2140875 1 1 1
v -0.5 0.2 0.2140875 1 1 1
v 0.5 0 -0.2886751 1 1 1
v 0.5 0.1 -0.2886751 1 1 1
v 0.35349 3.180766E-18 -0.3732627 1 1 1
v 0.35349 0.1 -0.3732627 1 1 1
v 0.5 0 0.2886751 1 1 1
v 3.67224E-09 0 0.5773503 1 1 1
v 0.5 0.1 0.2886751 1 1 1
v 3.67224E-09 0.1 0.5773503 1 1 1
v 0.1465099 2.634756E-18 -0.4927627 1 1 1
v 3.671985E-09 0 -0.5773503 1 1 1
v -0.5 0 0.2886751 1 1 1
v -0.5 0 -0.2886751 1 1 1
v -0.5 2.634756E-18 0.1195 1 1 1
v -0.5 3.180766E-18 -0.1195 1 1 1
v -0.5 0.1 0.2886751 1 1 1
v 3.671985E-09 0.1 -0.5773503 1 1 1
v 0.1465099 0.1 -0.4927627 1 1 1
v -0.5 0.1 0.1195 1 1 1
v -0.5 0.1 -0.2886751 1 1 1
v -0.5 0.1 -0.1195 1 1 1
v 0.1465099 2.634756E-18 -0.4927627 1 1 1
v 0.1465099 0.1 -0.4927627 1 1 1
v 0.1185989 0.1625 -0.07841933 1 1 1
v 0.08290365 0.1625 -0.3825934 1 1 1
v 0.07686991 0.1625 -0.006142601 1 1 1
v -0.04375462 0.1625 0.06350002 1 1 1
v -0.1272126 0.1625 0.06350002 1 1 1
v -0.1227874 0.1625 -0.1755 1 1 1
v -0.3772126 0.1625 0.1195 1 1 1
v -0.5 0.1625 0.1195 1 1 1
v -0.5 2.634756E-18 0.1195 1 1 1
v -0.5 0.1 0.1195 1 1 1
v -0.1533375 0.2 -0.2655883 1 1 1
v -0.1524243 0.2 -0.2657929 1 1 1
v -0.1539712 0.2 -0.2648997 1 1 1
v 0.5 0.2 -0.2886751 1 1 1
v 0.5 0.2 0.2886751 1 1 1
v 6.083658E-09 0.2 0.5773503 1 1 1
v 0.4354053 0.2 -0.3259689 1 1 1
v 0.3687795 0.2 -0.2105697 1 1 1
v 0.1952821 0.2 -0.02206333 1 1 1
v 0.1461128 0.2 0.06310029 1 1 1
v -0.01840995 0.2 0.1580876 1 1 1
v -0.1110029 0.2 0.5132627 1 1 1
v -0.1167484 0.2 0.1580876 1 1 1
v -0.5 0.2 0.2886751 1 1 1
v -0.3667485 0.2 0.2140876 1 1 1
v -0.5 0.2 0.2140876 1 1 1
v -0.5 0.1625 0.1195 1 1 1
v -0.5 0.2 0.1395 1 1 1
v 6.083403E-09 0.1 -0.5773503 1 1 1
v 6.083403E-09 0.2 -0.5773503 1 1 1
v 0.1465099 0.1625 -0.4927627 1 1 1
v 0.06459472 0.2 -0.5400565 1 1 1
v 0.1291894 0.2 -0.5027627 1 1 1
v 6.083658E-09 0.1 0.5773503 1 1 1
v -0.5 0.2 -0.2886751 1 1 1
v 0.006220496 0.2 -0.4389494 1 1 1
v -0.3832516 0.2 -0.2140876 1 1 1
v -0.5 0.2 -0.2140876 1 1 1
v -0.5 0.2 -0.1395 1 1 1
v 0.3708105 0.2 -0.3632627 1 1 1

vn 0.3133164 0.4612201 0.8301258
vn 0.09689091 0.4728189 0.8758165
vn 0.3333445 0.4589104 0.8235793
vn 0.5622518 0.4612201 0.6864029
vn 0.5465683 0.4589103 0.7004744
vn -0.2265756 0.4833613 -0.8455917
vn -0.6190161 0.4833613 -0.6190161
vn 0.7641401 0.4705882 0.4411765
vn 0.7100338 0.4728189 0.5218183
vn -0.09689091 0.4728189 -0.8758165
vn -0.7100338 0.4728189 -0.5218183
vn -0.7641401 0.4705882 -0.4411765
vn 0 0.4705883 -0.8823529
vn 0 1 0
vn 0 0.4705883 0.8823529
vn 0.5 0 -0.8660254
vn 0.5 0 0.8660254
vn 0 -1 0
vn 1 0 0
vn -0.5 0 0.8660254
vn -1 0 0
vn -0.5 0 -0.8660254
vn 0.5000001 0 -0.8660254

vt 0.90625 0.125
vt 0.15625 0.125
vt 0.28125 0.125
vt 0.34375 0.175
vt 0.34375 0.075
vt 0.34375 0.1375

usemtl colormap

f 3/1/3 2/1/2 1/1/1
f 2/1/2 3/1/3 4/1/2
f 6/1/5 1/1/1 5/1/4
f 1/1/1 6/1/5 3/1/3
f 9/1/6 8/1/7 7/1/6
f 8/1/7 9/1/6 10/1/7
f 13/1/9 12/1/8 11/1/8
f 12/1/8 13/1/9 14/1/9
f 16/1/10 7/1/6 15/1/10
f 7/1/6 16/1/10 9/1/6
f 19/1/11 18/1/11 17/1/11
f 18/1/11 19/1/11 20/1/11
f 17/1/11 22/1/12 21/1/12
f 22/1/12 17/1/11 18/1/11
f 8/1/7 20/1/11 19/1/11
f 20/1/11 8/1/7 10/1/7
f 25/1/13 24/1/10 23/1/13
f 24/1/10 25/1/13 26/1/10
f 29/1/14 28/1/14 27/1/14
f 4/1/14 28/1/14 29/1/14
f 30/1/14 28/1/14 4/1/14
f 28/1/14 30/1/14 31/1/14
f 3/1/14 30/1/14 4/1/14
f 30/1/14 3/1/14 32/1/14
f 32/1/14 33/1/14 31/1/14
f 6/1/14 32/1/14 3/1/14
f 6/1/14 33/1/14 32/1/14
f 6/1/14 34/1/14 33/1/14
f 13/1/14 34/1/14 6/1/14
f 34/1/14 13/1/14 11/1/14
f 4/1/2 35/1/15 2/1/2
f 35/1/15 4/1/2 29/1/15
f 22/1/14 37/1/14 36/1/14
f 37/1/14 22/1/14 18/1/14
f 37/1/14 18/1/14 38/1/14
f 38/1/14 18/1/14 20/1/14
f 38/1/14 20/1/14 39/1/14
f 39/1/14 20/1/14 10/1/14
f 39/1/14 10/1/14 40/1/14
f 40/1/14 10/1/14 9/1/14
f 40/1/14 9/1/14 41/1/14
f 41/1/14 9/1/14 16/1/14
f 41/1/14 16/1/14 42/1/14
f 42/1/14 16/1/14 26/1/14
f 42/1/14 26/1/14 43/1/14
f 43/1/14 26/1/14 25/1/14
f 26/1/10 15/1/10 24/1/10
f 15/1/10 26/1/10 16/1/10
f 6/1/5 14/1/9 13/1/9
f 14/1/9 6/1/5 5/1/4
f 46/1/16 45/1/16 44/1/16
f 45/1/16 46/1/16 47/1/16
f 50/1/17 49/1/17 48/1/17
f 49/1/17 50/1/17 51/1/17
f 49/1/18 44/1/18 48/1/18
f 44/1/18 49/1/18 46/1/18
f 46/1/18 49/1/18 52/1/18
f 52/1/18 49/1/18 53/1/18
f 53/1/18 49/1/18 54/1/18
f 53/1/18 54/1/18 55/1/18
f 55/1/18 54/1/18 56/1/18
f 55/1/18 56/1/18 57/1/18
f 50/1/19 44/1/19 45/1/19
f 44/1/19 50/1/19 48/1/19
f 51/1/20 54/1/20 49/1/20
f 54/1/20 51/1/20 58/1/20
f 59/1/16 52/1/16 53/1/16
f 52/1/16 59/1/16 60/1/16
f 54/1/21 61/1/21 56/1/21
f 61/1/21 54/1/21 58/1/21
f 62/1/22 53/1/22 55/1/22
f 53/1/22 62/1/22 59/1/22
f 57/1/21 62/1/21 55/1/21
f 62/1/21 57/1/21 63/1/21
f 65/2/16 46/2/16 64/2/16
f 46/2/16 65/2/16 47/2/16
f 47/2/16 65/2/16 12/2/16
f 47/2/16 12/2/16 21/2/16
f 12/2/14 17/2/14 21/2/14
f 17/2/14 12/2/14 66/2/14
f 66/2/14 12/2/14 67/2/14
f 66/2/14 67/2/14 68/2/14
f 68/2/14 67/2/14 5/2/14
f 68/2/14 5/2/14 69/2/14
f 69/2/14 5/2/14 70/2/14
f 70/2/14 5/2/14 71/2/14
f 70/2/14 71/2/14 2/2/14
f 70/2/14 2/2/14 72/2/14
f 72/2/14 2/2/14 35/2/14
f 72/2/14 35/2/14 73/2/14
f 74/2/21 63/2/21 57/2/21
f 63/2/21 74/2/21 35/2/21
f 35/2/21 74/2/21 73/2/21
f 73/2/21 74/2/21 75/2/21
f 78/3/14 77/3/14 76/3/14
f 80/4/19 45/5/19 79/4/19
f 45/5/19 80/4/19 50/5/19
f 79/4/14 81/4/14 80/4/14
f 81/4/14 79/4/14 82/4/14
f 81/4/14 82/4/14 83/4/14
f 81/4/14 83/4/14 84/4/14
f 81/4/14 84/4/14 85/4/14
f 81/4/14 85/4/14 86/4/14
f 81/4/14 86/4/14 87/4/14
f 87/4/14 86/4/14 88/4/14
f 87/4/14 88/4/14 89/4/14
f 89/4/14 88/4/14 90/4/14
f 89/4/14 90/4/14 91/4/14
f 58/5/21 92/6/21 61/5/21
f 92/6/21 58/5/21 93/4/21
f 93/4/21 58/5/21 91/4/21
f 91/4/21 58/5/21 89/4/21
f 95/4/23 60/5/23 94/5/23
f 60/5/23 95/4/23 96/6/23
f 96/6/23 95/4/23 97/4/23
f 98/4/23 96/6/23 97/4/23
f 80/4/17 99/5/17 50/5/17
f 99/5/17 80/4/17 81/4/17
f 100/4/22 94/5/22 62/5/22
f 94/5/22 100/4/22 95/4/22
f 95/4/14 101/4/14 97/4/14
f 101/4/14 95/4/14 76/4/14
f 76/4/14 95/4/14 100/4/14
f 76/4/14 100/4/14 102/4/14
f 102/4/14 100/4/14 103/4/14
f 81/4/20 58/5/20 99/5/20
f 58/5/20 81/4/20 87/4/20
f 89/4/20 58/5/20 87/4/20
f 63/5/21 100/4/21 62/5/21
f 100/4/21 63/5/21 103/4/21
f 103/4/21 63/5/21 104/4/21
f 104/4/21 63/5/21 35/6/21
f 21/6/16 45/5/16 47/5/16
f 45/5/16 21/6/16 79/4/16
f 79/4/16 21/6/16 82/4/16
f 82/4/16 21/6/16 105/4/16

g river-corner




usemtl colormap

f 3/1/3 2/1/2 1/1/1
f 2/1/2 3/1/3 4/1/2
f 6/1/5 1/1/1 5/1/4
f 1/1/1 6/1/5 3/1/3
f 9/1/6 8/1/7 7/1/6
f 8/1/7 9/1/6 10/1/7
f 13/1/9 12/1/8 11/1/8
f 12/1/8 13/1/9 14/1/9
f 16/1/10 7/1/6 15/1/10
f 7/1/6 16/1/10 9/1/6
f 19/1/11 18/1/11 17/1/11
f 18/1/11 19/1/11 20/1/11
f 17/1/11 22/1/12 21/1/12
f 22/1/12 17/1/11 18/1/11
f 8/1/7 20/1/11 19/1/11
f 20/1/11 8/1/7 10/1/7
f 25/1/13 24/1/10 23/1/13
f 24/1/10 25/1/13 26/1/10
f 29/1/14 28/1/14 27/1/14
f 4/1/14 28/1/14 29/1/14
f 30/1/14 28/1/14 4/1/14
f 28/1/14 30/1/14 31/1/14
f 3/1/14 30/1/14 4/1/14
f 30/1/14 3/1/14 32/1/14
f 32/1/14 33/1/14 31/1/14
f 6/1/14 32/1/14 3/1/14
f 6/1/14 33/1/14 32/1/14
f 6/1/14 34/1/14 33/1/14
f 13/1/14 34/1/14 6/1/14
f 34/1/14 13/1/14 11/1/14
f 4/1/2 35/1/15 2/1/2
f 35/1/15 4/1/2 29/1/15
f 22/1/14 37/1/14 36/1/14
f 37/1/14 22/1/14 18/1/14
f 37/1/14 18/1/14 38/1/14
f 38/1/14 18/1/14 20/1/14
f 38/1/14 20/1/14 39/1/14
f 39/1/14 20/1/14 10/1/14
f 39/1/14 10/1/14 40/1/14
f 40/1/14 10/1/14 9/1/14
f 40/1/14 9/1/14 41/1/14
f 41/1/14 9/1/14 16/1/14
f 41/1/14 16/1/14 42/1/14
f 42/1/14 16/1/14 26/1/14
f 42/1/14 26/1/14 43/1/14
f 43/1/14 26/1/14 25/1/14
f 26/1/10 15/1/10 24/1/10
f 15/1/10 26/1/10 16/1/10
f 6/1/5 14/1/9 13/1/9
f 14/1/9 6/1/5 5/1/4
f 46/1/16 45/1/16 44/1/16
f 45/1/16 46/1/16 47/1/16
f 50/1/17 49/1/17 48/1/17
f 49/1/17 50/1/17 51/1/17
f 49/1/18 44/1/18 48/1/18
f 44/1/18 49/1/18 46/1/18
f 46/1/18 49/1/18 52/1/18
f 52/1/18 49/1/18 53/1/18
f 53/1/18 49/1/18 54/1/18
f 53/1/18 54/1/18 55/1/18
f 55/1/18 54/1/18 56/1/18
f 55/1/18 56/1/18 57/1/18
f 50/1/19 44/1/19 45/1/19
f 44/1/19 50/1/19 48/1/19
f 51/1/20 54/1/20 49/1/20
f 54/1/20 51/1/20 58/1/20
f 59/1/16 52/1/16 53/1/16
f 52/1/16 59/1/16 60/1/16
f 54/1/21 61/1/21 56/1/21
f 61/1/21 54/1/21 58/1/21
f 62/1/22 53/1/22 55/1/22
f 53/1/22 62/1/22 59/1/22
f 57/1/21 62/1/21 55/1/21
f 62/1/21 57/1/21 63/1/21
f 65/2/16 46/2/16 64/2/16
f 46/2/16 65/2/16 47/2/16
f 47/2/16 65/2/16 12/2/16
f 47/2/16 12/2/16 21/2/16
f 12/2/14 17/2/14 21/2/14
f 17/2/14 12/2/14 66/2/14
f 66/2/14 12/2/14 67/2/14
f 66/2/14 67/2/14 68/2/14
f 68/2/14 67/2/14 5/2/14
f 68/2/14 5/2/14 69/2/14
f 69/2/14 5/2/14 70/2/14
f 70/2/14 5/2/14 71/2/14
f 70/2/14 71/2/14 2/2/14
f 70/2/14 2/2/14 72/2/14
f 72/2/14 2/2/14 35/2/14
f 72/2/14 35/2/14 73/2/14
f 74/2/21 63/2/21 57/2/21
f 63/2/21 74/2/21 35/2/21
f 35/2/21 74/2/21 73/2/21
f 73/2/21 74/2/21 75/2/21
f 78/3/14 77/3/14 76/3/14
f 80/4/19 45/5/19 79/4/19
f 45/5/19 80/4/19 50/5/19
f 79/4/14 81/4/14 80/4/14
f 81/4/14 79/4/14 82/4/14
f 81/4/14 82/4/14 83/4/14
f 81/4/14 83/4/14 84/4/14
f 81/4/14 84/4/14 85/4/14
f 81/4/14 85/4/14 86/4/14
f 81/4/14 86/4/14 87/4/14
f 87/4/14 86/4/14 88/4/14
f 87/4/14 88/4/14 89/4/14
f 89/4/14 88/4/14 90/4/14
f 89/4/14 90/4/14 91/4/14
f 58/5/21 92/6/21 61/5/21
f 92/6/21 58/5/21 93/4/21
f 93/4/21 58/5/21 91/4/21
f 91/4/21 58/5/21 89/4/21
f 95/4/23 60/5/23 94/5/23
f 60/5/23 95/4/23 96/6/23
f 96/6/23 95/4/23 97/4/23
f 98/4/23 96/6/23 97/4/23
f 80/4/17 99/5/17 50/5/17
f 99/5/17 80/4/17 81/4/17
f 100/4/22 94/5/22 62/5/22
f 94/5/22 100/4/22 95/4/22
f 95/4/14 101/4/14 97/4/14
f 101/4/14 95/4/14 76/4/14
f 76/4/14 95/4/14 100/4/14
f 76/4/14 100/4/14 102/4/14
f 102/4/14 100/4/14 103/4/14
f 81/4/20 58/5/20 99/5/20
f 58/5/20 81/4/20 87/4/20
f 89/4/20 58/5/20 87/4/20
f 63/5/21 100/4/21 62/5/21
f 100/4/21 63/5/21 103/4/21
f 103/4/21 63/5/21 104/4/21
f 104/4/21 63/5/21 35/6/21
f 21/6/16 45/5/16 47/5/16
f 45/5/16 21/6/16 79/4/16
f 79/4/16 21/6/16 82/4/16
f 82/4/16 21/6/16 105/4/16

