# Created by Kenney (www.kenney.nl)

mtllib river-intersectionA.mtl

g river-intersectionA

v 0.35349 0.1625 -0.3732627 1 1 1
v 0.3708105 0.2 -0.3632627 1 1 1
v 0.2920963 0.1625 -0.2669257 1 1 1
v 0.3083105 0.2 -0.2550095 1 1 1
v -0.3708105 0.2 -0.3632627 1 1 1
v -0.3708105 0.2 -0.2140876 1 1 1
v -0.4354053 0.2 -0.3259689 1 1 1
v -0.3083105 0.2 -0.2550095 1 1 1
v -0.375 0.2 -0.1395 1 1 1
v -0.2315685 0.2 -0.1716287 1 1 1
v -0.5 0.2 -0.2140876 1 1 1
v -0.5 0.2 -0.1395 1 1 1
v 0.1291894 0.2 -0.5027627 1 1 1
v 0.06668945 0.2 -0.3945095 1 1 1
v 0.06459472 0.2 -0.5400565 1 1 1
v 0 0.2 -0.3220509 1 1 1
v 0 0.2 -0.4281751 1 1 1
v -0.06668945 0.2 -0.3945095 1 1 1
v -0.06459473 0.2 -0.5400565 1 1 1
v -0.1291894 0.2 -0.5027627 1 1 1
v 0.1185989 0.1625 -0.07841932 1 1 1
v 0.1348131 0.2 -0.06650317 1 1 1
v 0.4354053 0.2 -0.3259689 1 1 1
v 0.3687795 0.2 -0.2105697 1 1 1
v 0.195282 0.2 -0.02206333 1 1 1
v 0.1461128 0.2 0.06310031 1 1 1
v 0.09151094 0.2 0.008498415 1 1 1
v -0.01840995 0.2 0.1580876 1 1 1
v -0.03839562 0.2 0.08350001 1 1 1
v -0.1167484 0.2 0.1580876 1 1 1
v -0.125 0.2 0.08350001 1 1 1
v -0.3667485 0.2 0.2140875 1 1 1
v -0.375 0.2 0.1395 1 1 1
v -0.5 0.2 0.2140875 1 1 1
v -0.5 0.2 0.1395 1 1 1
v -0.3772126 0.1625 0.1195 1 1 1
v -0.1272126 0.1625 0.06350002 1 1 1
v -0.5 0.1625 0.1195 1 1 1
v 0.07686991 0.1625 -0.006142601 1 1 1
v -0.0437546 0.1625 0.06350002 1 1 1
v -0.08290366 0.1625 -0.3825933 1 1 1
v 0 0.1625 -0.2925178 1 1 1
v 0.08290367 0.1625 -0.3825934 1 1 1
v -0.1465099 0.1625 -0.4927627 1 1 1
v -0.3727874 0.1625 -0.1195 1 1 1
v -0.5 0.1625 -0.1195 1 1 1
v -0.1933935 0.1625 -0.1596842 1 1 1
v 0.1465099 0.1625 -0.4927627 1 1 1
v -0.35349 0.1625 -0.3732627 1 1 1
v -0.2920963 0.1625 -0.2669257 1 1 1
v 0.5 0 0.2886751 1 1 1
v 1.277783E-13 0 0.5773503 1 1 1
v 0.5 0.1 0.2886751 1 1 1
v 1.277783E-13 0.1 0.5773503 1 1 1
v -0.5 0 -0.2886751 1 1 1
v -0.35349 3.180766E-18 -0.3732627 1 1 1
v -0.5 0.1 -0.2886751 1 1 1
v -0.35349 0.1 -0.3732627 1 1 1
v -0.5 2.634756E-18 0.1195 1 1 1
v -0.5 0.1 0.1195 1 1 1
v -0.5 0 0.2886751 1 1 1
v -0.5 0.1 0.2886751 1 1 1
v -1.277783E-13 0 -0.5773503 1 1 1
v 0.14651 3.180766E-18 -0.4927627 1 1 1
v -1.277783E-13 0.1 -0.5773503 1 1 1
v 0.1465099 0.1 -0.4927627 1 1 1
v -0.5 2.57405E-17 -0.1195 1 1 1
v -0.5 0.1 -0.1195 1 1 1
v -0.1465099 2.634756E-18 -0.4927627 1 1 1
v -0.1465099 0.1 -0.4927627 1 1 1
v 0.5 0 -0.2886751 1 1 1
v 0.35349 2.634756E-18 -0.3732627 1 1 1
v 0.5 0.1 -0.2886751 1 1 1
v 0.35349 0.1 -0.3732627 1 1 1
v -0.35349 0.1625 -0.3732627 1 1 1
v -0.1933935 0.1625 -0.1596842 1 1 1
v -0.08290365 0.1625 -0.3825934 1 1 1
v -0.0437546 0.1625 0.06350002 1 1 1
v 0 0.1625 -0.2925179 1 1 1
v 0.07686993 0.1625 -0.006142601 1 1 1
v 0.08290366 0.1625 -0.3825934 1 1 1
v 0.1185989 0.1625 -0.07841933 1 1 1
v 0.14651 0.1625 -0.4927627 1 1 1
v 0.2920963 0.1625 -0.2669257 1 1 1
v 0.3534901 0.1625 -0.3732627 1 1 1
v -0.3772126 0.1625 0.1195 1 1 1
v -0.3727874 0.1625 -0.1195 1 1 1
v -0.5 2.57405E-17 -0.1195 1 1 1
v -0.5 0.1 -0.1195 1 1 1
v -0.35349 3.180766E-18 -0.3732627 1 1 1
v -0.35349 0.1 -0.3732627 1 1 1
v 0.3534901 2.634756E-18 -0.3732627 1 1 1
v 0.3534901 0.1 -0.3732627 1 1 1
v 0.14651 3.180766E-18 -0.4927627 1 1 1
v 0.1465099 0.1 -0.4927627 1 1 1
v 0.14651 0.1625 -0.4927627 1 1 1
v -1.277783E-13 0.2 -0.5773503 1 1 1
v 0.06459473 0.2 -0.5400565 1 1 1
v 0.1291894 0.2 -0.5027627 1 1 1
v -0.5 0.2 -0.2886751 1 1 1
v -0.4354053 0.2 -0.3259689 1 1 1
v -0.3708105 0.2 -0.3632627 1 1 1
v -0.06459473 0.2 -0.5400565 1 1 1
v -0.1291894 0.2 -0.5027627 1 1 1
v 0.5 0.2 -0.2886751 1 1 1
v 0.5 0.2 0.2886751 1 1 1
v 2.173675E-12 0.2 -0.4281751 1 1 1
v 1.277783E-13 0.2 0.5773503 1 1 1
v -0.5 0.2 -0.2140876 1 1 1
v -0.5 0.2 -0.1395 1 1 1
v -0.5 0.1625 -0.1195 1 1 1
v -0.5 0.2 0.1395 1 1 1
v -0.5 0.2 0.2140876 1 1 1
v -0.5 0.2 0.2886751 1 1 1
v 0.4354053 0.2 -0.3259689 1 1 1
v 0.3708105 0.2 -0.3632627 1 1 1
v -0.1110029 0.2 0.5132627 1 1 1
v -0.3708105 0.2 -0.2140876 1 1 1
v 0.3687795 0.2 -0.2105697 1 1 1
v 0.1952821 0.2 -0.02206333 1 1 1
v 0.1461128 0.2 0.0631003 1 1 1
v -0.01840994 0.2 0.1580876 1 1 1
v -0.1167484 0.2 0.1580876 1 1 1
v -0.3667484 0.2 0.2140876 1 1 1

vn -0.7641401 0.4705882 -0.4411765
vn -0.7100338 0.4728189 -0.5218183
vn 0 1 0
vn -0.09689091 0.4728189 -0.8758165
vn 0 0.4705883 -0.8823529
vn -0.6190161 0.4833613 -0.6190161
vn -0.2265756 0.4833613 -0.8455917
vn -0.7100338 0.4728189 0.5218183
vn 0 0.6187116 0.7856181
vn 0.7100338 0.4728189 0.5218183
vn -0.7641401 0.4705882 0.4411765
vn 0.09689091 0.4728189 0.8758165
vn 0 0.4705883 0.8823529
vn 0.6527364 0.7295372 0.204232
vn 0.7641401 0.4705882 0.4411765
vn 0.7641401 0.4705882 -0.4411765
vn 0.7100338 0.4728189 -0.5218183
vn 0.5 0 0.8660254
vn -0.5 0 -0.8660254
vn -1 0 0
vn 0.5 0 -0.8660254
vn -0.5000001 0 -0.8660254
vn 0 -1 0
vn -0.5 0 0.8660254
vn 1 0 0
vn -0.5 0 -0.8660254
vn 0.5000001 0 -0.8660254
vn -0.4999999 0 -0.8660255
vn -0.5000001 0 -0.8660253
vn 0.5 0 -0.8660254

vt 0.90625 0.125
vt 0.15625 0.125
vt 0.34375 0.075
vt 0.34375 0.1375
vt 0.34375 0.175

usemtl colormap

f 3/1/2 2/1/1 1/1/1
f 2/1/1 3/1/2 4/1/2
f 7/1/3 6/1/3 5/1/3
f 6/1/3 8/1/3 5/1/3
f 9/1/3 8/1/3 6/1/3
f 8/1/3 9/1/3 10/1/3
f 9/1/3 6/1/3 11/1/3
f 9/1/3 11/1/3 12/1/3
f 15/1/3 14/1/3 13/1/3
f 14/1/3 15/1/3 16/1/3
f 16/1/3 15/1/3 17/1/3
f 16/1/3 17/1/3 18/1/3
f 18/1/3 17/1/3 19/1/3
f 18/1/3 19/1/3 20/1/3
f 21/1/2 4/1/2 3/1/2
f 4/1/2 21/1/2 22/1/2
f 2/1/3 24/1/3 23/1/3
f 24/1/3 2/1/3 4/1/3
f 24/1/3 4/1/3 25/1/3
f 25/1/3 4/1/3 22/1/3
f 25/1/3 22/1/3 26/1/3
f 26/1/3 22/1/3 27/1/3
f 26/1/3 27/1/3 28/1/3
f 28/1/3 27/1/3 29/1/3
f 28/1/3 29/1/3 30/1/3
f 30/1/3 29/1/3 31/1/3
f 30/1/3 31/1/3 32/1/3
f 32/1/3 31/1/3 33/1/3
f 32/1/3 33/1/3 34/1/3
f 34/1/3 33/1/3 35/1/3
f 33/1/4 37/1/4 36/1/4
f 37/1/4 33/1/4 31/1/4
f 35/1/5 36/1/4 38/1/5
f 36/1/4 35/1/5 33/1/4
f 39/1/6 22/1/2 21/1/2
f 22/1/2 39/1/6 27/1/6
f 31/1/4 40/1/7 37/1/4
f 40/1/7 31/1/4 29/1/7
f 41/1/8 16/1/9 18/1/8
f 16/1/9 41/1/8 42/1/9
f 16/1/9 43/1/10 14/1/10
f 43/1/10 16/1/9 42/1/9
f 44/1/11 18/1/8 20/1/11
f 18/1/8 44/1/11 41/1/8
f 9/1/12 46/1/13 45/1/12
f 46/1/13 9/1/12 12/1/13
f 10/1/14 45/1/12 47/1/14
f 45/1/12 10/1/14 9/1/12
f 14/1/10 48/1/15 13/1/15
f 48/1/15 14/1/10 43/1/10
f 5/1/16 50/1/17 49/1/16
f 50/1/17 5/1/16 8/1/17
f 8/1/17 47/1/14 50/1/17
f 47/1/14 8/1/17 10/1/14
f 29/1/7 39/1/6 40/1/7
f 39/1/6 29/1/7 27/1/6
f 53/1/18 52/1/18 51/1/18
f 52/1/18 53/1/18 54/1/18
f 57/1/19 56/1/19 55/1/19
f 56/1/19 57/1/19 58/1/19
f 61/1/20 60/1/20 59/1/20
f 60/1/20 61/1/20 62/1/20
f 65/1/21 64/1/21 63/1/21
f 64/1/21 65/1/21 66/1/21
f 67/1/20 57/1/20 55/1/20
f 57/1/20 67/1/20 68/1/20
f 69/1/22 65/1/22 63/1/22
f 65/1/22 69/1/22 70/1/22
f 52/1/23 71/1/23 51/1/23
f 71/1/23 52/1/23 72/1/23
f 72/1/23 52/1/23 64/1/23
f 64/1/23 52/1/23 63/1/23
f 63/1/23 52/1/23 61/1/23
f 63/1/23 61/1/23 69/1/23
f 69/1/23 61/1/23 56/1/23
f 56/1/23 61/1/23 59/1/23
f 59/1/23 55/1/23 56/1/23
f 55/1/23 59/1/23 67/1/23
f 54/1/24 61/1/24 52/1/24
f 61/1/24 54/1/24 62/1/24
f 53/1/25 71/1/25 73/1/25
f 71/1/25 53/1/25 51/1/25
f 72/1/21 73/1/21 71/1/21
f 73/1/21 72/1/21 74/1/21
f 76/2/3 75/2/3 50/2/3
f 75/2/3 76/2/3 44/2/3
f 37/2/3 44/2/3 76/2/3
f 37/2/3 77/2/3 44/2/3
f 78/2/3 77/2/3 37/2/3
f 78/2/3 79/2/3 77/2/3
f 80/2/3 79/2/3 78/2/3
f 80/2/3 81/2/3 79/2/3
f 82/2/3 81/2/3 80/2/3
f 82/2/3 83/2/3 81/2/3
f 84/2/3 83/2/3 82/2/3
f 83/2/3 84/2/3 85/2/3
f 37/2/3 76/2/3 86/2/3
f 86/2/3 76/2/3 87/2/3
f 86/2/3 87/2/3 46/2/3
f 86/2/3 46/2/3 38/2/3
f 59/2/20 89/2/20 88/2/20
f 89/2/20 59/2/20 46/2/20
f 46/2/20 59/2/20 38/2/20
f 38/2/20 59/2/20 60/2/20
f 90/2/26 70/2/26 69/2/26
f 70/2/26 90/2/26 91/2/26
f 70/2/26 91/2/26 75/2/26
f 70/2/26 75/2/26 44/2/26
f 94/2/21 93/2/21 92/2/21
f 93/2/21 94/2/21 95/2/21
f 93/2/21 95/2/21 83/2/21
f 93/2/21 83/2/21 85/2/21
f 65/3/27 96/4/27 66/3/27
f 96/4/27 65/3/27 97/5/27
f 96/4/27 97/5/27 98/5/27
f 99/5/27 96/4/27 98/5/27
f 57/3/28 75/4/28 58/3/28
f 75/4/28 57/3/28 100/5/28
f 75/4/28 100/5/28 101/5/28
f 102/5/28 75/4/28 101/5/28
f 44/4/29 65/3/29 70/3/29
f 65/3/29 44/4/29 97/5/29
f 97/5/29 44/4/29 103/5/29
f 103/5/29 44/4/29 104/5/29
f 106/5/25 73/3/25 105/5/25
f 73/3/25 106/5/25 53/3/25
f 97/5/3 107/5/3 98/5/3
f 107/5/3 97/5/3 103/5/3
f 106/5/18 54/3/18 53/3/18
f 54/3/18 106/5/18 108/5/18
f 68/3/20 100/5/20 57/3/20
f 100/5/20 68/3/20 109/5/20
f 109/5/20 68/3/20 110/5/20
f 110/5/20 68/3/20 111/4/20
f 62/3/20 38/4/20 60/3/20
f 38/4/20 62/3/20 112/5/20
f 112/5/20 62/3/20 113/5/20
f 113/5/20 62/3/20 114/5/20
f 1/4/30 73/3/30 74/3/30
f 73/3/30 1/4/30 105/5/30
f 105/5/30 1/4/30 115/5/30
f 115/5/30 1/4/30 116/5/30
f 108/5/24 62/3/24 54/3/24
f 62/3/24 108/5/24 117/5/24
f 114/5/24 62/3/24 117/5/24
f 101/5/3 109/5/3 118/5/3
f 109/5/3 101/5/3 100/5/3
f 105/5/3 108/5/3 106/5/3
f 108/5/3 105/5/3 115/5/3
f 108/5/3 115/5/3 119/5/3
f 108/5/3 119/5/3 120/5/3
f 108/5/3 120/5/3 121/5/3
f 108/5/3 121/5/3 122/5/3
f 108/5/3 122/5/3 117/5/3
f 117/5/3 122/5/3 123/5/3
f 117/5/3 123/5/3 114/5/3
f 114/5/3 123/5/3 124/5/3
f 114/5/3 124/5/3 113/5/3

g river-intersectionA




usemtl colormap

f 3/1/2 2/1/1 1/1/1
f 2/1/1 3/1/2 4/1/2
f 7/1/3 6/1/3 5/1/3
f 6/1/3 8/1/3 5/1/3
f 9/1/3 8/1/3 6/1/3
f 8/1/3 9/1/3 10/1/3
f 9/1/3 6/1/3 11/1/3
f 9/1/3 11/1/3 12/1/3
f 15/1/3 14/1/3 13/1/3
f 14/1/3 15/1/3 16/1/3
f 16/1/3 15/1/3 17/1/3
f 16/1/3 17/1/3 18/1/3
f 18/1/3 17/1/3 19/1/3
f 18/1/3 19/1/3 20/1/3
f 21/1/2 4/1/2 3/1/2
f 4/1/2 21/1/2 22/1/2
f 2/1/3 24/1/3 23/1/3
f 24/1/3 2/1/3 4/1/3
f 24/1/3 4/1/3 25/1/3
f 25/1/3 4/1/3 22/1/3
f 25/1/3 22/1/3 26/1/3
f 26/1/3 22/1/3 27/1/3
f 26/1/3 27/1/3 28/1/3
f 28/1/3 27/1/3 29/1/3
f 28/1/3 29/1/3 30/1/3
f 30/1/3 29/1/3 31/1/3
f 30/1/3 31/1/3 32/1/3
f 32/1/3 31/1/3 33/1/3
f 32/1/3 33/1/3 34/1/3
f 34/1/3 33/1/3 35/1/3
f 33/1/4 37/1/4 36/1/4
f 37/1/4 33/1/4 31/1/4
f 35/1/5 36/1/4 38/1/5
f 36/1/4 35/1/5 33/1/4
f 39/1/6 22/1/2 21/1/2
f 22/1/2 39/1/6 27/1/6
f 31/1/4 40/1/7 37/1/4
f 40/1/7 31/1/4 29/1/7
f 41/1/8 16/1/9 18/1/8
f 16/1/9 41/1/8 42/1/9
f 16/1/9 43/1/10 14/1/10
f 43/1/10 16/1/9 42/1/9
f 44/1/11 18/1/8 20/1/11
f 18/1/8 44/1/11 41/1/8
f 9/1/12 46/1/13 45/1/12
f 46/1/13 9/1/12 12/1/13
f 10/1/14 45/1/12 47/1/14
f 45/1/12 10/1/14 9/1/12
f 14/1/10 48/1/15 13/1/15
f 48/1/15 14/1/10 43/1/10
f 5/1/16 50/1/17 49/1/16
f 50/1/17 5/1/16 8/1/17
f 8/1/17 47/1/14 50/1/17
f 47/1/14 8/1/17 10/1/14
f 29/1/7 39/1/6 40/1/7
f 39/1/6 29/1/7 27/1/6
f 53/1/18 52/1/18 51/1/18
f 52/1/18 53/1/18 54/1/18
f 57/1/19 56/1/19 55/1/19
f 56/1/19 57/1/19 58/1/19
f 61/1/20 60/1/20 59/1/20
f 60/1/20 61/1/20 62/1/20
f 65/1/21 64/1/21 63/1/21
f 64/1/21 65/1/21 66/1/21
f 67/1/20 57/1/20 55/1/20
f 57/1/20 67/1/20 68/1/20
f 69/1/22 65/1/22 63/1/22
f 65/1/22 69/1/22 70/1/22
f 52/1/23 71/1/23 51/1/23
f 71/1/23 52/1/23 72/1/23
f 72/1/23 52/1/23 64/1/23
f 64/1/23 52/1/23 63/1/23
f 63/1/23 52/1/23 61/1/23
f 63/1/23 61/1/23 69/1/23
f 69/1/23 61/1/23 56/1/23
f 56/1/23 61/1/23 59/1/23
f 59/1/23 55/1/23 56/1/23
f 55/1/23 59/1/23 67/1/23
f 54/1/24 61/1/24 52/1/24
f 61/1/24 54/1/24 62/1/24
f 53/1/25 71/1/25 73/1/25
f 71/1/25 53/1/25 51/1/25
f 72/1/21 73/1/21 71/1/21
f 73/1/21 72/1/21 74/1/21
f 76/2/3 75/2/3 50/2/3
f 75/2/3 76/2/3 44/2/3
f 37/2/3 44/2/3 76/2/3
f 37/2/3 77/2/3 44/2/3
f 78/2/3 77/2/3 37/2/3
f 78/2/3 79/2/3 77/2/3
f 80/2/3 79/2/3 78/2/3
f 80/2/3 81/2/3 79/2/3
f 82/2/3 81/2/3 80/2/3
f 82/2/3 83/2/3 81/2/3
f 84/2/3 83/2/3 82/2/3
f 83/2/3 84/2/3 85/2/3
f 37/2/3 76/2/3 86/2/3
f 86/2/3 76/2/3 87/2/3
f 86/2/3 87/2/3 46/2/3
f 86/2/3 46/2/3 38/2/3
f 59/2/20 89/2/20 88/2/20
f 89/2/20 59/2/20 46/2/20
f 46/2/20 59/2/20 38/2/20
f 38/2/20 59/2/20 60/2/20
f 90/2/26 70/2/26 69/2/26
f 70/2/26 90/2/26 91/2/26
f 70/2/26 91/2/26 75/2/26
f 70/2/26 75/2/26 44/2/26
f 94/2/21 93/2/21 92/2/21
f 93/2/21 94/2/21 95/2/21
f 93/2/21 95/2/21 83/2/21
f 93/2/21 83/2/21 85/2/21
f 65/3/27 96/4/27 66/3/27
f 96/4/27 65/3/27 97/5/27
f 96/4/27 97/5/27 98/5/27
f 99/5/27 96/4/27 98/5/27
f 57/3/28 75/4/28 58/3/28
f 75/4/28 57/3/28 100/5/28
f 75/4/28 100/5/28 101/5/28
f 102/5/28 75/4/28 101/5/28
f 44/4/29 65/3/29 70/3/29
f 65/3/29 44/4/29 97/5/29
f 97/5/29 44/4/29 103/5/29
f 103/5/29 44/4/29 104/5/29
f 106/5/25 73/3/25 105/5/25
f 73/3/25 106/5/25 53/3/25
f 97/5/3 107/5/3 98/5/3
f 107/5/3 97/5/3 103/5/3
f 106/5/18 54/3/18 53/3/18
f 54/3/18 106/5/18 108/5/18
f 68/3/20 100/5/20 57/3/20
f 100/5/20 68/3/20 109/5/20
f 109/5/20 68/3/20 110/5/20
f 110/5/20 68/3/20 111/4/20
f 62/3/20 38/4/20 60/3/20
f 38/4/20 62/3/20 112/5/20
f 112/5/20 62/3/20 113/5/20
f 113/5/20 62/3/20 114/5/20
f 1/4/30 73/3/30 74/3/30
f 73/3/30 1/4/30 105/5/30
f 105/5/30 1/4/30 115/5/30
f 115/5/30 1/4/30 116/5/30
f 108/5/24 62/3/24 54/3/24
f 62/3/24 108/5/24 117/5/24
f 114/5/24 62/3/24 117/5/24
f 101/5/3 109/5/3 118/5/3
f 109/5/3 101/5/3 100/5/3
f 105/5/3 108/5/3 106/5/3
f 108/5/3 105/5/3 115/5/3
f 108/5/3 115/5/3 119/5/3
f 108/5/3 119/5/3 120/5/3
f 108/5/3 120/5/3 121/5/3
f 108/5/3 121/5/3 122/5/3
f 108/5/3 122/5/3 117/5/3
f 117/5/3 122/5/3 123/5/3
f 117/5/3 123/5/3 114/5/3
f 114/5/3 123/5/3 124/5/3
f 114/5/3 124/5/3 113/5/3

