# Created by Kenney (www.kenney.nl)

mtllib river-straight.mtl

g river-straight

v -0.3772126 0.1625 0.1195 1 1 1
v -0.1272126 0.1625 0.0635 1 1 1
v -0.375 0.2 0.1395 1 1 1
v -0.125 0.2 0.08350001 1 1 1
v 0.5 0.1625 -0.1195 1 1 1
v 0.3727874 0.1625 -0.1195 1 1 1
v 0.5 0.2 -0.1395 1 1 1
v 0.375 0.2 -0.1395 1 1 1
v 0.1272126 0.1625 0.0635 1 1 1
v 0.3772126 0.1625 0.1195 1 1 1
v 0.125 0.2 0.08350001 1 1 1
v 0.375 0.2 0.1395 1 1 1
v -0.5 0.1625 0.1195 1 1 1
v -0.5 0.2 0.1395 1 1 1
v 0.5 0.1625 0.1195 1 1 1
v 0.5 0.2 0.1395 1 1 1
v 0.5 0.2 0.2140876 1 1 1
v 0.375 0.2 0.2140876 1 1 1
v 0.125 0.2 0.1580876 1 1 1
v -0.125 0.2 0.1580876 1 1 1
v -0.375 0.2 0.2140876 1 1 1
v -0.5 0.2 0.2140876 1 1 1
v -0.3727874 0.1625 -0.1195 1 1 1
v -0.5 0.1625 -0.1195 1 1 1
v -0.375 0.2 -0.1395 1 1 1
v -0.5 0.2 -0.1395 1 1 1
v 0.1227874 0.1625 -0.1755 1 1 1
v -0.1227874 0.1625 -0.1755 1 1 1
v 0.125 0.2 -0.1955 1 1 1
v -0.125 0.2 -0.1955 1 1 1
v 0.5 0.2 -0.2140876 1 1 1
v 0.375 0.2 -0.2140876 1 1 1
v 0.125 0.2 -0.2700876 1 1 1
v -0.125 0.2 -0.2700876 1 1 1
v -0.375 0.2 -0.2140876 1 1 1
v -0.5 0.2 -0.2140876 1 1 1
v -0.5 0 -0.2886751 1 1 1
v -1.263345E-13 0 -0.5773503 1 1 1
v -0.5 0.1 -0.2886751 1 1 1
v -1.263345E-13 0.1 -0.5773503 1 1 1
v 0.5 0 0.2886751 1 1 1
v 1.277783E-13 0 0.5773503 1 1 1
v 0.5 0.1 0.2886751 1 1 1
v 1.277783E-13 0.1 0.5773503 1 1 1
v -0.5 0 0.2886751 1 1 1
v -0.5 0.1 0.2886751 1 1 1
v 0.5 0.1 -0.2886751 1 1 1
v 0.5 0 -0.2886751 1 1 1
v 0.5 0.1 -0.1195 1 1 1
v 0.5 3.180766E-18 -0.1195 1 1 1
v 0.5 2.634756E-18 0.1195 1 1 1
v -0.5 1.446063E-17 0.1195 1 1 1
v -0.5 2.634756E-18 -0.1195 1 1 1
v -0.5 0.1 0.1195 1 1 1
v -0.5 0.1 -0.1195 1 1 1
v 0.5 0.1 0.1195 1 1 1
v -0.5 1.446063E-17 0.1195 1 1 1
v 1.256126E-13 0.1 0.5773503 1 1 1
v 0.5 0.2 0.2886751 1 1 1
v 1.256126E-13 0.2 0.5773503 1 1 1
v -0.5 0.2 0.1395 1 1 1
v -0.5 0.2 0.2140876 1 1 1
v -0.5 0.2 0.2886751 1 1 1
v 0.5 0.2 0.1395 1 1 1
v 0.5 0.2 0.2140876 1 1 1
v -1.285002E-13 0.1 -0.5773503 1 1 1
v -0.5 0.2 -0.2886751 1 1 1
v -1.285002E-13 0.2 -0.5773503 1 1 1
v -0.5 0.2 -0.2140876 1 1 1
v -0.5 0.2 -0.1395 1 1 1
v 0.5 0.2 -0.2140876 1 1 1
v 0.375 0.2 -0.2140876 1 1 1
v 0.5 0.2 -0.2886751 1 1 1
v 0.125 0.2 -0.2700876 1 1 1
v -0.125 0.2 -0.2700876 1 1 1
v -0.375 0.2 -0.2140876 1 1 1
v 0.375 0.2 0.2140876 1 1 1
v 0.125 0.2 0.1580876 1 1 1
v -0.125 0.2 0.1580876 1 1 1
v -0.375 0.2 0.2140876 1 1 1
v 0.5 0.2 -0.1395 1 1 1

vn -0.09689091 0.4728189 -0.8758165
vn 0 0.4705883 0.8823529
vn -0.09689091 0.4728189 0.8758165
vn 0.09689091 0.4728189 -0.8758165
vn 0 0.4705883 -0.8823529
vn 0 1 0
vn 0.09689091 0.4728189 0.8758165
vn -0.5 0 -0.8660254
vn 0.5 0 0.8660254
vn -0.5 0 0.8660254
vn 1 0 0
vn 0.5 0 -0.8660254
vn 0 -1 0
vn -1 0 0

vt 0.90625 0.125
vt 0.15625 0.125
vt 0.34375 0.075
vt 0.34375 0.175
vt 0.34375 0.1375

usemtl colormap

f 3/1/1 2/1/1 1/1/1
f 2/1/1 3/1/1 4/1/1
f 7/1/2 6/1/3 5/1/2
f 6/1/3 7/1/2 8/1/3
f 11/1/4 10/1/4 9/1/4
f 10/1/4 11/1/4 12/1/4
f 14/1/5 1/1/1 13/1/5
f 1/1/1 14/1/5 3/1/1
f 4/1/1 9/1/4 2/1/1
f 9/1/4 4/1/1 11/1/4
f 12/1/4 15/1/5 10/1/4
f 15/1/5 12/1/4 16/1/5
f 12/1/6 17/1/6 16/1/6
f 17/1/6 12/1/6 18/1/6
f 18/1/6 12/1/6 11/1/6
f 18/1/6 11/1/6 19/1/6
f 19/1/6 11/1/6 4/1/6
f 19/1/6 4/1/6 20/1/6
f 20/1/6 4/1/6 3/1/6
f 20/1/6 3/1/6 21/1/6
f 21/1/6 3/1/6 14/1/6
f 21/1/6 14/1/6 22/1/6
f 25/1/7 24/1/2 23/1/7
f 24/1/2 25/1/7 26/1/2
f 29/1/3 28/1/7 27/1/3
f 28/1/7 29/1/3 30/1/7
f 30/1/7 23/1/7 28/1/7
f 23/1/7 30/1/7 25/1/7
f 31/1/6 8/1/6 7/1/6
f 8/1/6 31/1/6 32/1/6
f 8/1/6 32/1/6 29/1/6
f 29/1/6 32/1/6 33/1/6
f 29/1/6 33/1/6 30/1/6
f 30/1/6 33/1/6 34/1/6
f 30/1/6 34/1/6 25/1/6
f 25/1/6 34/1/6 35/1/6
f 25/1/6 35/1/6 26/1/6
f 26/1/6 35/1/6 36/1/6
f 8/1/3 27/1/3 6/1/3
f 27/1/3 8/1/3 29/1/3
f 39/1/8 38/1/8 37/1/8
f 38/1/8 39/1/8 40/1/8
f 43/1/9 42/1/9 41/1/9
f 42/1/9 43/1/9 44/1/9
f 44/1/10 45/1/10 42/1/10
f 45/1/10 44/1/10 46/1/10
f 49/1/11 48/1/11 47/1/11
f 48/1/11 49/1/11 50/1/11
f 40/1/12 48/1/12 38/1/12
f 48/1/12 40/1/12 47/1/12
f 42/1/13 51/1/13 41/1/13
f 51/1/13 42/1/13 50/1/13
f 50/1/13 42/1/13 48/1/13
f 48/1/13 42/1/13 38/1/13
f 38/1/13 42/1/13 45/1/13
f 38/1/13 45/1/13 52/1/13
f 38/1/13 52/1/13 53/1/13
f 38/1/13 53/1/13 37/1/13
f 45/1/14 54/1/14 52/1/14
f 54/1/14 45/1/14 46/1/14
f 53/1/14 39/1/14 37/1/14
f 39/1/14 53/1/14 55/1/14
f 43/1/11 51/1/11 56/1/11
f 51/1/11 43/1/11 41/1/11
f 57/2/14 55/2/14 53/2/14
f 55/2/14 57/2/14 24/2/14
f 24/2/14 57/2/14 13/2/14
f 13/2/14 57/2/14 54/2/14
f 5/2/6 10/2/6 15/2/6
f 10/2/6 5/2/6 6/2/6
f 10/2/6 6/2/6 9/2/6
f 9/2/6 6/2/6 27/2/6
f 9/2/6 27/2/6 2/2/6
f 2/2/6 27/2/6 28/2/6
f 2/2/6 28/2/6 23/2/6
f 2/2/6 23/2/6 1/2/6
f 1/2/6 23/2/6 24/2/6
f 1/2/6 24/2/6 13/2/6
f 15/2/11 49/2/11 5/2/11
f 49/2/11 15/2/11 50/2/11
f 50/2/11 15/2/11 51/2/11
f 51/2/11 15/2/11 56/2/11
f 59/4/9 58/3/9 43/3/9
f 58/3/9 59/4/9 60/4/9
f 46/3/14 13/5/14 54/3/14
f 13/5/14 46/3/14 61/4/14
f 61/4/14 46/3/14 62/4/14
f 62/4/14 46/3/14 63/4/14
f 64/4/11 56/3/11 15/5/11
f 56/3/11 64/4/11 43/3/11
f 43/3/11 64/4/11 65/4/11
f 43/3/11 65/4/11 59/4/11
f 67/4/8 66/3/8 39/3/8
f 66/3/8 67/4/8 68/4/8
f 60/4/10 46/3/10 58/3/10
f 46/3/10 60/4/10 63/4/10
f 55/3/14 67/4/14 39/3/14
f 67/4/14 55/3/14 69/4/14
f 69/4/14 55/3/14 70/4/14
f 70/4/14 55/3/14 24/5/14
f 73/4/6 72/4/6 71/4/6
f 72/4/6 73/4/6 68/4/6
f 72/4/6 68/4/6 74/4/6
f 74/4/6 68/4/6 75/4/6
f 75/4/6 68/4/6 67/4/6
f 75/4/6 67/4/6 76/4/6
f 76/4/6 67/4/6 69/4/6
f 77/4/6 59/4/6 65/4/6
f 59/4/6 77/4/6 60/4/6
f 60/4/6 77/4/6 78/4/6
f 60/4/6 78/4/6 79/4/6
f 60/4/6 79/4/6 63/4/6
f 63/4/6 79/4/6 80/4/6
f 63/4/6 80/4/6 62/4/6
f 68/4/12 47/3/12 66/3/12
f 47/3/12 68/4/12 73/4/12
f 71/4/11 47/3/11 73/4/11
f 47/3/11 71/4/11 49/3/11
f 49/3/11 71/4/11 81/4/11
f 49/3/11 81/4/11 5/5/11

g river-straight




usemtl colormap

f 3/1/1 2/1/1 1/1/1
f 2/1/1 3/1/1 4/1/1
f 7/1/2 6/1/3 5/1/2
f 6/1/3 7/1/2 8/1/3
f 11/1/4 10/1/4 9/1/4
f 10/1/4 11/1/4 12/1/4
f 14/1/5 1/1/1 13/1/5
f 1/1/1 14/1/5 3/1/1
f 4/1/1 9/1/4 2/1/1
f 9/1/4 4/1/1 11/1/4
f 12/1/4 15/1/5 10/1/4
f 15/1/5 12/1/4 16/1/5
f 12/1/6 17/1/6 16/1/6
f 17/1/6 12/1/6 18/1/6
f 18/1/6 12/1/6 11/1/6
f 18/1/6 11/1/6 19/1/6
f 19/1/6 11/1/6 4/1/6
f 19/1/6 4/1/6 20/1/6
f 20/1/6 4/1/6 3/1/6
f 20/1/6 3/1/6 21/1/6
f 21/1/6 3/1/6 14/1/6
f 21/1/6 14/1/6 22/1/6
f 25/1/7 24/1/2 23/1/7
f 24/1/2 25/1/7 26/1/2
f 29/1/3 28/1/7 27/1/3
f 28/1/7 29/1/3 30/1/7
f 30/1/7 23/1/7 28/1/7
f 23/1/7 30/1/7 25/1/7
f 31/1/6 8/1/6 7/1/6
f 8/1/6 31/1/6 32/1/6
f 8/1/6 32/1/6 29/1/6
f 29/1/6 32/1/6 33/1/6
f 29/1/6 33/1/6 30/1/6
f 30/1/6 33/1/6 34/1/6
f 30/1/6 34/1/6 25/1/6
f 25/1/6 34/1/6 35/1/6
f 25/1/6 35/1/6 26/1/6
f 26/1/6 35/1/6 36/1/6
f 8/1/3 27/1/3 6/1/3
f 27/1/3 8/1/3 29/1/3
f 39/1/8 38/1/8 37/1/8
f 38/1/8 39/1/8 40/1/8
f 43/1/9 42/1/9 41/1/9
f 42/1/9 43/1/9 44/1/9
f 44/1/10 45/1/10 42/1/10
f 45/1/10 44/1/10 46/1/10
f 49/1/11 48/1/11 47/1/11
f 48/1/11 49/1/11 50/1/11
f 40/1/12 48/1/12 38/1/12
f 48/1/12 40/1/12 47/1/12
f 42/1/13 51/1/13 41/1/13
f 51/1/13 42/1/13 50/1/13
f 50/1/13 42/1/13 48/1/13
f 48/1/13 42/1/13 38/1/13
f 38/1/13 42/1/13 45/1/13
f 38/1/13 45/1/13 52/1/13
f 38/1/13 52/1/13 53/1/13
f 38/1/13 53/1/13 37/1/13
f 45/1/14 54/1/14 52/1/14
f 54/1/14 45/1/14 46/1/14
f 53/1/14 39/1/14 37/1/14
f 39/1/14 53/1/14 55/1/14
f 43/1/11 51/1/11 56/1/11
f 51/1/11 43/1/11 41/1/11
f 57/2/14 55/2/14 53/2/14
f 55/2/14 57/2/14 24/2/14
f 24/2/14 57/2/14 13/2/14
f 13/2/14 57/2/14 54/2/14
f 5/2/6 10/2/6 15/2/6
f 10/2/6 5/2/6 6/2/6
f 10/2/6 6/2/6 9/2/6
f 9/2/6 6/2/6 27/2/6
f 9/2/6 27/2/6 2/2/6
f 2/2/6 27/2/6 28/2/6
f 2/2/6 28/2/6 23/2/6
f 2/2/6 23/2/6 1/2/6
f 1/2/6 23/2/6 24/2/6
f 1/2/6 24/2/6 13/2/6
f 15/2/11 49/2/11 5/2/11
f 49/2/11 15/2/11 50/2/11
f 50/2/11 15/2/11 51/2/11
f 51/2/11 15/2/11 56/2/11
f 59/4/9 58/3/9 43/3/9
f 58/3/9 59/4/9 60/4/9
f 46/3/14 13/5/14 54/3/14
f 13/5/14 46/3/14 61/4/14
f 61/4/14 46/3/14 62/4/14
f 62/4/14 46/3/14 63/4/14
f 64/4/11 56/3/11 15/5/11
f 56/3/11 64/4/11 43/3/11
f 43/3/11 64/4/11 65/4/11
f 43/3/11 65/4/11 59/4/11
f 67/4/8 66/3/8 39/3/8
f 66/3/8 67/4/8 68/4/8
f 60/4/10 46/3/10 58/3/10
f 46/3/10 60/4/10 63/4/10
f 55/3/14 67/4/14 39/3/14
f 67/4/14 55/3/14 69/4/14
f 69/4/14 55/3/14 70/4/14
f 70/4/14 55/3/14 24/5/14
f 73/4/6 72/4/6 71/4/6
f 72/4/6 73/4/6 68/4/6
f 72/4/6 68/4/6 74/4/6
f 74/4/6 68/4/6 75/4/6
f 75/4/6 68/4/6 67/4/6
f 75/4/6 67/4/6 76/4/6
f 76/4/6 67/4/6 69/4/6
f 77/4/6 59/4/6 65/4/6
f 59/4/6 77/4/6 60/4/6
f 60/4/6 77/4/6 78/4/6
f 60/4/6 78/4/6 79/4/6
f 60/4/6 79/4/6 63/4/6
f 63/4/6 79/4/6 80/4/6
f 63/4/6 80/4/6 62/4/6
f 68/4/12 47/3/12 66/3/12
f 47/3/12 68/4/12 73/4/12
f 71/4/11 47/3/11 73/4/11
f 47/3/11 71/4/11 49/3/11
f 49/3/11 71/4/11 81/4/11
f 49/3/11 81/4/11 5/5/11

