# Created by Kenney (www.kenney.nl)

mtllib sand-rocks.mtl

g sand-rocks

v 0.5 0 0.2886751 1 1 1
v 0.5 0 -0.2886751 1 1 1
v 1.277783E-13 0 0.5773503 1 1 1
v -1.270564E-13 0 -0.5773503 1 1 1
v -0.5 0 0.2886751 1 1 1
v -0.5 0 -0.2886751 1 1 1
v 0.5 0.1 0.2886751 1 1 1
v 1.277783E-13 0.1 0.5773503 1 1 1
v -0.5 0.1 -0.2886751 1 1 1
v -1.270564E-13 0.1 -0.5773503 1 1 1
v 0.5 0.1 -0.2886751 1 1 1
v -0.5 0.1 0.2886751 1 1 1
v 0.5 0.2 0.2886751 1 1 1
v 1.198373E-13 0.2 0.5773503 1 1 1
v 0.5 0.2 -0.2886751 1 1 1
v -1.349974E-13 0.2 -0.5773503 1 1 1
v -0.5 0.2 0.2886751 1 1 1
v -0.5 0.2 -0.2886751 1 1 1
v 1.198373E-13 0.1 0.5773503 1 1 1
v -1.349974E-13 0.1 -0.5773503 1 1 1
v 0.08219771 0.23306 -0.1902397 1 1 1
v 0.04401341 0.23306 -0.1902397 1 1 1
v 0.08219771 0.23306 -0.2280603 1 1 1
v 0.04401341 0.23306 -0.2280603 1 1 1
v 0.02839256 0.2 -0.2435324 1 1 1
v 0.02839256 0.2 -0.1747676 1 1 1
v 0.09781856 0.2 -0.1747676 1 1 1
v 0.09781856 0.2 -0.2435324 1 1 1
v 0.4149079 0.2435 -0.1735991 1 1 1
v 0.3713967 0.2435 -0.1484778 1 1 1
v 0.3900259 0.2435 -0.2166959 1 1 1
v 0.3465146 0.2435 -0.1915747 1 1 1
v 0.3185356 0.2 -0.1989284 1 1 1
v 0.3637756 0.2 -0.1205704 1 1 1
v 0.442887 0.2 -0.1662454 1 1 1
v 0.397647 0.2 -0.2446034 1 1 1
v 0.3817476 0.23306 -0.02775849 1 1 1
v 0.3435633 0.23306 -0.02775849 1 1 1
v 0.3817476 0.23306 -0.06557913 1 1 1
v 0.3435633 0.23306 -0.06557913 1 1 1
v 0.3279425 0.2 -0.08105122 1 1 1
v 0.3279425 0.2 -0.01228641 1 1 1
v 0.3973685 0.2 -0.01228641 1 1 1
v 0.3973685 0.2 -0.08105122 1 1 1
v -0.004861634 0.23306 0.3981245 1 1 1
v 0.004927069 0.23306 0.4346564 1 1 1
v -0.04174483 0.23306 0.4080073 1 1 1
v -0.03195613 0.23306 0.4445392 1 1 1
v -0.06083789 0.2 0.3971054 1 1 1
v -0.04304024 0.2 0.4635271 1 1 1
v 0.02402013 0.2 0.4455583 1 1 1
v 0.006222479 0.2 0.3791367 1 1 1
v -0.3460486 0.2435 -0.2169462 1 1 1
v -0.3853166 0.2435 -0.1863769 1 1 1
v -0.3769118 0.2435 -0.2565917 1 1 1
v -0.4161798 0.2435 -0.2260225 1 1 1
v -0.3734735 0.2 -0.285316 1 1 1
v -0.4448698 0.2 -0.2297355 1 1 1
v -0.3887549 0.2 -0.1576526 1 1 1
v -0.3173586 0.2 -0.2132332 1 1 1

vn 0 -1 0
vn 0.5 0 0.8660254
vn -0.5 0 -0.8660254
vn 0.5 0 -0.8660254
vn -1 0 0
vn 1 0 0
vn -0.5 0 0.8660254
vn 0 1 0
vn -0.585974 0.5537454 -0.5916084
vn -0.585974 0.5537454 0.5916084
vn 0.585974 0.5537454 0.5916084
vn 0.585974 0.5537454 -0.5916084
vn -0.8032726 0.5537454 -0.2193608
vn -0.2116642 0.5537454 0.8053349
vn 0.8032726 0.5537454 0.2193608
vn 0.2116642 0.5537454 -0.8053349
vn -0.719127 0.5537454 -0.4197885
vn -0.4128878 0.5537454 0.723111
vn 0.719127 0.5537454 0.4197885
vn 0.4128878 0.5537454 -0.723111
vn 0.1068735 0.5537454 -0.825799
vn -0.826784 0.5537454 -0.09896648
vn -0.1068735 0.5537454 0.825799
vn 0.826784 0.5537454 0.09896648

vt 0.90625 0.125
vt 0.15625 0.375
vt 0.21875 0.4216101
vt 0.21875 0.3021081
vt 0.21875 0.3265847
vt 0.21875 0.2910772
vt 0.21875 0.3974854
vt 0.21875 0.3435687
vt 0.21875 0.4359768
vt 0.21875 0.2904227
vt 0.21875 0.4725083
vt 0.21875 0.2785648

usemtl colormap

f 3/1/1 2/1/1 1/1/1
f 2/1/1 3/1/1 4/1/1
f 4/1/1 3/1/1 5/1/1
f 4/1/1 5/1/1 6/1/1
f 7/1/2 3/1/2 1/1/2
f 3/1/2 7/1/2 8/1/2
f 9/1/3 4/1/3 6/1/3
f 4/1/3 9/1/3 10/1/3
f 10/1/4 2/1/4 4/1/4
f 2/1/4 10/1/4 11/1/4
f 5/1/5 9/1/5 6/1/5
f 9/1/5 5/1/5 12/1/5
f 7/1/6 2/1/6 11/1/6
f 2/1/6 7/1/6 1/1/6
f 8/1/7 5/1/7 3/1/7
f 5/1/7 8/1/7 12/1/7
f 15/2/8 14/2/8 13/2/8
f 14/2/8 15/2/8 16/2/8
f 14/2/8 16/2/8 17/2/8
f 17/2/8 16/2/8 18/2/8
f 12/2/5 18/2/5 9/2/5
f 18/2/5 12/2/5 17/2/5
f 14/2/7 12/2/7 19/2/7
f 12/2/7 14/2/7 17/2/7
f 13/2/2 19/2/2 7/2/2
f 19/2/2 13/2/2 14/2/2
f 16/2/4 11/2/4 20/2/4
f 11/2/4 16/2/4 15/2/4
f 18/2/3 20/2/3 9/2/3
f 20/2/3 18/2/3 16/2/3
f 13/2/6 11/2/6 15/2/6
f 11/2/6 13/2/6 7/2/6
f 23/3/8 22/3/8 21/3/8
f 22/3/8 23/3/8 24/3/8
f 26/4/10 24/3/9 25/4/9
f 24/3/9 26/4/10 22/3/10
f 21/3/11 26/4/10 27/4/11
f 26/4/10 21/3/11 22/3/10
f 23/3/12 27/4/11 28/4/12
f 27/4/11 23/3/12 21/3/11
f 24/3/9 28/4/12 25/4/9
f 28/4/12 24/3/9 23/3/12
f 31/5/8 30/5/8 29/5/8
f 30/5/8 31/5/8 32/5/8
f 34/6/14 32/5/13 33/6/13
f 32/5/13 34/6/14 30/5/14
f 29/5/15 34/6/14 35/6/15
f 34/6/14 29/5/15 30/5/14
f 31/5/16 35/6/15 36/6/16
f 35/6/15 31/5/16 29/5/15
f 32/5/13 36/6/16 33/6/13
f 36/6/16 32/5/13 31/5/16
f 39/7/8 38/7/8 37/7/8
f 38/7/8 39/7/8 40/7/8
f 42/8/10 40/7/9 41/8/9
f 40/7/9 42/8/10 38/7/10
f 37/7/11 42/8/10 43/8/11
f 42/8/10 37/7/11 38/7/10
f 39/7/12 43/8/11 44/8/12
f 43/8/11 39/7/12 37/7/11
f 40/7/9 44/8/12 41/8/9
f 44/8/12 40/7/9 39/7/12
f 47/9/8 46/9/8 45/9/8
f 46/9/8 47/9/8 48/9/8
f 50/10/18 47/9/17 49/10/17
f 47/9/17 50/10/18 48/9/18
f 46/9/19 50/10/18 51/10/19
f 50/10/18 46/9/19 48/9/18
f 45/9/20 51/10/19 52/10/20
f 51/10/19 45/9/20 46/9/19
f 47/9/17 52/10/20 49/10/17
f 52/10/20 47/9/17 45/9/20
f 55/11/8 54/11/8 53/11/8
f 54/11/8 55/11/8 56/11/8
f 58/12/22 55/11/21 57/12/21
f 55/11/21 58/12/22 56/11/22
f 54/11/23 58/12/22 59/12/23
f 58/12/22 54/11/23 56/11/22
f 53/11/24 59/12/23 60/12/24
f 59/12/23 53/11/24 54/11/23
f 55/11/21 60/12/24 57/12/21
f 60/12/24 55/11/21 53/11/24

g sand-rocks




usemtl colormap

f 3/1/1 2/1/1 1/1/1
f 2/1/1 3/1/1 4/1/1
f 4/1/1 3/1/1 5/1/1
f 4/1/1 5/1/1 6/1/1
f 7/1/2 3/1/2 1/1/2
f 3/1/2 7/1/2 8/1/2
f 9/1/3 4/1/3 6/1/3
f 4/1/3 9/1/3 10/1/3
f 10/1/4 2/1/4 4/1/4
f 2/1/4 10/1/4 11/1/4
f 5/1/5 9/1/5 6/1/5
f 9/1/5 5/1/5 12/1/5
f 7/1/6 2/1/6 11/1/6
f 2/1/6 7/1/6 1/1/6
f 8/1/7 5/1/7 3/1/7
f 5/1/7 8/1/7 12/1/7
f 15/2/8 14/2/8 13/2/8
f 14/2/8 15/2/8 16/2/8
f 14/2/8 16/2/8 17/2/8
f 17/2/8 16/2/8 18/2/8
f 12/2/5 18/2/5 9/2/5
f 18/2/5 12/2/5 17/2/5
f 14/2/7 12/2/7 19/2/7
f 12/2/7 14/2/7 17/2/7
f 13/2/2 19/2/2 7/2/2
f 19/2/2 13/2/2 14/2/2
f 16/2/4 11/2/4 20/2/4
f 11/2/4 16/2/4 15/2/4
f 18/2/3 20/2/3 9/2/3
f 20/2/3 18/2/3 16/2/3
f 13/2/6 11/2/6 15/2/6
f 11/2/6 13/2/6 7/2/6
f 23/3/8 22/3/8 21/3/8
f 22/3/8 23/3/8 24/3/8
f 26/4/10 24/3/9 25/4/9
f 24/3/9 26/4/10 22/3/10
f 21/3/11 26/4/10 27/4/11
f 26/4/10 21/3/11 22/3/10
f 23/3/12 27/4/11 28/4/12
f 27/4/11 23/3/12 21/3/11
f 24/3/9 28/4/12 25/4/9
f 28/4/12 24/3/9 23/3/12
f 31/5/8 30/5/8 29/5/8
f 30/5/8 31/5/8 32/5/8
f 34/6/14 32/5/13 33/6/13
f 32/5/13 34/6/14 30/5/14
f 29/5/15 34/6/14 35/6/15
f 34/6/14 29/5/15 30/5/14
f 31/5/16 35/6/15 36/6/16
f 35/6/15 31/5/16 29/5/15
f 32/5/13 36/6/16 33/6/13
f 36/6/16 32/5/13 31/5/16
f 39/7/8 38/7/8 37/7/8
f 38/7/8 39/7/8 40/7/8
f 42/8/10 40/7/9 41/8/9
f 40/7/9 42/8/10 38/7/10
f 37/7/11 42/8/10 43/8/11
f 42/8/10 37/7/11 38/7/10
f 39/7/12 43/8/11 44/8/12
f 43/8/11 39/7/12 37/7/11
f 40/7/9 44/8/12 41/8/9
f 44/8/12 40/7/9 39/7/12
f 47/9/8 46/9/8 45/9/8
f 46/9/8 47/9/8 48/9/8
f 50/10/18 47/9/17 49/10/17
f 47/9/17 50/10/18 48/9/18
f 46/9/19 50/10/18 51/10/19
f 50/10/18 46/9/19 48/9/18
f 45/9/20 51/10/19 52/10/20
f 51/10/19 45/9/20 46/9/19
f 47/9/17 52/10/20 49/10/17
f 52/10/20 47/9/17 45/9/20
f 55/11/8 54/11/8 53/11/8
f 54/11/8 55/11/8 56/11/8
f 58/12/22 55/11/21 57/12/21
f 55/11/21 58/12/22 56/11/22
f 54/11/23 58/12/22 59/12/23
f 58/12/22 54/11/23 56/11/22
f 53/11/24 59/12/23 60/12/24
f 59/12/23 53/11/24 54/11/23
f 55/11/21 60/12/24 57/12/21
f 60/12/24 55/11/21 53/11/24

