# Created by Kenney (www.kenney.nl)

mtllib stone-mountain.mtl

g stone-mountain

v -0.1486831 0.4808 0.2085488 1 1 1
v -0.25 0.4808 0.2670441 1 1 1
v -0.2549501 0.4808 0.1471955 1 1 1
v -0.356267 0.4808 0.2056908 1 1 1
v -0.2549501 0.4808 0.02448894 1 1 1
v -0.356267 0.4808 0.08298428 1 1 1
v -0.3790493 0.436292 0.2188442 1 1 1
v -0.25 0.436292 0.2933509 1 1 1
v -0.1372067 0.4370643 0.2277731 1 1 1
v -0.3790493 0.436292 0.0698309 1 1 1
v -0.2660533 0.436292 0.004592627 1 1 1
v 0.10387 1.086415 0.05996937 1 1 1
v 8.013216E-14 1.086415 0.1199387 1 1 1
v 0.10387 1.086415 -0.05996937 1 1 1
v 2.382307E-14 1.086415 -0.1199387 1 1 1
v -0.10387 1.086415 0.05996937 1 1 1
v -0.10387 1.086415 -0.05996937 1 1 1
v -0.1159724 1.037902 -0.06695668 1 1 1
v -0.1159724 1.037902 0.06695668 1 1 1
v 2.093543E-14 1.037902 -0.1339134 1 1 1
v 0.1159724 1.037902 -0.06695668 1 1 1
v 8.301981E-14 1.037902 0.1339134 1 1 1
v 0.1159724 1.037902 0.06695668 1 1 1
v 0.25 0.3243998 -0.356109 1 1 1
v 0.25 0.36848 -0.3288587 1 1 1
v 0.2098687 0.3243998 -0.3329392 1 1 1
v 0.1956484 0.36848 -0.2974788 1 1 1
v 0.4098 0.36848 -0.05207698 1 1 1
v 0.3471678 0.36848 -0.01591629 1 1 1
v 0.4098 0.36848 -0.2365981 1 1 1
v 0.28297 0.36848 -0.1633728 1 1 1
v 0.28297 0.36848 -0.05298086 1 1 1
v 0.1956484 0.36848 -0.213788 1 1 1
v 0.4333994 0.3243998 -0.2502233 1 1 1
v 0.4333994 0.3243998 -0.03845184 1 1 1
v 0.387154 0.3243998 -0.01175202 1 1 1
v 0.114257 0.6207788 -0.1881027 1 1 1
v -2.887644E-15 0.6207788 -0.254069 1 1 1
v 0.114257 0.6207788 -0.3046414 1 1 1
v -1.06121E-13 0.6207788 -0.3706077 1 1 1
v -0.114257 0.6207788 -0.1881027 1 1 1
v -0.114257 0.6207788 -0.3046414 1 1 1
v -0.1290771 0.5748392 -0.3186567 1 1 1
v -1.090086E-13 0.5748392 -0.3931794 1 1 1
v -0.1290771 0.5748392 -0.1927796 1 1 1
v 0.1290771 0.5748392 -0.3186567 1 1 1
v 0.1290771 0.5748392 -0.1927796 1 1 1
v 0.1598 0.36848 0.3551904 1 1 1
v 0.1833995 0.3243998 0.3755514 1 1 1
v 0.1598 0.36848 0.3809357 1 1 1
v 0.1833995 0.3243998 0.3945608 1 1 1
v 1.025114E-13 0.3243998 0.5004466 1 1 1
v 9.673613E-14 0.36848 0.4731963 1 1 1
v -0.1833995 0.3243998 0.3945608 1 1 1
v -0.1598 0.36848 0.3809357 1 1 1
v 0.05526613 0.36848 0.2948378 1 1 1
v 1.277783E-13 0.36848 0.3267457 1 1 1
v -0.1192099 0.36848 0.2579198 1 1 1
v -0.1598 0.36848 0.2813545 1 1 1
v -0.1833995 0.3243998 0.3210336 1 1 1
v -0.2228242 0.28424 -0.2223641 1 1 1
v -0.303985 0.28424 -0.1755058 1 1 1
v -0.2228242 0.28424 -0.3131688 1 1 1
v -0.25 0.28424 -0.3288587 1 1 1
v -0.4098 0.28424 -0.2365981 1 1 1
v -0.3666801 0.28424 -0.02718171 1 1 1
v -0.4098 0.28424 -0.052077 1 1 1
v -0.303985 0.28424 -0.06337872 1 1 1
v -0.446342 0.2501125 -0.03097948 1 1 1
v -0.446342 0.2501125 -0.2576957 1 1 1
v -0.25 0.2501125 -0.3710538 1 1 1
v -0.4206909 0.2501125 -0.0161698 1 1 1
v -0.2338337 0.2501125 -0.3617201 1 1 1
v 0.2536692 0.701228 0.07293712 1 1 1
v 0.1999609 0.701228 0.1154475 1 1 1
v 0.1999609 0.701228 0.04192862 1 1 1
v 0.13 0.701228 0.2871385 1 1 1
v 0.01629172 0.701228 0.221489 1 1 1
v 0.2536692 0.701228 0.215738 1 1 1
v 0.1410143 0.6552224 0.3005277 1 1 1
v 0.2762789 0.6552224 0.2224326 1 1 1
v 0.2114378 0.6552224 0.02880646 1 1 1
v 0.2762789 0.6552224 0.06624252 1 1 1
v 0.02168031 0.6552224 0.2316301 1 1 1
v 0.4333995 0.3243998 -0.03845184 1 1 1
v 0.5 0.2 -1.126182E-13 1 1 1
v 0.387154 0.3243998 -0.01175203 1 1 1
v -0.25 0.2 0.4330127 1 1 1
v -0.2338337 0.2501125 -0.3617202 1 1 1
v -0.25 0.2 -0.4330127 1 1 1
v 0.25 0.2 0.4330127 1 1 1
v -0.446342 0.2501125 -0.03097947 1 1 1
v -0.4206909 0.2501125 -0.01616981 1 1 1
v -0.5 0.2 1.082867E-13 1 1 1
v 0.25 0.2 -0.4330127 1 1 1
v 0.25 0.3243998 -0.356109 1 1 1
v 0.2098687 0.3243998 -0.3329392 1 1 1
v -0.3790493 0.4362919 0.06983091 1 1 1
v -0.3666801 0.28424 -0.02718171 1 1 1
v -0.2660533 0.4362919 0.004592643 1 1 1
v -0.5 0.2 0.2886751 1 1 1
v -0.3790493 0.4362919 0.2188442 1 1 1
v -0.25 0.4362919 0.2933509 1 1 1
v 0.1956484 0.36848 -0.2974788 1 1 1
v 0.1956484 0.36848 -0.213788 1 1 1
v -0.1372067 0.4370643 0.2277732 1 1 1
v 0.28297 0.36848 -0.05298086 1 1 1
v 0.2114377 0.6552224 0.02880646 1 1 1
v 0.1999609 0.701228 0.04192862 1 1 1
v 0.1999609 0.701228 0.1154475 1 1 1
v -1.349974E-13 0.2 -0.5773503 1 1 1
v -0.2228242 0.28424 -0.222364 1 1 1
v 2.093543E-14 1.037902 -0.1339134 1 1 1
v -2.887645E-15 0.6207788 -0.254069 1 1 1
v 0.5 0.2 -0.2886751 1 1 1
v 0.4333995 0.3243998 -0.2502233 1 1 1
v 0.1410143 0.6552224 0.3005277 1 1 1
v 0.02168031 0.6552224 0.2316301 1 1 1
v -0.2549501 0.4808 0.02448895 1 1 1
v -0.2549501 0.4808 0.1471955 1 1 1
v 0.01629172 0.701228 0.221489 1 1 1
v 1.198373E-13 0.2 0.5773503 1 1 1
v -0.446342 0.2501125 -0.2576956 1 1 1
v -0.5 0.2 -0.2886751 1 1 1
v 0.3471678 0.36848 -0.01591628 1 1 1
v 0.2762789 0.6552224 0.06624252 1 1 1
v 0.5 0.2 0.2886751 1 1 1
v 0.2762789 0.6552224 0.2224326 1 1 1
v -0.2228242 0.28424 -0.3131688 1 1 1
v -0.1486831 0.4808 0.2085488 1 1 1
v 0.5 0.1 -0.2886751 1 1 1
v 0.5 0.1 0.2886751 1 1 1
v 1.118963E-13 0.1 0.5773503 1 1 1
v 1.118963E-13 0.2 0.5773503 1 1 1
v -1.429384E-13 0.2 -0.5773503 1 1 1
v -0.5 0.1 -0.2886751 1 1 1
v -0.5 0.1 0.2886751 1 1 1
v -1.429384E-13 0.1 -0.5773503 1 1 1
v 1.277783E-13 0 0.5773503 1 1 1
v -0.5 0 0.2886751 1 1 1
v 1.277783E-13 0.1 0.5773503 1 1 1
v 0.5 0 0.2886751 1 1 1
v 0.5 0 -0.2886751 1 1 1
v -1.270564E-13 0 -0.5773503 1 1 1
v -0.5 0 -0.2886751 1 1 1
v -1.270564E-13 0.1 -0.5773503 1 1 1

vn 0 1 0
vn -0.7455362 0.5088232 0.4304355
vn -0.00126123 0.5088228 0.8608704
vn 0 0.5088232 0.8608711
vn 0.4450804 0.4556463 0.7709019
vn -0.7455362 0.5088232 -0.4304355
vn -0.4450804 0.4556463 -0.7709019
vn -0.8321871 0.2768025 -0.4804634
vn -0.8321871 0.2768025 0.4804634
vn 0 0.2768025 -0.9609268
vn 0.8321871 0.2768025 -0.4804634
vn 0 0.2768025 0.9609268
vn 0.8321871 0.2768025 0.4804634
vn 0 0.5258319 -0.8505884
vn -0.4408022 0.471989 -0.7634918
vn 0.7366312 0.525832 -0.4252943
vn 0.7366312 0.525832 0.4252943
vn 0.4408022 0.471989 0.7634918
vn -0.7824577 0.3984201 -0.4785617
vn 0 0.4409797 -0.897517
vn -0.8125951 0.3933502 -0.4300756
vn -0.9517034 0.307019 0
vn 0.7824577 0.3984201 -0.4785617
vn 0.9517034 0.307019 0
vn 0.8125951 0.3933502 -0.4300756
vn 0.8816044 0.4719891 0
vn 0 0.5258319 0.8505884
vn -0.7366312 0.525832 0.4252943
vn -0.8816044 0.4719891 0
vn -0.5446081 0.777519 0.3144296
vn -0.5446081 0.777519 -0.3144296
vn 0 0.777519 -0.6288593
vn -0.3412746 0.7308396 0.5911049
vn 0.3412746 0.7308396 -0.5911049
vn 0.06070271 0.2922953 0.9543995
vn -0.07935263 0.2609975 0.9620724
vn 0.7863888 0.4483157 0.4249774
vn 0.75686 0.4420195 0.4814373
vn 0.4686637 0.3484501 -0.8117493
vn 0.7863888 0.4483157 -0.4249774
vn 0.75686 0.4420195 -0.4814373
vn -0.4956785 0.1311927 0.8585402
vn -0.8901609 0.4556463 0
vn -0.4450804 0.4556463 0.7709019
vn 0.9702644 0.2420474 0
vn 0.4600815 0.3915357 -0.7968845
vn -0.4851322 0.2420474 -0.8402736
vn 0.4851322 0.2420474 -0.8402736
vn -0.9702644 0.2420474 0
vn 0.4851322 0.2420474 0.8402736
vn -0.4408022 0.471989 0.7634918
vn -0.4600815 0.3915357 -0.7968845
vn 0.4408022 0.471989 -0.7634918
vn -0.6825491 0.7308396 0
vn 0.8974739 0.4410676 0
vn -0.3412746 0.7308396 -0.5911049
vn 0.4686637 0.3484501 0.8117493
vn -0.4851322 0.2420474 0.8402736
vn 1 0 0
vn 0.5 0 0.8660254
vn -1 0 0
vn -0.5 0 0.8660254
vn -0.5 0 -0.8660254
vn 0.5 0 -0.8660254
vn 0 -1 0

vt 0.84375 0.225
vt 0.84375 0.025
vt 0.84375 0.02847036
vt 0.71875 0.05469315
vt 0.71875 0.025
vt 0.71875 0.03696143
vt 0.71875 0.08140085
vt 0.71875 0.04510736
vt 0.71875 0.1144709
vt 0.71875 0.06521472
vt 0.71875 0.08158519
vt 0.71875 0.225
vt 0.71875 0.1336576
vt 0.71875 0.1446388
vt 0.71875 0.1254363
vt 0.71875 0.09202453
vt 0.65625 0.125
vt 0.90625 0.125

usemtl colormap

f 3/1/1 2/1/1 1/1/1
f 2/1/1 3/1/1 4/1/1
f 4/1/1 3/1/1 5/1/1
f 4/1/1 5/1/1 6/1/1
f 8/2/3 4/1/2 7/2/2
f 4/1/2 8/2/3 2/1/4
f 9/3/5 2/1/4 8/2/3
f 2/1/4 9/3/5 1/1/5
f 7/2/2 6/1/6 10/2/6
f 6/1/6 7/2/2 4/1/2
f 6/1/6 11/2/7 10/2/6
f 11/2/7 6/1/6 5/1/7
f 14/1/1 13/1/1 12/1/1
f 13/1/1 14/1/1 15/1/1
f 13/1/1 15/1/1 16/1/1
f 16/1/1 15/1/1 17/1/1
f 19/2/9 17/1/8 18/2/8
f 17/1/8 19/2/9 16/1/9
f 17/1/8 20/2/10 18/2/8
f 20/2/10 17/1/8 15/1/10
f 15/1/10 21/2/11 20/2/10
f 21/2/11 15/1/10 14/1/11
f 13/1/12 19/2/9 22/2/12
f 19/2/9 13/1/12 16/1/9
f 12/1/13 22/2/12 23/2/13
f 22/2/12 12/1/13 13/1/12
f 14/1/11 23/2/13 21/2/11
f 23/2/13 14/1/11 12/1/13
f 26/2/15 25/1/14 24/2/14
f 25/1/14 26/2/15 27/1/15
f 30/1/1 29/1/1 28/1/1
f 29/1/1 30/1/1 25/1/1
f 29/1/1 25/1/1 31/1/1
f 29/1/1 31/1/1 32/1/1
f 31/1/1 25/1/1 33/1/1
f 33/1/1 25/1/1 27/1/1
f 24/2/14 30/1/16 34/2/16
f 30/1/16 24/2/14 25/1/14
f 30/1/16 35/2/17 34/2/16
f 35/2/17 30/1/16 28/1/17
f 28/1/17 36/2/18 35/2/17
f 36/2/18 28/1/17 29/1/18
f 39/1/1 38/1/1 37/1/1
f 38/1/1 39/1/1 40/1/1
f 38/1/1 40/1/1 41/1/1
f 41/1/1 40/1/1 42/1/1
f 42/1/21 44/2/20 43/2/19
f 44/2/20 42/1/21 40/1/20
f 45/2/22 42/1/21 43/2/19
f 42/1/21 45/2/22 41/1/22
f 39/1/25 47/2/24 46/2/23
f 47/2/24 39/1/25 37/1/24
f 44/2/20 39/1/25 46/2/23
f 39/1/25 44/2/20 40/1/20
f 50/1/17 49/2/26 48/1/26
f 49/2/26 50/1/17 51/2/17
f 51/2/17 53/1/27 52/2/27
f 53/1/27 51/2/17 50/1/17
f 52/2/27 55/1/28 54/2/28
f 55/1/28 52/2/27 53/1/27
f 48/1/1 53/1/1 50/1/1
f 53/1/1 48/1/1 56/1/1
f 53/1/1 56/1/1 57/1/1
f 53/1/1 57/1/1 58/1/1
f 53/1/1 58/1/1 55/1/1
f 55/1/1 58/1/1 59/1/1
f 60/2/29 55/1/28 59/1/29
f 55/1/28 60/2/29 54/2/28
f 63/1/1 62/1/1 61/1/1
f 62/1/1 63/1/1 64/1/1
f 62/1/1 64/1/1 65/1/1
f 62/1/1 65/1/1 66/1/1
f 66/1/1 65/1/1 67/1/1
f 66/1/1 68/1/1 62/1/1
f 65/1/31 69/2/30 67/1/30
f 69/2/30 65/1/31 70/2/31
f 71/2/32 65/1/31 64/1/32
f 65/1/31 71/2/32 70/2/31
f 67/1/30 72/2/33 66/1/33
f 72/2/33 67/1/30 69/2/30
f 73/2/34 64/1/32 63/1/34
f 64/1/32 73/2/34 71/2/32
f 76/1/1 75/1/1 74/1/1
f 77/1/1 74/1/1 75/1/1
f 77/1/1 75/1/1 78/1/1
f 74/1/1 77/1/1 79/1/1
f 81/2/37 77/1/36 80/2/35
f 77/1/36 81/2/37 79/1/38
f 76/1/39 83/2/40 82/2/39
f 83/2/40 76/1/39 74/1/41
f 74/1/41 81/2/37 83/2/40
f 81/2/37 74/1/41 79/1/38
f 77/1/36 84/2/42 80/2/35
f 84/2/42 77/1/36 78/1/42
f 87/4/18 86/5/18 85/4/18
f 88/5/29 54/4/29 60/4/29
f 90/5/34 71/6/34 89/6/34
f 91/5/26 49/4/26 51/4/26
f 94/5/33 93/6/33 92/6/33
f 97/4/15 96/4/15 95/5/15
f 98/7/7 93/6/7 94/5/7
f 93/6/7 98/7/7 99/8/7
f 99/8/7 98/7/7 68/8/7
f 68/8/7 98/7/7 100/7/7
f 101/5/43 98/7/43 94/5/43
f 98/7/43 101/5/43 102/7/43
f 103/7/44 101/5/44 88/5/44
f 101/5/44 103/7/44 102/7/44
f 46/9/24 97/4/24 95/5/24
f 97/4/24 46/9/24 104/10/24
f 104/10/24 46/9/24 47/9/24
f 104/10/24 47/9/24 105/10/24
f 106/11/5 59/10/5 58/10/5
f 59/10/5 106/11/5 103/7/5
f 103/7/5 60/4/5 59/10/5
f 60/4/5 103/7/5 88/5/5
f 21/12/45 107/10/45 31/10/45
f 107/10/45 21/12/45 23/12/45
f 107/10/45 23/12/45 108/13/45
f 108/13/45 23/12/45 109/14/45
f 109/14/45 23/12/45 110/14/45
f 111/5/46 46/9/46 95/5/46
f 46/9/46 111/5/46 44/9/46
f 18/12/47 112/8/47 62/8/47
f 112/8/47 18/12/47 45/9/47
f 45/9/47 18/12/47 41/15/47
f 113/12/47 41/15/47 18/12/47
f 41/15/47 113/12/47 114/15/47
f 116/4/26 86/5/26 115/5/26
f 86/5/26 116/4/26 85/4/26
f 117/13/42 49/4/42 91/5/42
f 49/4/42 117/13/42 48/10/42
f 118/13/42 48/10/42 117/13/42
f 48/10/42 118/13/42 56/10/42
f 47/9/48 31/10/48 105/10/48
f 31/10/48 47/9/48 21/12/48
f 21/12/48 47/9/48 37/15/48
f 21/12/48 37/15/48 114/15/48
f 21/12/48 114/15/48 113/12/48
f 68/8/49 18/12/49 62/8/49
f 18/12/49 68/8/49 19/12/49
f 19/12/49 68/8/49 100/7/49
f 19/12/49 100/7/49 119/16/49
f 19/12/49 119/16/49 120/16/49
f 23/12/50 121/14/50 110/14/50
f 22/12/50 121/14/50 23/12/50
f 57/10/50 121/14/50 22/12/50
f 121/14/50 57/10/50 118/13/50
f 118/13/50 57/10/50 56/10/50
f 52/4/51 88/5/51 122/5/51
f 88/5/51 52/4/51 54/4/51
f 51/4/18 122/5/18 91/5/18
f 122/5/18 51/4/18 52/4/18
f 43/9/52 111/5/52 90/5/52
f 111/5/52 43/9/52 44/9/52
f 96/4/53 115/5/53 95/5/53
f 115/5/53 96/4/53 116/4/53
f 123/6/54 94/5/54 92/6/54
f 94/5/54 123/6/54 124/5/54
f 108/13/39 125/10/39 107/10/39
f 126/13/39 125/10/39 108/13/39
f 126/13/39 87/4/39 125/10/39
f 87/4/39 126/13/39 86/5/39
f 126/13/55 127/5/55 86/5/55
f 127/5/55 126/13/55 128/13/55
f 89/6/22 43/9/22 90/5/22
f 43/9/22 89/6/22 129/8/22
f 43/9/22 129/8/22 45/9/22
f 45/9/22 129/8/22 112/8/22
f 90/5/56 123/6/56 71/6/56
f 123/6/56 90/5/56 124/5/56
f 128/13/57 91/5/57 127/5/57
f 91/5/57 128/13/57 117/13/57
f 22/12/58 58/10/58 57/10/58
f 58/10/58 22/12/58 106/11/58
f 106/11/58 22/12/58 130/16/58
f 130/16/58 22/12/58 120/16/58
f 120/16/58 22/12/58 19/12/58
f 127/17/59 131/17/59 115/17/59
f 131/17/59 127/17/59 132/17/59
f 127/17/60 133/17/60 132/17/60
f 133/17/60 127/17/60 134/17/60
f 115/17/1 134/17/1 127/17/1
f 134/17/1 115/17/1 135/17/1
f 134/17/1 135/17/1 101/17/1
f 101/17/1 135/17/1 124/17/1
f 137/17/61 124/17/61 136/17/61
f 124/17/61 137/17/61 101/17/61
f 134/17/62 137/17/62 133/17/62
f 137/17/62 134/17/62 101/17/62
f 124/17/63 138/17/63 136/17/63
f 138/17/63 124/17/63 135/17/63
f 135/17/64 131/17/64 138/17/64
f 131/17/64 135/17/64 115/17/64
f 141/18/62 140/18/62 139/18/62
f 140/18/62 141/18/62 137/18/62
f 132/18/60 139/18/60 142/18/60
f 139/18/60 132/18/60 141/18/60
f 132/18/59 143/18/59 131/18/59
f 143/18/59 132/18/59 142/18/59
f 139/18/65 143/18/65 142/18/65
f 143/18/65 139/18/65 144/18/65
f 144/18/65 139/18/65 140/18/65
f 144/18/65 140/18/65 145/18/65
f 146/18/64 143/18/64 144/18/64
f 143/18/64 146/18/64 131/18/64
f 136/18/63 144/18/63 145/18/63
f 144/18/63 136/18/63 146/18/63
f 140/18/61 136/18/61 145/18/61
f 136/18/61 140/18/61 137/18/61

g stone-mountain




usemtl colormap

f 3/1/1 2/1/1 1/1/1
f 2/1/1 3/1/1 4/1/1
f 4/1/1 3/1/1 5/1/1
f 4/1/1 5/1/1 6/1/1
f 8/2/3 4/1/2 7/2/2
f 4/1/2 8/2/3 2/1/4
f 9/3/5 2/1/4 8/2/3
f 2/1/4 9/3/5 1/1/5
f 7/2/2 6/1/6 10/2/6
f 6/1/6 7/2/2 4/1/2
f 6/1/6 11/2/7 10/2/6
f 11/2/7 6/1/6 5/1/7
f 14/1/1 13/1/1 12/1/1
f 13/1/1 14/1/1 15/1/1
f 13/1/1 15/1/1 16/1/1
f 16/1/1 15/1/1 17/1/1
f 19/2/9 17/1/8 18/2/8
f 17/1/8 19/2/9 16/1/9
f 17/1/8 20/2/10 18/2/8
f 20/2/10 17/1/8 15/1/10
f 15/1/10 21/2/11 20/2/10
f 21/2/11 15/1/10 14/1/11
f 13/1/12 19/2/9 22/2/12
f 19/2/9 13/1/12 16/1/9
f 12/1/13 22/2/12 23/2/13
f 22/2/12 12/1/13 13/1/12
f 14/1/11 23/2/13 21/2/11
f 23/2/13 14/1/11 12/1/13
f 26/2/15 25/1/14 24/2/14
f 25/1/14 26/2/15 27/1/15
f 30/1/1 29/1/1 28/1/1
f 29/1/1 30/1/1 25/1/1
f 29/1/1 25/1/1 31/1/1
f 29/1/1 31/1/1 32/1/1
f 31/1/1 25/1/1 33/1/1
f 33/1/1 25/1/1 27/1/1
f 24/2/14 30/1/16 34/2/16
f 30/1/16 24/2/14 25/1/14
f 30/1/16 35/2/17 34/2/16
f 35/2/17 30/1/16 28/1/17
f 28/1/17 36/2/18 35/2/17
f 36/2/18 28/1/17 29/1/18
f 39/1/1 38/1/1 37/1/1
f 38/1/1 39/1/1 40/1/1
f 38/1/1 40/1/1 41/1/1
f 41/1/1 40/1/1 42/1/1
f 42/1/21 44/2/20 43/2/19
f 44/2/20 42/1/21 40/1/20
f 45/2/22 42/1/21 43/2/19
f 42/1/21 45/2/22 41/1/22
f 39/1/25 47/2/24 46/2/23
f 47/2/24 39/1/25 37/1/24
f 44/2/20 39/1/25 46/2/23
f 39/1/25 44/2/20 40/1/20
f 50/1/17 49/2/26 48/1/26
f 49/2/26 50/1/17 51/2/17
f 51/2/17 53/1/27 52/2/27
f 53/1/27 51/2/17 50/1/17
f 52/2/27 55/1/28 54/2/28
f 55/1/28 52/2/27 53/1/27
f 48/1/1 53/1/1 50/1/1
f 53/1/1 48/1/1 56/1/1
f 53/1/1 56/1/1 57/1/1
f 53/1/1 57/1/1 58/1/1
f 53/1/1 58/1/1 55/1/1
f 55/1/1 58/1/1 59/1/1
f 60/2/29 55/1/28 59/1/29
f 55/1/28 60/2/29 54/2/28
f 63/1/1 62/1/1 61/1/1
f 62/1/1 63/1/1 64/1/1
f 62/1/1 64/1/1 65/1/1
f 62/1/1 65/1/1 66/1/1
f 66/1/1 65/1/1 67/1/1
f 66/1/1 68/1/1 62/1/1
f 65/1/31 69/2/30 67/1/30
f 69/2/30 65/1/31 70/2/31
f 71/2/32 65/1/31 64/1/32
f 65/1/31 71/2/32 70/2/31
f 67/1/30 72/2/33 66/1/33
f 72/2/33 67/1/30 69/2/30
f 73/2/34 64/1/32 63/1/34
f 64/1/32 73/2/34 71/2/32
f 76/1/1 75/1/1 74/1/1
f 77/1/1 74/1/1 75/1/1
f 77/1/1 75/1/1 78/1/1
f 74/1/1 77/1/1 79/1/1
f 81/2/37 77/1/36 80/2/35
f 77/1/36 81/2/37 79/1/38
f 76/1/39 83/2/40 82/2/39
f 83/2/40 76/1/39 74/1/41
f 74/1/41 81/2/37 83/2/40
f 81/2/37 74/1/41 79/1/38
f 77/1/36 84/2/42 80/2/35
f 84/2/42 77/1/36 78/1/42
f 87/4/18 86/5/18 85/4/18
f 88/5/29 54/4/29 60/4/29
f 90/5/34 71/6/34 89/6/34
f 91/5/26 49/4/26 51/4/26
f 94/5/33 93/6/33 92/6/33
f 97/4/15 96/4/15 95/5/15
f 98/7/7 93/6/7 94/5/7
f 93/6/7 98/7/7 99/8/7
f 99/8/7 98/7/7 68/8/7
f 68/8/7 98/7/7 100/7/7
f 101/5/43 98/7/43 94/5/43
f 98/7/43 101/5/43 102/7/43
f 103/7/44 101/5/44 88/5/44
f 101/5/44 103/7/44 102/7/44
f 46/9/24 97/4/24 95/5/24
f 97/4/24 46/9/24 104/10/24
f 104/10/24 46/9/24 47/9/24
f 104/10/24 47/9/24 105/10/24
f 106/11/5 59/10/5 58/10/5
f 59/10/5 106/11/5 103/7/5
f 103/7/5 60/4/5 59/10/5
f 60/4/5 103/7/5 88/5/5
f 21/12/45 107/10/45 31/10/45
f 107/10/45 21/12/45 23/12/45
f 107/10/45 23/12/45 108/13/45
f 108/13/45 23/12/45 109/14/45
f 109/14/45 23/12/45 110/14/45
f 111/5/46 46/9/46 95/5/46
f 46/9/46 111/5/46 44/9/46
f 18/12/47 112/8/47 62/8/47
f 112/8/47 18/12/47 45/9/47
f 45/9/47 18/12/47 41/15/47
f 113/12/47 41/15/47 18/12/47
f 41/15/47 113/12/47 114/15/47
f 116/4/26 86/5/26 115/5/26
f 86/5/26 116/4/26 85/4/26
f 117/13/42 49/4/42 91/5/42
f 49/4/42 117/13/42 48/10/42
f 118/13/42 48/10/42 117/13/42
f 48/10/42 118/13/42 56/10/42
f 47/9/48 31/10/48 105/10/48
f 31/10/48 47/9/48 21/12/48
f 21/12/48 47/9/48 37/15/48
f 21/12/48 37/15/48 114/15/48
f 21/12/48 114/15/48 113/12/48
f 68/8/49 18/12/49 62/8/49
f 18/12/49 68/8/49 19/12/49
f 19/12/49 68/8/49 100/7/49
f 19/12/49 100/7/49 119/16/49
f 19/12/49 119/16/49 120/16/49
f 23/12/50 121/14/50 110/14/50
f 22/12/50 121/14/50 23/12/50
f 57/10/50 121/14/50 22/12/50
f 121/14/50 57/10/50 118/13/50
f 118/13/50 57/10/50 56/10/50
f 52/4/51 88/5/51 122/5/51
f 88/5/51 52/4/51 54/4/51
f 51/4/18 122/5/18 91/5/18
f 122/5/18 51/4/18 52/4/18
f 43/9/52 111/5/52 90/5/52
f 111/5/52 43/9/52 44/9/52
f 96/4/53 115/5/53 95/5/53
f 115/5/53 96/4/53 116/4/53
f 123/6/54 94/5/54 92/6/54
f 94/5/54 123/6/54 124/5/54
f 108/13/39 125/10/39 107/10/39
f 126/13/39 125/10/39 108/13/39
f 126/13/39 87/4/39 125/10/39
f 87/4/39 126/13/39 86/5/39
f 126/13/55 127/5/55 86/5/55
f 127/5/55 126/13/55 128/13/55
f 89/6/22 43/9/22 90/5/22
f 43/9/22 89/6/22 129/8/22
f 43/9/22 129/8/22 45/9/22
f 45/9/22 129/8/22 112/8/22
f 90/5/56 123/6/56 71/6/56
f 123/6/56 90/5/56 124/5/56
f 128/13/57 91/5/57 127/5/57
f 91/5/57 128/13/57 117/13/57
f 22/12/58 58/10/58 57/10/58
f 58/10/58 22/12/58 106/11/58
f 106/11/58 22/12/58 130/16/58
f 130/16/58 22/12/58 120/16/58
f 120/16/58 22/12/58 19/12/58
f 127/17/59 131/17/59 115/17/59
f 131/17/59 127/17/59 132/17/59
f 127/17/60 133/17/60 132/17/60
f 133/17/60 127/17/60 134/17/60
f 115/17/1 134/17/1 127/17/1
f 134/17/1 115/17/1 135/17/1
f 134/17/1 135/17/1 101/17/1
f 101/17/1 135/17/1 124/17/1
f 137/17/61 124/17/61 136/17/61
f 124/17/61 137/17/61 101/17/61
f 134/17/62 137/17/62 133/17/62
f 137/17/62 134/17/62 101/17/62
f 124/17/63 138/17/63 136/17/63
f 138/17/63 124/17/63 135/17/63
f 135/17/64 131/17/64 138/17/64
f 131/17/64 135/17/64 115/17/64
f 141/18/62 140/18/62 139/18/62
f 140/18/62 141/18/62 137/18/62
f 132/18/60 139/18/60 142/18/60
f 139/18/60 132/18/60 141/18/60
f 132/18/59 143/18/59 131/18/59
f 143/18/59 132/18/59 142/18/59
f 139/18/65 143/18/65 142/18/65
f 143/18/65 139/18/65 144/18/65
f 144/18/65 139/18/65 140/18/65
f 144/18/65 140/18/65 145/18/65
f 146/18/64 143/18/64 144/18/64
f 143/18/64 146/18/64 131/18/64
f 136/18/63 144/18/63 145/18/63
f 144/18/63 136/18/63 146/18/63
f 140/18/61 136/18/61 145/18/61
f 136/18/61 140/18/61 137/18/61

