# Created by Kenney (www.kenney.nl)

mtllib stone.mtl

g stone

v 0.5 0.2 -0.2886751 1 1 1
v 0.5 0.1 -0.2886751 1 1 1
v 0.5 0.2 0.2886751 1 1 1
v 0.5 0.1 0.2886751 1 1 1
v 1.198373E-13 0.1 0.5773503 1 1 1
v 1.198373E-13 0.2 0.5773503 1 1 1
v -1.349974E-13 0.2 -0.5773503 1 1 1
v -0.5 0.2 0.2886751 1 1 1
v -0.5 0.2 -0.2886751 1 1 1
v -0.5 0.1 -0.2886751 1 1 1
v -0.5 0.1 0.2886751 1 1 1
v -1.349974E-13 0.1 -0.5773503 1 1 1
v 1.277783E-13 0 0.5773503 1 1 1
v -0.5 0 0.2886751 1 1 1
v 1.277783E-13 0.1 0.5773503 1 1 1
v 0.5 0 0.2886751 1 1 1
v 0.5 0 -0.2886751 1 1 1
v -1.270564E-13 0 -0.5773503 1 1 1
v -0.5 0 -0.2886751 1 1 1
v -1.270564E-13 0.1 -0.5773503 1 1 1

vn 1 0 0
vn 0.5 0 0.8660254
vn 0 1 0
vn -1 0 0
vn -0.5 0 0.8660254
vn -0.5 0 -0.8660254
vn 0.5 0 -0.8660254
vn 0 -1 0

vt 0.65625 0.125
vt 0.90625 0.125

usemtl colormap

f 3/1/1 2/1/1 1/1/1
f 2/1/1 3/1/1 4/1/1
f 3/1/2 5/1/2 4/1/2
f 5/1/2 3/1/2 6/1/2
f 1/1/3 6/1/3 3/1/3
f 6/1/3 1/1/3 7/1/3
f 6/1/3 7/1/3 8/1/3
f 8/1/3 7/1/3 9/1/3
f 11/1/4 9/1/4 10/1/4
f 9/1/4 11/1/4 8/1/4
f 6/1/5 11/1/5 5/1/5
f 11/1/5 6/1/5 8/1/5
f 9/1/6 12/1/6 10/1/6
f 12/1/6 9/1/6 7/1/6
f 7/1/7 2/1/7 12/1/7
f 2/1/7 7/1/7 1/1/7
f 15/2/5 14/2/5 13/2/5
f 14/2/5 15/2/5 11/2/5
f 4/2/2 13/2/2 16/2/2
f 13/2/2 4/2/2 15/2/2
f 4/2/1 17/2/1 2/2/1
f 17/2/1 4/2/1 16/2/1
f 13/2/8 17/2/8 16/2/8
f 17/2/8 13/2/8 18/2/8
f 18/2/8 13/2/8 14/2/8
f 18/2/8 14/2/8 19/2/8
f 20/2/7 17/2/7 18/2/7
f 17/2/7 20/2/7 2/2/7
f 10/2/6 18/2/6 19/2/6
f 18/2/6 10/2/6 20/2/6
f 14/2/4 10/2/4 19/2/4
f 10/2/4 14/2/4 11/2/4

g stone




usemtl colormap

f 3/1/1 2/1/1 1/1/1
f 2/1/1 3/1/1 4/1/1
f 3/1/2 5/1/2 4/1/2
f 5/1/2 3/1/2 6/1/2
f 1/1/3 6/1/3 3/1/3
f 6/1/3 1/1/3 7/1/3
f 6/1/3 7/1/3 8/1/3
f 8/1/3 7/1/3 9/1/3
f 11/1/4 9/1/4 10/1/4
f 9/1/4 11/1/4 8/1/4
f 6/1/5 11/1/5 5/1/5
f 11/1/5 6/1/5 8/1/5
f 9/1/6 12/1/6 10/1/6
f 12/1/6 9/1/6 7/1/6
f 7/1/7 2/1/7 12/1/7
f 2/1/7 7/1/7 1/1/7
f 15/2/5 14/2/5 13/2/5
f 14/2/5 15/2/5 11/2/5
f 4/2/2 13/2/2 16/2/2
f 13/2/2 4/2/2 15/2/2
f 4/2/1 17/2/1 2/2/1
f 17/2/1 4/2/1 16/2/1
f 13/2/8 17/2/8 16/2/8
f 17/2/8 13/2/8 18/2/8
f 18/2/8 13/2/8 14/2/8
f 18/2/8 14/2/8 19/2/8
f 20/2/7 17/2/7 18/2/7
f 17/2/7 20/2/7 2/2/7
f 10/2/6 18/2/6 19/2/6
f 18/2/6 10/2/6 20/2/6
f 14/2/4 10/2/4 19/2/4
f 10/2/4 14/2/4 11/2/4

