# Created by Kenney (www.kenney.nl)

mtllib unit-ship-large.mtl

g unit-ship-large

v -0.2193 0 -0.054825 1 1 1
v -0.2193 0.10965 -0.0731 1 1 1
v -0.3225 0.10965 -5.594814E-14 1 1 1
v -0.2193 0.10965 0.0731 1 1 1
v -0.2193 0 0.054825 1 1 1
v 0.3225 0.10965 5.739196E-14 1 1 1
v 0.2193 0 -0.054825 1 1 1
v 0.2193 0 0.054825 1 1 1
v 0.2193 0.10965 -0.0731 1 1 1
v 0.2193 0.10965 0.0731 1 1 1
v 0.054825 0.0822375 -0.03703427 1 1 1
v 0.054825 0.0822375 0.03703427 1 1 1
v -0.054825 0.0822375 -0.03703427 1 1 1
v -0.054825 0.0822375 0.03703427 1 1 1
v -0.2193 0.10965 -0.03703427 1 1 1
v -0.2193 0.0822375 -0.03703427 1 1 1
v -0.2193 0.10965 0.03703427 1 1 1
v -0.2193 0.054825 -0.03703427 1 1 1
v -0.2193 0.054825 0.03703427 1 1 1
v 0.2193 0.10965 -0.03703427 1 1 1
v -0.054825 0.054825 -0.03703427 1 1 1
v 0.2193 0.0822375 -0.03703427 1 1 1
v 0.054825 0.054825 -0.03703427 1 1 1
v 0.2193 0.054825 -0.03703427 1 1 1
v 0.054825 0.054825 0.03703427 1 1 1
v -0.054825 0.054825 0.03703427 1 1 1
v 0.2193 0.054825 0.03703427 1 1 1
v 0.2193 0.10965 0.03703427 1 1 1
v 0.1333 0.1400556 0.04269441 1 1 1
v 0.1333 0.1552584 0.0578972 1 1 1
v 0.1118 0.1400556 0.04269441 1 1 1
v 0.1118 0.1552584 0.0578972 1 1 1
v 0.1333 -8.387602E-11 0.18275 1 1 1
v 0.1118 -7.245731E-10 0.18275 1 1 1
v 0.1333 0.0152028 0.1979528 1 1 1
v 0.1118 0.01520279 0.1979528 1 1 1
v -0.004300001 0.1400556 0.04269441 1 1 1
v -0.004300002 0.1552584 0.0578972 1 1 1
v -0.004299997 -6.406969E-10 0.18275 1 1 1
v -0.004299997 0.01520279 0.1979528 1 1 1
v 0.0172 1.665335E-16 0.18275 1 1 1
v 0.0172 0.0152028 0.1979528 1 1 1
v 0.0172 0.1400556 0.04269441 1 1 1
v 0.0172 0.1552584 0.0578972 1 1 1
v -0.1118 0.1400556 0.04269441 1 1 1
v -0.1118 5.568208E-10 0.18275 1 1 1
v -0.1118 0.1552584 0.0578972 1 1 1
v -0.1118 0.0152028 0.1979528 1 1 1
v -0.1333 -8.387636E-11 0.18275 1 1 1
v -0.1333 0.0152028 0.1979528 1 1 1
v -0.1333 0.1400556 0.04269441 1 1 1
v -0.1333 0.1552584 0.0578972 1 1 1
v -0.1333 -8.387631E-11 -0.18275 1 1 1
v -0.1333 0.1400556 -0.04269441 1 1 1
v -0.1118 5.568208E-10 -0.18275 1 1 1
v -0.1118 0.1400556 -0.04269441 1 1 1
v -0.1333 0.0152028 -0.1979528 1 1 1
v -0.1118 0.0152028 -0.1979528 1 1 1
v -0.1333 0.1552584 -0.0578972 1 1 1
v -0.1118 0.1552584 -0.0578972 1 1 1
v -0.004299997 0.01520279 -0.1979528 1 1 1
v 0.0172 0.0152028 -0.1979528 1 1 1
v -0.004300002 0.1552584 -0.0578972 1 1 1
v 0.0172 0.1552584 -0.0578972 1 1 1
v 0.0172 2.220446E-16 -0.18275 1 1 1
v -0.004299997 -6.406969E-10 -0.18275 1 1 1
v -0.004300001 0.1400556 -0.04269441 1 1 1
v 0.0172 0.1400556 -0.04269441 1 1 1
v 0.1118 0.01520279 -0.1979528 1 1 1
v 0.1118 0.1552584 -0.0578972 1 1 1
v 0.1118 -7.245731E-10 -0.18275 1 1 1
v 0.1118 0.1400556 -0.04269441 1 1 1
v 0.1333 0.1400556 -0.04269441 1 1 1
v 0.1333 0.1552584 -0.0578972 1 1 1
v 0.1333 0.0152028 -0.1979528 1 1 1
v 0.1333 -8.387602E-11 -0.18275 1 1 1
v 0.025 0.40965 0.164 1 1 1
v 0.025 0.40965 -0.164 1 1 1
v 0 0.40965 0.164 1 1 1
v 0 0.40965 -0.164 1 1 1
v 0.025 0.43465 0.164 1 1 1
v 0 0.43465 0.164 1 1 1
v 0.025 0.43465 -0.164 1 1 1
v 0 0.43465 -0.164 1 1 1
v 0.02592399 0.50965 -0.02592399 1 1 1
v 0.02592399 0.50965 0.02592399 1 1 1
v -0.02592399 0.50965 -0.02592399 1 1 1
v -0.02592399 0.50965 0.02592399 1 1 1
v 0.03703427 0.0822375 -0.03703427 1 1 1
v 0.03703427 0.0822375 0.03703427 1 1 1
v -0.03703427 0.0822375 0.03703427 1 1 1
v -0.03703427 0.0822375 -0.03703427 1 1 1
v -0.0511068 0.15965 -0.1118034 1 1 1
v -0.0511068 0.50965 -0.1118034 1 1 1
v -0.0775 0.15965 5.7031E-14 1 1 1
v -0.0775 0.50965 5.7031E-14 1 1 1
v 0.0225 0.15965 -0.2 1 1 1
v 0.0225 0.50965 -0.2 1 1 1
v -0.0511068 0.15965 0.1118034 1 1 1
v -0.0511068 0.50965 0.1118034 1 1 1
v 0.0225 0.15965 0.2 1 1 1
v 0.0225 0.50965 0.2 1 1 1

vn -0.5727445 -0.1347634 -0.8085805
vn -0.5727445 -0.1347634 0.8085805
vn 0.7282 -0.6853647 0
vn 0.5727445 -0.1347634 -0.8085805
vn -0.7282 -0.6853647 0
vn 0.5727445 -0.1347634 0.8085805
vn 0 1 0
vn 1 0 0
vn 0 0 1
vn 0 -1 0
vn -1 0 0
vn 0 -0.164399 -0.986394
vn 0 -0.164399 0.986394
vn 0 0 -1
vn 0 0.7071068 -0.7071068
vn 0 -0.7071068 0.7071068
vn 0 -0.7071068 -0.7071068
vn 0 0.7071068 0.7071068
vn 0.9996623 0.02598551 0
vn 0 0.02598551 0.9996623
vn 0 0.02598551 -0.9996623
vn -0.9996623 0.02598551 0
vn -0.8944272 0 -0.4472136
vn 0.8944272 0 0.4472136
vn -0.7677518 0 -0.6407474
vn 0.7677518 0 0.6407474
vn -0.8944272 0 0.4472136
vn 0.8944272 0 -0.4472136
vn -0.7677518 0 0.6407474
vn 0.7677518 0 -0.6407474

vt 0.96875 0.025
vt 0.96875 0.225
vt 0.96875 0.175
vt 0.96875 0.125
vt 0.96875 0.2054161
vt 0.96875 0.04458386
vt 0.21875 0.3
vt 0.21875 0.475

usemtl colormap

f 3/2/1 2/2/1 1/1/1
f 3/2/2 5/1/2 4/2/2
f 8/1/3 7/1/3 6/2/3
f 6/2/4 7/1/4 9/2/4
f 5/1/5 3/2/5 1/1/5
f 10/2/6 8/1/6 6/2/6
f 13/3/7 12/3/7 11/3/7
f 12/3/7 13/3/7 14/3/7
f 17/2/8 16/3/8 15/2/8
f 16/3/8 17/2/8 18/4/8
f 18/4/8 17/2/8 19/4/8
f 16/3/9 20/2/9 15/2/9
f 13/3/9 20/2/9 16/3/9
f 18/4/9 13/3/9 16/3/9
f 13/3/9 18/4/9 21/4/9
f 11/3/9 20/2/9 13/3/9
f 20/2/9 11/3/9 22/3/9
f 23/4/9 22/3/9 11/3/9
f 22/3/9 23/4/9 24/4/9
f 8/1/10 1/1/10 7/1/10
f 1/1/10 8/1/10 5/1/10
f 12/3/8 23/4/8 11/3/8
f 23/4/8 12/3/8 25/4/8
f 26/4/11 13/3/11 21/4/11
f 13/3/11 26/4/11 14/3/11
f 23/4/7 27/4/7 24/4/7
f 27/4/7 23/4/7 25/4/7
f 18/4/7 26/4/7 21/4/7
f 26/4/7 18/4/7 19/4/7
f 2/2/12 7/1/12 1/1/12
f 7/1/12 2/2/12 9/2/12
f 10/2/13 5/1/13 8/1/13
f 5/1/13 10/2/13 4/2/13
f 27/4/11 22/3/11 24/4/11
f 22/3/11 27/4/11 20/2/11
f 20/2/11 27/4/11 28/2/11
f 19/4/14 14/3/14 26/4/14
f 14/3/14 19/4/14 17/2/14
f 14/3/14 17/2/14 12/3/14
f 28/2/14 12/3/14 17/2/14
f 27/4/14 12/3/14 28/2/14
f 12/3/14 27/4/14 25/4/14
f 10/2/7 20/2/7 28/2/7
f 10/2/7 28/2/7 17/2/7
f 10/2/7 17/2/7 4/2/7
f 17/2/7 3/2/7 4/2/7
f 15/2/7 3/2/7 17/2/7
f 15/2/7 2/2/7 3/2/7
f 20/2/7 2/2/7 15/2/7
f 6/2/7 20/2/7 10/2/7
f 2/2/7 20/2/7 9/2/7
f 20/2/7 6/2/7 9/2/7
f 31/5/15 30/2/15 29/5/15
f 30/2/15 31/5/15 32/2/15
f 35/6/16 34/1/16 33/1/16
f 34/1/16 35/6/16 36/6/16
f 34/1/11 32/2/11 31/5/11
f 32/2/11 34/1/11 36/6/11
f 30/2/8 33/1/8 29/5/8
f 33/1/8 30/2/8 35/6/8
f 31/5/17 33/1/17 34/1/17
f 33/1/17 31/5/17 29/5/17
f 35/6/18 32/2/18 36/6/18
f 32/2/18 35/6/18 30/2/18
f 39/1/11 38/2/11 37/5/11
f 38/2/11 39/1/11 40/6/11
f 42/6/16 39/1/16 41/1/16
f 39/1/16 42/6/16 40/6/16
f 37/5/15 44/2/15 43/5/15
f 44/2/15 37/5/15 38/2/15
f 37/5/17 41/1/17 39/1/17
f 41/1/17 37/5/17 43/5/17
f 42/6/18 38/2/18 40/6/18
f 38/2/18 42/6/18 44/2/18
f 44/2/8 41/1/8 43/5/8
f 41/1/8 44/2/8 42/6/8
f 47/2/8 46/1/8 45/5/8
f 46/1/8 47/2/8 48/6/8
f 48/6/16 49/1/16 46/1/16
f 49/1/16 48/6/16 50/6/16
f 51/5/15 47/2/15 45/5/15
f 47/2/15 51/5/15 52/2/15
f 51/5/17 46/1/17 49/1/17
f 46/1/17 51/5/17 45/5/17
f 48/6/18 52/2/18 50/6/18
f 52/2/18 48/6/18 47/2/18
f 49/1/11 52/2/11 51/5/11
f 52/2/11 49/1/11 50/6/11
f 55/1/16 54/5/16 53/1/16
f 54/5/16 55/1/16 56/5/16
f 59/2/15 58/6/15 57/6/15
f 58/6/15 59/2/15 60/2/15
f 60/2/18 54/5/18 56/5/18
f 54/5/18 60/2/18 59/2/18
f 60/2/8 55/1/8 58/6/8
f 55/1/8 60/2/8 56/5/8
f 53/1/17 58/6/17 55/1/17
f 58/6/17 53/1/17 57/6/17
f 53/1/11 59/2/11 57/6/11
f 59/2/11 53/1/11 54/5/11
f 63/2/15 62/6/15 61/6/15
f 62/6/15 63/2/15 64/2/15
f 66/1/17 62/6/17 65/1/17
f 62/6/17 66/1/17 61/6/17
f 66/1/11 63/2/11 61/6/11
f 63/2/11 66/1/11 67/5/11
f 64/2/8 65/1/8 62/6/8
f 65/1/8 64/2/8 68/5/8
f 64/2/18 67/5/18 68/5/18
f 67/5/18 64/2/18 63/2/18
f 65/1/16 67/5/16 66/1/16
f 67/5/16 65/1/16 68/5/16
f 71/1/11 70/2/11 69/6/11
f 70/2/11 71/1/11 72/5/11
f 74/2/18 72/5/18 73/5/18
f 72/5/18 74/2/18 70/2/18
f 74/2/8 76/1/8 75/6/8
f 76/1/8 74/2/8 73/5/8
f 76/1/16 72/5/16 71/1/16
f 72/5/16 76/1/16 73/5/16
f 70/2/15 75/6/15 69/6/15
f 75/6/15 70/2/15 74/2/15
f 71/1/17 75/6/17 76/1/17
f 75/6/17 71/1/17 69/6/17
f 79/1/10 78/1/10 77/1/10
f 78/1/10 79/1/10 80/1/10
f 81/2/9 79/1/9 77/1/9
f 79/1/9 81/2/9 82/2/9
f 84/2/7 81/2/7 83/2/7
f 81/2/7 84/2/7 82/2/7
f 84/2/14 78/1/14 80/1/14
f 78/1/14 84/2/14 83/2/14
f 79/1/11 84/2/11 80/1/11
f 84/2/11 79/1/11 82/2/11
f 81/2/8 78/1/8 83/2/8
f 78/1/8 81/2/8 77/1/8
f 87/2/7 86/2/7 85/2/7
f 86/2/7 87/2/7 88/2/7
f 85/2/19 90/1/19 89/1/19
f 90/1/19 85/2/19 86/2/19
f 86/2/20 91/1/20 90/1/20
f 91/1/20 86/2/20 88/2/20
f 87/2/21 89/1/21 92/1/21
f 89/1/21 87/2/21 85/2/21
f 91/1/22 87/2/22 92/1/22
f 87/2/22 91/1/22 88/2/22
f 95/7/11 94/8/23 93/7/23
f 94/8/23 95/7/11 96/8/11
f 93/7/24 94/8/24 95/7/8
f 96/8/8 95/7/8 94/8/24
f 93/7/23 98/8/25 97/7/25
f 98/8/25 93/7/23 94/8/23
f 97/7/26 98/8/26 93/7/24
f 94/8/24 93/7/24 98/8/26
f 99/7/27 96/8/11 95/7/11
f 96/8/11 99/7/27 100/8/27
f 95/7/8 96/8/8 99/7/28
f 100/8/28 99/7/28 96/8/8
f 101/7/29 100/8/27 99/7/27
f 100/8/27 101/7/29 102/8/29
f 99/7/28 100/8/28 101/7/30
f 102/8/30 101/7/30 100/8/28

g unit-ship-large




usemtl colormap

f 3/2/1 2/2/1 1/1/1
f 3/2/2 5/1/2 4/2/2
f 8/1/3 7/1/3 6/2/3
f 6/2/4 7/1/4 9/2/4
f 5/1/5 3/2/5 1/1/5
f 10/2/6 8/1/6 6/2/6
f 13/3/7 12/3/7 11/3/7
f 12/3/7 13/3/7 14/3/7
f 17/2/8 16/3/8 15/2/8
f 16/3/8 17/2/8 18/4/8
f 18/4/8 17/2/8 19/4/8
f 16/3/9 20/2/9 15/2/9
f 13/3/9 20/2/9 16/3/9
f 18/4/9 13/3/9 16/3/9
f 13/3/9 18/4/9 21/4/9
f 11/3/9 20/2/9 13/3/9
f 20/2/9 11/3/9 22/3/9
f 23/4/9 22/3/9 11/3/9
f 22/3/9 23/4/9 24/4/9
f 8/1/10 1/1/10 7/1/10
f 1/1/10 8/1/10 5/1/10
f 12/3/8 23/4/8 11/3/8
f 23/4/8 12/3/8 25/4/8
f 26/4/11 13/3/11 21/4/11
f 13/3/11 26/4/11 14/3/11
f 23/4/7 27/4/7 24/4/7
f 27/4/7 23/4/7 25/4/7
f 18/4/7 26/4/7 21/4/7
f 26/4/7 18/4/7 19/4/7
f 2/2/12 7/1/12 1/1/12
f 7/1/12 2/2/12 9/2/12
f 10/2/13 5/1/13 8/1/13
f 5/1/13 10/2/13 4/2/13
f 27/4/11 22/3/11 24/4/11
f 22/3/11 27/4/11 20/2/11
f 20/2/11 27/4/11 28/2/11
f 19/4/14 14/3/14 26/4/14
f 14/3/14 19/4/14 17/2/14
f 14/3/14 17/2/14 12/3/14
f 28/2/14 12/3/14 17/2/14
f 27/4/14 12/3/14 28/2/14
f 12/3/14 27/4/14 25/4/14
f 10/2/7 20/2/7 28/2/7
f 10/2/7 28/2/7 17/2/7
f 10/2/7 17/2/7 4/2/7
f 17/2/7 3/2/7 4/2/7
f 15/2/7 3/2/7 17/2/7
f 15/2/7 2/2/7 3/2/7
f 20/2/7 2/2/7 15/2/7
f 6/2/7 20/2/7 10/2/7
f 2/2/7 20/2/7 9/2/7
f 20/2/7 6/2/7 9/2/7
f 31/5/15 30/2/15 29/5/15
f 30/2/15 31/5/15 32/2/15
f 35/6/16 34/1/16 33/1/16
f 34/1/16 35/6/16 36/6/16
f 34/1/11 32/2/11 31/5/11
f 32/2/11 34/1/11 36/6/11
f 30/2/8 33/1/8 29/5/8
f 33/1/8 30/2/8 35/6/8
f 31/5/17 33/1/17 34/1/17
f 33/1/17 31/5/17 29/5/17
f 35/6/18 32/2/18 36/6/18
f 32/2/18 35/6/18 30/2/18
f 39/1/11 38/2/11 37/5/11
f 38/2/11 39/1/11 40/6/11
f 42/6/16 39/1/16 41/1/16
f 39/1/16 42/6/16 40/6/16
f 37/5/15 44/2/15 43/5/15
f 44/2/15 37/5/15 38/2/15
f 37/5/17 41/1/17 39/1/17
f 41/1/17 37/5/17 43/5/17
f 42/6/18 38/2/18 40/6/18
f 38/2/18 42/6/18 44/2/18
f 44/2/8 41/1/8 43/5/8
f 41/1/8 44/2/8 42/6/8
f 47/2/8 46/1/8 45/5/8
f 46/1/8 47/2/8 48/6/8
f 48/6/16 49/1/16 46/1/16
f 49/1/16 48/6/16 50/6/16
f 51/5/15 47/2/15 45/5/15
f 47/2/15 51/5/15 52/2/15
f 51/5/17 46/1/17 49/1/17
f 46/1/17 51/5/17 45/5/17
f 48/6/18 52/2/18 50/6/18
f 52/2/18 48/6/18 47/2/18
f 49/1/11 52/2/11 51/5/11
f 52/2/11 49/1/11 50/6/11
f 55/1/16 54/5/16 53/1/16
f 54/5/16 55/1/16 56/5/16
f 59/2/15 58/6/15 57/6/15
f 58/6/15 59/2/15 60/2/15
f 60/2/18 54/5/18 56/5/18
f 54/5/18 60/2/18 59/2/18
f 60/2/8 55/1/8 58/6/8
f 55/1/8 60/2/8 56/5/8
f 53/1/17 58/6/17 55/1/17
f 58/6/17 53/1/17 57/6/17
f 53/1/11 59/2/11 57/6/11
f 59/2/11 53/1/11 54/5/11
f 63/2/15 62/6/15 61/6/15
f 62/6/15 63/2/15 64/2/15
f 66/1/17 62/6/17 65/1/17
f 62/6/17 66/1/17 61/6/17
f 66/1/11 63/2/11 61/6/11
f 63/2/11 66/1/11 67/5/11
f 64/2/8 65/1/8 62/6/8
f 65/1/8 64/2/8 68/5/8
f 64/2/18 67/5/18 68/5/18
f 67/5/18 64/2/18 63/2/18
f 65/1/16 67/5/16 66/1/16
f 67/5/16 65/1/16 68/5/16
f 71/1/11 70/2/11 69/6/11
f 70/2/11 71/1/11 72/5/11
f 74/2/18 72/5/18 73/5/18
f 72/5/18 74/2/18 70/2/18
f 74/2/8 76/1/8 75/6/8
f 76/1/8 74/2/8 73/5/8
f 76/1/16 72/5/16 71/1/16
f 72/5/16 76/1/16 73/5/16
f 70/2/15 75/6/15 69/6/15
f 75/6/15 70/2/15 74/2/15
f 71/1/17 75/6/17 76/1/17
f 75/6/17 71/1/17 69/6/17
f 79/1/10 78/1/10 77/1/10
f 78/1/10 79/1/10 80/1/10
f 81/2/9 79/1/9 77/1/9
f 79/1/9 81/2/9 82/2/9
f 84/2/7 81/2/7 83/2/7
f 81/2/7 84/2/7 82/2/7
f 84/2/14 78/1/14 80/1/14
f 78/1/14 84/2/14 83/2/14
f 79/1/11 84/2/11 80/1/11
f 84/2/11 79/1/11 82/2/11
f 81/2/8 78/1/8 83/2/8
f 78/1/8 81/2/8 77/1/8
f 87/2/7 86/2/7 85/2/7
f 86/2/7 87/2/7 88/2/7
f 85/2/19 90/1/19 89/1/19
f 90/1/19 85/2/19 86/2/19
f 86/2/20 91/1/20 90/1/20
f 91/1/20 86/2/20 88/2/20
f 87/2/21 89/1/21 92/1/21
f 89/1/21 87/2/21 85/2/21
f 91/1/22 87/2/22 92/1/22
f 87/2/22 91/1/22 88/2/22
f 95/7/11 94/8/23 93/7/23
f 94/8/23 95/7/11 96/8/11
f 93/7/24 94/8/24 95/7/8
f 96/8/8 95/7/8 94/8/24
f 93/7/23 98/8/25 97/7/25
f 98/8/25 93/7/23 94/8/23
f 97/7/26 98/8/26 93/7/24
f 94/8/24 93/7/24 98/8/26
f 99/7/27 96/8/11 95/7/11
f 96/8/11 99/7/27 100/8/27
f 95/7/8 96/8/8 99/7/28
f 100/8/28 99/7/28 96/8/8
f 101/7/29 100/8/27 99/7/27
f 100/8/27 101/7/29 102/8/29
f 99/7/28 100/8/28 101/7/30
f 102/8/30 101/7/30 100/8/28

