# Created by Kenney (www.kenney.nl)

mtllib water-rocks.mtl

g water-rocks

v 0.5 0.1 0.2886751 1 1 1
v 1.277783E-13 0.1 0.5773503 1 1 1
v 0.5 0.1 -0.2886751 1 1 1
v -1.270564E-13 0.1 -0.5773503 1 1 1
v -0.5 0.1 0.2886751 1 1 1
v -0.5 0.1 -0.2886751 1 1 1
v 0.5 0 0.2886751 1 1 1
v 0.5 0 -0.2886751 1 1 1
v 1.277783E-13 0 0.5773503 1 1 1
v -1.270564E-13 0 -0.5773503 1 1 1
v -0.5 0 0.2886751 1 1 1
v -0.5 0 -0.2886751 1 1 1
v 0.04369653 0.187 0.3784257 1 1 1
v 0.08679341 0.187 0.4033078 1 1 1
v 0.01857528 0.187 0.421937 1 1 1
v 0.06167216 0.187 0.446819 1 1 1
v -0.009332143 0.1 0.4295581 1 1 1
v 0.06902583 0.1 0.4747981 1 1 1
v 0.1147008 0.1 0.3956867 1 1 1
v 0.03634286 0.1 0.3504467 1 1 1
v 0.1421151 0.2593293 0.225797 1 1 1
v 0.1362925 0.1944817 0.2731579 1 1 1
v 0.07852973 0.2593293 0.2545199 1 1 1
v 0.1290569 0.2380865 0.08559428 1 1 1
v 0.1646499 0.2593293 0.1594543 1 1 1
v 0.04729569 0.2593293 0.09169974 1 1 1
v -0.06002621 0.125087 0.1731098 1 1 1
v -0.0006800964 0.2593293 0.1474851 1 1 1
v -0.006391905 0.2593293 0.1888414 1 1 1
v 0.172534 0.2593293 0.1731098 1 1 1
v 0.0315276 0.2593293 0.2545199 1 1 1
v 0.0315276 0.2593293 0.09169974 1 1 1
v 0.005088888 0.1 0.04590656 1 1 1
v -0.06835195 0.1 0.1731098 1 1 1
v 0.005088888 0.1 0.3003131 1 1 1
v 0.1519706 0.1 0.04590656 1 1 1
v 0.2254114 0.1 0.1731098 1 1 1
v 0.1519706 0.1 0.3003131 1 1 1
v -0.3237618 0.219497 0.2588353 1 1 1
v -0.3519666 0.1708612 0.2808643 1 1 1
v -0.3727157 0.219497 0.2403467 1 1 1
v -0.2563333 0.2035648 0.1775564 1 1 1
v -0.2766273 0.219497 0.2356026 1 1 1
v -0.3029316 0.219497 0.1374339 1 1 1
v -0.4030218 0.1188152 0.1236921 1 1 1
v -0.3579592 0.219497 0.1415755 1 1 1
v -0.3829209 0.219497 0.1604789 1 1 1
v -0.2796881 0.219497 0.2470258 1 1 1
v -0.3976423 0.219497 0.21542 1 1 1
v -0.3112939 0.219497 0.1290716 1 1 1
v -0.3010296 0.1 0.09076485 1 1 1
v -0.4074372 0.1 0.1192767 1 1 1
v -0.4359491 0.1 0.2256843 1 1 1
v -0.2231338 0.1 0.1686606 1 1 1
v -0.2516457 0.1 0.2750682 1 1 1
v -0.3580533 0.1 0.3035801 1 1 1
v -0.3170656 0.1435 -0.1985193 1 1 1
v -0.3605769 0.1435 -0.1733981 1 1 1
v -0.3419476 0.1435 -0.2416162 1 1 1
v -0.3854589 0.1435 -0.216495 1 1 1
v -0.413438 0.1 -0.2238486 1 1 1
v -0.368198 0.1 -0.1454906 1 1 1
v -0.2890866 0.1 -0.1911657 1 1 1
v -0.3343266 0.1 -0.2695237 1 1 1
v 0.3758962 0.1435 0.2001749 1 1 1
v 0.3323849 0.1435 0.2252962 1 1 1
v 0.3510142 0.1435 0.157078 1 1 1
v 0.3075029 0.1435 0.1821993 1 1 1
v 0.2795238 0.1 0.1748456 1 1 1
v 0.3247639 0.1 0.2532036 1 1 1
v 0.4038753 0.1 0.2075286 1 1 1
v 0.3586353 0.1 0.1291706 1 1 1
v -0.08063513 0.1435 -0.09679829 1 1 1
v -0.0325668 0.1435 -0.1096781 1 1 1
v -0.06763142 0.1435 -0.04826776 1 1 1
v -0.01956309 0.1435 -0.06114763 1 1 1
v -0.08197604 0.1 -0.02314533 1 1 1
v 0.005420934 0.1 -0.04656327 1 1 1
v -0.01822218 0.1 -0.1348006 1 1 1
v -0.1056191 0.1 -0.1113826 1 1 1
v 0.08286112 0.2290582 -0.2779246 1 1 1
v 0.08286112 0.2290582 -0.2393516 1 1 1
v 0.01830176 0.2290582 -0.3632898 1 1 1
v 0.06285829 0.2290582 -0.2393516 1 1 1
v -0.04107711 0.2290582 -0.2693775 1 1 1
v -0.003027506 0.2290582 -0.3632898 1 1 1
v -0.04107711 0.2290582 -0.2852321 1 1 1
v 0.152584 0.1 -0.3013207 1 1 1
v 0.152584 0.1 -0.1696287 1 1 1
v 0.05298897 0.1 -0.4330127 1 1 1
v 0.05298897 0.1 -0.1696287 1 1 1
v -0.04660605 0.1 -0.4330127 1 1 1
v -0.1108 0.1 -0.3013207 1 1 1
v -0.1108 0.1 -0.2169457 1 1 1
v -0.1276984 0.1435 0.3292835 1 1 1
v -0.07793441 0.1435 0.3292835 1 1 1
v -0.1276984 0.1435 0.379526 1 1 1
v -0.07793441 0.1435 0.379526 1 1 1
v -0.1480564 0.1 0.4000797 1 1 1
v -0.0575764 0.1 0.4000797 1 1 1
v -0.05757641 0.1 0.3087297 1 1 1
v -0.1480564 0.1 0.3087297 1 1 1
v 0.3118954 0.186469 -0.1911483 1 1 1
v 0.3052065 0.186469 -0.2161116 1 1 1
v 0.3684794 0.186469 -0.1470976 1 1 1
v 0.3181517 0.186469 -0.2195803 1 1 1
v 0.3906224 0.186469 -0.2181717 1 1 1
v 0.382283 0.186469 -0.1507963 1 1 1
v 0.3933717 0.186469 -0.2079111 1 1 1
v 0.2708299 0.1 -0.1639165 1 1 1
v 0.2479933 0.1 -0.2491436 1 1 1
v 0.3581214 0.1 -0.09595996 1 1 1
v 0.3124483 0.1 -0.2664143 1 1 1
v 0.4225763 0.1 -0.1132306 1 1 1
v 0.4412842 0.1 -0.2095896 1 1 1
v 0.4266528 0.1 -0.2641945 1 1 1

vn 0 1 0
vn 0 -1 0
vn 0.5 0 0.8660254
vn -1 0 0
vn -0.5 0 0.8660254
vn 0.5 0 -0.8660254
vn 1 0 0
vn -0.5 0 -0.8660254
vn -0.9177497 0.3155207 0.2412098
vn 0.2499808 0.3155207 0.9153996
vn 0.9177497 0.3155207 -0.2412098
vn -0.2499808 0.3155207 -0.9153996
vn 0.3485266 0.5322019 0.7715506
vn 0.2089977 0.9084492 -0.3619945
vn -0.9159687 0.3807853 -0.1265063
vn -0.8323299 0.2762295 -0.4805458
vn -0.8323299 0.2762295 0.4805459
vn 0 0.2762295 -0.9610917
vn 0.8323299 0.2762295 -0.4805458
vn 0.8323299 0.2762294 0.4805458
vn 0 0.2762295 0.9610917
vn -0.2991231 0.5322019 0.7920142
vn 0.4037524 0.9084492 -0.1081852
vn -0.5582343 0.3807853 -0.7371411
vn -0.248749 0.2762295 -0.9283433
vn -0.9283434 0.2762295 -0.2487488
vn 0.6795945 0.2762295 -0.6795945
vn 0.9283433 0.2762295 0.2487489
vn 0.248749 0.2762294 0.9283433
vn -0.6795945 0.2762295 0.6795945
vn -0.8032726 0.5537454 -0.2193608
vn -0.2116642 0.5537454 0.8053349
vn 0.8032726 0.5537454 0.2193608
vn 0.2116642 0.5537454 -0.8053349
vn -0.4197886 0.5537454 0.7191269
vn 0.723111 0.5537454 0.412888
vn 0.4197886 0.5537454 -0.7191269
vn -0.723111 0.5537454 -0.412888
vn 0.8798157 0.475315 0
vn 0.7017342 0.475315 -0.5307022
vn 0 0.475315 0.8798157
vn 0 0.475315 -0.8798157
vn -0.7908595 0.475315 -0.3855085
vn -0.8798157 0.475315 0
vn -0.2441847 0.475315 0.8452511
vn -0.5916083 0.5537454 0.585974
vn 0.5916085 0.5537455 0.5859739
vn 0.5916083 0.5537454 -0.585974
vn -0.5916085 0.5537455 -0.5859739
vn 0 0.9999999 0
vn -0.8498367 0.475315 0.2277132
vn -0.5404673 0.475315 0.6942412
vn -0.2277132 0.475315 -0.8498367
vn 0.2277132 0.475315 0.8498367
vn 0.8636886 0.4753149 0.1676831
vn 0.8498367 0.475315 -0.2277132
vn 0.01709715 0.475315 -0.8796495

vt 0.15625 0.125
vt 0.71875 0.197717
vt 0.71875 0.1491441
vt 0.71875 0.1172311
vt 0.71875 0.1344445
vt 0.71875 0.1228699
vt 0.71875 0.1528649
vt 0.71875 0.1595241
vt 0.71875 0.08726419
vt 0.71875 0.1050711
vt 0.71875 0.0930974
vt 0.71875 0.1241267
vt 0.71875 0.1310155
vt 0.71875 0.1747012
vt 0.71875 0.08688781
vt 0.71875 0.07615784
vt 0.71875 0.06778067
vt 0.71875 0.1437604
vt 0.71875 0.0989773
vt 0.71875 0.1515917
vt 0.71875 0.1729051
vt 0.71875 0.2197066
vt 0.71875 0.07651274
vt 0.71875 0.08535701
vt 0.71875 0.1589193

usemtl colormap

f 3/1/1 2/1/1 1/1/1
f 2/1/1 3/1/1 4/1/1
f 2/1/1 4/1/1 5/1/1
f 5/1/1 4/1/1 6/1/1
f 9/1/2 8/1/2 7/1/2
f 8/1/2 9/1/2 10/1/2
f 10/1/2 9/1/2 11/1/2
f 10/1/2 11/1/2 12/1/2
f 1/1/3 9/1/3 7/1/3
f 9/1/3 1/1/3 2/1/3
f 11/1/4 6/1/4 12/1/4
f 6/1/4 11/1/4 5/1/4
f 2/1/5 11/1/5 9/1/5
f 11/1/5 2/1/5 5/1/5
f 4/1/6 8/1/6 10/1/6
f 8/1/6 4/1/6 3/1/6
f 1/1/7 8/1/7 3/1/7
f 8/1/7 1/1/7 7/1/7
f 6/1/8 10/1/8 12/1/8
f 10/1/8 6/1/8 4/1/8
f 15/2/1 14/2/1 13/2/1
f 14/2/1 15/2/1 16/2/1
f 18/3/10 15/2/9 17/3/9
f 15/2/9 18/3/10 16/2/10
f 14/2/11 18/3/10 19/3/11
f 18/3/10 14/2/11 16/2/10
f 13/2/12 19/3/11 20/3/12
f 19/3/11 13/2/12 14/2/11
f 15/2/9 20/3/12 17/3/9
f 20/3/12 15/2/9 13/2/12
f 23/4/13 22/5/13 21/4/13
f 26/4/14 25/4/14 24/6/14
f 29/4/15 28/4/15 27/7/15
f 25/4/1 21/4/1 30/4/1
f 21/4/1 25/4/1 26/4/1
f 21/4/1 26/4/1 23/4/1
f 23/4/1 26/4/1 31/4/1
f 31/4/1 26/4/1 32/4/1
f 31/4/1 32/4/1 28/4/1
f 31/4/1 28/4/1 29/4/1
f 34/8/16 32/4/16 33/8/16
f 32/4/16 34/8/16 28/4/16
f 28/4/16 34/8/16 27/7/16
f 35/8/17 27/7/17 34/8/17
f 27/7/17 35/8/17 29/4/17
f 29/4/17 35/8/17 31/4/17
f 32/4/18 36/8/18 33/8/18
f 36/8/18 32/4/18 24/6/18
f 24/6/18 32/4/18 26/4/18
f 24/6/19 37/8/19 36/8/19
f 37/8/19 24/6/19 25/4/19
f 37/8/19 25/4/19 30/4/19
f 30/4/20 38/8/20 37/8/20
f 38/8/20 30/4/20 21/4/20
f 38/8/20 21/4/20 22/5/20
f 22/5/21 35/8/21 38/8/21
f 35/8/21 22/5/21 31/4/21
f 31/4/21 22/5/21 23/4/21
f 41/9/22 40/10/22 39/9/22
f 44/9/23 43/9/23 42/11/23
f 47/9/24 46/9/24 45/12/24
f 43/9/1 39/9/1 48/9/1
f 39/9/1 43/9/1 44/9/1
f 39/9/1 44/9/1 41/9/1
f 41/9/1 44/9/1 49/9/1
f 49/9/1 44/9/1 50/9/1
f 49/9/1 50/9/1 46/9/1
f 49/9/1 46/9/1 47/9/1
f 52/13/25 50/9/25 51/13/25
f 50/9/25 52/13/25 46/9/25
f 46/9/25 52/13/25 45/12/25
f 53/13/26 45/12/26 52/13/26
f 45/12/26 53/13/26 47/9/26
f 47/9/26 53/13/26 49/9/26
f 50/9/27 54/13/27 51/13/27
f 54/13/27 50/9/27 42/11/27
f 42/11/27 50/9/27 44/9/27
f 42/11/28 55/13/28 54/13/28
f 55/13/28 42/11/28 43/9/28
f 55/13/28 43/9/28 48/9/28
f 48/9/29 56/13/29 55/13/29
f 56/13/29 48/9/29 39/9/29
f 56/13/29 39/9/29 40/10/29
f 40/10/30 53/13/30 56/13/30
f 53/13/30 40/10/30 49/9/30
f 49/9/30 40/10/30 41/9/30
f 59/14/1 58/14/1 57/14/1
f 58/14/1 59/14/1 60/14/1
f 62/15/32 60/14/31 61/15/31
f 60/14/31 62/15/32 58/14/32
f 57/14/33 62/15/32 63/15/33
f 62/15/32 57/14/33 58/14/32
f 59/14/34 63/15/33 64/15/34
f 63/15/33 59/14/34 57/14/33
f 60/14/31 64/15/34 61/15/31
f 64/15/34 60/14/31 59/14/34
f 67/16/1 66/16/1 65/16/1
f 66/16/1 67/16/1 68/16/1
f 70/17/32 68/16/31 69/17/31
f 68/16/31 70/17/32 66/16/32
f 65/16/33 70/17/32 71/17/33
f 70/17/32 65/16/33 66/16/32
f 67/16/34 71/17/33 72/17/34
f 71/17/33 67/16/34 65/16/33
f 68/16/31 72/17/34 69/17/31
f 72/17/34 68/16/31 67/16/34
f 75/18/1 74/18/1 73/18/1
f 74/18/1 75/18/1 76/18/1
f 78/19/36 75/18/35 77/19/35
f 75/18/35 78/19/36 76/18/36
f 74/18/37 78/19/36 79/19/37
f 78/19/36 74/18/37 76/18/36
f 73/18/38 79/19/37 80/19/38
f 79/19/37 73/18/38 74/18/37
f 75/18/35 80/19/38 77/19/35
f 80/19/38 75/18/35 73/18/38
f 83/20/1 82/20/1 81/20/1
f 82/20/1 83/20/1 84/20/1
f 84/20/1 83/20/1 85/20/1
f 85/20/1 83/20/1 86/20/1
f 85/20/1 86/20/1 87/20/1
f 81/20/39 89/21/39 88/21/39
f 89/21/39 81/20/39 82/20/39
f 83/20/40 88/21/40 90/21/40
f 88/21/40 83/20/40 81/20/40
f 82/20/41 91/21/41 89/21/41
f 91/21/41 82/20/41 84/20/41
f 86/20/42 90/21/42 92/21/42
f 90/21/42 86/20/42 83/20/42
f 93/21/43 86/20/43 92/21/43
f 86/20/43 93/21/43 87/20/43
f 94/21/44 87/20/44 93/21/44
f 87/20/44 94/21/44 85/20/44
f 84/20/45 94/21/45 91/21/45
f 94/21/45 84/20/45 85/20/45
f 97/22/1 96/22/1 95/22/1
f 96/22/1 97/22/1 98/22/1
f 100/23/47 97/22/46 99/23/46
f 97/22/46 100/23/47 98/22/47
f 96/22/48 100/23/47 101/23/48
f 100/23/47 96/22/48 98/22/47
f 95/22/49 101/23/48 102/23/49
f 101/23/48 95/22/49 96/22/48
f 97/22/46 102/23/49 99/23/46
f 102/23/49 97/22/46 95/22/49
f 105/24/50 104/24/50 103/24/50
f 104/24/50 105/24/50 106/24/50
f 106/24/50 105/24/50 107/24/50
f 107/24/50 105/24/50 108/24/50
f 107/24/50 108/24/50 109/24/50
f 103/24/51 111/25/51 110/25/51
f 111/25/51 103/24/51 104/24/51
f 105/24/52 110/25/52 112/25/52
f 110/25/52 105/24/52 103/24/52
f 104/24/53 113/25/53 111/25/53
f 113/25/53 104/24/53 106/24/53
f 108/24/54 112/25/54 114/25/54
f 112/25/54 108/24/54 105/24/54
f 115/25/55 108/24/55 114/25/55
f 108/24/55 115/25/55 109/24/55
f 116/25/56 109/24/56 115/25/56
f 109/24/56 116/25/56 107/24/56
f 106/24/57 116/25/57 113/25/57
f 116/25/57 106/24/57 107/24/57

g water-rocks




usemtl colormap

f 3/1/1 2/1/1 1/1/1
f 2/1/1 3/1/1 4/1/1
f 2/1/1 4/1/1 5/1/1
f 5/1/1 4/1/1 6/1/1
f 9/1/2 8/1/2 7/1/2
f 8/1/2 9/1/2 10/1/2
f 10/1/2 9/1/2 11/1/2
f 10/1/2 11/1/2 12/1/2
f 1/1/3 9/1/3 7/1/3
f 9/1/3 1/1/3 2/1/3
f 11/1/4 6/1/4 12/1/4
f 6/1/4 11/1/4 5/1/4
f 2/1/5 11/1/5 9/1/5
f 11/1/5 2/1/5 5/1/5
f 4/1/6 8/1/6 10/1/6
f 8/1/6 4/1/6 3/1/6
f 1/1/7 8/1/7 3/1/7
f 8/1/7 1/1/7 7/1/7
f 6/1/8 10/1/8 12/1/8
f 10/1/8 6/1/8 4/1/8
f 15/2/1 14/2/1 13/2/1
f 14/2/1 15/2/1 16/2/1
f 18/3/10 15/2/9 17/3/9
f 15/2/9 18/3/10 16/2/10
f 14/2/11 18/3/10 19/3/11
f 18/3/10 14/2/11 16/2/10
f 13/2/12 19/3/11 20/3/12
f 19/3/11 13/2/12 14/2/11
f 15/2/9 20/3/12 17/3/9
f 20/3/12 15/2/9 13/2/12
f 23/4/13 22/5/13 21/4/13
f 26/4/14 25/4/14 24/6/14
f 29/4/15 28/4/15 27/7/15
f 25/4/1 21/4/1 30/4/1
f 21/4/1 25/4/1 26/4/1
f 21/4/1 26/4/1 23/4/1
f 23/4/1 26/4/1 31/4/1
f 31/4/1 26/4/1 32/4/1
f 31/4/1 32/4/1 28/4/1
f 31/4/1 28/4/1 29/4/1
f 34/8/16 32/4/16 33/8/16
f 32/4/16 34/8/16 28/4/16
f 28/4/16 34/8/16 27/7/16
f 35/8/17 27/7/17 34/8/17
f 27/7/17 35/8/17 29/4/17
f 29/4/17 35/8/17 31/4/17
f 32/4/18 36/8/18 33/8/18
f 36/8/18 32/4/18 24/6/18
f 24/6/18 32/4/18 26/4/18
f 24/6/19 37/8/19 36/8/19
f 37/8/19 24/6/19 25/4/19
f 37/8/19 25/4/19 30/4/19
f 30/4/20 38/8/20 37/8/20
f 38/8/20 30/4/20 21/4/20
f 38/8/20 21/4/20 22/5/20
f 22/5/21 35/8/21 38/8/21
f 35/8/21 22/5/21 31/4/21
f 31/4/21 22/5/21 23/4/21
f 41/9/22 40/10/22 39/9/22
f 44/9/23 43/9/23 42/11/23
f 47/9/24 46/9/24 45/12/24
f 43/9/1 39/9/1 48/9/1
f 39/9/1 43/9/1 44/9/1
f 39/9/1 44/9/1 41/9/1
f 41/9/1 44/9/1 49/9/1
f 49/9/1 44/9/1 50/9/1
f 49/9/1 50/9/1 46/9/1
f 49/9/1 46/9/1 47/9/1
f 52/13/25 50/9/25 51/13/25
f 50/9/25 52/13/25 46/9/25
f 46/9/25 52/13/25 45/12/25
f 53/13/26 45/12/26 52/13/26
f 45/12/26 53/13/26 47/9/26
f 47/9/26 53/13/26 49/9/26
f 50/9/27 54/13/27 51/13/27
f 54/13/27 50/9/27 42/11/27
f 42/11/27 50/9/27 44/9/27
f 42/11/28 55/13/28 54/13/28
f 55/13/28 42/11/28 43/9/28
f 55/13/28 43/9/28 48/9/28
f 48/9/29 56/13/29 55/13/29
f 56/13/29 48/9/29 39/9/29
f 56/13/29 39/9/29 40/10/29
f 40/10/30 53/13/30 56/13/30
f 53/13/30 40/10/30 49/9/30
f 49/9/30 40/10/30 41/9/30
f 59/14/1 58/14/1 57/14/1
f 58/14/1 59/14/1 60/14/1
f 62/15/32 60/14/31 61/15/31
f 60/14/31 62/15/32 58/14/32
f 57/14/33 62/15/32 63/15/33
f 62/15/32 57/14/33 58/14/32
f 59/14/34 63/15/33 64/15/34
f 63/15/33 59/14/34 57/14/33
f 60/14/31 64/15/34 61/15/31
f 64/15/34 60/14/31 59/14/34
f 67/16/1 66/16/1 65/16/1
f 66/16/1 67/16/1 68/16/1
f 70/17/32 68/16/31 69/17/31
f 68/16/31 70/17/32 66/16/32
f 65/16/33 70/17/32 71/17/33
f 70/17/32 65/16/33 66/16/32
f 67/16/34 71/17/33 72/17/34
f 71/17/33 67/16/34 65/16/33
f 68/16/31 72/17/34 69/17/31
f 72/17/34 68/16/31 67/16/34
f 75/18/1 74/18/1 73/18/1
f 74/18/1 75/18/1 76/18/1
f 78/19/36 75/18/35 77/19/35
f 75/18/35 78/19/36 76/18/36
f 74/18/37 78/19/36 79/19/37
f 78/19/36 74/18/37 76/18/36
f 73/18/38 79/19/37 80/19/38
f 79/19/37 73/18/38 74/18/37
f 75/18/35 80/19/38 77/19/35
f 80/19/38 75/18/35 73/18/38
f 83/20/1 82/20/1 81/20/1
f 82/20/1 83/20/1 84/20/1
f 84/20/1 83/20/1 85/20/1
f 85/20/1 83/20/1 86/20/1
f 85/20/1 86/20/1 87/20/1
f 81/20/39 89/21/39 88/21/39
f 89/21/39 81/20/39 82/20/39
f 83/20/40 88/21/40 90/21/40
f 88/21/40 83/20/40 81/20/40
f 82/20/41 91/21/41 89/21/41
f 91/21/41 82/20/41 84/20/41
f 86/20/42 90/21/42 92/21/42
f 90/21/42 86/20/42 83/20/42
f 93/21/43 86/20/43 92/21/43
f 86/20/43 93/21/43 87/20/43
f 94/21/44 87/20/44 93/21/44
f 87/20/44 94/21/44 85/20/44
f 84/20/45 94/21/45 91/21/45
f 94/21/45 84/20/45 85/20/45
f 97/22/1 96/22/1 95/22/1
f 96/22/1 97/22/1 98/22/1
f 100/23/47 97/22/46 99/23/46
f 97/22/46 100/23/47 98/22/47
f 96/22/48 100/23/47 101/23/48
f 100/23/47 96/22/48 98/22/47
f 95/22/49 101/23/48 102/23/49
f 101/23/48 95/22/49 96/22/48
f 97/22/46 102/23/49 99/23/46
f 102/23/49 97/22/46 95/22/49
f 105/24/50 104/24/50 103/24/50
f 104/24/50 105/24/50 106/24/50
f 106/24/50 105/24/50 107/24/50
f 107/24/50 105/24/50 108/24/50
f 107/24/50 108/24/50 109/24/50
f 103/24/51 111/25/51 110/25/51
f 111/25/51 103/24/51 104/24/51
f 105/24/52 110/25/52 112/25/52
f 110/25/52 105/24/52 103/24/52
f 104/24/53 113/25/53 111/25/53
f 113/25/53 104/24/53 106/24/53
f 108/24/54 112/25/54 114/25/54
f 112/25/54 108/24/54 105/24/54
f 115/25/55 108/24/55 114/25/55
f 108/24/55 115/25/55 109/24/55
f 116/25/56 109/24/56 115/25/56
f 109/24/56 116/25/56 107/24/56
f 106/24/57 116/25/57 113/25/57
f 116/25/57 106/24/57 107/24/57

