# Created by Kenney (www.kenney.nl)

mtllib water.mtl

g water

v 0.5 0.1 0.2886751 1 1 1
v 1.277783E-13 0.1 0.5773503 1 1 1
v 0.5 0.1 -0.2886751 1 1 1
v -1.270564E-13 0.1 -0.5773503 1 1 1
v -0.5 0.1 0.2886751 1 1 1
v -0.5 0.1 -0.2886751 1 1 1
v -0.5 0 -0.2886751 1 1 1
v -0.5 0 0.2886751 1 1 1
v 0.5 0 0.2886751 1 1 1
v 1.277783E-13 0 0.5773503 1 1 1
v 0.5 0 -0.2886751 1 1 1
v -1.270564E-13 0 -0.5773503 1 1 1

vn 0 1 0
vn -1 0 0
vn 0.5 0 0.8660254
vn -0.5 0 0.8660254
vn 1 0 0
vn -0.5 0 -0.8660254
vn 0.5 0 -0.8660254
vn 0 -1 0

vt 0.15625 0.125

usemtl colormap

f 3/1/1 2/1/1 1/1/1
f 2/1/1 3/1/1 4/1/1
f 2/1/1 4/1/1 5/1/1
f 5/1/1 4/1/1 6/1/1
f 8/1/2 6/1/2 7/1/2
f 6/1/2 8/1/2 5/1/2
f 1/1/3 10/1/3 9/1/3
f 10/1/3 1/1/3 2/1/3
f 2/1/4 8/1/4 10/1/4
f 8/1/4 2/1/4 5/1/4
f 1/1/5 11/1/5 3/1/5
f 11/1/5 1/1/5 9/1/5
f 6/1/6 12/1/6 7/1/6
f 12/1/6 6/1/6 4/1/6
f 4/1/7 11/1/7 12/1/7
f 11/1/7 4/1/7 3/1/7
f 10/1/8 11/1/8 9/1/8
f 11/1/8 10/1/8 12/1/8
f 12/1/8 10/1/8 8/1/8
f 12/1/8 8/1/8 7/1/8

g water




usemtl colormap

f 3/1/1 2/1/1 1/1/1
f 2/1/1 3/1/1 4/1/1
f 2/1/1 4/1/1 5/1/1
f 5/1/1 4/1/1 6/1/1
f 8/1/2 6/1/2 7/1/2
f 6/1/2 8/1/2 5/1/2
f 1/1/3 10/1/3 9/1/3
f 10/1/3 1/1/3 2/1/3
f 2/1/4 8/1/4 10/1/4
f 8/1/4 2/1/4 5/1/4
f 1/1/5 11/1/5 3/1/5
f 11/1/5 1/1/5 9/1/5
f 6/1/6 12/1/6 7/1/6
f 12/1/6 6/1/6 4/1/6
f 4/1/7 11/1/7 12/1/7
f 11/1/7 4/1/7 3/1/7
f 10/1/8 11/1/8 9/1/8
f 11/1/8 10/1/8 12/1/8
f 12/1/8 10/1/8 8/1/8
f 12/1/8 8/1/8 7/1/8

